<svg xmlns="http://www.w3.org/2000/svg" width="640" height="178.721" viewBox="0 0 640 178.721">
  <g id="Figma-light" transform="translate(-192 -231)">
    <path id="Path_66483" data-name="Path 66483" d="M192,271.84A40.84,40.84,0,0,1,232.84,231h97.04a40.841,40.841,0,0,1,40.841,40.84v97.04a40.841,40.841,0,0,1-40.841,40.841H232.84A40.841,40.841,0,0,1,192,368.88Z"/>
    <path id="Path_66484" data-name="Path 66484" d="M239.473,362.248A20.944,20.944,0,0,1,260.417,341.3H281.36v20.944a20.943,20.943,0,1,1-41.887,0Z" fill="#24cb71"/>
    <path id="Path_66485" data-name="Path 66485" d="M281.36,257.529v41.887H302.3a20.943,20.943,0,1,0,0-41.887Z" fill="#ff7237"/>
    <circle id="Ellipse_267" data-name="Ellipse 267" cx="20.944" cy="20.944" r="20.944" transform="translate(281.186 299.416)" fill="#00b6ff"/>
    <path id="Path_66486" data-name="Path 66486" d="M239.473,278.473a20.944,20.944,0,0,0,20.944,20.944H281.36V257.529H260.417A20.944,20.944,0,0,0,239.473,278.473Z" fill="#ff3737"/>
    <path id="Path_66487" data-name="Path 66487" d="M239.473,320.36A20.944,20.944,0,0,0,260.417,341.3H281.36V299.417H260.417A20.943,20.943,0,0,0,239.473,320.36Z" fill="#874fff"/>
    <path id="Path_66488" data-name="Path 66488" d="M792.387,381.985a33.508,33.508,0,0,1-14.833-3.194,27.574,27.574,0,0,1-10.283-8.573,22.453,22.453,0,0,1-3.708-12.776q0-9.412,6.068-15.3t17.362-8.068l19.722-4.035q5.9-1.176,8.091-3.7t2.192-7.4l2.023,19.667L790.7,344.667a17.968,17.968,0,0,0-8.934,4.2q-3.035,3.027-3.034,8.4a10.83,10.83,0,0,0,4.214,8.91q4.382,3.361,11.8,3.362a23.317,23.317,0,0,0,11.125-2.69,19.89,19.89,0,0,0,8.092-7.4,20.566,20.566,0,0,0,3.034-11.1V318.948a11.185,11.185,0,0,0-4.383-9.414Q808.4,306,800.984,306q-9.44,0-14.5,4.707t-5.9,13.28l-14.834-2.017a30.843,30.843,0,0,1,5.394-15.3,29.707,29.707,0,0,1,12.137-10.086,42.42,42.42,0,0,1,18.036-3.53q14.834,0,22.756,7.564t7.923,19.5v59.339H817.335V368.537q-2.191,5.547-8.934,9.582Q801.827,381.985,792.387,381.985Z" fill="#fff"/>
    <path id="Path_66489" data-name="Path 66489" d="M644.043,379.463V295.582h14.665V305q1.684-4.875,7.417-8.4a24.863,24.863,0,0,1,13.316-3.53,29.516,29.516,0,0,1,13.654,3.193,15.214,15.214,0,0,1,8.091,9.582,17.5,17.5,0,0,1,8.091-9.245,26.323,26.323,0,0,1,13.485-3.53q12.811,0,19.554,7.4t6.742,21.517v57.489h-15V323.991q0-8.406-3.708-12.608-3.54-4.369-10.451-4.37-7.585,0-11.8,5.379-4.045,5.211-4.045,15.3v51.774h-15V323.991q0-8.406-3.708-12.608-3.54-4.369-10.451-4.37-7.586,0-11.8,5.379-4.046,5.211-4.045,15.3v51.774Z" fill="#fff"/>
    <path id="Path_66490" data-name="Path 66490" d="M586.679,409.721q-15.676,0-25.454-7.228t-12.473-20.172l14.665-3.194a21.108,21.108,0,0,0,7.922,12.776q6.069,4.707,15.34,4.707,11.124,0,16.687-5.716,5.731-5.547,5.732-16.642V360.973q-2.529,6.219-9.44,10.085a29.942,29.942,0,0,1-15.171,3.867,37.345,37.345,0,0,1-19.553-5.043,35.653,35.653,0,0,1-13.148-14.457,51.019,51.019,0,0,1,0-42.865,34.875,34.875,0,0,1,12.979-14.288,36.736,36.736,0,0,1,19.722-5.211,30.876,30.876,0,0,1,15.34,3.866q7.078,3.7,9.608,9.245v-10.59H624.1v78.67q0,11.1-4.383,19a28.846,28.846,0,0,1-12.811,12.271Q598.647,409.721,586.679,409.721Zm-.338-48.076q10.789,0,17.194-7.565,6.575-7.564,6.574-20,0-12.607-6.574-20.172t-17.194-7.565q-10.788,0-17.362,7.565-6.405,7.564-6.405,20.172,0,12.439,6.574,20T586.341,361.645Z" fill="#fff"/>
    <path id="Path_66491" data-name="Path 66491" d="M516.79,379.365V295.582h15v83.881Zm-.168-94.541v-23.87h15.339v23.87Z" fill="#fff"/>
    <path id="Path_66492" data-name="Path 66492" d="M430.627,379.463V260.954h15.845V379.463Zm3.2-50.093V315.081h64.56V329.37Zm0-53.96V260.954h70.8V275.41Z" fill="#fff"/>
  </g>
</svg>
