<svg xmlns="http://www.w3.org/2000/svg" width="300.474" height="124.574" viewBox="0 0 300.474 124.574">
  <g id="fasrly-black" transform="translate(-1208.678 -25.999)">
    <g id="Group_63517" data-name="Group 63517" transform="translate(1440.388 25.999)">
      <path id="Path_66611" data-name="Path 66611" d="M619.317,312.483a11.467,11.467,0,1,0-11.467-11.458,11.467,11.467,0,0,0,11.467,11.458Z" transform="translate(-584.933 -289.549)"/>
      <circle id="Ellipse_267" data-name="Ellipse 267" cx="8.678" cy="8.678" r="8.678" transform="translate(25.703 107.218)"/>
      <g id="Group_63516" data-name="Group 63516" transform="translate(0 27.971)">
        <path id="Path_66612" data-name="Path 66612" d="M612.748,381.859q-.97.517-9.3,4.186c-.683.3-1.229.616-1.867.914-.638-.3-1.178-.61-1.867-.914q-8.329-3.671-9.3-4.186c-3.7-2.249-5.572-6.513-5.729-12.7a15.323,15.323,0,0,1,.073-1.855,16.919,16.919,0,0,1,.2-1.749,23.677,23.677,0,0,1,1.223-5.56,8.45,8.45,0,0,1,1.687-2.882,7.035,7.035,0,0,1,1.363-.947,7.523,7.523,0,0,1,.734-.436,12.087,12.087,0,0,1,1.229-.416,16.8,16.8,0,0,1,1.889-.562c.157-.034.36-.051.526-.079a32.543,32.543,0,0,1,3.373-.472h.214q2-.157,4.349-.163t4.343.163h.225a32.631,32.631,0,0,1,3.374.472c.163.028.365.045.531.079a17.043,17.043,0,0,1,1.883.562c.413.141.88.253,1.234.416a8.192,8.192,0,0,1,.728.436,6.836,6.836,0,0,1,1.367.947A8.489,8.489,0,0,1,616.908,360a23.451,23.451,0,0,1,1.223,5.56v.129l17.252-5.768c-.073-.661-.129-1.33-.242-1.94a30.193,30.193,0,0,0-1.557-5.746.349.349,0,0,0,0-.073,18.37,18.37,0,0,0-2.381-4.551c-.135-.169-.365-.281-.509-.439a15.137,15.137,0,0,0-2.881-2.567,16.105,16.105,0,0,0-1.318-1.172,32.241,32.241,0,0,0-12.04-3.446c-1.335-.174-2.718-.343-4.217-.461-1.245-.107-2.578-.163-3.936-.208-1.184-.045-2.187-.186-3.447-.186-.469,0-.843.034-1.3.039s-.829-.039-1.3-.039c-1.257,0-2.249.141-3.446.186-1.347.045-2.679.1-3.936.208-1.512.118-2.887.281-4.217.461a32.211,32.211,0,0,0-12.035,3.447,14.33,14.33,0,0,0-1.318,1.172,14.976,14.976,0,0,0-2.887,2.567c-.135.163-.371.281-.506.439a18.369,18.369,0,0,0-2.381,4.551v.073a30.59,30.59,0,0,0-1.546,5.74c-.18.964-.264,2.063-.385,3.123-.152,1.406-.281,2.811-.321,4.377,0,.475-.1.843-.1,1.332q0,13.957,4.186,20.179a25.665,25.665,0,0,0,11.686,8.172,60.762,60.762,0,0,1,9.839,4.934v5.538a8.675,8.675,0,1,0,17.349,0l0-5.538a60.328,60.328,0,0,1,9.839-4.934,27.071,27.071,0,0,0,11.7-8.152q4.141-6.148,4.169-19.88l-18.019,6.047a12.143,12.143,0,0,1-5.184,8.687Z" transform="translate(-567.187 -339.132)"/>
      </g>
    </g>
    <path id="Path_66613" data-name="Path 66613" d="M43.717,28.91a12.785,12.785,0,0,1-7.028,9.715,28.511,28.511,0,0,1-13.966,3.092q-11.2,0-16.867-6.409A17.218,17.218,0,0,1,1.685,23.569a17.148,17.148,0,0,1,2.5-9.311l8.1-1.687a18.745,18.745,0,0,0-2.7,9.648,11.1,11.1,0,0,0,3.373,8.715,13.957,13.957,0,0,0,9.783,3.092q9.985,0,12.144-5.128H28.413l4.25-8.141H43.908V28.91Zm-25.5,27.729a4.312,4.312,0,0,1-3.238-1.248,4.5,4.5,0,0,1-1.214-3.272,4.29,4.29,0,0,1,1.214-3.171,4.377,4.377,0,0,1,3.238-1.2A4.076,4.076,0,0,1,22.6,52.13a3.936,3.936,0,0,1-4.385,4.509Zm10.4,0a4.377,4.377,0,0,1-3.261-1.214,4.467,4.467,0,0,1-1.214-3.306A3.908,3.908,0,0,1,28.6,47.745,4.076,4.076,0,0,1,32.99,52.13,3.936,3.936,0,0,1,28.6,56.639Zm12.2-27.729V20.758h4.25a6,6,0,0,0,4.419-1.349A6.466,6.466,0,0,0,50.8,14.82v-24.9l8.433-4.52V14.877a14,14,0,0,1-3.981,10.458,13.269,13.269,0,0,1-9.715,3.576Zm47.835-8.152h6.072V28.91H87.841a14.275,14.275,0,0,1-4.25-.607,15.922,15.922,0,0,1-5.2,10.255,13.884,13.884,0,0,1-9.378,3.373,17.429,17.429,0,0,1-8.3-2.159V32.351A14.073,14.073,0,0,0,67.6,34.319a7.2,7.2,0,0,0,5.768-2.4,9.876,9.876,0,0,0,2.058-6.668V3.407L80.959.517l2.9-1.552v.067l.067-.067V15.9a5.285,5.285,0,0,0,1.079,3.733A4.939,4.939,0,0,0,88.651,20.758Zm2.361,8.152V20.758h7.152a5.06,5.06,0,0,0,3.677-1.124,5.175,5.175,0,0,0,1.124-3.744V6.983l8.5-4.453V15.889a5.285,5.285,0,0,0,1.068,3.744,4.939,4.939,0,0,0,3.655,1.124h4.577a4.939,4.939,0,0,0,3.654-1.124,5.285,5.285,0,0,0,1.079-3.744V5.229L134,.708v15.18a5.175,5.175,0,0,0,1.124,3.744,5.06,5.06,0,0,0,3.677,1.124h4.565a4.939,4.939,0,0,0,3.654-1.124,5.285,5.285,0,0,0,1.079-3.744V3.407l8.5-4.453V14.809a6.466,6.466,0,0,0,1.316,4.588,6,6,0,0,0,4.419,1.349h6.207V28.91h-6.691a12.749,12.749,0,0,1-9.108-3.238,10.986,10.986,0,0,1-8.164,3.238H137.9a11.467,11.467,0,0,1-8.152-2.969,10.621,10.621,0,0,1-7.691,2.969h-6.691a11.467,11.467,0,0,1-8.152-2.969,11.467,11.467,0,0,1-8.175,2.969ZM187.086-7.05a4.377,4.377,0,0,1-3.238-1.214,4.467,4.467,0,0,1-1.214-3.306,4.29,4.29,0,0,1,1.214-3.171,4.377,4.377,0,0,1,3.238-1.214,4.329,4.329,0,0,1,3.2,1.181,4.329,4.329,0,0,1,1.181,3.2,3.936,3.936,0,0,1-1.062,3.357A3.936,3.936,0,0,1,187.086-7.05ZM164.822,28.91V20.758h10.862a12.369,12.369,0,0,1-2.092-7.421A16.476,16.476,0,0,1,177.641,1.6a12.619,12.619,0,0,1,9.513-3.778,11.613,11.613,0,0,1,9.311,3.823,12.434,12.434,0,0,1,2.969,8.636V16.35a12.619,12.619,0,0,1-3.441,9.187,11.99,11.99,0,0,1-8.973,3.373Zm26.11-18.756q0-4.453-3.778-4.453-5.2,0-5.2,7.354,0,7.691,4.993,7.691,3.981.011,3.981-4.318Z" transform="translate(1207 81.427)"/>
  </g>
</svg>
