<svg id="UNDP-black" xmlns="http://www.w3.org/2000/svg" width="300.123" height="609.094" viewBox="0 0 300.123 609.094">
  <path id="Exclusion_2" data-name="Exclusion 2" d="M145.434,299.936H0V154.507H145.434V299.935Zm-82.5-122.563a182.474,182.474,0,0,0-26.808,2.037v95.518a172.455,172.455,0,0,0,22.916,1.126A82.035,82.035,0,0,0,84.2,272.493a44.941,44.941,0,0,0,17.943-10.378,45.229,45.229,0,0,0,10.308-16.282,61.166,61.166,0,0,0,3.631-21.471,54.133,54.133,0,0,0-3.616-20.425,39.525,39.525,0,0,0-10.2-14.589,37,37,0,0,0-7.2-5.212,46.094,46.094,0,0,0-8.9-3.745A79.81,79.81,0,0,0,62.936,177.374ZM299.975,299.788H154.551V154.364H299.975V299.787ZM224.584,177.517a130.224,130.224,0,0,0-24.055,2.027v95.818h12.538v-38.9a43.886,43.886,0,0,0,10.1.855,50.757,50.757,0,0,0,16.941-2.7,31.786,31.786,0,0,0,12.719-7.959,24.832,24.832,0,0,0,5.714-8.994,33.934,33.934,0,0,0,1.925-11.765c0-8.281-3.063-15.49-8.625-20.3a29.1,29.1,0,0,0-11.143-5.988A56.1,56.1,0,0,0,224.584,177.517Zm-162.755,88.5h-.338c-4.889,0-9.508,0-12.671-.6V188.628A71.216,71.216,0,0,1,63.5,187.35,53.378,53.378,0,0,1,81,189.991a32.036,32.036,0,0,1,12.363,7.578,30.657,30.657,0,0,1,7.173,11.728,46.5,46.5,0,0,1,2.305,15.492,53.245,53.245,0,0,1-2.672,17.455,34.282,34.282,0,0,1-7.87,12.947,33.829,33.829,0,0,1-12.852,8.052A52.263,52.263,0,0,1,61.829,266.013Zm161.624-38.207a43.358,43.358,0,0,1-10.386-1V189.062a62.036,62.036,0,0,1,11.807-1.006,35.229,35.229,0,0,1,9.417,1.165,20.4,20.4,0,0,1,7.232,3.538c4.164,3.292,6.276,8.154,6.276,14.452a22.085,22.085,0,0,1-1.659,8.742,17.236,17.236,0,0,1-4.794,6.466,21.453,21.453,0,0,1-7.654,4.011A35.452,35.452,0,0,1,223.453,227.806Zm76.522-82.371H154.551V0H299.975V145.434ZM202.218,39.6h0c4.728,10.4,48.4,80.978,48.839,81.69h12.682V24.18H251.946c0,.66.282,67.635,1.421,80.557l-.446.129C248.5,94.9,205.113,24.886,204.675,24.18H190.834V121.3h11.818c0-.671-.154-69.408-.879-81.554l.443-.137Zm-56.636,105.83H.158V0H145.582V145.434ZM37.037,23.827h0v57.2c0,14.3,3.356,25.1,9.975,32.1A28.345,28.345,0,0,0,58.067,120.3a40.558,40.558,0,0,0,13.844,2.228,42.9,42.9,0,0,0,14.608-2.361,30.5,30.5,0,0,0,11.643-7.43c6.958-7.172,10.486-17.987,10.486-32.146V23.827H95.972V81.455c0,10.307-2.176,18.192-6.466,23.436a19.256,19.256,0,0,1-7.456,5.6,24.79,24.79,0,0,1-9.713,1.816,22.168,22.168,0,0,1-9-1.78,18.949,18.949,0,0,1-7.162-5.538,26.844,26.844,0,0,1-4.731-9.591,51.568,51.568,0,0,1-1.708-13.939V23.827Z" transform="translate(0 309.157)"/>
  <path id="Exclusion_1" data-name="Exclusion 1" d="M299.965,300.034H0V0H299.965V300.033ZM141.859,226.69a13.2,13.2,0,0,1,3.958.633A88.787,88.787,0,0,0,120.4,245.436l4.816,3.957a76.094,76.094,0,0,1,20.546-18.365c.244-.13.5-.268.739-.4a13.159,13.159,0,0,1,4.4-1.78,64.12,64.12,0,0,1,13.153,8.814,133.158,133.158,0,0,1,11.806,11.45,38.7,38.7,0,0,0,4.588-4.154,92.781,92.781,0,0,0-25.3-17.542,14.619,14.619,0,0,1,4.13-.491c.273,0,.563,0,.863.013.22-.015.442-.023.66-.023,3.53,0,6.3,1.983,8.977,3.9.79.566,1.6,1.149,2.427,1.673a48.318,48.318,0,0,0,11.3,6.472,34.484,34.484,0,0,0,12.748,2.592,27.924,27.924,0,0,0,9.821-1.761,32.446,32.446,0,0,0,14.388-10.077,28.408,28.408,0,0,1-16.438,4.829,31.458,31.458,0,0,1-10.8-1.863l-9.305-3.715a46.132,46.132,0,0,0-21.24-5.208,40.294,40.294,0,0,0-10.132,1.255,2.719,2.719,0,0,1-1.882.756,6.94,6.94,0,0,1-2.273-.554,7.411,7.411,0,0,0-2.3-.572,35.084,35.084,0,0,0-7.43-.795c-9.673,0-18.463,3.9-26.964,7.673-1.174.521-2.383,1.058-3.565,1.57a32.407,32.407,0,0,1-11.764,2.159,28.548,28.548,0,0,1-16.061-4.572c3.34,4.174,7.952,7.341,14.1,9.68a26.864,26.864,0,0,0,9.961,1.838,34.924,34.924,0,0,0,19.483-6.233,54.918,54.918,0,0,0,5.221-3.5c3.9-2.835,7.925-5.767,12.781-5.767h0ZM61.6,211.578h0a32.884,32.884,0,0,0,8.675,10.415,35.983,35.983,0,0,0,11.666,6.365,32.7,32.7,0,0,0,10.707,1.681c7.183,0,14.326-1.9,21.235-3.732,1.726-.459,3.356-.891,5-1.3a15.182,15.182,0,0,1,2.438-.352,11.883,11.883,0,0,0,2.833-.481c-5.31-1.1-12.125-2.984-17.734-7.88-1.6-1.5-3.183-3.026-4.714-4.5-5.455-5.26-10.607-10.229-16.6-14.2a55.619,55.619,0,0,1,4.9,8.587,52.87,52.87,0,0,0,5.3,9.128,18.523,18.523,0,0,0,8.6,6.344,11.17,11.17,0,0,0,2.821.876,9.329,9.329,0,0,1,3.06,1.038,6.778,6.778,0,0,1-1.023.075,13.935,13.935,0,0,1-3.111-.467c-.6-.136-1.212-.278-1.832-.368a89.741,89.741,0,0,0-13.756-1.553c-5.182-.319-10.54-.649-15.421-1.94a28.686,28.686,0,0,1-6.972-2.782A23.282,23.282,0,0,1,61.6,211.578ZM215.308,196.5h0c-6.181,4.214-11.327,9.325-16.774,14.737l-.006.006c-1.6,1.588-3.252,3.23-4.927,4.841a27.5,27.5,0,0,1-8.075,4.989,56.794,56.794,0,0,1-9,2.7v.065l2.482.325c3.365.545,6.846,1.39,10.211,2.206,6.042,1.466,12.29,2.981,18.514,2.981a31.283,31.283,0,0,0,11.208-1.946,38.678,38.678,0,0,0,11.583-6.679,29.625,29.625,0,0,0,8.283-10.477,22.745,22.745,0,0,1-5.86,5.089,27.671,27.671,0,0,1-6.813,2.911c-4.788,1.376-10.082,1.79-15.2,2.19-3.2.251-6.514.509-9.661,1A38.59,38.59,0,0,0,197,222.2a27.825,27.825,0,0,1-5.847.826q-.157,0-.315,0a22.929,22.929,0,0,1,3.4-1.211,17.412,17.412,0,0,0,4.634-1.882,18.7,18.7,0,0,0,7.066-6.206,50.307,50.307,0,0,0,4.279-8.048,44.933,44.933,0,0,1,5.086-9.17Zm-170.78-12.95h0a34.856,34.856,0,0,0,7.085,15.414,48.841,48.841,0,0,0,12.95,11.576c5.529,3.867,12.314,4.96,18.876,6.017a77.185,77.185,0,0,1,11.642,2.493,29.233,29.233,0,0,1-7.718-9.727,80.739,80.739,0,0,1-4.4-11.269c-.818-2.45-1.662-4.981-2.641-7.391-2.956-6.656-7.518-12.51-11.162-16.865,2.194,4.378,2.953,9.438,3.688,14.331.9,6,1.833,12.212,5.422,17.209,1.789,2.974,4.692,5.587,7.254,7.893l.069.062-.119.128a28.181,28.181,0,0,1-6.513-4.446c-4.04-3.31-8.863-5.62-13.527-7.854a73.567,73.567,0,0,1-11.995-6.69A26.754,26.754,0,0,1,44.528,183.551ZM150.062,57.726a88.845,88.845,0,0,0-18.973,2.352A82.733,82.733,0,0,0,113.7,66.35,76.594,76.594,0,0,0,87.724,87.313a84.676,84.676,0,0,0-9.285,14.05,72.549,72.549,0,0,0-5.925,15.028,83.749,83.749,0,0,0,1.9,49.562,80.023,80.023,0,0,0,30.439,39.023,69.744,69.744,0,0,0,21.157,10.062,86.176,86.176,0,0,0,24.209,3.431,74.815,74.815,0,0,0,32.744-7.083,68.8,68.8,0,0,0,15.009-8.8,83.948,83.948,0,0,0,13-12.387,85.254,85.254,0,0,0,10.1-14.747,70.7,70.7,0,0,0,6.308-15.881,79.4,79.4,0,0,0-5.285-56.206,77.824,77.824,0,0,0-12.551-18.9,81.121,81.121,0,0,0-37.362-23.517A78.761,78.761,0,0,0,150.062,57.726Zm80.872,114.8a57.681,57.681,0,0,0-4.96,6.531c-.72,1.05-1.462,2.132-2.233,3.18-3.066,4.644-4.811,9.965-6.5,15.111a84.34,84.34,0,0,1-4.291,11.239,30.442,30.442,0,0,1-7.448,9.823,86.237,86.237,0,0,1,11.959-2.811c2.96-.549,6.021-1.117,8.943-1.9a47.3,47.3,0,0,0,18.936-12.142,42.444,42.444,0,0,0,6.832-9.249,29.642,29.642,0,0,0,3.435-10.343c-1.475,3.782-4.588,7.7-8.764,11.018a79.071,79.071,0,0,1-12.53,7.233c-5.7,2.836-11.6,5.769-16.534,10.684-.206.138-.417.295-.621.446a4.525,4.525,0,0,1-2.265,1.118,40.146,40.146,0,0,0,8.167-9.8c2.765-4.7,3.547-10.317,4.3-15.748C228.047,182,228.755,176.914,230.933,172.526ZM37.41,153.176h0c-.577,7.147.093,12.985,1.992,17.351,1.932,5.433,5.508,10.394,10.933,15.167a123.483,123.483,0,0,0,15.657,11.095c2.405,1.524,4.676,2.962,6.845,4.44-.452-1.145-1.01-2.276-1.549-3.37a30.579,30.579,0,0,1-2.132-5.068,116.809,116.809,0,0,1-2.284-16.838c-.738-8.5-1.5-17.287-4.984-24.817.687,4.567-.244,8.862-1.146,13.015a61.883,61.883,0,0,0-1.257,7.137,28.3,28.3,0,0,0,2.6,15.626,8.677,8.677,0,0,0,1.037,1.909,6.94,6.94,0,0,1,1.08,2.122A24.785,24.785,0,0,1,60.309,186c-.356-.542-.724-1.1-1.1-1.641-2.46-4.079-6.026-7.658-9.475-11.118a72.552,72.552,0,0,1-8.143-9.132,21.545,21.545,0,0,1-4.181-10.93Zm200.8-3.474-1.806,4.8c-2.055,6.089-2.544,12.94-3.018,19.565a122.2,122.2,0,0,1-1.456,13.426,36.182,36.182,0,0,1-4.348,12.226v.454c3.849-2.98,7.929-5.59,11.875-8.114l.006,0h0c1.294-.828,2.632-1.684,3.943-2.541a48.211,48.211,0,0,0,15.363-16.459,35.491,35.491,0,0,0,3.709-10.259,33.259,33.259,0,0,0,.2-11.251c-.928,9.373-8.054,16.247-14.945,22.9a81.176,81.176,0,0,0-7.356,9.611c-1.267,1.842-2.577,3.747-3.975,5.576h-.473a30.513,30.513,0,0,0,3.4-6.843,28.261,28.261,0,0,0,1.492-7.664,52.132,52.132,0,0,0-1.4-11.777c-.862-4.349-1.754-8.845-1.217-13.64ZM40.3,120.079h0a34.662,34.662,0,0,0-2.169,7.251l0,.016c-.105.474-.214.965-.324,1.444-1.219,6.513-.512,14.167,2.1,22.751,1.5,5.179,5.166,9.556,8.712,13.789a59.558,59.558,0,0,1,6.833,9.308l.6.48c-.569-3.841-1.05-8.816.276-13.219.541-1.933,1.116-3.881,1.672-5.766l0-.006c1.365-4.629,2.776-9.416,3.794-14.3.148-1.031.319-2.1.483-3.14.722-4.544,1.469-9.243.958-13.444a30.533,30.533,0,0,1-3,7.944c-2.8,4.231-5.9,9.281-7.649,14.649a24.729,24.729,0,0,0-.1,16.532l-.027.03c-.082.091-.174.194-.284.194a.191.191,0,0,1-.088-.022,36.567,36.567,0,0,1-2-7.382c-.314-1.593-.638-3.238-1.087-4.805a63.526,63.526,0,0,0-4.159-10.708,66.12,66.12,0,0,1-4.032-10.233A24.583,24.583,0,0,1,40.3,120.08Zm196.1,3.836h0l-.088,4.114c.92,11.016,3.892,21.166,6.968,30.494,1.856,4.495,1.325,10.352.9,15.058l-.02.224c2.239-3.5,4.915-6.886,7.5-10.163,1.906-2.414,3.876-4.908,5.657-7.427a46.385,46.385,0,0,0,5.288-18.6,39.033,39.033,0,0,0-3.172-19.167c1.606,8.759-1.754,16.26-5,23.514l-.012.027c-.374.835-.761,1.7-1.131,2.545a64.18,64.18,0,0,0-3.513,12.187l0,.01c-.42,1.926-.855,3.917-1.364,5.842l-.489.548-.192-.191c.133-.637.289-1.275.44-1.892a19,19,0,0,0,.789-6.255,21.552,21.552,0,0,0-1.811-9.706,61.191,61.191,0,0,0-4.7-8.507C239.977,132.62,237.429,128.537,236.4,123.915ZM52.044,90.965a.532.532,0,0,0-.315.146c-.032.024-.064.049-.1.069a47.247,47.247,0,0,0-6.771,11.19,31.277,31.277,0,0,0-2.426,12.993c-.438,6.453,1.706,11.938,3.779,17.242,1.664,4.258,3.385,8.66,3.758,13.535,1.094-7.329,5.451-13.421,9.665-19.313a83.986,83.986,0,0,0,6.638-10.3,44.572,44.572,0,0,0,3.68-12.661,16.85,16.85,0,0,1-3.359,4.978c-.518.471-1.066.964-1.55,1.4-6.233,5.615-12.678,11.422-14.008,19.427-.075.416-.136.843-.2,1.257a16.931,16.931,0,0,1-.475,2.459.319.319,0,0,1-.116.026c-.118,0-.165-.1-.206-.189a.314.314,0,0,0-.072-.114l.8-10.751a67.932,67.932,0,0,0-.844-10.421,64.365,64.365,0,0,1-.826-10.9,19.286,19.286,0,0,1,2.987-10.068A.326.326,0,0,0,52.044,90.965ZM229.1,102.6h0a52.808,52.808,0,0,0,3.07,10.361c1.881,4.544,5.012,8.66,8.04,12.64,3.739,4.916,7.606,10,9.161,15.939a12.833,12.833,0,0,1,.314,1.365,8.583,8.583,0,0,0,.447,1.714,63.945,63.945,0,0,1,4.021-14.793,37.357,37.357,0,0,0-3.479-35.858c-.363-.465-.7-.98-1.02-1.479a8.913,8.913,0,0,0-2.809-3.12,16.489,16.489,0,0,1,2.7,6.465,40.282,40.282,0,0,1,.661,7.331,103.614,103.614,0,0,0-.366,28.5.313.313,0,0,1-.325.276,24.168,24.168,0,0,1-.615-2.978,15.06,15.06,0,0,0-1.295-4.694c-1.654-5-5.794-8.61-9.8-12.1C234.515,109.3,231.11,106.336,229.1,102.6ZM69,76.432A19.782,19.782,0,0,0,58.45,83.493c-2.965,3.11-4.7,7.21-5.318,12.536a69.267,69.267,0,0,0,.32,14.335,29.162,29.162,0,0,1-.106,4.246,26.706,26.706,0,0,0-.1,4.019c1.653-3.386,4.465-6.737,8.847-10.545A56.656,56.656,0,0,0,74.01,97.3a28.476,28.476,0,0,0,4.033-6.708,20.337,20.337,0,0,0,1.6-7.577c-1.893,5.264-6.449,8.48-10.856,11.59a58.369,58.369,0,0,0-5.871,4.526,27.721,27.721,0,0,0-6.494,9.593l-.213-.168a38.019,38.019,0,0,1,1.553-4.875c.473-1.28.961-2.6,1.323-3.947a68.224,68.224,0,0,0,1.58-6.7,48.737,48.737,0,0,1,2.467-9.172A16.338,16.338,0,0,1,69,76.432Zm150.038,5.43h0c1.15,6.684,3.155,11.309,6.5,14.994a69.314,69.314,0,0,0,8.432,7.314c4.757,3.7,9.676,7.52,12.513,13.1l.083-.07a48.378,48.378,0,0,1-.392-12.354c.228-4.151.463-8.443-.485-12.711a24.364,24.364,0,0,0-5.748-10.766,19.893,19.893,0,0,0-10.377-6.385,18.268,18.268,0,0,1,6.751,8.8c.793,2.639,1.461,5.373,2.106,8.018,1.249,5.116,2.54,10.405,4.791,15.2l-.207.217a23.657,23.657,0,0,1-1.136-2.146,12.819,12.819,0,0,0-2.783-4.185c-2.536-3.321-5.908-5.614-9.168-7.833C225.446,90.011,221.222,87.138,219.034,81.862ZM90.578,65.561q-.834.325-1.68.649l-.01,0a70.582,70.582,0,0,0-11.175,5.067A24.364,24.364,0,0,0,68.8,80.068c-1.994,2.673-2.861,5.872-3.7,8.965a36.663,36.663,0,0,1-2.191,6.459C64.507,94,66.2,92.618,67.828,91.277a57.113,57.113,0,0,0,8.447-7.972c.758-1.058,1.521-2.149,2.259-3.2l.012-.017C82.078,75.033,85.731,69.811,90.578,65.561Zm117.205-1.133h0l6.641,6.724A83.893,83.893,0,0,0,236.09,94.173l-.947-2.232a48.584,48.584,0,0,0-3.571-10.214,28.858,28.858,0,0,0-6.672-8.863c-3.741-3.36-8.285-5.06-12.679-6.7C210.756,65.613,209.243,65.047,207.783,64.428ZM151.976,214.737v0a89.614,89.614,0,0,0,0-12.552,5.825,5.825,0,0,0,1.9.285,17.74,17.74,0,0,0,2.141-.177,18.159,18.159,0,0,1,2.209-.181l6.11-1.075a7.724,7.724,0,0,1,3.051,1.757c1.112.879,2.161,1.708,3.349,1.708a3.226,3.226,0,0,0,2.156-.964,5.057,5.057,0,0,1,1.761-1.217,3.7,3.7,0,0,0,2.171-1.979,5.35,5.35,0,0,0,2.51-2.349,8.825,8.825,0,0,1,1.309-1.632c.823-2.335,2.725-3.413,4.739-4.553a15.447,15.447,0,0,0,3.418-2.366c.552-.5,1.166-.976,1.759-1.439a12.864,12.864,0,0,0,3.734-3.836l.193.949,8.423,8.038a83.032,83.032,0,0,1-23.207,15.1,77.024,77.024,0,0,1-26.96,6.005l-.758.483Zm-4.037-.078h0a20.45,20.45,0,0,0-4.736-.649,31,31,0,0,1-3.215-.3,77.143,77.143,0,0,1-22.652-6.755,88.794,88.794,0,0,1-19.95-13.205l8.231-8.275.128-.483a61.531,61.531,0,0,0,18.807,12.526,68.142,68.142,0,0,0,21.956,5.07l1.243-.326-.414.606v10.842l.6.95Zm-.107-15.836,0,0-1.118-.758a59.257,59.257,0,0,1-20.766-4.953,70.91,70.91,0,0,1-17.929-11.621,1.931,1.931,0,0,1,.223-.013,2.957,2.957,0,0,1,1.8.848,2.966,2.966,0,0,0,1.8.847,2.114,2.114,0,0,0,.62-.1,8.627,8.627,0,0,0,2.52-.808,7.381,7.381,0,0,1,2.948-.827,4.067,4.067,0,0,1,.647.052c.118,0,.24,0,.363,0a3.071,3.071,0,0,0,2.823-1.094,1.884,1.884,0,0,0-.571-1.758,2.9,2.9,0,0,1-.583-1.009,50.876,50.876,0,0,0,12.082,6.78,44.081,44.081,0,0,0,13.7,2.906l.947-.409v10.558l.493,1.354Zm4.144-.271v0a40.353,40.353,0,0,0,.09-6.575c-.044-1.084-.09-2.206-.089-3.3l-.587-.892a1.653,1.653,0,0,1,.908.587,4.292,4.292,0,0,0,.321.305,3.176,3.176,0,0,0,1.186.178c.256,0,.524-.014.784-.027h.011c.262-.014.533-.028.792-.028a1.925,1.925,0,0,1,1.954.913c-.1.209-.212.418-.322.62a3.025,3.025,0,0,0-.556,2.252c.658,1.7,1.57,3.45,3.345,3.567a2.762,2.762,0,0,0,1.468.926c.1.036.2.071.3.109-1.172.19-2.394.291-3.576.388a25.7,25.7,0,0,0-6.025.977ZM94.3,190.757h0c-1.008-1.368-2.075-2.747-3.107-4.08a81.18,81.18,0,0,1-7.51-10.864,81.479,81.479,0,0,1-9.8-35.1l11.113.078,1.077-.4a6.324,6.324,0,0,0-.1,1.34c0,.286,0,.582-.022.9l-.074-.114a.194.194,0,0,0-.093.135c0,.07.064.132.134.2s.168.155.149.255A64.445,64.445,0,0,0,88,155.254l.557.873a6.067,6.067,0,0,1-1.173-1.529,9.229,9.229,0,0,0-.628-.948,5.333,5.333,0,0,0-2.61.963.793.793,0,0,1,.048.665c-.115.2-.4.247-.693.295a1.676,1.676,0,0,0-.6.17,1.974,1.974,0,0,0-.79-.768c-.9.043-1.732.148-2.092.967.088.38-.155.624-.412.882a1.933,1.933,0,0,0-.377.464c-.033.239-.071.482-.111.74-.265,1.692-.565,3.608.575,4.91a4.782,4.782,0,0,0,1.638,3.355.644.644,0,0,0,.134.015.812.812,0,0,0,.5-.219,1.3,1.3,0,0,1,.259-.165,5.314,5.314,0,0,1,.975,1.069c.517.678,1.051,1.378,1.888,1.378a1.733,1.733,0,0,0,.383-.045.749.749,0,0,0,.384-.681,1.388,1.388,0,0,1,.09-.39,5.452,5.452,0,0,1,.685.915c.478.736.971,1.5,1.929,1.5.06,0,.122,0,.184-.009a2.954,2.954,0,0,1,.34.44c.229.337.466.685.9.705a1.532,1.532,0,0,1,.376-.053c.653,0,.842.588,1.042,1.211a2.247,2.247,0,0,0,.911,1.446,4.25,4.25,0,0,1,.787.691,2.03,2.03,0,0,0,1.385.842,1.565,1.565,0,0,0,.686-.177l.5-.6c.227.167.24.455.253.759a1.244,1.244,0,0,0,.216.8,5.447,5.447,0,0,0,3.365,2.547c.163.19.327.385.492.582l.016.019a18.539,18.539,0,0,0,3.205,3.243l-.97.4L94.3,190.756Zm111.568-.358h0a79.784,79.784,0,0,0-8.911-8.763,16.867,16.867,0,0,0,3.614-3.776c.357-.457.724-.929,1.089-1.365a67.455,67.455,0,0,0,8.96-16.686,64.041,64.041,0,0,0,3.72-18.826l-.39-1.08.666.484,11.408-.073.6-.29-.489.957a76.307,76.307,0,0,1-5.672,26.186,82.011,82.011,0,0,1-14.283,22.63l-.31.6Zm-22.62-1.919v0c-.119-.364.145-.644.4-.914.318-.337.647-.685.276-1.21-1.382-1.28-.334-2.435.679-3.551a5.993,5.993,0,0,0,1.249-1.728c-.16-.844-.9-2.413-4.027-3.44-.608-.34-.588-1.013-.57-1.607,0-.157.009-.3,0-.441.113-.114.227-.225.34-.335a5.509,5.509,0,0,0,1.466-1.929l.267.755,4.915,5.082c0,1.247.225,2.18,1.322,2.68a.834.834,0,0,0,.341.067,2.259,2.259,0,0,0,.551-.093l.01,0a2.166,2.166,0,0,1,.523-.091.741.741,0,0,1,.22.031h-.291a40.625,40.625,0,0,1-5.573,4.777l-.007.005c-.507.383-1.031.78-1.536,1.174l-.556.772ZM143.2,182.235c-6.646-1.641-14.266-4.005-20.4-9.105a5.748,5.748,0,0,1-1.077-.9,3.144,3.144,0,0,0-1.874-1.146,61.221,61.221,0,0,0,7.944-8.151,10.065,10.065,0,0,0,3.586,3.27c.477.313.967.636,1.413.967.72.334,1.43.724,2.182,1.137,1.992,1.1,4.048,2.226,6.263,2.226a6.314,6.314,0,0,0,1.261-.127,7.75,7.75,0,0,0-3,1.954,6.155,6.155,0,0,0-.3,1.026c-.207.881-.422,1.791-1.443,2.144.065,1.99,1.629,3.7,3.009,5.207.195.212.378.413.558.615l1.883.882Zm50.789-3.278h0a3.143,3.143,0,0,0-.293-2.118,4.01,4.01,0,0,1-.385-2,4.542,4.542,0,0,1-.811-1.219c-.426-.817-.828-1.589-1.934-1.589h-.047a.86.86,0,0,0-.1-.006c-.5,0-.727.492-.727.979a1.424,1.424,0,0,0-.016.3.646.646,0,0,1-.117.493l-3.627-3.2a11.017,11.017,0,0,0,3.321-3.539c.337-.475.653-.921.977-1.336,3.449-4.794,5.408-10.173,7.012-15.271a1.548,1.548,0,0,0,1,.373,1.514,1.514,0,0,0,.834-.256,1.428,1.428,0,0,0,.267-1.835l-1.3-1.431c.054-.855.173-1.72.288-2.556a19.354,19.354,0,0,0,.261-4.633l.888.271c.375-.005.765-.008,1.191-.008.809,0,1.633.01,2.431.019h.153c.829.01,1.686.021,2.531.021,1.954,0,3.433-.059,4.795-.191l-.548.637C209.074,155.918,203.677,168.735,193.994,178.957ZM114.729,170.6c0-.017-.01-.038-.017-.062-.045-.176-.14-.541-.418-.541a.472.472,0,0,0-.2.054c-.157-.738.336-1.01.859-1.3.544-.3,1.107-.61.867-1.5l-.4-2.487c-1.68-1.5-1.736-3.762-1.79-5.952a20.709,20.709,0,0,0-.13-2.2,2.979,2.979,0,0,1-.909-2.572,3.517,3.517,0,0,0-.541-2.224,3.589,3.589,0,0,0-1.377-2.473c-.887-.917-1.725-1.783-1.1-3.207-.376-.54-1-1.442-.464-2.269a1.655,1.655,0,0,1,1.3-.43c.583-.027,1.186-.054,1.455-.74l.31-2.112a1.09,1.09,0,0,1,.549-.129,3.6,3.6,0,0,1,.586.065l.011,0a3.377,3.377,0,0,0,.554.065.774.774,0,0,0,.793-.563,3.241,3.241,0,0,0-.513-2.537c-.367-.755-.714-1.468-.466-2.046a1.858,1.858,0,0,1,1.256-.89l.143-.017a9.313,9.313,0,0,1,1.064-.082c.98,0,1.543.337,1.773,1.062.03.176.061.354.093.533a7.9,7.9,0,0,1-.006,4.184.717.717,0,0,1,.441.355,1.29,1.29,0,0,1-.153.925,2.071,2.071,0,0,0-.2.713,5.17,5.17,0,0,0-.5.28,2.314,2.314,0,0,1-1.157.449,1.171,1.171,0,0,1-.345-.053c-.288-.476-.822-1.362-1.556-1.362-.029,0-.058,0-.088,0a1.654,1.654,0,0,0-.037,1.561,2.915,2.915,0,0,1,.185,1.123,2.827,2.827,0,0,0-.137.717,1.649,1.649,0,0,1-.272.912,1.452,1.452,0,0,0-.829-.273c-.045,0-.091,0-.138.006-.6.313-.343.9-.157,1.324.029.066.056.128.079.186a6.96,6.96,0,0,1,.6.439,2.563,2.563,0,0,0,1.475.721l.4-.479a5.867,5.867,0,0,1,.274-1.952,7.457,7.457,0,0,0,.289-1.6l1.154.592a39.875,39.875,0,0,0,6.158,13.717l1.51,1.525a105.248,105.248,0,0,0-10.264,10.466v.07Zm44.121-.915a3.4,3.4,0,0,1-1.2-.321l-.056-.022a3.811,3.811,0,0,0-1.369-.342,1.916,1.916,0,0,0-.606.1c-.35-.185-.386-.524-.421-.852-.042-.4-.082-.773-.644-.88a2.732,2.732,0,0,1-1.117.206,8.891,8.891,0,0,1-.981-.073h-.013a8.439,8.439,0,0,0-.939-.072,1.94,1.94,0,0,0-1.828.984,5.965,5.965,0,0,1-.731.048,3.875,3.875,0,0,1-1.608-.33c-.233-.019-.258-.2-.285-.4a.861.861,0,0,0-.066-.269h.033a2.275,2.275,0,0,0,1.338-.593l.005,0a2.275,2.275,0,0,1,1.34-.595,1.535,1.535,0,0,1,.254.022,3.608,3.608,0,0,0,.67-.9,2.231,2.231,0,0,1,1.156-1.163.576.576,0,0,1,0-.484c.1-.143.314-.162.543-.182.285-.025.579-.05.7-.307a1.6,1.6,0,0,1,.97-.492.772.772,0,0,1,.381.1,2.6,2.6,0,0,0,1.547.905,2.683,2.683,0,0,1,1.71,1.078.407.407,0,0,0,.158.036.256.256,0,0,0,.2-.1.637.637,0,0,0,.1-.481v-.5c.039,0,.079-.005.118-.005a2.171,2.171,0,0,1,1.173.465l.038.025a1.991,1.991,0,0,0,1.048.44,1.391,1.391,0,0,0,.919-.425.981.981,0,0,0,0-1.176c-.189-.074-.376-.164-.414-.355a.638.638,0,0,1,.286-.07,1.471,1.471,0,0,1,.847.455l.033.028a1.617,1.617,0,0,0,.962.483.972.972,0,0,0,.486-.14c.205-.173.4-.357.583-.535a3.116,3.116,0,0,1,2.18-1.174l.306.35c.189,2.306-1.639,3.725-3.642,4.916a6.414,6.414,0,0,1-1.008.284c-1.056.24-2.251.512-2.2,1.916A1.376,1.376,0,0,1,158.85,169.681Zm15.675-.217a3.453,3.453,0,0,1-1.955-.855,4.523,4.523,0,0,0-1.4-.77,12.969,12.969,0,0,0-2.139-.612,10.481,10.481,0,0,1-2.571-.815.7.7,0,0,1,.474-.77,37.688,37.688,0,0,1,9.992,2.294,2.861,2.861,0,0,0,2.206-.686,2.139,2.139,0,0,1,.61-1.635,2.238,2.238,0,0,0,.628-1.607,4.048,4.048,0,0,0,.445-1.668,3.091,3.091,0,0,1,.709-1.968,5.492,5.492,0,0,0-.967-4.028,1.243,1.243,0,0,0-.7-.216,2.938,2.938,0,0,0-1,.249,3.867,3.867,0,0,1-.788.234,2.56,2.56,0,0,0-.723,1.224c-.235.635-.456,1.235-1.149,1.235a1.657,1.657,0,0,1-.423-.062,1.285,1.285,0,0,1-1.088.494,2.437,2.437,0,0,1-.638-.091.654.654,0,0,0-.177-.183c-.1-.079-.187-.147-.139-.29a5.106,5.106,0,0,1,1.285-.377c1.024-.209,2.082-.424,2.194-1.756a3.238,3.238,0,0,1,1.447-.591,2.919,2.919,0,0,0,1.637-.765c.181-.3.336-.583.485-.86A7.673,7.673,0,0,1,182,152.776c.021-.1.047-.193.072-.288a2.751,2.751,0,0,0,.131-.949,4.059,4.059,0,0,1,.158.47,1.57,1.57,0,0,0,.8,1.169,1.311,1.311,0,0,0,.367.057c.6,0,.938-.5,1.263-.977l.107-.157a.647.647,0,0,1,.125-.485.262.262,0,0,1,.2-.1.335.335,0,0,1,.219.1,1.951,1.951,0,0,0,1.286.4,7.629,7.629,0,0,0,1.067-.1l.026,0a7.517,7.517,0,0,1,1.026-.1c.057,0,.113,0,.167,0a11.331,11.331,0,0,1,3.142-.542c-.826,3.824-2.679,7.745-5.832,12.344-.38.465-.75.953-1.107,1.424-.59.779-1.2,1.584-1.887,2.326a6.5,6.5,0,0,1-.28-1.015,3.877,3.877,0,0,0-.846-1.98l-.468.124a10.03,10.03,0,0,1-.721,1.145,4.087,4.087,0,0,0-1.05,2.688,2.036,2.036,0,0,1-1.894.794c-.233,0-.478-.012-.715-.023h-.009c-.239-.011-.484-.023-.721-.023a3.018,3.018,0,0,0-1.462.293A2.171,2.171,0,0,1,174.526,169.464Zm-28.9-3.055h0a30.885,30.885,0,0,1-7.585-2.344,31.373,31.373,0,0,1-6.816-4.3c.815-.883,1.753-1.78,2.66-2.647a29.387,29.387,0,0,0,4.756-5.311c.189,1.077,1.275,1.662,2.233,2.178.2.106.383.206.561.31.257.114.515.233.788.359a11.555,11.555,0,0,0,4.6,1.394,4.429,4.429,0,0,0,1.748-.343,1.664,1.664,0,0,0-.288.266,1.8,1.8,0,0,1-.255.242c.325.329.21.668.1,1-.122.361-.238.7.183,1.031.092.3-.081.4-.265.511-.136.08-.276.163-.3.332a2.239,2.239,0,0,1,.206.926c.049.6.1,1.164.834,1.306a.649.649,0,0,1,.052.662.641.641,0,0,1-.525.378,4.457,4.457,0,0,0-.818-.085,1.44,1.44,0,0,0-1.462.781,3.6,3.6,0,0,0-.3,1.912,5.559,5.559,0,0,1-.1,1.442Zm16.239-6.519h0a.411.411,0,0,1-.262-.226c-.077-.2.064-.467.177-.68.033-.061.063-.119.086-.17.105-.085.208-.17.308-.254l.01-.008a3.433,3.433,0,0,1,2.266-1.09,3.018,3.018,0,0,1,.471.039c-.054.87-.815,1.2-1.62,1.542a4.235,4.235,0,0,0-1.434.846ZM92.575,156.9v0a17.848,17.848,0,0,0-.787-4.926,27.093,27.093,0,0,1-.722-3.419l-.872-7.361L89.7,140.5a38.554,38.554,0,0,0,5.385.3c.69,0,1.391-.008,2.069-.015h.13c.651-.007,1.323-.014,1.983-.014.572,0,1.077.005,1.546.016l.878-.409c-.218,1.182-.571,4.117.9,5.872a4.736,4.736,0,0,1-.382-.5c-.4-.568-.957-1.346-1.711-1.346h-.043a2.926,2.926,0,0,0-2.111,1.45,2.888,2.888,0,0,1-2.133,1.446c-1.561,1.276-1.884,3.072-2.2,4.81q-.041.231-.084.461c.384.4.205.8.016,1.226a1.276,1.276,0,0,0-.125,1.168c-.715.077-.845.627-.971,1.158a2.182,2.182,0,0,1-.279.762Zm35.587,0v0a12.754,12.754,0,0,0-1.5-2.5,12.709,12.709,0,0,1-1.546-2.589,27.375,27.375,0,0,1-1.468-3.316,28.14,28.14,0,0,0-1.395-3.178,2.293,2.293,0,0,0,1.7.6c.934.082,1.815.16,1.815,1.5a.512.512,0,0,0,.312.08c.049,0,.1,0,.147-.005s.092-.005.135-.005c.2-.214.289-.309.419-.309a.807.807,0,0,1,.34.123,1.157,1.157,0,0,0,.353.337c.176.128.341.25.336.4,0,.107-.1.217-.294.337a2.658,2.658,0,0,0,1.934,1.8.662.662,0,0,0,.633.588.581.581,0,0,0,.315-.1c.2-.269.038-.619-.116-.958-.131-.287-.254-.558-.164-.771a.542.542,0,0,1,.35-.275,2.543,2.543,0,0,1,.48,1.612,3.87,3.87,0,0,0,.2,1.141,2,2,0,0,1,.39,1.554c-.394.48-.854.947-1.3,1.4a11.455,11.455,0,0,0-2.064,2.521Zm41.005-1.5c-.563,0-.741-.419-.929-.862l-.009-.021c-.176-.413-.375-.882-1-.882a1.525,1.525,0,0,0-.219.017,3.1,3.1,0,0,1-.651-1.9l.042-.05c.253-.3.471-.554.781-.554a.843.843,0,0,1,.41.125c-.019.038-.042.077-.065.116a.582.582,0,0,0-.121.511,4.863,4.863,0,0,0,.875.58c.605.341,1.177.662,1.325,1.468a.987.987,0,0,0,.037.649c.092.332.179.645-.313.793A1.294,1.294,0,0,1,169.168,155.393Zm-19.241-3.733h0a12.356,12.356,0,0,1-7.657-2.436,5.215,5.215,0,0,1,2.049-.4c1.325-.083,2.577-.162,2.926-1.729a1.328,1.328,0,0,0,.424-1.51,5.679,5.679,0,0,0,1.165-2.022c.089-.221.179-.446.277-.662a1.064,1.064,0,0,1-.291-1.254c.028-.118.059-.25.084-.394a3.529,3.529,0,0,0-2.714-1.023,14.53,14.53,0,0,0-1.7.137c-.5.06-1.024.123-1.53.136-.687.39-.637.991-.589,1.572a1.657,1.657,0,0,1-.288,1.38,2.425,2.425,0,0,0-1.836,1.477,4.533,4.533,0,0,1-.937,1.2,2.075,2.075,0,0,1-1.077-1.8h.208a.578.578,0,0,0,.39.691,1.713,1.713,0,0,0,.269.023c.773,0,.878-.673.979-1.323a2.641,2.641,0,0,1,.262-.945,3.2,3.2,0,0,1,.668-1.011c.4-.475.808-.966.7-1.371-.061-.23-.281-.413-.672-.559a1.378,1.378,0,0,1-.005-.44c.028-.3.054-.574-.29-.734a3.567,3.567,0,0,1-.446.148c-.459.132-.979.281-1.093.838.066-.466.089-.954.112-1.426a7.082,7.082,0,0,1,.481-2.713c-.345-.852.146-1.371.621-1.873a3.143,3.143,0,0,0,.622-.817,1.475,1.475,0,0,0,.158.009c.7,0,.905-.574,1.1-1.129a2.632,2.632,0,0,1,.379-.79l.451-.133c1.732-.507,3.524-1.032,4.617-2.861a4.379,4.379,0,0,1-.33-1.423,2.951,2.951,0,0,0-.628-1.823l.021-.009a6.4,6.4,0,0,1,1.805-.379,1.341,1.341,0,0,1,1.05.387l.665.356-.015,0h-.1a4.7,4.7,0,0,1-.758-.085,4.692,4.692,0,0,0-.752-.084,1.289,1.289,0,0,0-.884.3c-.436.312-.231.839-.066,1.262.024.061.046.119.066.175a3.38,3.38,0,0,1,1.3,1.13c.456.557.886,1.083,1.57,1.083a1.878,1.878,0,0,0,.809-.21l.084.016c.765.146,1.718.327,1.99,1.222a2.543,2.543,0,0,1,1.067,1.04c.375.539.729,1.049,1.382,1.049a1.546,1.546,0,0,0,.427-.065c-.006.069-.014.142-.022.219v.013c-.078.763-.2,1.916.625,2.456a2.082,2.082,0,0,1-.5.7,1.537,1.537,0,0,0-.578,1.15.8.8,0,0,0-.174.947c1,.11,1.3.919,1.594,1.7a4.4,4.4,0,0,0,.5,1.066,2.686,2.686,0,0,0,1.071,3,10.516,10.516,0,0,1-1.278,3.583l-.064.128a2.246,2.246,0,0,1-1.007.195,8.971,8.971,0,0,1-.944-.069h-.008a8.76,8.76,0,0,0-.923-.068c-.738,0-1.529.189-1.806,1.591a2.814,2.814,0,0,0-.531,1.473c-.141.84-.275,1.633-1.316,1.681C150.7,151.646,150.308,151.66,149.927,151.66Zm-16.656-.528h0l-.123-.078a5.731,5.731,0,0,0,1.648-2.591l1.362.681a3.311,3.311,0,0,0-2.01,1.21,7.624,7.624,0,0,1-.876.777ZM106.5,149.014h0a12.784,12.784,0,0,0-.208-4.921,21.492,21.492,0,0,1-.371-2.907l-.566-.957a3.057,3.057,0,0,0,1.9.594,10.053,10.053,0,0,0,1.689-.2l.234-.04c-1.268.413-1.414,1.528-1.568,2.708a5.539,5.539,0,0,1-.441,1.811c-.049.359.194.589.43.811s.481.456.424.818a2.7,2.7,0,0,0-1.177,1.557A5.94,5.94,0,0,1,106.5,149.014Zm86.553-.64v0c-.128-.252-.249-.512-.377-.787a6.136,6.136,0,0,0-2.436-3.168,2.029,2.029,0,0,1-.892-1.674,2.264,2.264,0,0,0-.824-1.681l-1.223-1.229a10.4,10.4,0,0,0,4.164.671c.833,0,1.672-.044,2.482-.086l.049,0,.562-.029a19.915,19.915,0,0,0-.658,3.712,23.866,23.866,0,0,1-.492,3.116,3.382,3.382,0,0,0-.1.41,2.082,2.082,0,0,1-.253.748Zm-62.005-6.627h0c-.089-.413.211-.533.558-.671a1.064,1.064,0,0,0,.717-.57,2.837,2.837,0,0,1,.73-2.2c.131-.19.267-.386.386-.589a.8.8,0,0,1,.606-.22,1.858,1.858,0,0,1,.678.142,1.389,1.389,0,0,0,.9.5.806.806,0,0,0,.207-.028l.424-.681a2.6,2.6,0,0,1,.8,1.538c.222.778.431,1.513,1.093,1.513a1.947,1.947,0,0,0,.981-.366c.026-.113.049-.234.07-.36a1.63,1.63,0,0,1-.624,1.914h-.325c.144-.5-.287-.811-.557-.953a3.673,3.673,0,0,0-1.094.267,3.292,3.292,0,0,1-1.107.258,1.618,1.618,0,0,1-.4-.05,22.027,22.027,0,0,1-4.03.562Zm-29.078-5.278-1.025-.405-10.959.208c1.079-13.246,4.819-24.1,11.433-33.169l4.322-5.5.058-.749a80.971,80.971,0,0,0,8.443,8.428,47,47,0,0,0-8.987,13.921,52.434,52.434,0,0,0-3.754,16.108,2.005,2.005,0,0,1,.089.391.993.993,0,0,0,.38.762Zm3.564,0v0a11.41,11.41,0,0,0,.655-3.538,17.363,17.363,0,0,1,.305-2.415A43.894,43.894,0,0,1,110.36,118.8a53.206,53.206,0,0,1,6.887-10.447c.523.518,1.041,1.037,1.588,1.587a72.244,72.244,0,0,0,7.244,6.653c-1.1.041-1.692.874-2.26,1.68-.588.834-1.2,1.7-2.379,1.7h-.077a8.641,8.641,0,0,0-2.684,2.777,5.183,5.183,0,0,1-1.135.495,3.424,3.424,0,0,0-1.855,1.154,1.425,1.425,0,0,0,.1.44c.112.322.228.655-.183.878a2.177,2.177,0,0,1-1.5.408c-.782.026-1.521.05-1.77,1.023a3.8,3.8,0,0,1-.893,1.758,3.3,3.3,0,0,0-.919,2.2c-.951.639-.8,1.852-.687,2.827l.006.05a1.494,1.494,0,0,1,.207,1.047c-.018.477-.037.969.474,1.238a21.488,21.488,0,0,0-2.629-.217,5.657,5.657,0,0,0-2.366.418ZM73.806,136.4v0a23.229,23.229,0,0,0,.33-3.746,23.541,23.541,0,0,1,.3-3.576A76.2,76.2,0,0,1,81.159,105.8,84.793,84.793,0,0,1,94.9,85.419l.271,1.085c1.117,1.088,2.24,2.217,3.326,3.309,1.635,1.644,3.18,3.2,4.722,4.64a16.221,16.221,0,0,0-3.673,3.971c-.534.724-1.086,1.472-1.68,2.153a64.878,64.878,0,0,0-12,34.248l.272,1.569c-1.983-.161-4.056-.244-6.162-.244s-4.185.083-6.172.246Zm140.226-.13h0v0l.3-.466a57.656,57.656,0,0,0-1.821-12.924,71.993,71.993,0,0,0-4.249-11.909c-.073-2.157-1.43-3.9-2.742-5.587a18.084,18.084,0,0,1-2.131-3.173,11.821,11.821,0,0,1-2.784-3.01,10.528,10.528,0,0,0-3.443-3.425,4.405,4.405,0,0,1-.5-.7c-.293-.473-.6-.962-1.16-1.092l1.376-.279c.683-.7,1.383-1.406,2.061-2.085a62.965,62.965,0,0,0,5.893-6.468,89.524,89.524,0,0,1,14.408,21.59,73.856,73.856,0,0,1,6.613,24.861,11.338,11.338,0,0,1,.092,1.4,5.028,5.028,0,0,0,.555,2.709l-11.521.211A1.656,1.656,0,0,1,214.032,136.266Zm-15.364-.2h0c-.02-.378-.031-.767-.043-1.142-.057-1.889-.117-3.84-1.186-5.37a8.028,8.028,0,0,0,.671-4.115c-.077-.19-.187-.282-.338-.282a1.058,1.058,0,0,0-.457.169,1.24,1.24,0,0,1-.241.113,6.751,6.751,0,0,0-1.555,2.913,12.979,12.979,0,0,1-.567,1.489,6.631,6.631,0,0,0-.606,5.684l.489.473-4.48-.083c.532-.331.325-.825.1-1.348-.233-.554-.5-1.183.063-1.735l2.048-.394a7.58,7.58,0,0,1,.971-1.552,4.467,4.467,0,0,0,1.2-2.766c1.218-1.472,1.562-2.752,1.052-3.913a4.262,4.262,0,0,1,.1-2.9c.342-1.26.664-2.45-.459-3.617a1.194,1.194,0,0,0-.191-1.039.9.9,0,0,0-.731-.409h-.04a3.381,3.381,0,0,0-.491-.095c-.475-.067-.885-.126-.885-.777a3.987,3.987,0,0,1,.4-.473c.395-.418.842-.893.7-1.532a.758.758,0,0,0-.637-.293,2.843,2.843,0,0,0-.582.086,2.839,2.839,0,0,1-.579.086h-.057a1.8,1.8,0,0,1,.357-1.075,1.617,1.617,0,0,0,.338-1.144,1.167,1.167,0,0,0-.617-.657,1.146,1.146,0,0,0-.216-.021,2.009,2.009,0,0,0-1.036.4l-.016.01a1.932,1.932,0,0,1-.99.389,1.084,1.084,0,0,1-.47-.111,1.509,1.509,0,0,1-.606-.947.89.89,0,0,1,.192-.681l-2.4-2.946a.42.42,0,0,0-.339-.112c-.04,0-.081,0-.121,0s-.09,0-.13,0c-.211,0-.354-.052-.362-.3a4.645,4.645,0,0,0-1.407-3.12,5.45,5.45,0,0,1-1.464-2.914,2.1,2.1,0,0,1-.548-1.4,1.86,1.86,0,0,0-.779-1.567l-.093-.067a2.859,2.859,0,0,0-1.6-.723,1.514,1.514,0,0,0-.557.109,28.03,28.03,0,0,0-3.508-4.105.736.736,0,0,0-.2-.029.878.878,0,0,0-.672.384,3.055,3.055,0,0,0,.7,1.309,2.5,2.5,0,0,1,.721,1.691.778.778,0,0,0-.13-.012.446.446,0,0,0-.358.17,5.328,5.328,0,0,0,1.645,2.676l.191.206c-5.635-4.366-12.666-7.19-21.495-8.631a11.874,11.874,0,0,1-1.569-.182,10.932,10.932,0,0,0-1.72-.185,3.934,3.934,0,0,0-1.31.205,63.36,63.36,0,0,0,.195-7.176c-.013-1.315-.026-2.675,0-3.986l-.385-.745a6.444,6.444,0,0,0,3.062.567,14.176,14.176,0,0,1,1.724.109,64.845,64.845,0,0,1,19.393,5.556,7.56,7.56,0,0,0,1.272,1.354,4.163,4.163,0,0,1,1.679,2.48c-.432,1.152.254,1.747.917,2.322.738.64,1.436,1.245.444,2.553a1.671,1.671,0,0,0,.469,1.279,3.174,3.174,0,0,1,.36.567,2.69,2.69,0,0,1,.122.8c.028.516.057,1.05.569,1.315a1.538,1.538,0,0,0,.317.034,2.322,2.322,0,0,0,1.367-.6l.018-.013a2.232,2.232,0,0,1,1.3-.591,1.432,1.432,0,0,1,.49.09c1.546,1.124,2.266,2.929,2.266,5.68a3.927,3.927,0,0,0,2.516,2.684,2.479,2.479,0,0,1,.711-.127c.737,0,.9.553,1.1,1.193a2.059,2.059,0,0,0,1.064,1.524,4.284,4.284,0,0,1,2.115,1.186,3.884,3.884,0,0,0,2.452,1.219c.083,0,.169,0,.254-.013a14.708,14.708,0,0,1,2.528,2.732,19.081,19.081,0,0,0,1.859,2.157.741.741,0,0,0,.479.795,1.68,1.68,0,0,0,.408.051,2.776,2.776,0,0,0,1.047-.267,2.99,2.99,0,0,1,.943-.263c2.836,5.789,4.538,12.56,5.206,20.7l.355.764c-.57,0-1.167-.008-1.825-.008-3.513,0-6.75.093-9.9.284Zm-8.434-5.226h0a2.607,2.607,0,0,1-.483-.048,1.814,1.814,0,0,1,.309-1.714,1.837,1.837,0,0,0,.352-1.512,3.674,3.674,0,0,1,.395-.254c.345-.2.7-.411.79-.836-.04-.6-.444-.833-.872-1.084a1.643,1.643,0,0,1-.973-1.117,1.856,1.856,0,0,0-1.3-.672,4.061,4.061,0,0,1-.6-.157.95.95,0,0,0-.412-.095,2.282,2.282,0,0,0-1.312.67l-.143.12c-.349.3-.65.55-.9.55-.3,0-.483-.371-.592-1.167A1.155,1.155,0,0,0,184.9,122a3.775,3.775,0,0,1-1.361-1.571A3.822,3.822,0,0,0,182,118.735h-.1a12.3,12.3,0,0,1-2.238-.27l-.03-.006a12.125,12.125,0,0,0-2.164-.264,4.981,4.981,0,0,0-1.142.125c-.24-.055-.483-.129-.74-.208a5.4,5.4,0,0,0-1.509-.313,1.6,1.6,0,0,0-1.378.718,6.125,6.125,0,0,1-.4,1.521,6.889,6.889,0,0,0-.365,1.277,2.541,2.541,0,0,1-1.085-1.149c2.431-2.722,5.142-5.483,7.764-8.153l.008-.008c1.148-1.169,2.334-2.377,3.464-3.549l.192-.493c.419.517.863,1.044,1.292,1.554a32.625,32.625,0,0,1,4.055,5.556,2.58,2.58,0,0,1-.579,1.765c-.336.555-.653,1.08-.5,1.548.109.324.44.592,1.01.818a4.03,4.03,0,0,1,1.735,1.063,4,4,0,0,0,1.7,1.049,17.54,17.54,0,0,1,1.93,4.991l0,.018c.092.338.188.688.286,1.03a5.706,5.706,0,0,0-.814,1.416C191.944,129.786,191.461,130.837,190.235,130.837Zm-30.172-5.972a1.273,1.273,0,0,1-.527-.11l-.108-.113a4.569,4.569,0,0,0-2.547-1.683,2.512,2.512,0,0,0-.749.389,1.733,1.733,0,0,1-.94.4,1.085,1.085,0,0,1-.531-.15,8.019,8.019,0,0,1,2.185-1.513,6.086,6.086,0,0,0,2.892-2.488,7.681,7.681,0,0,0,.489-3.192,1.634,1.634,0,0,0-1.068-.66.7.7,0,0,0-.462.181,4.612,4.612,0,0,1-1.708,1.466,4.99,4.99,0,0,0-1.781,1.524l-2.857-.948a20.859,20.859,0,0,1-.181-3.783,14.228,14.228,0,0,0-.391-4.5,14.833,14.833,0,0,0,2.895.629c.631.094,1.282.191,1.911.338a39.455,39.455,0,0,1,11.389,5.191,6.253,6.253,0,0,0-2.071,1.6c-.11.112-.216.219-.318.319-.026.425.247.526.537.633a1.031,1.031,0,0,1,.529.33l.761-.282a5.68,5.68,0,0,1-2.994,2.776c-1.34.729-2.606,1.417-2.844,3.174-.12.045-.238.095-.364.148A3.035,3.035,0,0,1,160.062,124.865Zm-20.56-2.588h0a1.245,1.245,0,0,0-1.094-.594,1.893,1.893,0,0,0-1.017.318c-.406,0-.666-.349-.917-.686-.212-.285-.413-.555-.679-.555a.763.763,0,0,0-.511.283,1.017,1.017,0,0,0-.188.378c-.075.222-.146.431-.41.431a.883.883,0,0,1-.289-.059.826.826,0,0,0-.4-.326,1.3,1.3,0,0,1-.251-.152c-.018-.264.181-.394.373-.521.243-.159.473-.31.273-.708a2.961,2.961,0,0,0-1.773-1.235,3.951,3.951,0,0,1-1.478-.813h-.864a24.109,24.109,0,0,1,7.883-5.575,32.716,32.716,0,0,1,9.17-2.463q-.011.383-.025.774l0,.049c-.087,2.6-.185,5.546.632,7.906a1.2,1.2,0,0,0-1-.5,3.714,3.714,0,0,0-1,.2l-.014,0a3.871,3.871,0,0,1-1.051.2,1.43,1.43,0,0,1-.561-.107,1.088,1.088,0,0,1,.018-.712c.078-.313.152-.609-.22-.808a2.846,2.846,0,0,0-1.5,2.253,4.14,4.14,0,0,1-.893,1.945c-.116.6-.634.671-1.182.743a1.928,1.928,0,0,0-1.027.328Zm31.757-8.755v0l-.286-.847c-4.822-3.921-10.69-6.313-17.941-7.312l-1.051.2.083-10.825-.4-.873.767.115a66.141,66.141,0,0,1,12.122,2.59,47.331,47.331,0,0,1,14.373,8.318l.963.394-2.013,1.164c-.822.93-1.753,1.84-2.653,2.72a32.7,32.7,0,0,0-3.957,4.354Zm-42.623-.093h0c-1.058-.931-2.084-1.982-3.17-3.093a38.333,38.333,0,0,0-5.345-4.839,53.021,53.021,0,0,1,12.419-7.778,43.165,43.165,0,0,1,14.255-3.548l.672-.393a54.424,54.424,0,0,0,0,11.782,5.369,5.369,0,0,0-1.187-.126,12.551,12.551,0,0,0-2.813.433,16.833,16.833,0,0,1-2.026.385c-4.544,1.143-8.55,3.706-12.2,6.306-.2.327-.413.616-.6.871Zm-11.589-10.94v0l-.281-.762c-.9-.83-1.79-1.752-2.65-2.643a31.032,31.032,0,0,0-5.423-4.823,37.188,37.188,0,0,0,4.247-3.12c.993-.8,2.019-1.634,3.065-2.358a61.763,61.763,0,0,1,14.765-7.3,63.736,63.736,0,0,1,16.479-3.141,61.361,61.361,0,0,0-.02,9.18v.016c.036.768.074,1.562.1,2.336a6.7,6.7,0,0,0-1.443-.146,17.713,17.713,0,0,0-2.947.338c-.624.107-1.269.218-1.9.282a48.016,48.016,0,0,0-23.993,12.146ZM106.3,91.448v0l-.656-.7a61.147,61.147,0,0,0-8.193-7.795h-.341a25.6,25.6,0,0,0,3.9-3.068,32.811,32.811,0,0,1,3.183-2.617,82.947,82.947,0,0,1,20.214-10.793,75.728,75.728,0,0,1,22.783-4.434l-.331,1.11.124,9.606.35.953a63.462,63.462,0,0,0-21.885,4.879,67.058,67.058,0,0,0-18.957,12.311l-.191.552Zm88.18-1.223v0a2.4,2.4,0,0,0-.852-1.1,3.184,3.184,0,0,1-.785-.9c-.23-2.127-2.3-4.246-4.244-5.4a2.854,2.854,0,0,1-1.52-1.051,2.3,2.3,0,0,0-1.638-1,1.941,1.941,0,0,0-.68.134,2.726,2.726,0,0,0-1.835-.671,7.881,7.881,0,0,0-3.259,1.048l-.057.028V81.5a59.654,59.654,0,0,0-25.235-7.668,1.146,1.146,0,0,0-.5.145,1.222,1.222,0,0,1-.531.152.851.851,0,0,1-.122-.009c.4-.269.3-.978.218-1.548-.016-.11-.031-.214-.041-.309-.147-.244-.455-.654-.873-.654a.725.725,0,0,0-.374.112,1.58,1.58,0,0,0-.365.784,52.748,52.748,0,0,0-.129-10.869,19.782,19.782,0,0,0,4.613.65,29.761,29.761,0,0,1,3.173.312,79.169,79.169,0,0,1,22.69,6.54,73.578,73.578,0,0,1,19.729,13.519l-1.337.566c-.6.636-1.229,1.248-1.839,1.84a18.656,18.656,0,0,0-4.209,5.159ZM186,77.918a.721.721,0,0,0-.562.306,1.727,1.727,0,0,0,.287,1.164,3.631,3.631,0,0,1,1.522,1.3c.52.646,1.01,1.256,1.9,1.256a2.432,2.432,0,0,0,.606-.084c.365-.4.192-.821.009-1.266a1.782,1.782,0,0,1-.2-1.118,2.433,2.433,0,0,0-1.806-1.455.783.783,0,0,1-.552.245,1.586,1.586,0,0,1-.612-.175l-.008,0A1.515,1.515,0,0,0,186,77.918ZM154.214,70.34a.851.851,0,0,0-.813.418c-.191.156-.07.378.028.557.022.04.044.081.062.118A4.142,4.142,0,0,0,156.981,73a15.865,15.865,0,0,0,3.606-.588c.478-.116.928-.226,1.356-.31a3.739,3.739,0,0,0,1.45.295,6.008,6.008,0,0,0,3.745-1.641v-.282c-1.428-2-4.21-2.229-6.241-2.4l-5.749,2.473A2.581,2.581,0,0,0,154.214,70.34Z" transform="translate(0.158 0)"/>
</svg>
