<svg xmlns="http://www.w3.org/2000/svg" width="131" height="22" viewBox="0 0 131 22">
  <path id="adobefirefly-text" d="M11.96,15.469H6.414L5.26,19.015a.263.263,0,0,1-.288.192H2.186c-.168,0-.216-.072-.168-.24L6.822,5.14A3.725,3.725,0,0,0,7.038,3.7a.151.151,0,0,1,.168-.167h3.819c.12,0,.167.024.191.12l5.476,15.338c.05.144.025.216-.143.216H13.426a.3.3,0,0,1-.264-.144l-1.2-3.6h0ZM7.278,12.5h3.77c-.456-1.582-1.416-4.483-1.9-6.208H9.127C8.743,7.919,7.9,10.555,7.277,12.5Zm15.81,6.949c-3.554,0-6.268-1.99-6.268-6.063,0-3.451,2.57-6.3,6.965-6.3.192,0,.409,0,.768.024V2.383a.152.152,0,0,1,.168-.168h3.05c.1,0,.12.048.12.144V16.522c0,.577.048,1.294.1,1.75,0,.144-.024.192-.144.24a12.15,12.15,0,0,1-4.756.935Zm1.465-2.971V9.955a3.328,3.328,0,0,0-.888-.1,3.181,3.181,0,0,0-3.41,3.355c0,2.372,1.368,3.4,3.17,3.4A4.18,4.18,0,0,0,24.553,16.475Zm10.9-9.395c3.842,0,5.836,2.9,5.836,6.11,0,3.764-2.426,6.257-5.908,6.257-4.084,0-5.909-3.068-5.909-6.16,0-3.4,2.258-6.208,5.982-6.208h0Zm-.144,2.78c-1.417,0-2.473,1.222-2.473,3.38,0,2.084.983,3.426,2.617,3.426,1.393,0,2.45-1.174,2.45-3.379,0-1.893-.793-3.427-2.594-3.427Zm7.727-7.645h2.907c.191,0,.24.048.24.216l.023,4.914a6.7,6.7,0,0,1,2.018-.265,5.491,5.491,0,0,1,5.764,5.7c0,4.457-3.554,6.662-7.23,6.662a11.742,11.742,0,0,1-3.746-.551.23.23,0,0,1-.168-.216V2.407c0-.144.072-.192.192-.192Zm7.541,10.88c0-2.18-1.272-3.21-2.977-3.21A3.986,3.986,0,0,0,46.2,10.1v6.495a5.355,5.355,0,0,0,.89.072,3.306,3.306,0,0,0,3.481-3.57Zm12.5,1.055H58.373c.12,1.366,1.1,2.492,3.433,2.492a7.814,7.814,0,0,0,2.955-.551c.1-.048.168-.024.168.1v2.278a.284.284,0,0,1-.168.311,8.486,8.486,0,0,1-3.7.67c-4.49,0-6.075-3.09-6.075-6.038,0-3.331,2.017-6.328,5.788-6.328a4.886,4.886,0,0,1,5.092,5.177,7.389,7.389,0,0,1-.12,1.582.208.208,0,0,1-.193.193,16.672,16.672,0,0,1-2.473.12ZM58.373,11.8h3.121a7.465,7.465,0,0,0,1.2-.049c.024-.024.024-.12.024-.143a1.979,1.979,0,0,0-2.066-1.918A2.25,2.25,0,0,0,58.372,11.8ZM75.84,13.144v5.87c0,.145-.072.193-.193.193H72.67c-.12,0-.168-.072-.168-.192V3.7c0-.12.048-.167.192-.167H82.2c.145,0,.193.048.217.191l.263,2.589c.024.143-.047.192-.191.192H75.84v3.642h5.98c.144,0,.216.048.216.193v2.611c0,.145-.072.193-.192.193h-6Zm8.016,5.847V7.511c0-.144.072-.191.217-.191h2.953c.144,0,.193.023.193.19V18.991c0,.168-.049.216-.217.216H84.1c-.143,0-.24-.048-.24-.216ZM85.562,6.05a1.776,1.776,0,0,1-1.874-1.87,1.808,1.808,0,0,1,1.9-1.87,1.756,1.756,0,0,1,1.849,1.87A1.776,1.776,0,0,1,85.562,6.05ZM89.4,7.32h2.617a.281.281,0,0,1,.29.19,5.074,5.074,0,0,1,.239,1.344A5.04,5.04,0,0,1,96.367,7.08c.169,0,.216.048.216.192V10.2c0,.144-.047.168-.24.168a4.97,4.97,0,0,0-3.626,1.054v7.6c0,.168-.072.192-.217.192H89.594c-.168,0-.24-.048-.24-.216V10.746c0-1.054-.025-2.42-.12-3.283,0-.12.047-.143.168-.143Zm15.756,6.83H100.45c.12,1.366,1.105,2.492,3.434,2.492a7.818,7.818,0,0,0,2.955-.551c.1-.048.168-.024.168.095v2.278a.284.284,0,0,1-.168.311,8.481,8.481,0,0,1-3.7.67c-4.49,0-6.076-3.09-6.076-6.038,0-3.331,2.017-6.328,5.787-6.328a4.886,4.886,0,0,1,5.093,5.177,7.389,7.389,0,0,1-.12,1.582.208.208,0,0,1-.193.193,16.652,16.652,0,0,1-2.473.12ZM100.45,11.8h3.123a7.468,7.468,0,0,0,1.2-.049c.024-.024.024-.12.024-.143a1.979,1.979,0,0,0-2.065-1.918A2.249,2.249,0,0,0,100.45,11.8Zm9.523-1.7h-1.442c-.1-.023-.144-.071-.144-.215V7.463c0-.12.048-.143.144-.143h1.442V6.936a6.243,6.243,0,0,1,.5-2.707A3.766,3.766,0,0,1,114.224,2a4.315,4.315,0,0,1,1.224.142c.144.073.168.12.168.265V4.779c0,.095-.048.168-.192.144a2.37,2.37,0,0,0-.7-.072c-.889,0-1.417.479-1.417,1.822V7.32h2.042c.167,0,.191.047.191.167v2.4c0,.144-.048.192-.191.215h-2.042v8.892c0,.144-.024.216-.24.216h-2.883c-.168,0-.215-.048-.215-.216V10.1h0Zm6.453,6.04V2.429c0-.142.072-.214.24-.214h2.882a.191.191,0,0,1,.216.216v13.42c0,.671.216.91.792.91a2.856,2.856,0,0,0,.433-.022c.1,0,.12.023.12.143v2.085c0,.168-.024.216-.144.287a4.22,4.22,0,0,1-1.514.193C117.746,19.447,116.426,18.8,116.426,16.139Zm4.928-8.82h3.218a.209.209,0,0,1,.24.168c1.37,4.075,2.113,6.591,2.426,7.813.792-2.516,1.537-4.817,2.45-7.813a.258.258,0,0,1,.264-.167h2.882c.168,0,.193.071.144.215-1.705,5.344-4.371,11.984-6.172,16.057-.048.12-.1.168-.313.192L123.467,24c-.167,0-.217-.072-.144-.216.72-1.414,1.44-3.02,2.21-4.817a.523.523,0,0,0,.024-.383c-.673-1.654-2.955-7.31-4.371-11.073-.048-.12.024-.191.168-.191Z" transform="translate(-2 -2)" fill="#fff" fill-rule="evenodd"/>
</svg>
