<svg xmlns="http://www.w3.org/2000/svg" width="104.035" height="34.206" viewBox="0 0 104.035 34.206">
  <g id="jira" transform="translate(0 -3)">
    <g id="Jira-2" data-name="Jira" transform="translate(44.783 5.811)">
      <path id="Path_66527" data-name="Path 66527" d="M41.167,6.134h3.875V25.285c0,5.05-2.305,8.575-7.652,8.575a14.131,14.131,0,0,1-4.66-.715V29.478a10.952,10.952,0,0,0,4.022.715c3.286,0,4.415-1.906,4.415-4.669Z" transform="translate(-32.73 -4.657)" fill="#fff"/>
      <path id="Path_66528" data-name="Path 66528" d="M47.626,5.054a2.387,2.387,0,0,1,2.6,2.525,2.412,2.412,0,0,1-2.6,2.525,2.387,2.387,0,0,1-2.6-2.525A2.412,2.412,0,0,1,47.626,5.054Zm-1.913,8.051h3.728V34.068H45.713Z" transform="translate(-28.202 -5.054)" fill="#fff"/>
      <path id="Path_66529" data-name="Path 66529" d="M55.969,32H52.34V11.034h3.63V14.7c1.275-2.477,3.433-4.24,7.652-4v3.525c-4.758-.476-7.652.905-7.652,5.383Z" transform="translate(-25.509 -2.983)" fill="#fff"/>
      <path id="Path_66530" data-name="Path 66530" d="M77.6,28.253c-1.373,2.763-3.973,4.192-7.308,4.192-5.739,0-8.633-4.716-8.633-10.91,0-5.908,3.041-10.91,9.074-10.91a7.1,7.1,0,0,1,6.867,4.1V11.054H81.33V32.016H77.6Zm-6.327.857c3.336,0,6.278-2.049,6.278-6.717V20.725c0-4.669-2.7-6.717-5.886-6.717-4.169,0-6.327,2.668-6.327,7.527C65.388,26.585,67.448,29.11,71.274,29.11Z" transform="translate(-22.077 -3.003)" fill="#fff"/>
    </g>
    <g id="Icon" transform="translate(0 3)">
      <path id="Vector" d="M29.232,3H12.26a7.554,7.554,0,0,0,7.652,7.432h3.139v2.906A7.554,7.554,0,0,0,30.7,20.77V4.429A1.425,1.425,0,0,0,29.232,3Z" transform="translate(4.515 -3)" fill="#fff"/>
      <path id="Vector_2" d="M23.1,8.989H6.13a7.554,7.554,0,0,0,7.652,7.432h3.139v2.954a7.554,7.554,0,0,0,7.652,7.432V10.418A1.455,1.455,0,0,0,23.1,8.989Z" transform="translate(2.257 -0.795)" fill="#fff"/>
      <path id="Vector_3" d="M16.971,15.013H0a7.554,7.554,0,0,0,7.652,7.432h3.139v2.906a7.554,7.554,0,0,0,7.652,7.432V16.442A1.455,1.455,0,0,0,16.971,15.013Z" transform="translate(0 1.424)" fill="#fff"/>
    </g>
  </g>
</svg>
