<svg xmlns="http://www.w3.org/2000/svg" width="30" height="25.002" viewBox="0 0 30 25.002">
  <path id="engineering_24dp_E3E3E3_FILL0_wght100_GRAD200_opsz24" d="M60-812.544v-1.439a3.437,3.437,0,0,1,.54-1.889,3.8,3.8,0,0,1,1.547-1.349,19.23,19.23,0,0,1,4.209-1.511,18.848,18.848,0,0,1,4.425-.576,18.745,18.745,0,0,1,4.371.558,19.9,19.9,0,0,1,4.263,1.529,3.63,3.63,0,0,1,1.565,1.349,3.525,3.525,0,0,1,.522,1.889v1.439a1.493,1.493,0,0,1-.45,1.1,1.493,1.493,0,0,1-1.1.45H61.547a1.493,1.493,0,0,1-1.1-.45A1.493,1.493,0,0,1,60-812.544Zm1.943-.4H79.5v-1.187a1.086,1.086,0,0,0-.306-.82,3.482,3.482,0,0,0-.773-.547,16.1,16.1,0,0,0-3.561-1.3,16.629,16.629,0,0,0-4.137-.576,16.629,16.629,0,0,0-4.137.576,16.1,16.1,0,0,0-3.562,1.3,3.482,3.482,0,0,0-.773.547,1.086,1.086,0,0,0-.306.82Zm8.78-10.756a4.606,4.606,0,0,1-3.347-1.3,4.691,4.691,0,0,1-1.331-3.526h-.288a.626.626,0,0,1-.464-.185.637.637,0,0,1-.183-.468.62.62,0,0,1,.183-.463.636.636,0,0,1,.464-.18h.288a5.8,5.8,0,0,1,.522-2.248,5.174,5.174,0,0,1,1.421-1.709v1.367a.626.626,0,0,0,.185.464.637.637,0,0,0,.468.183.62.62,0,0,0,.463-.183.636.636,0,0,0,.18-.464v-1.943a5.614,5.614,0,0,1,.666-.2,3.329,3.329,0,0,1,.773-.09,3.329,3.329,0,0,1,.773.09,5.614,5.614,0,0,1,.666.2v1.943a.626.626,0,0,0,.185.464.637.637,0,0,0,.468.183.62.62,0,0,0,.463-.183.636.636,0,0,0,.18-.464v-1.367a4.833,4.833,0,0,1,1.439,1.709,6.039,6.039,0,0,1,.5,2.248h.364a.618.618,0,0,1,.464.185.643.643,0,0,1,.18.468.6.6,0,0,1-.183.455.652.652,0,0,1-.464.172H75.4a4.715,4.715,0,0,1-1.329,3.541A4.6,4.6,0,0,1,70.722-823.7Zm0-1.943a2.642,2.642,0,0,0,1.979-.773,2.882,2.882,0,0,0,.755-2.1H67.986a2.882,2.882,0,0,0,.755,2.1A2.642,2.642,0,0,0,70.72-825.639Zm10.85,6.152-.058-.612a2.216,2.216,0,0,1-.563-.229q-.3-.167-.516-.275l-.585.228a.465.465,0,0,1-.368-.03.728.728,0,0,1-.27-.27l-.144-.252a.806.806,0,0,1-.054-.378.382.382,0,0,1,.2-.306l.5-.432a.579.579,0,0,1-.072-.252v-.486a.818.818,0,0,1,.072-.27l-.5-.432a.371.371,0,0,1-.2-.288.727.727,0,0,1,.09-.4l.072-.252a.55.55,0,0,1,.3-.288.615.615,0,0,1,.415,0l.54.216q.252-.144.54-.3a2.1,2.1,0,0,1,.54-.207l.072-.612a.628.628,0,0,1,.206-.324.542.542,0,0,1,.369-.144h.13a.619.619,0,0,1,.392.126.587.587,0,0,1,.212.342l.058.612a2.1,2.1,0,0,1,.54.207q.288.153.54.3l.585-.228a.465.465,0,0,1,.368.03.727.727,0,0,1,.27.27l.144.252a.806.806,0,0,1,.054.378.382.382,0,0,1-.2.306l-.5.432a.818.818,0,0,1,.072.27v.486a.579.579,0,0,1-.072.252l.5.432a.371.371,0,0,1,.2.288.727.727,0,0,1-.09.4l-.072.252a.55.55,0,0,1-.3.288.615.615,0,0,1-.415,0l-.54-.216q-.216.108-.516.275a2.216,2.216,0,0,1-.563.229l-.072.612a.628.628,0,0,1-.206.324.542.542,0,0,1-.369.144h-.13a.62.62,0,0,1-.392-.126A.587.587,0,0,1,81.57-819.488Zm.662-1.763a1.265,1.265,0,0,0,.935-.36,1.265,1.265,0,0,0,.36-.935,1.265,1.265,0,0,0-.36-.935,1.265,1.265,0,0,0-.935-.36,1.265,1.265,0,0,0-.935.36,1.265,1.265,0,0,0-.36.935,1.265,1.265,0,0,0,.36.935A1.265,1.265,0,0,0,82.232-821.25Zm2.806-6.188-.072-.648a3.1,3.1,0,0,1-.827-.288,1.794,1.794,0,0,1-.684-.576l-.791.288a.758.758,0,0,1-.462,0,.538.538,0,0,1-.33-.324l-.108-.252a.66.66,0,0,1-.09-.486.658.658,0,0,1,.234-.378l.612-.5a2.974,2.974,0,0,0-.036-.4,2.975,2.975,0,0,1-.036-.4,2.974,2.974,0,0,1,.036-.4,2.975,2.975,0,0,0,.036-.4l-.612-.5a.658.658,0,0,1-.234-.378.66.66,0,0,1,.09-.486l.108-.252a.538.538,0,0,1,.33-.324.758.758,0,0,1,.462,0l.791.288a1.794,1.794,0,0,1,.684-.576,3.1,3.1,0,0,1,.827-.288l.06-.659a.85.85,0,0,1,.246-.438.62.62,0,0,1,.45-.2h.216a.608.608,0,0,1,.44.193.852.852,0,0,1,.243.455l.072.648a3.1,3.1,0,0,1,.827.288,1.794,1.794,0,0,1,.684.576l.791-.288a.758.758,0,0,1,.462,0,.538.538,0,0,1,.33.324l.108.252a.66.66,0,0,1,.09.486.658.658,0,0,1-.234.378l-.612.5a2.975,2.975,0,0,0,.036.4,2.973,2.973,0,0,1,.036.4,2.973,2.973,0,0,1-.036.4,2.974,2.974,0,0,0-.036.4l.612.5a.658.658,0,0,1,.234.378.66.66,0,0,1-.09.486l-.108.252a.538.538,0,0,1-.33.324.758.758,0,0,1-.462,0l-.791-.288a1.794,1.794,0,0,1-.684.576,3.1,3.1,0,0,1-.827.288l-.06.659a.85.85,0,0,1-.246.438.62.62,0,0,1-.45.2h-.216a.609.609,0,0,1-.44-.193A.852.852,0,0,1,85.038-827.438Zm.787-2.015a1.892,1.892,0,0,0,1.389-.554,1.871,1.871,0,0,0,.558-1.385,1.892,1.892,0,0,0-.554-1.389,1.871,1.871,0,0,0-1.385-.558,1.892,1.892,0,0,0-1.389.554,1.871,1.871,0,0,0-.558,1.385,1.892,1.892,0,0,0,.554,1.389A1.871,1.871,0,0,0,85.826-829.453ZM70.72-812.94Z" transform="translate(-60 836)" fill="#bcbdbf"/>
</svg>
