<svg xmlns="http://www.w3.org/2000/svg" width="30.005" height="25.389" viewBox="0 0 30.005 25.389">
  <g id="website_design" data-name="website design" transform="translate(-24 -40)">
    <path id="Path_220" data-name="Path 220" d="M59.7,49.154v5.77H32v-5.77A1.154,1.154,0,0,1,33.154,48H58.543A1.154,1.154,0,0,1,59.7,49.154Z" transform="translate(-6.846 -6.846)" fill="#bcbdbf" opacity="0.2"/>
    <path id="Path_221" data-name="Path 221" d="M51.7,40H26.308A2.308,2.308,0,0,0,24,42.308V63.081a2.308,2.308,0,0,0,2.308,2.308H51.7A2.308,2.308,0,0,0,54,63.081V42.308A2.308,2.308,0,0,0,51.7,40Zm0,2.308v4.616H26.308V42.308Zm0,20.773H26.308V49.232H51.7Z" fill="#bcbdbf"/>
  </g>
</svg>
