<svg xmlns="http://www.w3.org/2000/svg" width="19.276" height="29.984" viewBox="0 0 19.276 29.984">
  <g id="Mobile_App_Design_" data-name="Mobile App Design  " transform="translate(-56 -16)">
    <path id="Path_226" data-name="Path 226" d="M81.134,56V75.276H64V56Z" transform="translate(-6.929 -34.646)" fill="#bcbdbf" opacity="0.2"/>
    <path id="Path_227" data-name="Path 227" d="M72.063,16H59.213A3.213,3.213,0,0,0,56,19.213V42.772a3.213,3.213,0,0,0,3.213,3.213h12.85a3.213,3.213,0,0,0,3.213-3.213V19.213A3.213,3.213,0,0,0,72.063,16ZM58.142,22.425H73.134V39.559H58.142Zm1.071-4.283h12.85a1.071,1.071,0,0,1,1.071,1.071v1.071H58.142V19.213A1.071,1.071,0,0,1,59.213,18.142Zm12.85,25.7H59.213a1.071,1.071,0,0,1-1.071-1.071V41.7H73.134v1.071A1.071,1.071,0,0,1,72.063,43.843Z" transform="translate(0)" fill="#bcbdbf"/>
  </g>
</svg>
