<svg xmlns="http://www.w3.org/2000/svg" width="30.007" height="24.995" viewBox="0 0 30.007 24.995">
  <g id="Group_12480" data-name="Group 12480" transform="translate(-7.992 -24.039)">
    <path id="Path_230" data-name="Path 230" d="M43.968,43.5a6,6,0,0,1-4,5.66h0V50a5,5,0,1,1-10,0,5,5,0,1,1-10,0v-.841h0a6,6,0,0,1,0-11.32V37a5,5,0,1,1,10,0,5,5,0,1,1,10,0v.841a6,6,0,0,1,4,5.66Z" transform="translate(-6.969 -6.966)" fill="#bcbdbf" opacity="0.2"/>
    <path id="Path_231" data-name="Path 231" d="M38,36.537a7.015,7.015,0,0,0-4-6.327v-.174a6,6,0,0,0-11-3.312,6,6,0,0,0-11,3.312v.174a7,7,0,0,0,0,12.652v.176A6,6,0,0,0,23,46.35a6,6,0,0,0,11-3.312v-.176A7.013,7.013,0,0,0,38,36.537Zm-20,10.5a4,4,0,0,1-3.977-3.57,6.986,6.986,0,0,0,.976.069h1a1,1,0,0,0,0-2h-1a5,5,0,0,1-1.667-9.718,1,1,0,0,0,.666-.943v-.841a4,4,0,0,1,8,0V38.57a5.976,5.976,0,0,0-4-1.533,1,1,0,1,0,0,2,4,4,0,1,1,0,8Zm13-5.5H30a1,1,0,1,0,0,2h1a6.985,6.985,0,0,0,.976-.07A4,4,0,1,1,28,39.037a1,1,0,0,0,0-2,5.976,5.976,0,0,0-4,1.533V30.035a4,4,0,1,1,8,0v.841a1,1,0,0,0,.666.943A5,5,0,0,1,31,41.538Zm2-6.5a1,1,0,0,1-1,1h-.5a4.5,4.5,0,0,1-4.5-4.5v-.5a1,1,0,1,1,2,0v.5a2.5,2.5,0,0,0,2.5,2.5H32A1,1,0,0,1,33,35.036Zm-18.5,1h-.5a1,1,0,0,1,0-2h.5a2.5,2.5,0,0,0,2.5-2.5v-.5a1,1,0,1,1,2,0v.5A4.5,4.5,0,0,1,14.495,36.037Z" transform="translate(0 0)" fill="#bcbdbf"/>
  </g>
</svg>
