<svg xmlns="http://www.w3.org/2000/svg" width="192" height="176" viewBox="0 0 192 176">
  <g id="Design_systems" data-name="Design systems" transform="translate(-32 -48)">
    <path id="Path_66540" data-name="Path 66540" d="M216,56v64H160V56ZM40,208a8,8,0,0,0,8,8H88a8,8,0,0,0,8-8V120H40Z" fill="#bcbdbf" opacity="0.2"/>
    <path id="Path_66541" data-name="Path 66541" d="M216,48H40a8,8,0,0,0-8,8V208a16,16,0,0,0,16,16H88a16,16,0,0,0,16-16V160h48v16a16,16,0,0,0,16,16h40a16,16,0,0,0,16-16V56A8,8,0,0,0,216,48Zm-8,64H168V64h40ZM88,64v48H48V64Zm0,144H48V128H88Zm16-64V64h48v80Zm64,32V128h40v48Z" fill="#bcbdbf"/>
  </g>
</svg>
