<svg xmlns="http://www.w3.org/2000/svg" width="176" height="208" viewBox="0 0 176 208">
  <g id="landing_pages" data-name="landing pages" transform="translate(-40 -24)">
    <path id="Path_66536" data-name="Path 66536" d="M208,88H152V32Z" fill="#bcbdbf" opacity="0.2"/>
    <path id="Path_66537" data-name="Path 66537" d="M213.66,82.34l-56-56A8,8,0,0,0,152,24H56A16,16,0,0,0,40,40V216a16,16,0,0,0,16,16H200a16,16,0,0,0,16-16V88A8,8,0,0,0,213.66,82.34ZM160,51.31,188.69,80H160ZM200,216H56V40h88V88a8,8,0,0,0,8,8h48Z" fill="#bcbdbf"/>
  </g>
</svg>
