<svg xmlns="http://www.w3.org/2000/svg" width="208" height="192" viewBox="0 0 208 192">
  <g id="web_app_design" data-name="web app design" transform="translate(-24 -40)">
    <path id="Path_66542" data-name="Path 66542" d="M224,64v88H32V64A16,16,0,0,1,48,48H208A16,16,0,0,1,224,64Z" fill="#bcbdbf" opacity="0.2"/>
    <path id="Path_66543" data-name="Path 66543" d="M208,40H48A24,24,0,0,0,24,64V176a24,24,0,0,0,24,24h72v16H96a8,8,0,0,0,0,16h64a8,8,0,0,0,0-16H136V200h72a24,24,0,0,0,24-24V64A24,24,0,0,0,208,40ZM48,56H208a8,8,0,0,1,8,8v80H40V64A8,8,0,0,1,48,56ZM208,184H48a8,8,0,0,1-8-8V160H216v16A8,8,0,0,1,208,184Z" fill="#bcbdbf"/>
  </g>
</svg>
