<svg id="Group_12497" data-name="Group 12497" xmlns="http://www.w3.org/2000/svg" xmlns:xlink="http://www.w3.org/1999/xlink" width="210.062" height="50.351" viewBox="0 0 210.062 50.351">
  <defs>
    <clipPath id="clip-path">
      <rect id="Rectangle_11984" data-name="Rectangle 11984" width="210.062" height="50.351" fill="#fff"/>
    </clipPath>
  </defs>
  <g id="Group_12496" data-name="Group 12496" clip-path="url(#clip-path)">
    <path id="Path_20530" data-name="Path 20530" d="M46.705,17.122c-.1.311-.2.619-.311.921H35.311a6.053,6.053,0,0,0,.736-.921ZM36.7,15.769a6.1,6.1,0,0,1-.292.734H46.9c.065-.243.11-.491.162-.734Zm9.52,2.707H34.843a6.009,6.009,0,0,1-2,1.1H45.724q.266-.544.493-1.1M32.964,10.345H47.277C46.342,4.344,41.45,0,34.789,0H8.818L7,10.345H32.964Zm3.97,4.07a4.389,4.389,0,0,1-.047.548H47.233c.031-.183.044-.366.068-.548ZM45.6,19.829H8.771L6.946,30.177H29.469a3.873,3.873,0,0,1,3.905,4.743A5.912,5.912,0,0,1,27.8,39.66H1.825L0,50.005H25.971c8.322,0,16.284-6.766,17.751-15.085a13.115,13.115,0,0,0-2-9.917A19.238,19.238,0,0,0,45.6,19.829m-9.549-8.121c.047.058.091.118.133.178H47.433c0-.06-.013-.118-.016-.178Zm.721,1.355a3.2,3.2,0,0,1,.089.363H47.412c.008-.123.005-.24.01-.363Z" fill="#fff"/>
    <path id="Path_20531" data-name="Path 20531" d="M387.1,33.4h6.27a2.425,2.425,0,0,0,.243.541h-6.526c-.005-.178.005-.36.013-.541m.016-.366h6.173a2.632,2.632,0,0,1-.02-.433h-6.1c-.016.146-.039.29-.052.433m.042,1.812h7.591a2.222,2.222,0,0,1-.95-.65h-6.7c.013.219.026.436.055.65m9.434-5.435H421.2l1.073-6.09H397.665a11.072,11.072,0,0,0-9.5,6.09Zm-9.142,1.812h6.213a2.157,2.157,0,0,1,.128-.211h-6.27c-.023.068-.05.138-.071.211m25.916,3.769H387.184a7.145,7.145,0,0,0,7.351,6.088h17.756a2.278,2.278,0,0,1,2.3,2.79,3.477,3.477,0,0,1-3.281,2.79H386.192l-1.073,6.088h25.115a11.068,11.068,0,0,0,10.444-8.878,7.252,7.252,0,0,0-7.312-8.878m-26.127-2.864h6.087c.023-.109.05-.217.084-.324h-6.1c-.026.11-.052.214-.073.324m.519-1.812h6.623c.039-.037.073-.071.115-.1h-6.691c-.016.037-.031.068-.047.1" transform="translate(-217.335 -13.161)" fill="#fff"/>
    <path id="Path_20532" data-name="Path 20532" d="M322.857,52.613c-.107.018-.22.034-.329.047l1.1-6.228c.115-.039.233-.081.342-.128Zm-.175-5.973-1.075,6.1c.146-.005.292-.016.436-.029l1.084-6.145a3.5,3.5,0,0,1-.444.073m2.167-.814c-.078.054-.156.107-.237.156L323.46,52.5c.076-.016.151-.034.222-.052Zm-.438,6.419a1.035,1.035,0,0,0,.109-.037l1.271-7.189c-.044.044-.083.091-.128.136Zm6-28.918-5.14,29.218-.039.209a5.056,5.056,0,0,1-4.774,4.057H300.16l-1.073,6.09H319.38a12.65,12.65,0,0,0,11.937-10.147L333.105,42.6l3.388-19.278ZM320.7,52.754h.467l.073,0,1.073-6.09-.073,0h-.467Zm-1.055,0,1.073-6.09H308.544A3.317,3.317,0,0,1,305.2,42.6l3.539-19.278h-6.087L299.113,42.6c-.987,5.6,2.764,10.149,8.358,10.149Zm1.222-6.09-1.073,6.09h.65l1.073-6.09Z" transform="translate(-168.71 -13.164)" fill="#fff"/>
    <path id="Path_20533" data-name="Path 20533" d="M233.685,46.66h.211l-1.073,6.09h-.211Zm-.065,6.09,1.076-6.09h-.107l-1.073,6.09Zm-3.981,0,1.073-6.09h-.65l-1.073,6.09Zm1.159,0h.43l1.076-6.09h-.433Zm4.756-29.427H220.333A12.647,12.647,0,0,0,208.4,33.47L206.785,42.6c-.987,5.594,2.764,10.147,8.358,10.147h13.7l1.073-6.09h-13.7a3.316,3.316,0,0,1-3.344-4.057l1.611-9.134a5.06,5.06,0,0,1,4.774-4.057h15.219a3.316,3.316,0,0,1,3.347,4.057L235.5,46.66l-1.076,6.09h6.09l3.4-19.28c.987-5.594-2.764-10.147-8.356-10.147M229.895,52.75h.54l1.073-6.09h-.541Zm1.809,0h.324l1.073-6.09h-.321Z" transform="translate(-116.606 -13.162)" fill="#fff"/>
    <path id="Path_20534" data-name="Path 20534" d="M142.79,20.214h-.433l1.075-6.09h.434Zm.277-6.09h-.541l-1.073,6.09h.54Zm-1.446,0-1.073,6.09h.65l1.073-6.09Zm4.529,0-1.076,6.09h.107l1.073-6.09Zm-1.491,0h-.324l-1.073,6.09h.323Zm3.65-7.1-1.253,7.1-1.075,6.09h0L143.657,33.4a5.064,5.064,0,0,1-4.777,4.059H123.661a3.317,3.317,0,0,1-3.344-4.059l1.611-9.134a5.06,5.06,0,0,1,4.774-4.057h13.7l1.075-6.09h-13.7A12.647,12.647,0,0,0,115.841,24.27L114.23,33.4c-.987,5.594,2.764,10.147,8.358,10.147h15.219A12.648,12.648,0,0,0,149.744,33.4L154.4,7.021Zm-2.853,7.1h-.211l-1.073,6.09h.211Z" transform="translate(-64.375 -3.962)" fill="#fff"/>
    <path id="Path_20535" data-name="Path 20535" d="M472.031,12.007a2.406,2.406,0,0,1-1.848-.783,2.341,2.341,0,0,1-.6-1.913,2.87,2.87,0,0,1,1-1.911,2.98,2.98,0,0,1,2.015-.775,2.4,2.4,0,0,1,1.843.775,2.344,2.344,0,0,1,.6,1.911,3.061,3.061,0,0,1-3,2.7m-1.911-2.7a2.032,2.032,0,0,0,.462,1.59,1.85,1.85,0,0,0,1.5.66,2.287,2.287,0,0,0,1.626-.655,2.519,2.519,0,0,0,.785-1.595,2.02,2.02,0,0,0-.454-1.59,1.859,1.859,0,0,0-1.488-.647,2.323,2.323,0,0,0-1.637.647,2.456,2.456,0,0,0-.794,1.59m1.467,1.556h-.473l.324-3.1h1.209q1.065,0,.976.883a.9.9,0,0,1-.872.856l.718,1.365h-.528l-.676-1.344h-.54Zm.825-1.744a.991.991,0,0,0,.512-.11.486.486,0,0,0,.212-.394.362.362,0,0,0-.12-.332.768.768,0,0,0-.509-.125h-.637l-.1.961Z" transform="translate(-264.99 -3.738)" fill="#fff"/>
    <path id="Path_20536" data-name="Path 20536" d="M113.648,103.559a5.1,5.1,0,0,1,1.118-.115,1.854,1.854,0,0,1,1.263.4,1.206,1.206,0,0,1,.376.935,1.776,1.776,0,0,1-.62,1.348,2.442,2.442,0,0,1-1.562.49,3.711,3.711,0,0,1-.528-.038l-.39,2.068h-.628Zm.146,2.481a2.335,2.335,0,0,0,.513.054,1.316,1.316,0,0,0,1.455-1.271c0-.613-.437-.857-1.026-.857a2.322,2.322,0,0,0-.559.054Z" transform="translate(-63.587 -58.377)" fill="#fff"/>
    <path id="Path_20537" data-name="Path 20537" d="M126.564,106.265h-1.876l-.352,1.884h2.113l-.107.544h-2.749l.98-5.161h2.634l-.107.544h-1.991l-.314,1.654h1.876Z" transform="translate(-69.748 -58.426)" fill="#fff"/>
    <path id="Path_20538" data-name="Path 20538" d="M134.832,103.559a5.628,5.628,0,0,1,1.126-.115,1.826,1.826,0,0,1,1.233.375,1.116,1.116,0,0,1,.383.857,1.6,1.6,0,0,1-1.226,1.493l-.007.015c.36.123.536.505.574,1.041a8.626,8.626,0,0,0,.161,1.417h-.658a11.81,11.81,0,0,1-.123-1.248c-.038-.7-.3-1-.812-1h-.566l-.421,2.251h-.636Zm.184,2.343h.567a1.211,1.211,0,0,0,1.325-1.148c0-.552-.414-.8-1-.8a2.13,2.13,0,0,0-.536.054Z" transform="translate(-75.541 -58.377)" fill="#fff"/>
    <path id="Path_20539" data-name="Path 20539" d="M144.937,107.786a1.954,1.954,0,0,0,1.095.329,1.016,1.016,0,0,0,1.118-.972c0-.383-.222-.666-.758-.965-.658-.352-1.026-.765-1.026-1.324a1.6,1.6,0,0,1,1.746-1.517,1.98,1.98,0,0,1,1.056.276l-.23.513a1.759,1.759,0,0,0-.9-.237.926.926,0,0,0-1.018.843c0,.421.26.658.8.957a1.514,1.514,0,0,1,.988,1.378,1.657,1.657,0,0,1-1.861,1.593,2.141,2.141,0,0,1-1.241-.352Z" transform="translate(-81.663 -58.316)" fill="#fff"/>
    <path id="Path_20540" data-name="Path 20540" d="M160.148,105.451a3.644,3.644,0,0,1-.935,2.5,2.46,2.46,0,0,1-1.769.72,1.919,1.919,0,0,1-1.96-2.1,3.7,3.7,0,0,1,.988-2.535,2.519,2.519,0,0,1,1.73-.7,1.887,1.887,0,0,1,1.945,2.113m-3.209-1.057a3.24,3.24,0,0,0-.789,2.121c0,.843.375,1.616,1.386,1.616a1.683,1.683,0,0,0,1.179-.513,3.328,3.328,0,0,0,.765-2.136c0-.735-.237-1.608-1.363-1.608a1.636,1.636,0,0,0-1.179.521" transform="translate(-87.745 -58.317)" fill="#fff"/>
    <path id="Path_20541" data-name="Path 20541" d="M168.934,108.692l.98-5.161h.7l1.187,2.926a11.023,11.023,0,0,1,.452,1.439l.015-.007a13.3,13.3,0,0,1,.214-1.616l.521-2.742h.6l-.988,5.161h-.628l-1.172-2.918a9.655,9.655,0,0,1-.483-1.485l-.023.007c-.054.483-.138,1-.268,1.7l-.513,2.7Z" transform="translate(-95.335 -58.426)" fill="#fff"/>
    <path id="Path_20542" data-name="Path 20542" d="M182.522,107.062l-.82,1.631h-.674l2.673-5.161h.75l.712,5.161h-.651l-.206-1.631Zm1.73-.506-.2-1.493c-.031-.268-.069-.643-.092-.95h-.015c-.138.307-.268.628-.421.942l-.773,1.5Z" transform="translate(-102.16 -58.426)" fill="#fff"/>
    <path id="Path_20543" data-name="Path 20543" d="M195,103.531h.636l-.88,4.61h2.082l-.107.552h-2.711Z" transform="translate(-109.492 -58.426)" fill="#fff"/>
    <path id="Path_20544" data-name="Path 20544" d="M211.106,104.083H209.6l.107-.551h3.66l-.107.551h-1.516l-.873,4.61h-.636Z" transform="translate(-118.283 -58.426)" fill="#fff"/>
    <path id="Path_20545" data-name="Path 20545" d="M220.31,103.559a5.628,5.628,0,0,1,1.126-.115,1.826,1.826,0,0,1,1.233.375,1.116,1.116,0,0,1,.383.857,1.6,1.6,0,0,1-1.226,1.493l-.007.015c.36.123.536.505.574,1.041a8.626,8.626,0,0,0,.161,1.417H221.9a11.8,11.8,0,0,1-.123-1.248c-.038-.7-.3-1-.812-1h-.566l-.421,2.251h-.636Zm.184,2.343h.567a1.211,1.211,0,0,0,1.325-1.148c0-.552-.414-.8-1-.8a2.13,2.13,0,0,0-.536.054Z" transform="translate(-123.779 -58.377)" fill="#fff"/>
    <path id="Path_20546" data-name="Path 20546" d="M231.115,107.062l-.819,1.631h-.674l2.673-5.161h.75l.712,5.161h-.651l-.206-1.631Zm1.73-.506-.2-1.493c-.031-.268-.069-.643-.092-.95h-.015c-.138.307-.268.628-.421.942l-.773,1.5Z" transform="translate(-129.583 -58.426)" fill="#fff"/>
    <path id="Path_20547" data-name="Path 20547" d="M244.23,103.531l-.98,5.161h-.635l.98-5.161Z" transform="translate(-136.915 -58.426)" fill="#fff"/>
    <path id="Path_20548" data-name="Path 20548" d="M248.732,108.692l.98-5.161h.7l1.187,2.926a11.011,11.011,0,0,1,.452,1.439l.016-.007a13.376,13.376,0,0,1,.214-1.616l.521-2.742h.605l-.988,5.161h-.628l-1.172-2.918a9.647,9.647,0,0,1-.482-1.485l-.023.007c-.053.483-.137,1-.267,1.7l-.513,2.7Z" transform="translate(-140.367 -58.426)" fill="#fff"/>
    <path id="Path_20549" data-name="Path 20549" d="M263.446,103.531l-.98,5.161h-.635l.98-5.161Z" transform="translate(-147.759 -58.426)" fill="#fff"/>
    <path id="Path_20550" data-name="Path 20550" d="M267.948,108.692l.98-5.161h.7l1.187,2.926a11.006,11.006,0,0,1,.452,1.439l.016-.007a13.38,13.38,0,0,1,.214-1.616l.521-2.742h.605l-.988,5.161H271l-1.172-2.918a9.647,9.647,0,0,1-.482-1.485l-.023.007c-.053.483-.137,1-.267,1.7l-.513,2.7Z" transform="translate(-151.212 -58.426)" fill="#fff"/>
    <path id="Path_20551" data-name="Path 20551" d="M285.039,108.4a4.067,4.067,0,0,1-1.455.276,2.146,2.146,0,0,1-1.685-.643,2.228,2.228,0,0,1-.521-1.509,3.026,3.026,0,0,1,3.132-3.116,2.633,2.633,0,0,1,1.217.237l-.206.535a2.459,2.459,0,0,0-1.087-.222,2.3,2.3,0,0,0-1.6.628,2.67,2.67,0,0,0-.774,1.892,1.481,1.481,0,0,0,1.646,1.654,2.066,2.066,0,0,0,.789-.146l.291-1.539h-1.049l.1-.521h1.669Z" transform="translate(-158.791 -58.357)" fill="#fff"/>
  </g>
</svg>
