<svg xmlns="http://www.w3.org/2000/svg" width="142.596" height="67.478" viewBox="0 0 142.596 67.478">
  <g id="Logo-Green" transform="translate(-0.05)">
    <path id="Path_1" data-name="Path 1" d="M376.692,16.11a12.623,12.623,0,0,0-1.864,7.16c-5.036-3.538-10.733-.743-10.733-.743,4.318.676,5.908,3.211,5.908,3.211-8.129-1.733-11.375,4.442-11.375,4.442a18.868,18.868,0,0,1,10.32,0C358.526,32.095,357.58,40.3,357.58,40.3a20.937,20.937,0,0,1,11.9-5.046c-9.441,5.568-7.676,13.865-7.676,13.865,3.929-7.5,9.718-8.951,9.718-8.951-4.244,6.977-3.645,13-3.645,13a21.09,21.09,0,0,1,6.668-8.022S373.666,56.4,376.7,63c3.033-6.6,2.154-17.857,2.154-17.857a21.073,21.073,0,0,1,6.665,8.022s.6-6.022-3.645-13c0,0,5.789,1.453,9.721,8.951,0,0,1.753-8.3-7.688-13.865a20.927,20.927,0,0,1,11.9,5.046s-.943-8.208-11.365-10.122a18.9,18.9,0,0,1,10.32,0s-3.246-6.168-11.375-4.442c0,0,1.59-2.53,5.91-3.206,0,0-5.695-2.8-10.733.743A12.769,12.769,0,0,0,376.692,16.11Z" transform="translate(-273.464 -16.11)" fill="#fff"/>
    <path id="Path_2" data-name="Path 2" d="M513.06,210.812a14.462,14.462,0,0,0,2.538,2.768,5.18,5.18,0,0,0,3.863-.52,2.738,2.738,0,0,0,1.258-2.147,35.379,35.379,0,0,1-3.61-.072c-.77-.047-1.513-.092-2.35-.092-.52,0-1.075.017-1.7.062" transform="translate(-390.447 -162.558)" fill="#fff"/>
    <path id="Path_3" data-name="Path 3" d="M275.53,177.17h0m74.291,1.077c-.354.057-.725.119-1.127.176-.621.089-1.263.163-1.914.23-1.31.154-2.833.3-4.61.448-7.784.626-14.566.743-19.516,3.281h0c-5.994,2.954-7.7,9.755-7.7,9.755s-1.706-6.8-7.7-9.755h0c-4.949-2.53-11.729-2.654-19.513-3.273-1.78-.144-3.3-.295-4.613-.448-.651-.067-1.292-.141-1.911-.23-.4-.057-.775-.119-1.127-.176-3.714-.579-4.563-1.077-4.563-1.077l.381.322c-.248-.2-.381-.322-.381-.322s1.894,4.474,8.245,5.348c9.837,1.349,23.059.577,24.178,5.717a12.137,12.137,0,0,1-2.595-.525,3.714,3.714,0,0,0,2.077,3.343c2,1.013,2.845,2.048,2.367,5.291a10.269,10.269,0,0,1-.332,1.439l-.062-.035a22.686,22.686,0,0,0-2.971-1.513,59.925,59.925,0,0,1-5.516-2.55s-.141.681,1.3,1.538,5.12,2.709,5.739,3.934a.5.5,0,0,1-.1.515.552.552,0,0,1-.045.055.946.946,0,0,1-.067.079,2.887,2.887,0,0,1-2.147.854c-1.981-5.1-6.16-3.149-10.974-4.08.418,4.108,2.449,6.472,5.073,7.5a10.732,10.732,0,0,0,7.4,0h0A12.967,12.967,0,0,0,314.957,196a12.961,12.961,0,0,0,7.859,8.084h0a10.825,10.825,0,0,0,7.4,0c2.622-1.03,4.652-3.395,5.071-7.5-4.813.931-8.98-1.018-10.971,4.08a2.892,2.892,0,0,1-2.149-.854l-.067-.079a.3.3,0,0,1-.042-.055.5.5,0,0,1-.111-.515c.609-1.221,4.3-3.073,5.737-3.929s1.3-1.538,1.3-1.538a59.6,59.6,0,0,1-5.514,2.55,22.606,22.606,0,0,0-2.971,1.513l-.062.035a10.682,10.682,0,0,1-.332-1.439c-.478-3.243.366-4.278,2.369-5.291a3.714,3.714,0,0,0,2.075-3.343,12.129,12.129,0,0,1-2.595.517c1.119-5.14,14.343-4.368,24.178-5.717,6.353-.874,8.245-5.348,8.245-5.348s-.139.126-.379.322l.379-.322s-.854.5-4.561,1.077" transform="translate(-211.729 -137.292)" fill="#fff"/>
    <path id="Path_4" data-name="Path 4" d="M329.15,210.862a35.342,35.342,0,0,1-3.61.072,2.746,2.746,0,0,0,1.26,2.147,5.174,5.174,0,0,0,3.86.52,14.3,14.3,0,0,0,2.538-2.768c-.621-.045-1.179-.062-1.7-.062-.839,0-1.582.045-2.352.092" transform="translate(-249.357 -162.573)" fill="#fff"/>
    <path id="Path_5" data-name="Path 5" d="M20.452,107.2a15.792,15.792,0,0,0,5.794,2.83,37.424,37.424,0,0,0,17.607-.079,21.862,21.862,0,0,0,9.161-4.853,3.159,3.159,0,0,0,.941-1.624c.451-1.8,0-2.521-1.8-2.917a17.538,17.538,0,0,1-1.993-.5c-.676-.248-.787-.686-.357-1.255a4.9,4.9,0,0,1,2.412-1.733.742.742,0,0,1,1.032.433c.141.329.262.669.391,1.005l.126.017a6.559,6.559,0,0,0,.458-1.139,1.889,1.889,0,0,0-.537-1.822c-.47-.441-1.02-.2-1.51.025a5.784,5.784,0,0,0-2.632,2.2,5.965,5.965,0,0,0-.73,1.9,1.56,1.56,0,0,0,1.28,2.043c.839.228,1.706.361,2.545.589.248.067.609.29.629.473a1.057,1.057,0,0,1-.4.743,20.582,20.582,0,0,1-4.845,3.14c-5.866,2.828-13.665,3.219-19.679,2.033a19.179,19.179,0,0,1-9.315-4.5c-.282-.248-.555-.522-.832-.782l-.156.106c.4.743.76,1.51,1.213,2.228a5.89,5.89,0,0,0,1.2,1.456" transform="translate(-18 -75.713)" fill="#fff"/>
    <path id="Path_6" data-name="Path 6" d="M212.11,92.487a.674.674,0,0,0-.035.822,19.558,19.558,0,0,1,.812,1.783c.362.911.218,1.238-.768,1.384a16.322,16.322,0,0,1-2.951.106,1.233,1.233,0,0,1-1.2-1.357c-.015-.924,0-1.847,0-2.771-.042-2.228-.1-4.457-.151-6.685l-.153-.069c-.191.178-.369.371-.574.53a1.372,1.372,0,0,0-.515,1.315c.114,1.54.183,3.083.248,4.628.047,1.156.03,2.318.077,3.466a2.286,2.286,0,0,0,2.114,2.506,18.667,18.667,0,0,0,3.107-.121,1.994,1.994,0,0,0,1.505-1.127c.837-1.354.4-3.511-.842-5.373-.225.334-.423.659-.656.961" transform="translate(-159.83 -68.47)" fill="#fff"/>
    <path id="Path_7" data-name="Path 7" d="M175.106,110.353a6.087,6.087,0,0,0,3.607-1.047.594.594,0,0,0,.2-.277,4.04,4.04,0,0,0-.1-3.771,10.645,10.645,0,0,0-3.667-3.578c-.186.357-.354.644-.5.946-.248.572-.191.678.337,1.01a18.219,18.219,0,0,1,1.7,1.156,4.788,4.788,0,0,1,1.763,2.508c.069.267.114.537-.193.706a4.917,4.917,0,0,1-2.971.772,1.6,1.6,0,0,1-1.644-1.637,1.85,1.85,0,0,0-.054-.218l-.443.032a15.3,15.3,0,0,0,0,1.55,1.992,1.992,0,0,0,1.931,1.847" transform="translate(-134.683 -80.493)" fill="#fff"/>
    <path id="Path_8" data-name="Path 8" d="M224.826,95.868l.99-1.218-1.486-1.32-.99,1.253,1.486,1.285" transform="translate(-172.461 -74.211)" fill="#fff"/>
    <path id="Path_9" data-name="Path 9" d="M106.254,163.83,105.318,165l-1.06-.99-.968,1.159,1.453,1.288.914-1.124,1.094.966.911-1.134-1.409-1.322" transform="translate(-82.135 -127.255)" fill="#fff"/>
    <path id="Path_10" data-name="Path 10" d="M176.34,139.643l.48-.9-.025-.037c-1.292.5-6.821,2.513-8.5,3.075l-.181.827.025.022c1.448-.465,6.725-2.4,8.2-2.991" transform="translate(-130.913 -108.355)" fill="#fff"/>
    <path id="Path_11" data-name="Path 11" d="M221.617,77.8l.478-.9-.022-.035c-1.292.5-3.04,1.089-4.7,1.651l-.178.827.025.022c1.446-.465,2.944-.99,4.415-1.567" transform="translate(-167.834 -61.819)" fill="#fff"/>
    <path id="Path_12" data-name="Path 12" d="M65.056,102.625c1.151-.453,1.78-.661,1.884-.743a8.171,8.171,0,0,0,1.78-1.072,5.006,5.006,0,0,0,1.466-1.634c.072-.129.129-.248.176-.339a1.532,1.532,0,0,0,.173.2c.248.173.384.277.525.277a.292.292,0,0,0,.208-.069c0-.069.069-.1.139-.1.106,0,.314.349.56,1.047a4.419,4.419,0,0,1,.418,1.359c0,.141.035.21.069.21.072,0,.141-.069.248-.248a4.348,4.348,0,0,0,.349-1.221c.248-1.362.522-2.023.8-2.023a.438.438,0,0,1,.349.248c.141.139.21.21.248.21.1,0,.173-.106.208-.28a1.028,1.028,0,0,0,.106-.384.743.743,0,0,0-.248-.453.656.656,0,0,0-.5-.349c-.314,0-.594.349-.874.976a19.992,19.992,0,0,0-.453,2.025.379.379,0,0,1-.069.139c0,.035,0,.035-.035,0v-.139a4.828,4.828,0,0,0-.651-1.827,1.349,1.349,0,0,0-1.082-.743,4.122,4.122,0,0,0-.56.906,4.572,4.572,0,0,1-1.325,1.327c-1.711,1.151-3.036,1.954-3.979,2.476-.208.139-.314.248-.314.277h.035a2.825,2.825,0,0,0,.349-.069" transform="translate(-53.085 -77.168)" fill="#fff"/>
    <path id="Path_13" data-name="Path 13" d="M122.335,98.68a4.177,4.177,0,0,1-.314,1.57,9.635,9.635,0,0,0-.5,1.746,2.476,2.476,0,0,0-.037.522c0,.874.21,1.292.664,1.292s.743-.525.909-1.57c.035-.037.035-.106,0-.106s0-.035-.035,0a.121.121,0,0,0-.035.069c-.248.456-.456.7-.629.7-.314,0-.5-.312-.5-.906a5.022,5.022,0,0,1,.453-1.57,6.481,6.481,0,0,0,.453-2.164,4.085,4.085,0,0,0-1.4-3.281c-.069-.035-.1-.035-.139,0l-.314.557a.171.171,0,0,0,.035.248,4.087,4.087,0,0,1,1.362,2.9" transform="translate(-95.374 -75.433)" fill="#fff"/>
    <path id="Path_14" data-name="Path 14" d="M221.705,145.723a1.734,1.734,0,0,0-.371-.094,8.711,8.711,0,0,0-1.344-.045.617.617,0,0,0-.5.248,2.5,2.5,0,0,0-.344.629.1.1,0,0,0,.015.042h.176a10.983,10.983,0,0,1,1.369.04.5.5,0,0,1,.3.1.652.652,0,0,1-.1.1c-.178.106-.362.21-.542.312l-.884.5a.889.889,0,0,0-.28.218,1.605,1.605,0,0,0,.171-.017l1.287-.389a.864.864,0,0,0,.322-.205,4.081,4.081,0,0,0,.545-.641,5.1,5.1,0,0,0,.3-.466c.092-.158.057-.248-.114-.319" transform="translate(-169.308 -113.52)" fill="#fff"/>
    <path id="Path_15" data-name="Path 15" d="M74.162,127.92a2.874,2.874,0,0,0-.792,1.748c-.007.079,0,.161,0,.248,0,.871.21,1.29.664,1.29s.743-.522.909-1.57c.035-.035.035-.1,0-.1s0-.035-.035,0a.119.119,0,0,0-.037.069c-.248.453-.453.7-.626.7-.314,0-.5-.314-.5-.909a4.77,4.77,0,0,1,.413-1.466Z" transform="translate(-59.62 -100.236)" fill="#fff"/>
    <path id="Path_16" data-name="Path 16" d="M57.181,179.728a.784.784,0,0,0-.05.99c.342.688.619,1.409.909,2.122a.546.546,0,0,1-.376.792,2.252,2.252,0,0,1-.621.193c-.8.057-1.6.1-2.407.111a1.37,1.37,0,0,1-1.53-1.037,6.905,6.905,0,0,1-.309-1.822c-.069-2.082-.077-4.165-.121-6.247-.012-.626-.072-1.238-.114-1.981-.3.29-.513.508-.743.7a1.29,1.29,0,0,0-.451,1.193c.139,2.194.22,4.392.344,6.589a.881.881,0,0,1-.624.968c-.624.248-1.238.5-1.877.721A42.81,42.81,0,0,1,29.7,185a25.81,25.81,0,0,1-8.557-2.5c-.99-.5-1.909-1.1-2.971-1.718a2.493,2.493,0,0,0,.149.376,9.936,9.936,0,0,0,4.566,3.882,27.818,27.818,0,0,0,8.5,1.914,42.632,42.632,0,0,0,17.171-2.129c1.151-.394,2.27-.886,3.449-1.349.059.151.119.322.188.5a2.319,2.319,0,0,0,2.162,1.547,21.5,21.5,0,0,0,2.461-.1,2.32,2.32,0,0,0,1.857-1.283c.787-1.332.248-3.612-.889-5.284-.208.3-.386.6-.607.869" transform="translate(-18.09 -134.042)" fill="#fff"/>
    <path id="Path_17" data-name="Path 17" d="M196.823,173.452a2.124,2.124,0,0,0-1.052,1.882c.114,1.27.248,2.54.317,3.813.062,1.186.084,2.379.04,3.565a1.815,1.815,0,0,1-.894,1.424,1.858,1.858,0,0,1-.072-.295,4.549,4.549,0,0,0-.782-2.305c-.775-1.218-1.535-2.446-2.322-3.654-.2-.309-.312-.565-.057-.9a.438.438,0,0,0-.022-.421c-.6-.654-1.221-1.288-1.837-1.926-.711.938-.743,1.238-.141,2.209.664,1.05,1.384,2.062,2.065,3.1.812,1.238,1.634,2.459,2.4,3.714.446.728.428.817-.391,1.1-1.151.4-2.337.7-3.513,1.028-.384.106-.782.151-1.174.223a6.25,6.25,0,0,0,3.241.651c1.629-.188,3.095-.743,3.815-2.384a6.19,6.19,0,0,0,.579-2.015c.092-1.436.074-2.882.032-4.323-.02-.666-.027-1.258.649-1.619.022,0,.025-.057.045-.1a4.978,4.978,0,0,1-.928-2.766" transform="translate(-146.917 -134.493)" fill="#fff"/>
    <path id="Path_18" data-name="Path 18" d="M232.037,174.945c0-.218-.052-.436-.094-.795-.448.5-.792.852-1.114,1.238a.636.636,0,0,0-.121.406c.02.436.094.869.106,1.3q.131,4.5.248,9c0,.22-.025.443-.047.768.166-.134.248-.186.309-.248a3.194,3.194,0,0,0,.946-2.409q-.116-4.628-.228-9.253" transform="translate(-178.004 -135.02)" fill="#fff"/>
    <path id="Path_19" data-name="Path 19" d="M193.284,232.246a8.883,8.883,0,0,1-1.518-.265c-.168-.05-.267-.334-.4-.513a1.939,1.939,0,0,1,.5-.357.857.857,0,0,1,1.119.451c.248-.359.527-.646.295-1.042a.816.816,0,0,0-1.028-.29,2.414,2.414,0,0,0-1.545,1.2.958.958,0,0,0,.384,1.379c.109.067.225.124.319.176l-.824.931c1.028-.28,1.884-.56,2.761-.73.584-.114.77-.473.923-.99a7.325,7.325,0,0,1-.99.037" transform="translate(-147.792 -177.168)" fill="#fff"/>
    <path id="Path_20" data-name="Path 20" d="M172.3,234.568l1.486,1.283.99-1.211-1.486-1.32-.99,1.238" transform="translate(-134.058 -179.54)" fill="#fff"/>
    <path id="Path_21" data-name="Path 21" d="M140.248,236.859l-.178.827.022.025c1.448-.468,2.944-.99,4.417-1.57l.478-.9-.025-.035c-1.292.5-3.038,1.087-4.7,1.649" transform="translate(-109.808 -180.962)" fill="#fff"/>
    <path id="Path_22" data-name="Path 22" d="M113.2,236.859l-.178.827.025.025c1.446-.468,2.944-.99,4.415-1.57l.478-.9-.022-.035c-1.292.5-3.04,1.087-4.7,1.649" transform="translate(-89.456 -180.962)" fill="#fff"/>
    <path id="Path_23" data-name="Path 23" d="M44.754,193.781a1.349,1.349,0,0,0-1.082-.743c-.035,0-.139.139-.314.418a1.805,1.805,0,0,0-.248.5c0,.106.1.248.28.421a1.02,1.02,0,0,0,.5.277c.1,0,.173-.035.173-.069s.072-.069.176-.069.28.314.557,1.013a4.419,4.419,0,0,1,.418,1.359c0,.141.037.21.072.21s.139-.069.248-.248a3.932,3.932,0,0,0,.349-1.221c.248-1.327.5-2.023.8-2.023a.535.535,0,0,1,.349.248c.141.141.21.21.248.21s.176-.069.21-.28a.822.822,0,0,0,.069-.384.953.953,0,0,0-.21-.453.6.6,0,0,0-.5-.314c-.314,0-.594.314-.872.941a13.765,13.765,0,0,0-.456,2.06c-.035.069-.069.1-.069.139H45.42v-.139a4.751,4.751,0,0,0-.664-1.85" transform="translate(-36.855 -148.924)" fill="#fff"/>
    <path id="Path_24" data-name="Path 24" d="M90.3,205.281c-.215.129-.431.248-.646.371-.352.2-.7.386-1.052.582a1.041,1.041,0,0,0-.334.248,1.391,1.391,0,0,0,.206-.022c.51-.151,1.023-.3,1.533-.463a.99.99,0,0,0,.384-.248,4.638,4.638,0,0,0,.646-.763c.126-.178.248-.364.357-.555s.067-.3-.139-.381a2.051,2.051,0,0,0-.441-.109,9.906,9.906,0,0,0-1.6-.054.743.743,0,0,0-.6.285,2.926,2.926,0,0,0-.409.743.106.106,0,0,0,.017.047h.21a14.364,14.364,0,0,1,1.632.047.651.651,0,0,1,.361.121.7.7,0,0,1-.121.121" transform="translate(-70.781 -157.386)" fill="#fff"/>
    <path id="Path_25" data-name="Path 25" d="M125.092,195.39a2.879,2.879,0,0,0-.792,1.751c-.007.082,0,.161,0,.248,0,.872.21,1.29.664,1.29s.743-.522.906-1.57c.035-.035.035-.106,0-.106s0-.035-.035,0a.131.131,0,0,0-.035.072c-.248.453-.453.7-.629.7-.314,0-.5-.314-.5-.909a4.779,4.779,0,0,1,.413-1.468Z" transform="translate(-97.94 -151.001)" fill="#fff"/>
    <path id="Path_26" data-name="Path 26" d="M171.652,177.32a2.879,2.879,0,0,0-.792,1.748c-.007.079,0,.163,0,.248,0,.874.208,1.292.664,1.292.418,0,.743-.525.906-1.572.035-.035.035-.1,0-.1s0-.035-.035,0a.121.121,0,0,0-.035.069c-.248.453-.453.7-.629.7-.314,0-.5-.314-.5-.906a4.735,4.735,0,0,1,.411-1.468Z" transform="translate(-132.972 -137.405)" fill="#fff"/>
    <path id="Path_27" data-name="Path 27" d="M19.033,269.668a3.248,3.248,0,0,1-.864-2.263,3.075,3.075,0,0,1,.824-2.142,2.813,2.813,0,0,1,2.02-.815,3.384,3.384,0,0,1,1.632.443c.1.064.144.057.161,0l.064-.233c.017-.05.032-.05.1-.05s.089.017.089.129c0,.154.163,1.342.2,1.567,0,.04,0,.074-.032.082l-.121.032c-.04,0-.057,0-.082-.064a3.106,3.106,0,0,0-.629-.99A1.875,1.875,0,0,0,21,264.744c-1.446,0-2.028,1.285-2.02,2.476a3.236,3.236,0,0,0,.777,2.077,1.788,1.788,0,0,0,1.55.678,2.476,2.476,0,0,0,2-1.027c.025-.04.04-.047.064-.022l.1.079c.025.017.042.032.017.074a2.892,2.892,0,0,1-2.407,1.357,2.821,2.821,0,0,1-2.045-.743" transform="translate(-18.089 -202.961)" fill="#fff"/>
    <path id="Path_28" data-name="Path 28" d="M41.718,267.609c-.082.2-.525,1.429-.567,1.6,0,.057-.022.136-.022.178,0,.111.1.178.275.178h.379c.057,0,.082.015.082.054v.186c0,.057-.025.074-.064.074-.114,0-.446-.025-.921-.025-.592,0-.768.025-.881.025-.04,0-.057-.017-.057-.067v-.193c0-.04.032-.054.064-.054h.282c.248,0,.357-.114.47-.374.054-.129.646-1.622.879-2.285.057-.161.711-1.9.785-2.117a.332.332,0,0,0,0-.275.218.218,0,0,1-.057-.1c0-.025.017-.057.072-.074a1.6,1.6,0,0,0,.671-.4c.042-.04.064-.072.106-.072s.064.047.089.136c.154.51.782,2.32.936,2.837.186.629.711,2.132.824,2.367a.6.6,0,0,0,.55.364H45.9c.047,0,.064.022.064.054v.2c0,.04-.025.057-.082.057-.146,0-.314-.025-.971-.025s-.953.025-1.139.025c-.04,0-.064-.025-.064-.074v-.186c0-.047.025-.054.074-.054h.2c.228,0,.3-.082.248-.31-.064-.29-.4-1.325-.508-1.646Zm1.889-.292c-.072-.248-.725-2.261-.768-2.382-.022-.057-.04-.114-.064-.114s-.064.057-.089.121c-.04.1-.807,2.174-.864,2.375Z" transform="translate(-34.47 -202.518)" fill="#fff"/>
    <path id="Path_29" data-name="Path 29" d="M68.312,269.253c.114-.121.921-2.053.99-2.157s.933-2.008.963-2.174c.015-.089.1-.1.186-.1,1.075,0,1.349-.025,1.439-.025.04,0,.047.025.047.057v.186c0,.047,0,.072-.064.072H71.5c-.248,0-.265.146-.265.332,0,.235-.025,1.389-.025,1.931v.564c0,.4.025,1.713.025,1.874,0,.307.072.438.275.438H72c.05,0,.057.022.057.055v.186c0,.05,0,.074-.072.074s-.248-.025-1.132-.025c-.743,0-1.057.025-1.164.025-.057,0-.064-.025-.064-.074v-.186c0-.04,0-.055.064-.055h.55c.136,0,.21-.049.225-.292,0-.1.017-1.5.017-2.1v-.517c0-.535,0-1.981-.025-2.045h-.017c-.079.106-1.238,2.652-1.268,2.724s-.946,2.157-.978,2.228-.1.193-.161.193-.089-.064-.121-.146-1.06-2.6-1.112-2.7c-.154-.371-.889-2.181-.99-2.278-.032.114-.05,2.157-.05,2.253s0,1.8.017,2.085c.04.461.114.592.371.592h.4c.05,0,.057.022.057.055v.2c0,.032,0,.057-.072.057s-.307-.025-.99-.025-.971.025-1.042.025-.074,0-.074-.074V270.3c0-.025,0-.047.05-.047h.428c.307,0,.379-.21.428-.5.1-.574.121-2.642.121-2.788v-1.567c0-.186,0-.3-.332-.3h-.5c-.05,0-.057-.025-.057-.057v-.208c0-.025,0-.049.057-.049s.3.025.99.025c.379,0,.589-.025.686-.025a.183.183,0,0,1,.21.136Z" transform="translate(-52.896 -203.216)" fill="#fff"/>
    <path id="Path_30" data-name="Path 30" d="M99.282,267.489c.064,0,.928-.032,1.025-.047.235-.042.3-.106.371-.356a1.851,1.851,0,0,0,.064-.4.052.052,0,0,1,.057-.057h.2a.049.049,0,0,1,.047.067c-.025.136-.025.8-.025.921,0,.282.032.671.049.839a.057.057,0,0,1-.049.064l-.176.025c-.042,0-.057-.017-.064-.072-.017-.106-.067-.292-.089-.381a.384.384,0,0,0-.349-.314c-.379-.04-.936-.04-1.065-.04v.5c0,.436.015,1.221.015,1.382a.551.551,0,0,0,.461.629,3.348,3.348,0,0,0,.6.057c.136,0,.54,0,.711-.025a1.542,1.542,0,0,0,.7-.282,7.132,7.132,0,0,0,.661-.847c.025-.042.05-.074.1-.05l.131.072c.04.025.04.05.015.114l-.428,1.188a.173.173,0,0,1-.178.121c-.04,0-.218,0-.7-.017s-1.268,0-2.528,0h-.686c-.161,0-.275.017-.347.017s-.074-.017-.074-.057v-.213c0-.032.025-.042.082-.042h.322c.371,0,.406-.055.406-.354v-2.7c0-.671-.017-1.681-.025-1.763-.032-.248-.114-.315-.413-.315h-.287c-.042,0-.064,0-.064-.057v-.218c0-.025.015-.04.057-.04.176,0,.461.025.99.025h2.756c.129,0,.282-.015.322-.015s.057.015.064.04c.032.114.389,1.221.413,1.3,0,.032,0,.055-.025.072l-.121.064a.043.043,0,0,1-.064-.025,6.61,6.61,0,0,0-.81-.921,1.239,1.239,0,0,0-.614-.218l-1.436-.037Z" transform="translate(-77.952 -203.255)" fill="#fff"/>
    <path id="Path_31" data-name="Path 31" d="M120,266.964c0-.517-.015-1.374-.025-1.518-.015-.21-.054-.292-.3-.292h-.381c-.047,0-.054-.04-.054-.079V264.9c0-.042,0-.057.054-.057.089,0,.381.025,1.052.025.782,0,1.122-.025,1.2-.025s.072.025.072.064v.186c0,.04-.017.064-.082.064h-.5c-.248,0-.285.082-.285.315,0,.106-.022,1.327-.022,1.892v.7c0,.136,0,1.882.022,2.214.178.015,1.778.032,2.028,0,.478-.074.963-1.042,1.075-1.359.017-.032.032-.047.064-.032l.131.05c.022.017.022.025.015.072s-.347,1.391-.4,1.609c-.1,0-.743-.017-1.453-.017h-2.667c-.171,0-.248.017-.314.017s-.064-.017-.064-.057v-.2c0-.04,0-.057.057-.057h.4c.3,0,.347-.111.347-.218,0-.154.025-2.164.025-2.657Z" transform="translate(-94.083 -203.255)" fill="#fff"/>
    <path id="Path_32" data-name="Path 32" d="M150.273,269.669a3.247,3.247,0,0,1-.864-2.263,3.075,3.075,0,0,1,.824-2.142,2.813,2.813,0,0,1,2.018-.815,3.368,3.368,0,0,1,1.632.443c.106.064.146.057.163,0l.064-.233c.015-.05.032-.05.1-.05s.089.017.089.129c0,.154.161,1.342.2,1.567,0,.04,0,.074-.032.082l-.121.032c-.042,0-.057,0-.082-.064a3.119,3.119,0,0,0-.631-.99,1.864,1.864,0,0,0-1.4-.621c-1.446,0-2.028,1.285-2.02,2.476a3.246,3.246,0,0,0,.775,2.077,1.8,1.8,0,0,0,1.552.678,2.476,2.476,0,0,0,2-1.027c.025-.04.04-.047.064-.022l.1.079c.025.017.04.032.017.074a2.9,2.9,0,0,1-2.409,1.357,2.82,2.82,0,0,1-2.043-.743" transform="translate(-116.835 -202.961)" fill="#fff"/>
    <path id="Path_33" data-name="Path 33" d="M174.247,266.964c0-.517-.017-1.374-.025-1.518-.015-.21-.057-.292-.3-.292h-.379c-.049,0-.057-.04-.057-.079V264.9c0-.042,0-.057.057-.057.089,0,.379.025,1.05.025.785,0,1.124-.025,1.2-.025s.072.025.072.064v.186c0,.04-.015.064-.079.064h-.5c-.248,0-.282.082-.282.315,0,.106-.025,1.327-.025,1.892v.7c0,.136,0,1.882.025,2.214.176.015,1.778.032,2.028,0,.475-.074.961-1.042,1.075-1.359.015-.032.032-.047.064-.032l.129.05c.025.017.025.025.015.072s-.347,1.391-.394,1.609c-.106,0-.743-.017-1.456-.017H173.8c-.168,0-.26.017-.317.017s-.064-.017-.064-.057v-.2c0-.04,0-.057.057-.057h.389c.3,0,.347-.111.347-.218,0-.154.025-2.164.025-2.657Z" transform="translate(-134.901 -203.255)" fill="#fff"/>
    <path id="Path_34" data-name="Path 34" d="M195.3,270.52a1.486,1.486,0,0,1-.963-1.082,8.5,8.5,0,0,1-.129-1.963v-1.921c0-.285-.057-.413-.307-.413h-.379c-.049,0-.057-.015-.057-.072v-.178c0-.05,0-.064.072-.064s.478.025,1.107.025,1.02-.025,1.107-.025.074.015.074.05v.208c0,.042,0,.057-.064.057h-.406a.361.361,0,0,0-.386.332c0,.072-.017.639-.017,1.05v.535c0,.426.032,1.453.042,1.711a1.939,1.939,0,0,0,.248,1.027,1.51,1.51,0,0,0,1.285.582,1.713,1.713,0,0,0,1.211-.446,2,2,0,0,0,.421-1.421v-1.733c0-.614-.017-1.085-.04-1.285a.361.361,0,0,0-.364-.357H197.4c-.047,0-.057-.025-.057-.064v-.193c0-.042,0-.057.057-.057s.453.025.99.025.815-.025.886-.025.082.032.082.057v.178c0,.047,0,.079-.047.079h-.332c-.3,0-.324.228-.347.324s-.017,1.238-.017,1.34-.017,1.528-.04,1.842a2.1,2.1,0,0,1-.681,1.56,2.152,2.152,0,0,1-1.518.5,2.971,2.971,0,0,1-1.089-.171" transform="translate(-149.987 -203.24)" fill="#fff"/>
    <path id="Path_35" data-name="Path 35" d="M219.442,267.038c0-.3-.017-1.283-.025-1.429-.025-.468-.154-.5-.525-.5h-.248c-.05,0-.064-.015-.064-.057v-.2c0-.042.015-.057.064-.057.129,0,.5.025,1.075.025.248,0,.743-.025,1.025-.025a3.251,3.251,0,0,1,1.431.218,1.131,1.131,0,0,1,.621,1.1c0,.8-.357.99-.99,1.332l.025.017a1.621,1.621,0,0,1,1.307,1.6,1.577,1.577,0,0,1-.621,1.211,2.886,2.886,0,0,1-1.543.292c-.557,0-.872-.025-1.213-.025-.4,0-.879.025-1.032.025-.1,0-.114-.017-.114-.05v-.211c0-.04.017-.054.072-.054h.389c.248,0,.292-.1.324-.357.022-.186.04-1.253.04-1.914Zm.711.317c.154.015.292.015.428.015a1.88,1.88,0,0,0,1.018-.21,1.166,1.166,0,0,0,.453-.968,1,1,0,0,0-.4-.847,1.981,1.981,0,0,0-1.107-.275,1.244,1.244,0,0,0-.267,0,.144.144,0,0,0-.111.144c0,.163-.017.864-.017,1.535Zm0,.775v1.114c0,.743.178,1.075.849,1.075a1.176,1.176,0,0,0,1.3-1.285,1.273,1.273,0,0,0-.807-1.268,3.019,3.019,0,0,0-1.084-.136h-.248Z" transform="translate(-168.88 -203.225)" fill="#fff"/>
  </g>
</svg>
