<svg id="ctbto-white" xmlns="http://www.w3.org/2000/svg" width="408.1" height="105.9" viewBox="0 0 408.1 105.9">
  <g id="Layer_1-2">
    <path id="Path_690" data-name="Path 690" d="M139.6,38.9C133.9,16.6,114.4,0,91,0S47.9,16.6,42.1,38.9H69.4a36.461,36.461,0,0,1,69.1,0Z" fill="#fff"/>
    <path id="Path_691" data-name="Path 691" d="M42.1,42.8C47.9,65.1,67.7,81.7,91,81.7s42.8-16.6,48.6-38.9H112.3A36.469,36.469,0,0,1,77.8,67.6C62,67.6,48.7,57.5,43.6,42.8H42.1Z" fill="#fff"/>
    <path id="Path_692" data-name="Path 692" d="M74.8,41A16.073,16.073,0,0,1,90.7,24.5H91c8.6,0,15.8,7.2,15.8,16.6,0,9-7.2,16.5-15.8,16.5A16.607,16.607,0,0,1,74.8,41Zm8,0A8.39,8.39,0,0,0,91,49.3c4.3,0,7.9-4,7.9-8.3a8.066,8.066,0,0,0-8.1-8.1,7.982,7.982,0,0,0-8,8.1Z" fill="#fff"/>
    <path id="Path_693" data-name="Path 693" d="M10.1,94.3a3.49,3.49,0,0,1-1.4,3.2c-.7.4-1.4.4-3.6.4H4V91H5.8a28.943,28.943,0,0,1,2.9.4,3.424,3.424,0,0,1,1.4,2.9Zm2.1,0a4.348,4.348,0,0,0-1.4-3.6A12.91,12.91,0,0,0,6.5,90H0v.7l1.8.3v13.3H0v1.1H6.5v-1.1H4V99H5.8c2.9,0,4,0,5.1-1.1,1-.7,1.3-1.8,1.3-3.6Z" fill="#fff"/>
    <path id="Path_694" data-name="Path 694" d="M28.1,93.9a3.8,3.8,0,0,1-1.5,2.9c-.7.4-1.4.4-3.6.4h-.7V91h1.4a5.708,5.708,0,0,1,2.9.4,2.825,2.825,0,0,1,1.5,2.5Zm4.6,11.5v-1.1H31l-1.1-2.5c-1.1-2.5-1.8-3.6-2.5-4l1.4-.7a4.41,4.41,0,0,0,.3-6.2l-.3-.3a10.925,10.925,0,0,0-4.4-.6H18.3v.7l1.8.4v13.3H18.3v1.1h6.1v-1.1H22.2V98.2h1.4a2.71,2.71,0,0,1,2.5,1.1,8.867,8.867,0,0,1,1.4,2.5l1.4,3.6Z" fill="#fff"/>
    <path id="Path_695" data-name="Path 695" d="M50.4,105.4v-2.8H49.3l-.4,1.7H42.8V97.9h5l.4,1.8h.7V95h-.7l-.4,1.8h-5V91.1h6.1l.4,1.7h1.1V90H38.5v.7l2.2.4v13.2H38.5v1.1Z" fill="#fff"/>
    <path id="Path_696" data-name="Path 696" d="M66.9,94.3a4.314,4.314,0,0,1-1.4,3.2c-.7.4-1.4.4-3.6.4H60.8V91h1.8a10.855,10.855,0,0,1,2.5.4,2.755,2.755,0,0,1,1.8,2.9Zm2.2,0a3.743,3.743,0,0,0-1.8-3.6,7.91,7.91,0,0,0-4-.7H56.9v.7l1.8.4v13.3H56.9v1.1h6.5v-1.1H60.9V99h1.4c2.9,0,4,0,5-1.1a4.154,4.154,0,0,0,1.8-3.6Z" fill="#fff"/>
    <path id="Path_697" data-name="Path 697" d="M82.8,99.3H77l2.9-7.6,2.9,7.6Zm6.1,6.1v-1.1H86.7L81.3,90H79.1l-5.4,14.4H71.5v1.1H77v-1.1H75.2l1.4-3.9h6.5l1.4,3.9H82.7v1.1Z" fill="#fff"/>
    <path id="Path_698" data-name="Path 698" d="M104.4,93.9a4.033,4.033,0,0,1-1.4,2.9c-.7.4-1.4.4-3.6.4h-.7V91h1.4a5.708,5.708,0,0,1,2.9.4,3.359,3.359,0,0,1,1.4,2.5Zm4.6,11.5v-1.1h-2.2l-.7-2.5c-1.1-2.5-1.8-3.6-2.5-4a4.129,4.129,0,0,0,1.1-.7,3.821,3.821,0,0,0,1.8-3.2,3.49,3.49,0,0,0-1.4-3.2,10.515,10.515,0,0,0-4.3-.7H94.7v.7l1.8.4v13.3H94.7v1.1h6.1v-1.1H98.6V98.3h1.1a3.56,3.56,0,0,1,2.9,1.1,8.867,8.867,0,0,1,1.4,2.5l1.4,3.6Z" fill="#fff"/>
    <path id="Path_699" data-name="Path 699" d="M124.9,99.3h-5.8l2.9-7.6,2.9,7.6Zm6.1,6.1v-1.1h-2.1L123.4,90h-2.2l-5.4,14.4h-2.2v1.1h5.8v-1.1h-2.2l1.4-3.9h6.5l1.4,3.9h-1.8v1.1Z" fill="#fff"/>
    <path id="Path_700" data-name="Path 700" d="M146.8,92.8V90H134.2v2.8h1.1l.4-1.7h3.5v13.2h-1.7v1.1h6.1v-1.1h-2.2V91.1h4l.3,1.7Z" fill="#fff"/>
    <path id="Path_701" data-name="Path 701" d="M163.4,97.9c0,4.3-1.4,6.5-4.7,6.5-2.9,0-4.3-2.2-4.3-6.8,0-4.3,1.4-6.5,4.3-6.5C161.9,91,163.4,93.2,163.4,97.9Zm2.1,0c0-5.4-2.5-8.3-6.8-8.3-4,0-6.5,2.9-6.5,7.9,0,5.4,2.5,8.3,6.5,8.3C163,105.8,165.5,102.9,165.5,97.9Z" fill="#fff"/>
    <path id="Path_702" data-name="Path 702" d="M182.1,93.9a4.033,4.033,0,0,1-1.4,2.9c-.7.4-1.4.4-3.6.4h-.7V91h1.4a5.708,5.708,0,0,1,2.9.4,2.944,2.944,0,0,1,1.4,2.5Zm4.7,11.5v-1.1H185l-1.1-2.5c-1.1-2.5-1.8-3.6-2.5-4a4.13,4.13,0,0,0,1.1-.7,3.821,3.821,0,0,0,1.8-3.2,3.49,3.49,0,0,0-1.4-3.2,10.515,10.515,0,0,0-4.3-.7h-6.1v.7l1.8.4v13.3h-1.8v1.1h6.1v-1.1h-2.1V98.3h1.4a3.25,3.25,0,0,1,2.5,1.1,8.866,8.866,0,0,1,1.4,2.5l1.4,3.6Z" fill="#fff"/>
    <path id="Path_703" data-name="Path 703" d="M205.8,90.7V90h-5.4v.7l1.8.4-3.9,6.4-4-6.4,2.2-.4V90H190v.7l2.1.4,4.7,7.5v5.7H195v1.1h6.1v-1.1H199V98.6l5-7.5Z" fill="#fff"/>
    <path id="Path_704" data-name="Path 704" d="M234.3,104.7v-2.9h-1.1l-.4,2.2a9.246,9.246,0,0,1-2.9.4c-2.5,0-4-2.2-4-6.8,0-4.3,1.8-6.5,4.3-6.5a6.9,6.9,0,0,1,2.5.4l.4,1.8h1.1V90.8a9.16,9.16,0,0,0-4.3-1.1c-4,0-6.5,2.9-6.5,8.3,0,5,2.5,7.9,6.1,7.9a16.117,16.117,0,0,0,4.8-1.2Z" fill="#fff"/>
    <path id="Path_705" data-name="Path 705" d="M251.5,97.9c0,4.3-1.4,6.5-4.3,6.5s-4.7-2.2-4.7-6.8c0-4.3,1.8-6.5,4.7-6.5S251.5,93.2,251.5,97.9Zm2.6,0c0-5.4-2.5-8.3-6.8-8.3s-6.8,2.9-6.8,7.9c0,5.4,2.5,8.3,6.8,8.3S254.1,102.9,254.1,97.9Z" fill="#fff"/>
    <path id="Path_706" data-name="Path 706" d="M280.7,105.4v-1.1h-2.2l-.7-13.2,2.2-.4V90h-5.1l-4.3,13.3L265.9,90h-4.7v.7l1.8.4-.7,13.2h-2.1v1.1h5.4v-1.1h-1.8l.7-12.9,4.7,14H271l5-14,.7,12.9h-2.1v1.1Z" fill="#fff"/>
    <path id="Path_707" data-name="Path 707" d="M307.3,105.4v-1.1h-2.2l-.7-13.2,1.8-.4V90h-4.7l-4.6,13.3L292.5,90h-5v.7l2.2.4-1.1,13.2h-1.8v1.1h5.4v-1.1H290l.8-12.9,5,14h1.8l4.7-14,.7,12.9h-1.8v1.1Z" fill="#fff"/>
    <path id="Path_708" data-name="Path 708" d="M319.5,105.4v-1.1h-1.8V91.1l1.8-.4V90h-6.1v.7l2.2.4v13.2h-2.2v1.1Z" fill="#fff"/>
    <path id="Path_709" data-name="Path 709" d="M336.5,101.1c0-5.8-8.3-3.6-8.3-7.6,0-1.8,1.4-2.5,3.2-2.5a9.667,9.667,0,0,1,2.9.4l.4,1.8h1.1V90.3a21.42,21.42,0,0,0-4.3-.7c-3.2,0-5.4,1.8-5.4,4.3,0,3.6,4.3,4.3,6.8,5.4a1.983,1.983,0,0,1,1.4,2.2c0,1.8-1.8,2.9-3.6,2.9a11.235,11.235,0,0,1-3.2-.4l-.4-1.8H326v2.5a12.909,12.909,0,0,0,4.7,1.1c3.2,0,5.7-1.8,5.8-4.7Z" fill="#fff"/>
    <path id="Path_710" data-name="Path 710" d="M352.6,101.1c0-5.8-8.3-3.6-8.3-7.6,0-1.8,1.8-2.5,3.2-2.5a9.667,9.667,0,0,1,2.9.4l.4,1.8h1.1V90.3a15.475,15.475,0,0,0-4.3-.7c-2.9,0-5,1.8-5,4.3,0,3.6,4,4.3,6.5,5.4a2.256,2.256,0,0,1,1.8,2.2c0,1.8-1.8,2.9-4,2.9a7.017,7.017,0,0,1-2.9-.3l-.4-1.8h-1.1v2.5a10.817,10.817,0,0,0,4.7,1.1c3.3-.1,5.4-1.9,5.4-4.8Z" fill="#fff"/>
    <path id="Path_711" data-name="Path 711" d="M365.2,105.4v-1.1h-2.1V91.1l2.1-.4V90h-6.1v.7l2.2.4v13.2h-2.2v1.1Z" fill="#fff"/>
    <path id="Path_712" data-name="Path 712" d="M383.2,97.9c0,4.3-1.4,6.5-4.7,6.5-2.9,0-4.3-2.2-4.3-6.8,0-4.3,1.4-6.5,4.3-6.5C381.8,91,383.2,93.2,383.2,97.9Zm2.2,0c0-5.4-2.5-8.3-6.8-8.3-4,0-6.8,2.9-6.8,7.9,0,5.4,2.9,8.3,6.8,8.3C382.9,105.8,385.4,102.9,385.4,97.9Z" fill="#fff"/>
    <path id="Path_713" data-name="Path 713" d="M407.7,90.7V90h-5.4v.7l2.2.4v10.7L395.8,90h-3.6v.7l1.8.4v13.2h-1.8v1.1h5.4v-1.1h-2.1V92.8l9,12.6h1V91.1Z" fill="#fff"/>
    <path id="Path_714" data-name="Path 714" d="M214.1,68.7V61.1h-3.2l-1.4,5a36.874,36.874,0,0,1-11.9,2.2c-10.4,0-16.2-8.6-16.2-27.3,0-16.9,6.5-25.2,17.3-25.2a39.047,39.047,0,0,1,10.8,1.4l1.4,5.4h3.2V14.7a40.926,40.926,0,0,0-15.8-3.2c-15.5,0-24.1,10.4-24.1,30.6,0,19.8,8.6,30.6,22.3,30.6,4.6,0,10.8-1.5,17.6-4Z" fill="#fff"/>
    <path id="Path_715" data-name="Path 715" d="M262.7,22.7V12.6H218.4V22.7h3.3l1-6.1h14.4V67.7l-6.4,1v2.9h19.4V68.7l-6.1-1V16.6h14.4l.7,6.1Z" fill="#fff"/>
    <path id="Path_716" data-name="Path 716" d="M303,54.7c0,5.4-2.2,9.7-5.4,11.5-2.9,1.4-5.4,1.8-12.6,1.8h-5V42.5h8.6c5,0,7.5.7,9.7,1.8,2.9,1.8,4.7,5.4,4.7,10.4Zm-1.4-28.1c0,9.4-4,12.2-16.5,12.2h-5V16.2h6.8c7.2,0,8.6,0,11.2,1.8,2.1,1.8,3.5,4.7,3.5,8.6Zm8.6,28.8c0-9.3-4.3-14-13.7-15.1,8.3-1.4,11.9-5.4,11.9-13.3,0-5.8-2.9-10.4-7.5-12.6-3.2-1.4-6.8-1.8-16.9-1.8H267v2.9l6.1,1.1V67.7L267,68.8v2.9h19.4c8.3,0,11.9-.4,15.5-2.2a15.393,15.393,0,0,0,8.3-14.1Z" fill="#fff"/>
    <path id="Path_717" data-name="Path 717" d="M357,22.7V12.6H312.3V22.7h3.6l1.1-6.1h14.4V67.7l-6.5,1v2.9h19.5V68.7l-6.5-1V16.6h14.4l1.1,6.1Z" fill="#fff"/>
    <path id="Path_718" data-name="Path 718" d="M400.5,42.1c0,18-5.8,26.6-16.9,26.6-11.5,0-16.9-8.6-16.9-26.6s5.8-26.6,16.9-26.6C395.1,15.5,400.5,24.1,400.5,42.1Zm7.6,0c0-19.8-8.6-30.6-24.5-30.6S359.5,22,359.5,41.7c0,20.1,8.6,31,24.1,31,15.8,0,24.5-10.8,24.5-30.6Z" fill="#fff"/>
  </g>
</svg>
