<svg xmlns="http://www.w3.org/2000/svg" xmlns:xlink="http://www.w3.org/1999/xlink" width="79.006" height="105.666" viewBox="0 0 79.006 105.666">
  <defs>
    <clipPath id="clip-path">
      <rect id="Rectangle_18" data-name="Rectangle 18" width="79.006" height="78.091" fill="#fff"/>
    </clipPath>
    <clipPath id="clip-path-2">
      <path id="Path_125" data-name="Path 125" d="M327.476,102.824a4.608,4.608,0,0,1-.845-1.706c-.005-.038,0-.077-.005-.094a.952.952,0,0,1,.89-.887,1.038,1.038,0,0,1,1.043.652.875.875,0,0,1-.059.721c-.217.435-.491.84-.733,1.263a.222.222,0,0,1-.172.134.143.143,0,0,1-.12-.083m4.113-8.133c-1.043.07-2.076.306-3.113.468-.407.064-.438.1-.442.514-.012,1.182-.02,2.364-.034,3.546,0,.33-.01.315-.5.334-.274.01-.293-.126-.292-.337,0-1.134-.008-2.267-.006-3.4,0-.226-.054-.333-.3-.256-.639.2-1.291.363-1.917.6-.563.21-1.094.5-1.647.741a.39.39,0,0,0-.273.414c.008.979,0,1.957,0,2.936s0,1.977,0,2.965c0,.2.042.334.267.37.275.044.547.11.82.166a21.36,21.36,0,0,1,3.97,1.138,15.778,15.778,0,0,1,2.673,1.338,10.908,10.908,0,0,1,2.01,1.661c.223.24.309.232.521-.026a1.8,1.8,0,0,1,.285-.32,26.706,26.706,0,0,1,2.341-1.69,17.22,17.22,0,0,1,2.511-1.14,19.44,19.44,0,0,1,4.225-1.086.4.4,0,0,0,.391-.447c-.01-1.957,0-3.915-.014-5.872a.44.44,0,0,0-.2-.332c-.648-.308-1.3-.613-1.968-.87-.572-.219-1.164-.389-1.755-.551-.685-.187-1.373-.375-2.07-.5a19.11,19.11,0,0,0-2.3-.3c-.722-.044-1.448-.086-2.172-.086-.338,0-.676.009-1.013.032" transform="translate(-323.06 -94.66)" fill="#fff"/>
    </clipPath>
    <clipPath id="clip-path-3">
      <path id="Path_126" data-name="Path 126" d="M383.5,0a.484.484,0,0,0-.2.042c-.642.313-1.27.652-1.907.973-.836.422-1.674.841-2.516,1.249a.415.415,0,0,0-.286.427c0,1.482-.007,2.965-.011,4.447,0,.113.016.226.027.362.328-.048.6-.093.88-.129.867-.114,1.732-.278,2.6-.324a19.059,19.059,0,0,1,4.592.209c.5.1,1.016.135,1.513.249.727.166,1.446.367,2.164.57a15.955,15.955,0,0,1,1.838.57c.847.355,1.659.794,2.492,1.183a.655.655,0,0,1,.449.765,1.2,1.2,0,0,0,.01.433c.014.065.129.167.179.157.338-.065.672-.152,1.005-.238.6-.154,1.19-.318,1.787-.469.614-.156,1.23-.3,1.844-.452q.965-.242,1.926-.5a1.829,1.829,0,0,0,.3-.154c-.162-.1-.263-.169-.373-.223-.746-.37-1.5-.73-2.239-1.1-.939-.472-1.872-.956-2.811-1.428-1.376-.693-2.755-1.378-4.13-2.073-1.05-.531-2.091-1.078-3.141-1.607s-2.089-1.029-3.131-1.55c-.893-.447-1.778-.91-2.674-1.35A.431.431,0,0,0,383.512,0Z" transform="translate(-378.582 -0.001)" fill="#fff"/>
    </clipPath>
    <clipPath id="clip-path-4">
      <path id="Path_127" data-name="Path 127" d="M239.478,33.182,236.9,34.487q-1.935.98-3.87,1.96c-1.093.551-2.19,1.1-3.283,1.647q-1.254.633-2.5,1.279a1.252,1.252,0,0,0-.224.214l.743.179c.6.146,1.2.288,1.793.44.621.158,1.24.328,1.86.489s1.274.3,1.9.494c.766.244.818.235.8-.57a.61.61,0,0,1,.36-.617,22.65,22.65,0,0,1,4.8-1.953c.633-.191.646-.1.625-.757-.018-.579-.058-1.158-.07-1.738-.016-.726-.011-1.453-.02-2.18,0-.167-.052-.247-.152-.247a.413.413,0,0,0-.177.054" transform="translate(-227.022 -33.128)" fill="#fff"/>
    </clipPath>
    <clipPath id="clip-path-5">
      <path id="Path_133" data-name="Path 133" d="M659.639,597.634c-.436.259-.907.463-1.324.748a4.681,4.681,0,0,0-2.2,4.17,9.156,9.156,0,0,0,.031.958,9.312,9.312,0,0,1-.027,2.567.547.547,0,0,0,0,.13c.863.122,1.675.227,2.483.356.609.1,1.209.244,1.819.331a4.177,4.177,0,0,0,2.243-.291,6.51,6.51,0,0,0,2.533-2.034,5.356,5.356,0,0,0,.312-.5,10.718,10.718,0,0,0-3.92-.286,12.069,12.069,0,0,0-3.727,1.138.583.583,0,0,1,.075-.267c.392-.681.84-1.337,1.165-2.048a12,12,0,0,0,.59-1.893,6.3,6.3,0,0,0,.2-1.166c.043-.586.046-1.175.041-1.763,0-.106-.046-.2-.147-.2a.3.3,0,0,0-.149.05" transform="translate(-656.114 -597.584)" fill="#fff"/>
    </clipPath>
    <clipPath id="clip-path-6">
      <path id="Path_134" data-name="Path 134" d="M716.925,543.851a6.859,6.859,0,0,0-1.538,1.621,4.043,4.043,0,0,0-.789,2.548,5.771,5.771,0,0,0,.185,1.255,22.568,22.568,0,0,1,.842,3.358c.006.06.159.159.235.15.287-.031.568-.125.854-.146.7-.054,1.409-.084,2.115-.117a7.247,7.247,0,0,0,1.969-.251c1.746-.571,2.611-1.945,3.341-3.583a10.353,10.353,0,0,0-7.18,2.435,10.5,10.5,0,0,0,.259-7.462c-.139.091-.218.138-.292.191" transform="translate(-714.596 -543.66)" fill="#fff"/>
    </clipPath>
    <clipPath id="clip-path-7">
      <path id="Path_135" data-name="Path 135" d="M54.9,550.792a10.261,10.261,0,0,0-7.1-2.438c.08.222.123.378.19.524a6.852,6.852,0,0,0,1.322,1.978,4.289,4.289,0,0,0,2.782,1.291c.857.073,1.721.072,2.579.131.44.03.878.114,1.315.182.2.032.267-.041.294-.241a14.117,14.117,0,0,1,.249-1.394c.207-.849.458-1.687.664-2.537a3.89,3.89,0,0,0-.24-2.294,6.21,6.21,0,0,0-1.646-2.194,7.645,7.645,0,0,0-.641-.5,10.473,10.473,0,0,0,.226,7.5" transform="translate(-47.806 -543.296)" fill="#fff"/>
    </clipPath>
    <clipPath id="clip-path-8">
      <path id="Path_136" data-name="Path 136" d="M32.976,501.91a11.939,11.939,0,0,0-.937,2.223,6.972,6.972,0,0,0-.24,3.21,1.745,1.745,0,0,1,0,.277l-.072.041-.323-.31a6.461,6.461,0,0,0-2.718-1.711,7.584,7.584,0,0,0-1.859-.368c-.2,0-.268.064-.207.259.1.329.177.671.309.989a3.2,3.2,0,0,0,2.958,2.073c.49.033.98.1,1.466.175.273.043.536.148.808.2.147.03.314.116.424-.107.354-.712.712-1.423,1.089-2.124a4.231,4.231,0,0,0,.674-2.767,4.8,4.8,0,0,0-1.011-2.108.244.244,0,0,0-.174-.12c-.06,0-.124.047-.189.166" transform="translate(-26.599 -501.744)" fill="#fff"/>
    </clipPath>
    <clipPath id="clip-path-9">
      <path id="Path_137" data-name="Path 137" d="M755.3,501.869a4.057,4.057,0,0,0-1.1,2.606,4.44,4.44,0,0,0,.67,2.247c.378.678.763,1.355,1.1,2.055.122.257.249.269.469.221.46-.1.921-.2,1.385-.278.558-.093,1.13-.123,1.679-.251a2.752,2.752,0,0,0,1.923-1.441c.262-.519.448-1.078.7-1.69a1.675,1.675,0,0,0-.386-.037,14.455,14.455,0,0,0-2.105.443,5.7,5.7,0,0,0-2.471,1.673,3.068,3.068,0,0,1-.368.3c0-.212-.008-.336,0-.459a9.365,9.365,0,0,0,.083-1.154c-.025-.478-.124-.952-.2-1.427A8.756,8.756,0,0,0,755.6,501.9c-.047-.089-.1-.132-.148-.132s-.1.034-.156.1" transform="translate(-754.198 -501.768)" fill="#fff"/>
    </clipPath>
    <clipPath id="clip-path-10">
      <path id="Path_138" data-name="Path 138" d="M779.6,449.575c-.071.146-.122.3-.181.454a3.4,3.4,0,0,0,.272,3.211c.469.736.988,1.44,1.484,2.159.108.156.184.4.326.448s.332-.127.5-.2c.009,0,.019,0,.028-.008.7-.273,1.41-.53,2.1-.823a2.466,2.466,0,0,0,1.215-1,4.146,4.146,0,0,0,.443-2.488c0-.049-.149-.139-.209-.125a4.377,4.377,0,0,0-.474.189,5.442,5.442,0,0,0-2.609,2.035c-.212.3-.385.633-.629,1.038a1.808,1.808,0,0,1-.125-.4,6.157,6.157,0,0,0-.6-2.66c-.317-.643-.684-1.263-1.057-1.876-.09-.147-.166-.219-.24-.219s-.163.093-.252.275" transform="translate(-779.145 -449.3)" fill="#fff"/>
    </clipPath>
    <clipPath id="clip-path-11">
      <path id="Path_139" data-name="Path 139" d="M19.75,449.423c-.041.053-.086.1-.126.158a8.149,8.149,0,0,0-1.663,4.484,4.016,4.016,0,0,1-.074.408c-.116-.171-.18-.262-.239-.356-.21-.332-.393-.686-.633-.994a5.916,5.916,0,0,0-2.809-1.917c-.178-.062-.261-.015-.265.17,0,.262-.014.523-.007.785a3.087,3.087,0,0,0,2.25,2.948,13.883,13.883,0,0,1,1.791.687c.235.108.322.1.454-.111.391-.614.77-1.24,1.212-1.817a3.813,3.813,0,0,0,.9-3.01,7.8,7.8,0,0,0-.44-1.4c-.036-.1-.1-.153-.167-.153a.246.246,0,0,0-.182.117" transform="translate(-13.93 -449.306)" fill="#fff"/>
    </clipPath>
    <clipPath id="clip-path-12">
      <path id="Path_140" data-name="Path 140" d="M5.8,406.661a2.223,2.223,0,0,1-.164-.158.536.536,0,0,1-.074-.124A4.21,4.21,0,0,0,4.374,404.7a14.271,14.271,0,0,0-1.473-.982c-.093-.059-.242-.109-.291.1a2.694,2.694,0,0,0,1.342,3.207c.635.3,1.252.642,1.883.953a.254.254,0,0,0,.231-.064c.147-.177.259-.381.4-.56.4-.5.814-.992,1.215-1.492a3.1,3.1,0,0,0,.486-2.923,3.948,3.948,0,0,0-.274-.585A7.568,7.568,0,0,0,5.8,406.661" transform="translate(-2.511 -402.354)" fill="#fff"/>
    </clipPath>
    <clipPath id="clip-path-13">
      <path id="Path_141" data-name="Path 141" d="M800.147,403.483c-.018.055-.031.111-.052.165a2.913,2.913,0,0,0,.287,2.9c.525.742,1.126,1.431,1.672,2.16.136.181.212.179.39.073a9.23,9.23,0,0,1,1.234-.653,2.639,2.639,0,0,0,1.94-2.131,6.927,6.927,0,0,0-.016-1.24c-.013-.221-.168-.262-.354-.172a5.031,5.031,0,0,0-2.61,2.6,3.893,3.893,0,0,1-.206.363,2.424,2.424,0,0,1-.171-.375c-.1-.4-.162-.809-.272-1.205a7.065,7.065,0,0,0-1.492-2.575.231.231,0,0,0-.167-.1c-.076,0-.142.068-.183.194" transform="translate(-799.841 -403.289)" fill="#fff"/>
    </clipPath>
    <clipPath id="clip-path-14">
      <path id="Path_142" data-name="Path 142" d="M806.686,354.258c-.01.037-.016.076-.028.112a3.05,3.05,0,0,0,.652,3.12q.681.816,1.391,1.607a.332.332,0,0,0,.308.061c.581-.312,1.125-.706,1.729-.961a2.335,2.335,0,0,0,1.24-2.212v-.018a2.567,2.567,0,0,0-.115-.776c-.042-.131-.107-.2-.255-.108a11.96,11.96,0,0,0-1.178.758,5.551,5.551,0,0,0-1.466,2.063,1.035,1.035,0,0,1-.128-.266,5.432,5.432,0,0,0-.7-1.969,17.1,17.1,0,0,0-1.073-1.523c-.074-.1-.139-.142-.195-.142-.077,0-.137.087-.181.252" transform="translate(-806.475 -354.006)" fill="#fff"/>
    </clipPath>
    <clipPath id="clip-path-15">
      <path id="Path_143" data-name="Path 143" d="M4.858,354.2a6.785,6.785,0,0,0-1.591,2.74c-.094.327-.179.657-.268.985l-.087.005a3.606,3.606,0,0,1-.184-.34,4.641,4.641,0,0,0-2.375-2.465c-.2-.095-.255-.031-.27.133a6.314,6.314,0,0,0-.072,1.182,1.991,1.991,0,0,0,1,1.687c.655.357,1.3.733,1.959,1.083.06.032.218-.031.276-.1.4-.452.774-.927,1.178-1.375a3.254,3.254,0,0,0,.83-3.449c-.058-.168-.106-.251-.175-.251s-.125.054-.224.162" transform="translate(0 -354.036)" fill="#fff"/>
    </clipPath>
    <clipPath id="clip-path-16">
      <path id="Path_144" data-name="Path 144" d="M442.219,784.174c-.295.155-.6.286-.9.427l-.06.144c.1.06.2.113.293.179a9.6,9.6,0,0,1,3.8,5.193.877.877,0,0,0,1.249.537.663.663,0,0,0,.438-.806,18.225,18.225,0,0,0-.95-2.061,11.994,11.994,0,0,0-3.388-3.55.491.491,0,0,0-.287-.115.4.4,0,0,0-.19.052" transform="translate(-441.254 -784.122)" fill="#fff"/>
    </clipPath>
    <clipPath id="clip-path-17">
      <path id="Path_145" data-name="Path 145" d="M829.7,320.342a5.214,5.214,0,0,0-.757,3.633,5.516,5.516,0,0,0,.426,1.192c.053.131.154.217.316.091a2.591,2.591,0,0,0,.747-2.706,9.5,9.5,0,0,1-.362-1.33c-.077-.363-.1-.738-.158-1.169-.088.12-.156.2-.211.289" transform="translate(-828.883 -320.053)" fill="#fff"/>
    </clipPath>
    <clipPath id="clip-path-18">
      <path id="Path_146" data-name="Path 146" d="M19.936,320.239c-.01.057-.006.116-.016.173-.116.641-.234,1.282-.35,1.923a8.608,8.608,0,0,0-.209,1.238,2.32,2.32,0,0,0,.71,1.6c.263.3.345.292.512-.066a4.471,4.471,0,0,0,.244-3.269A5.888,5.888,0,0,0,20,320.12a.59.59,0,0,0-.064.119" transform="translate(-19.36 -320.12)" fill="#fff"/>
    </clipPath>
    <clipPath id="clip-path-19">
      <path id="Path_128" data-name="Path 128" d="M374.164,746.83c-.85.168-1.7.334-2.537.564a18.431,18.431,0,0,0-8.217,5.02,8.377,8.377,0,0,0-1.85,3.3.58.58,0,0,0,.26.678,1.065,1.065,0,0,0,.587.2h.011a1,1,0,0,0,.912-.837,8.737,8.737,0,0,1,1.83-3.357,12.474,12.474,0,0,1,4.315-3.145,8.831,8.831,0,0,1,3.01-.761,7.132,7.132,0,0,1,3.027.551c.9.336,1.744.8,2.63,1.17a7.943,7.943,0,0,0,1.768.578,8.557,8.557,0,0,0,4.72-.676,9.89,9.89,0,0,0,2.812-1.885,1.205,1.205,0,0,0,.166-.251c-.468.063-.9.149-1.334.171a3.779,3.779,0,0,1-.916-.091,17.183,17.183,0,0,1-2.112-.47,19.443,19.443,0,0,0-4.571-.984q-.749-.061-1.5-.062a15.52,15.52,0,0,0-3.011.285" transform="translate(-361.533 -746.545)" fill="#fff"/>
    </clipPath>
    <clipPath id="clip-path-20">
      <path id="Path_129" data-name="Path 129" d="M225.789,746.877c-.724.155-1.445.33-2.162.513-.485.124-.958.3-1.446.414a15.883,15.883,0,0,1-1.731.325,8.124,8.124,0,0,1-1.314.005,5.669,5.669,0,0,1-.747-.141,3.041,3.041,0,0,0,.233.3,8.848,8.848,0,0,0,3.241,2.036,9.279,9.279,0,0,0,1.261.391,14.921,14.921,0,0,0,1.784.2,5.713,5.713,0,0,0,2.358-.362c.743-.278,1.453-.643,2.171-.985a9.413,9.413,0,0,1,3.147-1,7.629,7.629,0,0,1,3.027.329,1.44,1.44,0,0,0,1.452-.515c-.485-.2-.934-.42-1.405-.568-.808-.254-1.627-.471-2.446-.688a17.5,17.5,0,0,0-3.639-.517c-.31-.015-.619-.023-.927-.023a13.582,13.582,0,0,0-2.856.281" transform="translate(-218.389 -746.596)" fill="#fff"/>
    </clipPath>
    <clipPath id="clip-path-21">
      <path id="Path_130" data-name="Path 130" d="M173.276,646.163c.015.568.052,1.135.084,1.7a7.01,7.01,0,0,0,.6,2.463,20.655,20.655,0,0,0,1.05,1.944,7.641,7.641,0,0,0,.576.765l-.056.107a9.03,9.03,0,0,0-3.818-.851,9.79,9.79,0,0,0-3.9.726c.1.15.167.257.246.35a5.87,5.87,0,0,0,2.657,1.9,4.567,4.567,0,0,0,2.513.022c.719-.168,1.419-.42,2.136-.6.588-.15,1.19-.246,1.782-.382a.269.269,0,0,0,.161-.2c-.025-.664-.076-1.328-.105-1.992-.038-.857-.05-1.716-.1-2.573a3.249,3.249,0,0,0-.738-1.788,5.6,5.6,0,0,0-2.733-1.835.656.656,0,0,0-.2-.046c-.116,0-.154.084-.148.289" transform="translate(-167.804 -645.874)" fill="#fff"/>
    </clipPath>
    <clipPath id="clip-path-22">
      <path id="Path_131" data-name="Path 131" d="M598.007,646.112a6.483,6.483,0,0,0-2.23,1.282,3.666,3.666,0,0,0-.944,1.293,6.976,6.976,0,0,0-.386,3.105c.033.835-.069,1.675-.1,2.513a.227.227,0,0,0,.111.182c.184.052.379.064.565.108.824.2,1.646.4,2.47.6a12.321,12.321,0,0,0,1.882.431,4.729,4.729,0,0,0,4.052-1.876c.144-.166.28-.338.464-.56a9.964,9.964,0,0,0-7.755.13l-.034-.084a.492.492,0,0,1,.032-.1.9.9,0,0,1,.1-.139,8.087,8.087,0,0,0,1.429-2.419,17.137,17.137,0,0,0,.5-1.8,8.315,8.315,0,0,0,.194-2.419c-.009-.176-.052-.274-.184-.274a.515.515,0,0,0-.162.033" transform="translate(-594.345 -646.079)" fill="#fff"/>
    </clipPath>
    <clipPath id="clip-path-23">
      <path id="Path_132" data-name="Path 132" d="M112.8,597.88c.019.713.065,1.426.089,2.139a6.382,6.382,0,0,0,.6,2.367,26.086,26.086,0,0,0,1.282,2.281c.041.072.069.152.1.229l-.056.063a10.435,10.435,0,0,0-3.681-1.171,10.854,10.854,0,0,0-3.879.271l-.045.108c.268.324.531.652.805.97a5.368,5.368,0,0,0,2.194,1.541,5.444,5.444,0,0,0,3.177.059,10.693,10.693,0,0,1,2.973-.43c.185.011.275-.048.243-.248a15.85,15.85,0,0,1,0-3.161,4.967,4.967,0,0,0-.951-3.352,6.46,6.46,0,0,0-2.51-1.875.692.692,0,0,0-.244-.081c-.091,0-.112.085-.107.29" transform="translate(-107.22 -597.59)" fill="#fff"/>
    </clipPath>
  </defs>
  <g id="Group_424" data-name="Group 424" transform="translate(-1894.983 1711.459)">
    <g id="Group_147" data-name="Group 147" transform="translate(1894.983 -1711.459)">
      <g id="Group_102" data-name="Group 102">
        <g id="Group_101" data-name="Group 101" clip-path="url(#clip-path)">
          <path id="Path_122" data-name="Path 122" d="M131.156,140.019c.577.5,1.115.977,1.658,1.444a1.608,1.608,0,0,0,.281.158,1.4,1.4,0,0,0,.123-.308c.091-.62.172-1.242.251-1.864.05-.4.116-.435.456-.239.38.219.758.444,1.139.663.246.141.375.1.452-.173.259-.919.519-1.838.754-2.763.3-1.2.607-2.4.869-3.6.188-.868.314-1.75.46-2.628.169-1.02.358-2.038.485-3.063.157-1.267.267-2.54.383-3.812.077-.847.124-1.7.2-2.545.025-.289-.081-.391-.368-.413a46.946,46.946,0,0,0-6.127-.049c-.86.048-1.719.121-2.578.188-.162.013-.322.056-.483.084s-.251-.045-.25-.221c0-1.163,0-2.326,0-3.489a.9.9,0,0,1,.058-.209c.454.142.887.292,1.328.412.649.176,1.3.345,1.958.489.77.168,1.546.31,2.322.453a10.422,10.422,0,0,0,1.143.171,40.781,40.781,0,0,0,7.045.166c.576-.058,1.155-.088,1.732-.139.216-.019.314.04.318.28.009.56.084,1.12.063,1.678q-.111,2.989-.275,5.975c-.05.906-.137,1.811-.24,2.713q-.171,1.5-.4,2.989c-.152.969-.329,1.934-.519,2.9-.138.7-.316,1.389-.476,2.083-.147.639-.283,1.28-.44,1.916-.129.524-.273,1.044-.425,1.561-.2.691-.406,1.383-.637,2.065q-.383,1.133-.82,2.249c-.332.85-.665,1.7-1.045,2.531q-.624,1.361-1.338,2.681A30.573,30.573,0,0,1,136.66,153c-.807,1.188-1.668,2.342-2.552,3.474a13.006,13.006,0,0,1-4.249,3.261c-.7.381-1.463.659-2.2.982a.462.462,0,0,0-.318.428c-.065.809-.153,1.616-.24,2.423-.027.249-.089.494-.122.743a2.3,2.3,0,0,0,.018.368c.443-.279.85-.5,1.22-.776,1.124-.831,2.268-1.64,3.339-2.536a28.45,28.45,0,0,0,4-4.115,40.464,40.464,0,0,0,3.2-4.6,38.431,38.431,0,0,0,2.4-4.665c.533-1.269,1.061-2.542,1.55-3.828.283-.745.492-1.519.721-2.285.257-.858.519-1.715.74-2.583s.4-1.749.589-2.624c.163-.742.333-1.482.481-2.227.1-.53.19-1.064.262-1.6.188-1.4.376-2.8.539-4.2.087-.747.113-1.5.185-2.251a61.517,61.517,0,0,0,.247-6.586c-.01-.842-.06-1.685-.1-2.526-.015-.316-.092-.371-.4-.342-.781.074-1.563.142-2.343.223a41.811,41.811,0,0,1-6.093.068,30.928,30.928,0,0,1-3.4-.4c-.807-.124-1.6-.335-2.4-.513a.407.407,0,0,1-.239-.2c.364-.1.728-.2,1.092-.293.473-.125.945-.253,1.419-.373.382-.1.778-.151,1.146-.283a8.081,8.081,0,0,1,3.126-.258c.937.037,1.874.089,2.811.083.859-.006,1.72-.052,2.576-.131,1.135-.1,2.266-.257,3.4-.391.411-.049.82-.109,1.231-.158.166-.02.265.037.282.232a78.163,78.163,0,0,1,.222,9.693c-.026.736-.056,1.472-.124,2.2-.1,1.095-.239,2.186-.357,3.279-.056.518-.089,1.039-.158,1.555-.1.708-.214,1.412-.324,2.118-.064.409-.119.821-.2,1.227-.112.586-.244,1.168-.364,1.752-.1.49-.189.984-.3,1.471-.2.853-.393,1.708-.621,2.553-.306,1.132-.62,2.262-.973,3.38-.283.9-.6,1.782-.955,2.654-.45,1.12-.92,2.235-1.431,3.329-.472,1.008-.967,2.011-1.529,2.97-.745,1.272-1.525,2.529-2.366,3.74-.752,1.083-1.573,2.124-2.426,3.13a29.741,29.741,0,0,1-3.872,3.835c-1.081.88-2.2,1.725-3.356,2.5a32.228,32.228,0,0,1-3.158,1.841c-1.073.555-2.183,1.046-3.3,1.507-.871.359-1.773.648-2.674.93-.706.221-1.431.382-2.147.571a1.852,1.852,0,0,0-.386.116,1.841,1.841,0,0,1-1.473-.091c-.72-.212-1.459-.36-2.178-.576s-1.4-.48-2.107-.717a28.919,28.919,0,0,1-4.562-2.052,28.5,28.5,0,0,1-4.726-3.1c-1.05-.879-2.114-1.748-3.093-2.7a30.461,30.461,0,0,1-4.046-4.737c-.563-.834-1.19-1.628-1.7-2.493-.756-1.288-1.452-2.613-2.136-3.941-.466-.9-.892-1.83-1.291-2.765-.35-.822-.653-1.665-.949-2.509-.362-1.033-.714-2.07-1.033-3.117-.336-1.1-.644-2.217-.932-3.334-.176-.681-.293-1.377-.435-2.067-.165-.8-.351-1.6-.488-2.406-.166-.981-.3-1.968-.427-2.955s-.228-1.975-.332-2.963c-.042-.395-.064-.792-.09-1.188-.049-.761-.12-1.522-.134-2.284-.041-2.206-.072-4.413-.079-6.62,0-.733.068-1.467.122-2.2.034-.471.107-.939.147-1.41.031-.364.032-.368.384-.328.911.1,1.822.216,2.735.3,1.076.1,2.154.2,3.233.256,1.1.057,2.2.079,3.3.081.607,0,1.215-.062,1.822-.114a6.083,6.083,0,0,1,1.924.356c.626.146,1.247.315,1.869.475l1.772.455c-.116.083-.171.152-.238.166a44.464,44.464,0,0,1-4.961.849,54.007,54.007,0,0,1-6.5.063c-.915-.022-1.828-.181-2.74-.289-.244-.029-.424-.011-.445.289-.009.134-.057.266-.057.4,0,2.345-.007,4.689.009,7.034,0,.675.059,1.351.117,2.025.082.953.172,1.907.29,2.856.154,1.244.32,2.488.517,3.726.131.825.327,1.641.492,2.461.139.689.257,1.383.418,2.067.183.775.4,1.543.608,2.311.176.638.358,1.276.559,1.907.251.787.512,1.57.792,2.347.3.822.6,1.64.934,2.449.307.752.622,1.5.982,2.23.527,1.064,1.058,2.131,1.661,3.152.661,1.12,1.381,2.208,2.121,3.278a31.681,31.681,0,0,0,4.429,5.065,26.781,26.781,0,0,0,3.729,3c.465.3.926.609,1.391.91a.655.655,0,0,0,.175.053.693.693,0,0,0,.04-.211c-.064-.476-.149-.95-.2-1.427-.068-.605-.1-1.215-.176-1.819a.461.461,0,0,0-.228-.322,17.792,17.792,0,0,1-5.1-2.947,13.07,13.07,0,0,1-1.762-1.918c-.634-.8-1.219-1.646-1.779-2.5q-.9-1.382-1.714-2.823c-.458-.815-.886-1.651-1.261-2.507-.6-1.38-1.183-2.773-1.718-4.181-.333-.877-.567-1.792-.845-2.691-.2-.661-.423-1.318-.606-1.985-.17-.621-.306-1.251-.45-1.878-.166-.723-.335-1.446-.483-2.172-.1-.509-.185-1.024-.263-1.538-.179-1.182-.359-2.364-.521-3.548-.081-.593-.134-1.19-.179-1.786-.1-1.36-.227-2.72-.275-4.082-.059-1.645-.054-3.293-.065-4.94,0-.506.015-.517.528-.486,1.11.067,2.219.2,3.328.205,1.451.01,2.908-.022,4.354-.135a27.055,27.055,0,0,0,3.516-.523c1.266-.27,2.505-.662,3.757-1a4.167,4.167,0,0,1,.461-.067c.01.115.024.207.024.3q0,1.614,0,3.227c0,.359-.026.382-.385.339a44.019,44.019,0,0,0-6.229-.33c-.939.022-1.877.075-2.815.123-.343.017-.4.094-.371.439.091,1.088.18,2.176.279,3.263.072.785.15,1.57.241,2.354q.122,1.049.282,2.093c.12.788.25,1.575.4,2.359.149.8.324,1.6.484,2.4.1.487.175.979.285,1.463.1.446.232.886.35,1.329.106.4.207.8.321,1.2.158.552.3,1.108.493,1.649.228.653.279.651.967.184.276-.187.561-.363.846-.536a2.348,2.348,0,0,1,.338-.128l.427,2.743c.155-.12.264-.2.367-.286.48-.407.963-.812,1.435-1.229.171-.15.244-.118.28.093.091.54.181,1.079.277,1.618.037.207.083.412.131.616.044.182.129.211.287.09.371-.286.742-.572,1.13-.834a17.17,17.17,0,0,1,3.425-1.805c.64-.247,1.29-.477,1.95-.665.476-.136.976-.183,1.463-.283a16.875,16.875,0,0,1,3.046-.294c.591-.013.59-.044.6.576a1.511,1.511,0,0,0,.006.174c.021.16.084.221.254.14a2.886,2.886,0,0,1,2.39.028c.2-.135.13-.368.122-.566-.01-.26.07-.361.345-.347.542.028,1.09-.019,1.626.043.665.077,1.321.228,1.98.357a12.081,12.081,0,0,1,1.2.27c.622.189,1.237.4,1.847.628a20.651,20.651,0,0,1,4.526,2.5c.054.038.113.069.171.1.245.137.312.1.36-.176.129-.741.267-1.48.4-2.22a1.713,1.713,0,0,1,.078-.2m-14.6,16.258h0c0-1.617-.006-3.235.005-4.852,0-.286-.079-.378-.375-.39-.724-.03-1.449-.081-2.167-.173-.645-.083-1.285-.22-1.922-.357a9.707,9.707,0,0,1-1.1-.315c-.4-.136-.779-.309-1.174-.448-.118-.042-.265-.073-.323.127-.34,1.178-.756,2.339-1.013,3.535a32.45,32.45,0,0,0-.527,3.689c-.084.865-.028,1.742-.057,2.613a.432.432,0,0,0,.314.454,3.473,3.473,0,0,0,.492.145c.743.188,1.482.393,2.23.555.855.185,1.713.372,2.58.48s1.756.127,2.635.173c.379.02.4-.007.4-.383q0-2.426,0-4.852m1.141-.014h0c0,1.638,0,3.276,0,4.914,0,.262.076.363.349.343.541-.04,1.086-.026,1.624-.082.9-.093,1.8-.213,2.695-.344.5-.072.99-.173,1.476-.293.615-.151,1.221-.337,1.831-.505.628-.172.64-.172.63-.845-.006-.453-.046-.906-.074-1.359-.042-.674-.047-1.354-.139-2.022-.148-1.077-.312-2.156-.547-3.217-.2-.907-.509-1.792-.779-2.683-.116-.382-.238-.41-.6-.282-.647.225-1.3.448-1.961.617a13.144,13.144,0,0,1-1.642.28c-.834.1-1.67.192-2.508.25-.282.02-.357.1-.355.373.011,1.618.005,3.237.005,4.856m-16.973-.9a.9.9,0,0,0,.142.275c.4.4.788.814,1.221,1.175a17.071,17.071,0,0,0,4.29,2.611c.325.138.359.117.373-.234a29.018,29.018,0,0,1,.368-4.328c.167-.866.313-1.738.532-2.591.238-.929.525-1.847.839-2.752.092-.264.036-.353-.169-.465a10.074,10.074,0,0,1-3.087-2.409c-.151-.185-.3-.188-.454-.013a15.436,15.436,0,0,0-2.3,3.279c-.4.824-.725,1.686-1.077,2.534a11.747,11.747,0,0,0-.678,2.917m32.853.159c-.12-.523-.2-1.01-.347-1.476-.265-.842-.525-1.691-.869-2.5a16,16,0,0,0-2.917-4.519c-.281-.309-.312-.3-.609-.029a15.566,15.566,0,0,1-1.393,1.221,11.742,11.742,0,0,1-1.553.912c-.254.131-.233.265-.159.481.208.609.417,1.218.591,1.837.166.593.309,1.194.426,1.8.178.916.376,1.833.472,2.76.112,1.077.126,2.164.18,3.247.017.338.079.4.38.253.843-.406,1.69-.806,2.509-1.256a13.823,13.823,0,0,0,3-2.338,2.847,2.847,0,0,0,.287-.389m-25.516,5.784a.488.488,0,0,0-.063.214c.151,1.157.3,2.313.478,3.466a.733.733,0,0,0,.261.473,8.931,8.931,0,0,0,1.2.614c1.1.475,2.195.965,3.316,1.384.936.349,1.905.607,2.861.9.354.109.445.036.445-.348q0-2.5,0-5c0-.368-.048-.4-.419-.425-.809-.046-1.62-.075-2.424-.161-.88-.095-1.761-.208-2.627-.383-1.006-.2-2-.481-3.024-.734m9.657,7.1a2.4,2.4,0,0,0,.438-.048c1.073-.337,2.149-.665,3.212-1.03a26.851,26.851,0,0,0,3.971-1.747.688.688,0,0,0,.319-.4c.145-.679.262-1.364.365-2.051.077-.515.114-1.035.172-1.553.021-.187-.074-.248-.24-.223a2.534,2.534,0,0,0-.281.07c-.556.149-1.106.328-1.669.442-.848.172-1.7.3-2.559.442a15.569,15.569,0,0,1-2.762.275c-.229,0-.459.073-.688.071-.279,0-.3.142-.3.366.007,1.676,0,3.352,0,5.028,0,.1.01.209.018.361m-7.669-19.8a.667.667,0,0,0,.146.122c.086.038.185.045.272.081a15.3,15.3,0,0,0,3.206.884c.815.142,1.648.187,2.474.258.39.033.409,0,.41-.394q0-3.823,0-7.645c0-.1-.015-.2-.022-.3-1.81.145-5.46,4.1-6.488,7m7.665-7.058c-.01.215-.019.329-.019.443q0,3.778,0,7.555c0,.422,0,.439.42.4.719-.063,1.437-.147,2.154-.229a8.026,8.026,0,0,0,1.083-.153c.924-.237,1.84-.506,2.786-.77a1.681,1.681,0,0,0-.084-.36c-.348-.66-.688-1.325-1.062-1.971a13.268,13.268,0,0,0-1.884-2.482,11.124,11.124,0,0,0-2.639-2.081c-.22-.123-.457-.216-.757-.355m-3.688.1a2.227,2.227,0,0,0-.492,0c-.734.2-1.467.415-2.2.641a14.909,14.909,0,0,0-2.791,1.289,17.121,17.121,0,0,0-2.532,1.819c-.215.177-.2.284-.037.481a9.387,9.387,0,0,0,2.794,2.2.34.34,0,0,0,.322-.078c.447-.766.859-1.553,1.307-2.319a12.606,12.606,0,0,1,2.622-3.163c.314-.273.625-.548,1-.879m6.415.1-.053.081a2.138,2.138,0,0,0,.175.209c.537.5,1.122.959,1.6,1.507a17.6,17.6,0,0,1,1.615,2.131c.494.774.886,1.613,1.32,2.425.075.141.143.2.31.094.528-.338,1.095-.62,1.594-.994s.906-.812,1.379-1.246a17.045,17.045,0,0,0-7.945-4.208" transform="translate(-77.779 -103.89)" fill="#fff"/>
          <path id="Path_123" data-name="Path 123" d="M219.912,218.638c-.153-.539-.3-1.023-.427-1.515-.111-.444-.187-.9-.287-1.343-.119-.533-.249-1.063-.369-1.6q-.082-.365-.142-.735c-.1-.645-.2-1.291-.3-1.935-.118-.72-.253-1.438-.361-2.16-.068-.456-.1-.917-.151-1.375-.078-.648-.164-1.3-.245-1.944-.012-.1-.018-.192-.026-.289-.044-.566-.083-1.133-.134-1.7-.024-.266.1-.376.348-.376,1.239,0,2.479,0,3.718.016.462.006.924.043,1.385.085.711.065,1.421.143,2.131.222.527.059,1.058.1,1.579.2.758.136,1.51.306,2.263.471a10.774,10.774,0,0,1,1.089.276c.61.2,1.208.437,1.814.652a8.88,8.88,0,0,1,2.73,1.51,17.35,17.35,0,0,1,1.582,1.612.689.689,0,0,1,.118.433q.011,4.1.007,8.2c0,.364,0,.363-.335.238-.687-.26-1.368-.538-2.065-.77a10.493,10.493,0,0,0-1.283-.3c-.462-.091-.928-.163-1.393-.241a1.967,1.967,0,0,0-.317-.031c-1.036,0-2.073-.026-3.108.009a11.786,11.786,0,0,0-1.483.225c-.292.048-.588.084-.873.158-.581.15-1.17.287-1.732.493-.911.334-1.8.715-2.7,1.086-.236.1-.453.24-.687.344a1.665,1.665,0,0,1-.341.079" transform="translate(-197.644 -185.11)" fill="#fff"/>
          <path id="Path_124" data-name="Path 124" d="M461.083,203.834c-.029.465-.051.888-.082,1.31-.012.162-.048.323-.067.485q-.131,1.163-.259,2.327c-.051.46-.093.921-.155,1.379q-.147,1.089-.317,2.175c-.1.656-.209,1.311-.334,1.963-.109.568-.245,1.13-.369,1.7-.146.668-.284,1.338-.441,2-.111.469-.246.933-.374,1.4-.071.258-.255.127-.373.078-.272-.114-.524-.274-.794-.394-.672-.3-1.338-.614-2.026-.868-.618-.228-1.26-.389-1.895-.569a14.787,14.787,0,0,0-4.805-.518,18.9,18.9,0,0,0-2.162.174,10.463,10.463,0,0,0-2.709.712c-.456.211-.936.371-1.406.552a.563.563,0,0,1-.152,0v-.373c0-2.587.024-5.175-.015-7.762a1.945,1.945,0,0,1,.586-1.457,9.006,9.006,0,0,1,2.369-1.8,13.513,13.513,0,0,1,2.883-1.169c1.024-.27,2.043-.575,3.082-.767,1.118-.206,2.254-.327,3.387-.43,1-.091,2.006-.11,3.01-.151.859-.035,1.719-.065,2.579-.078a7.108,7.108,0,0,1,.837.086" transform="translate(-402.032 -185.178)" fill="#fff"/>
        </g>
      </g>
      <g id="Group_104" data-name="Group 104" transform="translate(29.444 8.627)">
        <g id="Group_103" data-name="Group 103" clip-path="url(#clip-path-2)">
          <rect id="Rectangle_19" data-name="Rectangle 19" width="14.466" height="20.676" transform="translate(-0.687 13.428) rotate(-87.079)" fill="#fff"/>
        </g>
      </g>
      <g id="Group_106" data-name="Group 106" transform="translate(34.504 0)">
        <g id="Group_105" data-name="Group 105" clip-path="url(#clip-path-3)">
          <rect id="Rectangle_20" data-name="Rectangle 20" width="12.381" height="24.152" transform="matrix(0.051, -0.999, 0.999, 0.051, -0.57, 11.164)" fill="#fff"/>
        </g>
      </g>
      <g id="Group_108" data-name="Group 108" transform="translate(20.691 3.019)">
        <g id="Group_107" data-name="Group 107" clip-path="url(#clip-path-4)">
          <rect id="Rectangle_21" data-name="Rectangle 21" width="8.952" height="13.304" transform="translate(-0.423 8.284) rotate(-87.079)" fill="#fff"/>
        </g>
      </g>
      <g id="Group_289" data-name="Group 289" transform="translate(0 29.17)">
        <g id="Group_120" data-name="Group 120" transform="translate(59.799 25.295)">
          <g id="Group_119" data-name="Group 119" clip-path="url(#clip-path-5)">
            <rect id="Rectangle_27" data-name="Rectangle 27" width="10.056" height="10.065" transform="translate(-0.692 9.373) rotate(-85.986)" fill="#fff"/>
          </g>
        </g>
        <g id="Group_122" data-name="Group 122" transform="translate(65.129 20.38)">
          <g id="Group_121" data-name="Group 121" clip-path="url(#clip-path-6)">
            <rect id="Rectangle_28" data-name="Rectangle 28" width="9.779" height="10.186" transform="translate(-0.665 9.087) rotate(-85.986)" fill="#fff"/>
          </g>
        </g>
        <g id="Group_124" data-name="Group 124" transform="translate(4.357 20.347)">
          <g id="Group_123" data-name="Group 123" clip-path="url(#clip-path-7)">
            <rect id="Rectangle_29" data-name="Rectangle 29" width="9.845" height="10.207" transform="translate(-0.642 9.151) rotate(-85.986)" fill="#fff"/>
          </g>
        </g>
        <g id="Group_126" data-name="Group 126" transform="translate(2.424 16.56)">
          <g id="Group_125" data-name="Group 125" clip-path="url(#clip-path-8)">
            <rect id="Rectangle_30" data-name="Rectangle 30" width="7.881" height="8.456" transform="matrix(0.07, -0.998, 0.998, 0.07, -0.552, 7.305)" fill="#fff"/>
          </g>
        </g>
        <g id="Group_128" data-name="Group 128" transform="translate(68.739 16.562)">
          <g id="Group_127" data-name="Group 127" clip-path="url(#clip-path-9)">
            <rect id="Rectangle_31" data-name="Rectangle 31" width="7.816" height="8.423" transform="translate(-0.523 7.243) rotate(-85.986)" fill="#fff"/>
          </g>
        </g>
        <g id="Group_130" data-name="Group 130" transform="translate(71.012 11.78)">
          <g id="Group_129" data-name="Group 129" clip-path="url(#clip-path-10)">
            <rect id="Rectangle_32" data-name="Rectangle 32" width="7.055" height="7.305" transform="translate(-0.615 6.558) rotate(-85.986)" fill="#fff"/>
          </g>
        </g>
        <g id="Group_132" data-name="Group 132" transform="translate(1.27 11.78)">
          <g id="Group_131" data-name="Group 131" clip-path="url(#clip-path-11)">
            <rect id="Rectangle_33" data-name="Rectangle 33" width="7.057" height="7.242" transform="matrix(0.07, -0.998, 0.998, 0.07, -0.465, 6.565)" fill="#fff"/>
          </g>
        </g>
        <g id="Group_134" data-name="Group 134" transform="translate(0.229 7.501)">
          <g id="Group_133" data-name="Group 133" clip-path="url(#clip-path-12)">
            <rect id="Rectangle_34" data-name="Rectangle 34" width="6.067" height="6.515" transform="translate(-0.588 5.624) rotate(-85.986)" fill="#fff"/>
          </g>
        </g>
        <g id="Group_136" data-name="Group 136" transform="translate(72.899 7.586)">
          <g id="Group_135" data-name="Group 135" clip-path="url(#clip-path-13)">
            <rect id="Rectangle_35" data-name="Rectangle 35" width="6.001" height="6.348" transform="translate(-0.535 5.569) rotate(-85.986)" fill="#fff"/>
          </g>
        </g>
        <g id="Group_138" data-name="Group 138" transform="translate(73.503 3.095)">
          <g id="Group_137" data-name="Group 137" clip-path="url(#clip-path-14)">
            <rect id="Rectangle_36" data-name="Rectangle 36" width="5.58" height="6.073" transform="translate(-0.583 5.166) rotate(-85.986)" fill="#fff"/>
          </g>
        </g>
        <g id="Group_140" data-name="Group 140" transform="translate(0 3.097)">
          <g id="Group_139" data-name="Group 139" clip-path="url(#clip-path-15)">
            <rect id="Rectangle_37" data-name="Rectangle 37" width="5.594" height="6.096" transform="matrix(0.07, -0.998, 0.998, 0.07, -0.391, 5.179)" fill="#fff"/>
          </g>
        </g>
        <g id="Group_142" data-name="Group 142" transform="translate(40.216 42.296)">
          <g id="Group_141" data-name="Group 141" clip-path="url(#clip-path-16)">
            <rect id="Rectangle_38" data-name="Rectangle 38" width="7.125" height="6.361" transform="matrix(0.07, -0.998, 0.998, 0.07, -0.47, 6.695)" fill="#fff"/>
          </g>
        </g>
        <g id="Group_144" data-name="Group 144" transform="translate(75.546)">
          <g id="Group_143" data-name="Group 143" clip-path="url(#clip-path-17)">
            <rect id="Rectangle_39" data-name="Rectangle 39" width="5.458" height="2.373" transform="translate(-0.502 5.305) rotate(-85.986)" fill="#fff"/>
          </g>
        </g>
        <g id="Group_146" data-name="Group 146" transform="translate(1.764 0.006)">
          <g id="Group_145" data-name="Group 145" clip-path="url(#clip-path-18)">
            <rect id="Rectangle_40" data-name="Rectangle 40" width="5.461" height="2.188" transform="translate(-0.392 5.32) rotate(-85.986)" fill="#fff"/>
          </g>
        </g>
        <g id="Group_110" data-name="Group 110" transform="translate(32.951 38.871)">
          <g id="Group_109" data-name="Group 109" clip-path="url(#clip-path-19)">
            <rect id="Rectangle_22" data-name="Rectangle 22" width="11.854" height="26.765" transform="translate(-0.754 10.001) rotate(-85.986)" fill="#fff"/>
          </g>
        </g>
        <g id="Group_112" data-name="Group 112" transform="translate(19.904 38.876)">
          <g id="Group_111" data-name="Group 111" clip-path="url(#clip-path-20)">
            <rect id="Rectangle_23" data-name="Rectangle 23" width="5.67" height="18.933" transform="translate(-0.305 4.352) rotate(-85.986)" fill="#fff"/>
          </g>
        </g>
        <g id="Group_114" data-name="Group 114" transform="translate(15.294 29.696)">
          <g id="Group_113" data-name="Group 113" clip-path="url(#clip-path-21)">
            <rect id="Rectangle_24" data-name="Rectangle 24" width="10.313" height="10.151" transform="matrix(0.07, -0.998, 0.998, 0.07, -0.675, 9.625)" fill="#fff"/>
          </g>
        </g>
        <g id="Group_116" data-name="Group 116" transform="translate(54.169 29.714)">
          <g id="Group_115" data-name="Group 115" clip-path="url(#clip-path-22)">
            <rect id="Rectangle_25" data-name="Rectangle 25" width="10.323" height="10.201" transform="translate(-0.678 9.631) rotate(-85.986)" fill="#fff"/>
          </g>
        </g>
        <g id="Group_118" data-name="Group 118" transform="translate(9.772 25.295)">
          <g id="Group_117" data-name="Group 117" clip-path="url(#clip-path-23)">
            <rect id="Rectangle_26" data-name="Rectangle 26" width="10.117" height="10.084" transform="translate(-0.662 9.433) rotate(-85.986)" fill="#fff"/>
          </g>
        </g>
      </g>
    </g>
    <g id="Group_287" data-name="Group 287" transform="translate(1894.983 -1627.423)">
      <path id="Path_46" data-name="Path 46" d="M-636.827-62.074a4.849,4.849,0,0,0-1.14-3.125,2.956,2.956,0,0,0-2.126-1.028,1.494,1.494,0,0,0-1.38.831l-.493.788a7.035,7.035,0,0,1,1.042-.113,2.431,2.431,0,0,1,2.309,2.436h-3.66v.732a.927.927,0,0,0,.929,1h4.519Zm6.616-2.252a2.773,2.773,0,0,0-1.647-2.1,3.176,3.176,0,0,0-1.042-.183,2.84,2.84,0,0,0-2.872,3.125c0,2.365,1.957,2.83,3.6,2.914a4.171,4.171,0,0,1-2.759.817v.69c0,.465.437.831,1.126.831,2.872,0,3.674-1.9,3.688-2.914l.028-2.084A5.338,5.338,0,0,0-630.21-64.326Zm-3.843.662c0-.817.352-1.422,1.042-1.422,1.154,0,1.168,1.352,1.182,2.492v.31h-.591C-633.195-62.285-634.054-62.4-634.054-63.664Zm11.826,1.38c-1.042,0-1.1-.211-1.394-1.084v.014a3.838,3.838,0,0,0-2.478-2.787,2.344,2.344,0,0,0-.619-.084,1.524,1.524,0,0,0-1.38.831l-.338.788a6.033,6.033,0,0,1,.9-.113,2.461,2.461,0,0,1,2.309,2.436h-3.66v.732a.918.918,0,0,0,.929,1h3.125a1.412,1.412,0,0,0,.986-.45,2.322,2.322,0,0,0,1.675.45h.282v-1.732Zm.127,1.732h4.463a2.5,2.5,0,0,1,2.154,1.267,7.97,7.97,0,0,0,.225-1.858c0-2.379-1-5.448-3.745-5.448-1.577,0-2.351.788-2.351,1.774v.957a2.825,2.825,0,0,1,2.041-.985c1.338,0,1.943,1.661,2.182,2.562h-4.97Zm20.371-1.732c-.887,0-1.239-.324-1.337-1.028v-4.435A1.107,1.107,0,0,0-604.307-69H-605v5.941c0,.479-.169.746-.648.774H-606.9v-5.744A1.054,1.054,0,0,0-607.939-69h-.887v6.715h-1.52v.591c0,.746.422,1.14,1.337,1.14h3.477a2.738,2.738,0,0,0,1.675-.549,2.821,2.821,0,0,0,1.915.549h.563v-1.732Zm2.914,3.379a.968.968,0,0,0-.971-.943.943.943,0,0,0-.943.943.95.95,0,0,0,.943.971A.973.973,0,0,0-598.816-58.906Zm-.338-6.574h-.69v2.393c0,.493-.2.76-.676.8H-601.8v1.732h1.422A2.3,2.3,0,0,0-597.943-63v-1.225A1.093,1.093,0,0,0-599.154-65.48Zm14.36,3.2a1.287,1.287,0,0,1-.619-.084,3.478,3.478,0,0,0,.211-1.3,2.77,2.77,0,0,0-2.759-2.942,2.829,2.829,0,0,0-2.858,3.125c0,.155.014.408.028.591.014.239.014.479.014.718,0,.746-.155,1.45-1.042,1.45h-1.14v.563c0,.732.408,1.126,1.267,1.14l.155.014a2.383,2.383,0,0,0,2.238-1.647,1.271,1.271,0,0,1,.07-.127,2.9,2.9,0,0,0,1.155.225,3.147,3.147,0,0,0,1.788-.577,2.19,2.19,0,0,0,1.6.577h.521v-1.732Zm-3.168.225c-.8,0-1.154-.605-1.154-1.6,0-.831.352-1.422,1.042-1.422.788,0,1.154.591,1.154,1.6C-586.92-62.665-587.258-62.06-587.962-62.06Zm4.688,4.125a.953.953,0,0,0,.957-.971.967.967,0,0,0-.957-.957.97.97,0,0,0-.971.957A.956.956,0,0,0-583.274-57.935Zm2.14,0a.973.973,0,0,0,.971-.971.989.989,0,0,0-.971-.957.967.967,0,0,0-.957.957A.953.953,0,0,0-581.134-57.935Zm.183-6.293a1.1,1.1,0,0,0-1.239-1.239h-.676v2.393c0,.493-.183.76-.676.788h-.76v1.732h.887a2.743,2.743,0,0,0,1.675-.563,2.865,2.865,0,0,0,1.929.563h.239v-1.732c-1,0-1.352-.352-1.38-1.154Zm5.068,1.943c-.957,0-1.1-.31-1.14-1.154v-4.308a1.108,1.108,0,0,0-1.239-1.239h-.676v5.9c0,.493-.183.76-.69.8h-.493v1.732a3.679,3.679,0,0,0,2.295-.563,2.3,2.3,0,0,0,1.732.563h.535v-1.732Zm7.884,0h-1.858a1.778,1.778,0,0,1-.535-.056,9.5,9.5,0,0,0,1.9-2.745c-.2-.127-.422-.267-.619-.408a4.8,4.8,0,0,0-2.7-1.042,4.877,4.877,0,0,0-2.253.8h.014c-.38.211-.746.422-1.1.577,0,.183-.028.591-.042.817-.014.169-.028.422-.028.605a3.92,3.92,0,0,1,2.013,1.394,1.8,1.8,0,0,1-.662.056h-2.055v1.732h1.689a4.361,4.361,0,0,0,2.309-.676,5.359,5.359,0,0,0,2.97.676H-568Zm-3.66-2.689a3.2,3.2,0,0,1,1.2.267,9.216,9.216,0,0,1-1.3,1.45,5.414,5.414,0,0,1-.7-.591c-.267-.211-.521-.436-.774-.619A2.967,2.967,0,0,1-571.66-64.974Zm6.082-.493h-.69v2.379c0,.493-.183.76-.676.8h-1.267v1.732h1.422A2.3,2.3,0,0,0-564.353-63v-1.211A1.1,1.1,0,0,0-565.578-65.466Zm-.8-.732a.98.98,0,0,0,.957-.971,1,1,0,0,0-.957-.985,1,1,0,0,0-.971.985A.982.982,0,0,0-566.38-66.2Zm2.126,0a1,1,0,0,0,.986-.971,1.017,1.017,0,0,0-.986-.985,1,1,0,0,0-.957.985A.98.98,0,0,0-564.255-66.2Z" transform="translate(642.275 69)" fill="#fff"/>
      <path id="Path_47" data-name="Path 47" d="M-260.582-25.153a.336.336,0,0,0,.331-.331.336.336,0,0,0-.331-.331.334.334,0,0,0-.345.331A.334.334,0,0,0-260.582-25.153Zm-.793,0a.327.327,0,0,0,.331-.331.327.327,0,0,0-.331-.331.333.333,0,0,0-.338.331A.333.333,0,0,0-261.375-25.153Zm3.241-4.916c-3.227,0-1.158,3.365-2.772,3.365-1.214-.014-1.324-.579-1.324-1.248a1.234,1.234,0,0,1,.552-1.014v-.021l-.31-.028c-.552,0-.786.517-.786,1.117a1.594,1.594,0,0,0,1.827,1.751c2.51,0,.186-3.31,2.813-3.31v2.317h1.289v-.579h-.7v-2.351Zm5.1,2.351c-.607,0-.71-.228-.71-.821,0-.945-.517-1.51-1.262-1.51-.8,0-1.31.572-1.31,1.51,0,.593-.1.821-.71.821h-.09v.579h.041a.194.194,0,0,0,.055.007,1.186,1.186,0,0,0,1.041-.428,1.265,1.265,0,0,0,.972.434,1.148,1.148,0,0,0,.931-.421c.234.317.572.407,1.131.407v-.579Zm-1.931.034c-.5,0-.786-.372-.786-.952,0-.531.269-.855.683-.855.49,0,.758.324.758.945C-254.314-28.042-254.549-27.683-254.969-27.683Zm3.33-2.855a.327.327,0,0,0,.331-.331.327.327,0,0,0-.331-.331.333.333,0,0,0-.338.331A.333.333,0,0,0-251.639-30.538Zm.862,0a.336.336,0,0,0,.331-.331.336.336,0,0,0-.331-.331.334.334,0,0,0-.345.331A.334.334,0,0,0-250.777-30.538Zm-2.448,3.4h3.248v-1.524a1.275,1.275,0,0,0-1.269-1.407c-.8,0-1.31.572-1.31,1.51a1.245,1.245,0,0,0,.276.841h-.945Zm2.71-.579c-.841,0-1.489-.083-1.489-.938,0-.538.276-.883.7-.883C-250.46-29.538-250.515-28.725-250.515-27.718Zm2,.579H-248v-.579h-.366a.671.671,0,0,1-.31-.062v-1.255c0-.331-.1-.462-.407-.462h-.186v1.751c0,.9.09,1.358-.662,1.358a1.339,1.339,0,0,1-.165-.014v.159c0,.2.193.317.476.317a.879.879,0,0,0,.9-.876v-.3a.162.162,0,0,1,.014-.055A.769.769,0,0,0-248.515-27.139Zm1.724-1.331v-2.358c0-.331-.1-.462-.407-.462h-.186v3.055c-.021.372-.2.517-.524.517h-.228v.579h.379C-247-27.187-246.791-27.814-246.791-28.469Zm1.269,1.331v-3.875a.3.3,0,0,0-.3-.283h-.276v3.744c0,.29.152.414.372.414Zm4.772,1.986a.336.336,0,0,0,.331-.331.336.336,0,0,0-.331-.331.334.334,0,0,0-.345.331A.334.334,0,0,0-240.751-25.153Zm-.793,0a.327.327,0,0,0,.331-.331.327.327,0,0,0-.331-.331.333.333,0,0,0-.338.331A.333.333,0,0,0-241.544-25.153Zm3.241-4.916c-3.227,0-1.158,3.365-2.772,3.365-1.214-.014-1.324-.579-1.324-1.248a1.235,1.235,0,0,1,.552-1.014v-.021l-.31-.028c-.552,0-.786.517-.786,1.117a1.594,1.594,0,0,0,1.827,1.751c2.51,0,.186-3.31,2.813-3.31v2.317h1.289v-.579h-.7v-2.351Zm5.1,2.351h-.724a1.456,1.456,0,0,1-.621-.117,4.6,4.6,0,0,0,1.062-1.517,2.863,2.863,0,0,0-1.593-.69c-.634,0-1.1.448-1.634.683,0,.186-.035.476-.035.586a2.564,2.564,0,0,1,1.193.89,1.1,1.1,0,0,1-.593.165h-.965v.579h.772a2.119,2.119,0,0,0,1.317-.372,2.227,2.227,0,0,0,1.5.372h.324Zm-2.944-1.379a2.219,2.219,0,0,1,1.158-.414,2.012,2.012,0,0,1,.9.248,5.444,5.444,0,0,1-.931,1.083C-235.407-28.4-235.738-28.89-236.152-29.1Zm4.951-.952c-.8,0-1.31.572-1.31,1.51,0,.593-.1.821-.71.821h-.228v.579h.179a.194.194,0,0,0,.055.007,1.185,1.185,0,0,0,1.041-.428,1.265,1.265,0,0,0,.972.434c.765,0,1.262-.572,1.262-1.524A1.272,1.272,0,0,0-231.2-30.048Zm.048,2.365c-.5,0-.786-.372-.786-.952,0-.531.269-.855.683-.855.49,0,.759.324.759.945C-230.5-28.042-230.732-27.683-231.153-27.683Zm2.3-3.151c0-.331-.1-.462-.407-.462h-.186v3.062a.976.976,0,0,0,.965,1.1h.241v-.579h-.09c-.338,0-.524-.159-.524-.545Zm2.11,4.779a.331.331,0,0,0,.331-.331.331.331,0,0,0-.331-.331.323.323,0,0,0-.331.331A.323.323,0,0,0-226.74-26.056Zm-.11-4.013c-.834,0-1.138.393-1.138.786v.241a1.138,1.138,0,0,1,1.014-.434c.917,0,1.214,1.145,1.248,1.758h-2.648v.579h3.751v-.579h-.5C-225.188-28.835-225.588-30.069-226.85-30.069Zm3.434,1.6v-2.358c0-.331-.1-.462-.407-.462h-.186v3.055c-.021.372-.2.517-.524.517h-.228v.579h.379C-223.623-27.187-223.416-27.814-223.416-28.469Zm1.269,1.331v-3.875a.3.3,0,0,0-.3-.283h-.276v3.744c0,.29.152.414.372.414Zm6.592,0c.062,0,.069.007.1.007a.194.194,0,0,0,.055-.007h.041v-.579h-.09a.878.878,0,0,1-.517-.1,2.02,2.02,0,0,0,.165-.834,1.274,1.274,0,0,0-1.262-1.407,1.358,1.358,0,0,0-1.31,1.489c0,.186.021.379.021.559,0,.572-.1.993-.793,1.007l-.421.007v.207c0,.221.124.372.545.372a1.239,1.239,0,0,0,1.117-1.021,1.257,1.257,0,0,0,.841.3,1.162,1.162,0,0,0,.834-.317A.723.723,0,0,0-215.555-27.139Zm-1.462-.545c-.5,0-.786-.372-.786-.952,0-.531.269-.855.683-.855.49,0,.759.324.759.945C-216.362-28.042-216.6-27.683-217.017-27.683Zm2.793-1.345c0-.331-.1-.462-.407-.462h-.186v1.255c-.021.372-.2.517-.524.517h-.159v.579h.31a1,1,0,0,0,.669-.262.985.985,0,0,0,.669.262h.31v-.579h-.159a.455.455,0,0,1-.524-.483ZM-215-26.056a.327.327,0,0,0,.331-.331.327.327,0,0,0-.331-.331.333.333,0,0,0-.338.331A.333.333,0,0,0-215-26.056Zm.793,0a.336.336,0,0,0,.331-.331.336.336,0,0,0-.331-.331.334.334,0,0,0-.345.331A.334.334,0,0,0-214.211-26.056Zm1.807-4.779c0-.331-.1-.462-.407-.462H-213v3.062c-.021.372-.2.517-.524.517h-.159v.579h.31a1,1,0,0,0,.669-.262.985.985,0,0,0,.669.262h.31v-.579h-.159a.455.455,0,0,1-.524-.483Zm4.489,3.117h-.724a1.456,1.456,0,0,1-.621-.117,4.6,4.6,0,0,0,1.062-1.517,2.864,2.864,0,0,0-1.593-.69c-.634,0-1.1.448-1.634.683,0,.186-.035.476-.035.586a2.563,2.563,0,0,1,1.193.89,1.1,1.1,0,0,1-.593.165h-.965v.579h.772a2.119,2.119,0,0,0,1.317-.372,2.227,2.227,0,0,0,1.5.372h.324Zm-2.944-1.379a2.218,2.218,0,0,1,1.158-.414,2.011,2.011,0,0,1,.9.248,5.443,5.443,0,0,1-.931,1.083C-210.115-28.4-210.446-28.89-210.859-29.1Zm4.117.069c0-.331-.1-.462-.407-.462h-.186v1.255c-.021.372-.2.517-.524.517h-.159v.579h.31a1,1,0,0,0,.669-.262.985.985,0,0,0,.669.262h.31v-.579h-.159a.455.455,0,0,1-.524-.483Zm-.745-.841a.327.327,0,0,0,.331-.331.327.327,0,0,0-.331-.331.333.333,0,0,0-.338.331A.333.333,0,0,0-207.488-29.869Zm.793,0a.336.336,0,0,0,.331-.331.336.336,0,0,0-.331-.331.334.334,0,0,0-.345.331A.334.334,0,0,0-206.695-29.869Zm1.841,1.4v-2.358c0-.331-.1-.462-.407-.462h-.186v3.055c-.021.372-.2.517-.524.517h-.228v.579h.379C-205.06-27.187-204.854-27.814-204.854-28.469Zm1.269,1.331v-3.875a.3.3,0,0,0-.3-.283h-.276v3.744c0,.29.152.414.372.414Zm4.234-.579h-.379a1.572,1.572,0,0,1-.3-.862.811.811,0,0,1,.793-.862,1,1,0,0,1,.924.814l.138-.2a.516.516,0,0,0,.069-.283,1.062,1.062,0,0,0-1.172-.9,1.388,1.388,0,0,0-1.352,1.441,1.9,1.9,0,0,0,.331,1.041,1.449,1.449,0,0,0-.7,1.31c.021,1.048.917,1.352,1.627,1.352.731,0,.986-.386.986-.6V-25.7a1.2,1.2,0,0,1-.883.3c-.365,0-1.138-.048-1.138-.9a.882.882,0,0,1,.448-.765c.062-.028.131-.069.607-.069h1.014c.331,0,.455-.1.455-.407v-.172Zm3.331-2.351c-.8,0-1.31.572-1.31,1.51,0,1.193,1.131,1.4,1.972,1.42a1.254,1.254,0,0,1-1.269.7,1.6,1.6,0,0,1-.379-.041v.228c0,.241.255.317.565.317a1.65,1.65,0,0,0,1.648-1.152,4.53,4.53,0,0,0,.124-1.089C-194.669-29.035-194.91-30.069-196.02-30.069Zm-.758,1.414c0-.538.276-.883.7-.883.848,0,.793.814.793,1.82C-196.131-27.718-196.779-27.8-196.779-28.656Zm3.792,1.517h.517v-.579h-.365a.671.671,0,0,1-.31-.062v-1.255c0-.331-.1-.462-.407-.462h-.186v1.751c0,.9.09,1.358-.662,1.358a1.339,1.339,0,0,1-.165-.014v.159c0,.2.193.317.476.317a.879.879,0,0,0,.9-.876v-.3a.162.162,0,0,1,.014-.055A.769.769,0,0,0-192.986-27.139Zm.414,0h2.138a.915.915,0,0,0,.655-.262,1.48,1.48,0,0,0,1,.262.919.919,0,0,0,.7-.29,1.114,1.114,0,0,0,.71.29h.31v-.579h-.159a.455.455,0,0,1-.524-.483V-29.38c0-.331-.1-.462-.407-.462h-.186v1.607c-.014.317-.131.538-.552.538a1.21,1.21,0,0,1-.621-.179,1.634,1.634,0,0,0,.041-.283c-.007-.014-.007-1.22-.007-1.22,0-.331-.1-.462-.407-.462h-.186v1.607c-.021.372-.2.517-.524.517h-.621V-29.38c0-.331-.1-.462-.407-.462h-.186v2.124h-.772Zm3.165-3.413a.336.336,0,0,0,.331-.331.336.336,0,0,0-.331-.331.334.334,0,0,0-.345.331A.334.334,0,0,0-189.408-30.552Zm-.407-.71a.336.336,0,0,0,.331-.331.336.336,0,0,0-.331-.331.334.334,0,0,0-.345.331A.334.334,0,0,0-189.815-31.262Zm-.386.71a.327.327,0,0,0,.331-.331.327.327,0,0,0-.331-.331.333.333,0,0,0-.338.331A.333.333,0,0,0-190.2-30.552Zm5.151.5c-.8,0-1.31.572-1.31,1.51,0,.593-.1.821-.71.821h-.228v.579h.179a.194.194,0,0,0,.055.007,1.185,1.185,0,0,0,1.041-.428,1.265,1.265,0,0,0,.972.434c.765,0,1.262-.572,1.262-1.524A1.272,1.272,0,0,0-185.05-30.048Zm.048,2.365c-.5,0-.786-.372-.786-.952,0-.531.269-.855.683-.855.49,0,.758.324.758.945C-184.347-28.042-184.581-27.683-185-27.683Z" transform="translate(262.775 46.492)" fill="#fff"/>
    </g>
  </g>
</svg>
