<svg id="ernify-white" xmlns="http://www.w3.org/2000/svg" xmlns:xlink="http://www.w3.org/1999/xlink" width="206.486" height="169.995" viewBox="0 0 206.486 169.995">
  <defs>
    <clipPath id="clip-path">
      <rect id="Rectangle_11093" data-name="Rectangle 11093" width="206.486" height="169.995" fill="#fff"/>
    </clipPath>
  </defs>
  <g id="Group_12523" data-name="Group 12523" clip-path="url(#clip-path)">
    <path id="Path_12" data-name="Path 12" d="M141.874,20.693c-6.009-.261-10.062-3.982-12.12-9.172q-1.654-4.171-3.39-8.308c-.331-.791-.276-1.206.673-1.407,2.543-.539,5.07-1.157,7.6-1.741,1.011-.233,1.571.162,1.944,1.15.967,2.559,2.03,5.081,3.062,7.615.442,1.088,1.2,1.476,2.662,1.437a2.063,2.063,0,0,0,1.927-1.558c1.124-2.729,2.257-5.455,3.44-8.16a1.077,1.077,0,0,1,.893-.481c1.9.3,3.79.662,5.675,1.046.967.2,1.917.479,2.874.727.6.154.807.411.517,1.08-1.556,3.6-2.954,7.274-4.618,10.824a11.027,11.027,0,0,1-7.146,6.06c-1.307.382-2.663.6-4,.888" transform="translate(-38.679 0)" fill="#fff"/>
    <path id="Path_13" data-name="Path 13" d="M88.608,116.862c1.562-.933,2.976-1.805,4.416-2.632,2.458-1.412,4.848-2.983,7.419-4.152a12.034,12.034,0,0,1,13.985,3.231c3.269,3.74,3.861,8.029,2.546,12.708-.761,2.708-1.491,5.426-2.155,8.159-.209.862-.518,1.15-1.356.786-2.469-1.073-4.944-2.132-7.417-3.195-.655-.282-.911-.57-.659-1.433.779-2.666,1.388-5.383,2.033-8.088a2.162,2.162,0,0,0-.844-2.5,2.668,2.668,0,0,0-2.942-.058c-2.476,1.442-4.933,2.919-7.415,4.351-.265.153-.794.262-.955.118a47.238,47.238,0,0,1-6.657-7.3" transform="translate(-27.162 -33.427)" fill="#fff"/>
    <path id="Path_14" data-name="Path 14" d="M214.877,61.809c-1.1,0-1.894.006-2.691,0q-3.528-.03-7.056-.068a12.577,12.577,0,0,1-8.186-22.017q3.819-3.595,7.535-7.3c.566-.565.87-.5,1.2.1,1.418,2.52,2.815,5.051,4.234,7.571.344.61.178.972-.334,1.446-2.03,1.883-4.015,3.815-5.972,5.774a2.349,2.349,0,0,0-.62,2.89,2.377,2.377,0,0,0,2.391,1.41c2.452-.011,4.9.049,7.356.04.68,0,1.033.159,1.11.917.3,3.009.664,6.012,1.029,9.243" transform="translate(-59.062 -9.82)" fill="#fff"/>
    <path id="Path_15" data-name="Path 15" d="M167.761,120.905c.263-6.329,5.913-11.354,11.794-11.658a13.87,13.87,0,0,1,8.956,2.955c1.181.831,2.289,1.769,3.5,2.542,1.107.7,2.306,1.263,3.479,1.859.7.356.746.74.208,1.3-1.953,2.051-3.877,4.13-5.844,6.167a.914.914,0,0,1-.841.1,18.735,18.735,0,0,1-1.839-1.135c-1.915-1.255-3.8-2.563-5.752-3.756a2.406,2.406,0,0,0-2.706.39,2.523,2.523,0,0,0-.927,2.863c.578,2.624,1.151,5.251,1.822,7.852a1.05,1.05,0,0,1-.716,1.44c-1.944.853-3.887,1.711-5.835,2.555a9.572,9.572,0,0,1-1.191.409c-1.424.4-1.44.4-1.763-1.035-.712-3.182-1.447-6.36-2.089-9.555a26.529,26.529,0,0,1-.261-3.3" transform="translate(-51.425 -33.483)" fill="#fff"/>
    <path id="Path_16" data-name="Path 16" d="M78.851,61.8c-1.546,0-3.094-.021-4.639.011-.567.012-.815-.159-.755-.741.3-2.9.579-5.8.877-8.7.063-.612.487-.684,1.015-.686,2.487-.011,4.976-.076,7.464-.073a2.3,2.3,0,0,0,2.3-1.447,2.379,2.379,0,0,0-.571-2.845c-2.017-1.99-4.044-3.97-6.1-5.919a.926.926,0,0,1-.235-1.358c1.449-2.5,2.845-5.028,4.265-7.544.287-.508.576-.649,1.078-.15,3,2.985,6.144,5.838,9.022,8.937,3.458,3.723,3.8,10.067.962,14.509a12.349,12.349,0,0,1-10.647,5.925c-1.343.037-2.689.006-4.034.006Z" transform="translate(-22.514 -9.822)" fill="#fff"/>
    <path id="Path_17" data-name="Path 17" d="M151.614,130.776c0,3.123-.025,6.247.019,9.371.01.687-.234,1.046-.854,1.048-2.815,0-5.63-.038-8.444-.061-.645-.006-.845-.341-.843-.96q.026-9.421.012-18.841c0-.68.328-.849.942-.844,2.754.019,5.509.034,8.262-.006.726-.01.913.24.907.923-.027,3.123-.012,6.247-.012,9.371Z" transform="translate(-43.373 -36.932)" fill="#fff"/>
    <path id="Path_18" data-name="Path 18" d="M75.666,89.9a3.112,3.112,0,0,1,.748-.575c1.6-.644,3.227-1.242,4.843-1.856,3.141-1.193,6.29-2.363,9.419-3.587,1.4-.546,1.39-.6,1.922.788.914,2.38,1.8,4.772,2.723,7.147.256.656.284,1.023-.528,1.322-3.608,1.331-7.188,2.741-10.776,4.124q-2.184.842-4.366,1.69c-.473.184-.946.305-1.158-.325-.921-2.732-1.824-5.469-2.731-8.206-.031-.094-.037-.2-.1-.522" transform="translate(-23.194 -25.605)" fill="#fff"/>
    <path id="Path_19" data-name="Path 19" d="M213.555,90.1c-.706,2.159-1.33,4.126-2,6.08-.27.788-.7,1.524-.934,2.32-.206.7-.609.722-1.137.519q-6.263-2.4-12.52-4.826c-.956-.37-1.9-.773-2.856-1.146-.453-.177-.6-.377-.39-.9,1.064-2.72,2.082-5.458,3.105-8.195.214-.571.533-.407.951-.244,2.586,1.008,5.184,1.983,7.777,2.974,2.386.913,4.772,1.822,7.148,2.761a4.021,4.021,0,0,1,.852.659" transform="translate(-59.355 -25.611)" fill="#fff"/>
    <path id="Path_20" data-name="Path 20" d="M172.938,25.066c1.21-1.752,2.345-3.39,3.476-5.033,1.99-2.89,4.005-5.762,5.945-8.685.51-.77.922-1,1.7-.414,2.217,1.669,4.465,3.3,6.668,4.983a.916.916,0,0,1,.107.883c-1.807,2.639-3.672,5.237-5.491,7.868-1.189,1.72-2.363,3.456-3.471,5.229-.463.741-.881.741-1.523.293-2.41-1.682-4.835-3.343-7.416-5.124" transform="translate(-53.012 -3.25)" fill="#fff"/>
    <path id="Path_21" data-name="Path 21" d="M116.755,25.013a4.875,4.875,0,0,1-.528.492c-2.276,1.572-4.562,3.13-6.835,4.7-.562.39-.845.322-1.233-.318-.835-1.379-1.821-2.666-2.742-3.992q-3.028-4.364-6.049-8.731a.967.967,0,0,1,.273-1.566c2.18-1.513,4.315-3.089,6.453-4.66.534-.392.827-.283,1.193.252,3.023,4.407,6.075,8.794,9.115,13.189.112.162.194.346.352.63" transform="translate(-30.373 -3.282)" fill="#fff"/>
    <path id="Path_22" data-name="Path 22" d="M2.928,180.226v23.191h23.26v-5.809H8.88V180.226Zm20.046,9.962v-5.81H11.808l-2.928,5.81H22.974ZM0,175.77H2.928v.023h23.26V169.96H2.928Zm48.06-6.557-2.952,6.253L31.823,203.417h5.928L48.06,181.7l10.308,21.721H64.3L51.035,175.466Zm50.06,34.2-8.19-14.138a10.179,10.179,0,0,0,4.381-3.7,9.9,9.9,0,0,0-1.369-12.634,10.071,10.071,0,0,0-7.3-2.963H69.884l-2.928,5.786h2.928v.023H85.645a4.291,4.291,0,0,1,3.118,1.26,4.221,4.221,0,0,1,0,6.066,4.291,4.291,0,0,1-3.118,1.259H75.836v-4.152H69.884v23.191h5.952V190.188h8.713l7.643,13.228Zm12.706-23.191h-5.952v23.191h5.952Zm13,4.27-9.856-14.512-5.9-.024h-3.19v.024l-2.928,5.786h9.88l12,18.5,5.928,9.145V169.983h-5.928Zm11.563-8.726h2.928v27.647h5.952V169.983h-5.952Zm17.444,27.647h5.952V180.226h-5.952Zm5.952-13.228h14.094v-5.81H161.711ZM149.9,175.77h2.928v.023h23.259V169.96H152.832Zm43.584,9.052v.023l-8.928,18.572h5.976l15.951-33.433v-.024h-5.952ZM180.513,169.96v.024l2.761,5.786v.023l4.286,9.03h5.928l-5.095-10.733-1.952-4.13Z" transform="translate(0 -51.87)" fill="#fff"/>
  </g>
</svg>
