<svg xmlns="http://www.w3.org/2000/svg" xmlns:xlink="http://www.w3.org/1999/xlink" width="1025.331" height="592.055" viewBox="0 0 1025.331 592.055">
  <defs>
    <clipPath id="clip-path">
      <path id="path27" d="M298.762,255.5c-29.712,23.208-46.735,55.411-46.735,88.353V623.01l-13.361,13.36,13.361,13.345v5.952l-4.86,4.851,4.86,4.849v47.02a6.07,6.07,0,1,0,5.307-.069v-47.01l4.789-4.789-4.789-4.789v-6.065l13.3-13.293-13.3-13.3V343.851c0-31.755,15.877-61.648,44.7-84.157l51.172-39.947,51.136,39.947c28.817,22.509,44.693,52.4,44.693,84.157V595.089a6.074,6.074,0,1,0,5.324,0V343.851c0-32.943-17.031-65.145-46.735-88.353L353.207,213ZM749.32,245.471V442.591l-93.272.569V426.906h.017V370.694l-147.656-.008V599.742c35.045,0,60.536-27.4,60.536-65V426.906h30.9V466.86h.139v35.009l428.34-2.7A57.959,57.959,0,0,0,1059,490.42v8.7h205v-58.4h-70.073V394.487a5.855,5.855,0,0,1,11.709,0v35.484H1264V412.286a58.362,58.362,0,0,0-58.288-58.365h-11.785c-1.3,0-2.592.035-3.859.156a58.344,58.344,0,0,0-54.557,58.209v24.025h-.335v4.412H1086.7V428.99a58.376,58.376,0,0,0-58.372-58.3H807.7V215.9ZM807.7,439.248V429.067h238.422a5.849,5.849,0,1,1,0,11.7l-238.731,1.473a19,19,0,0,0,.309-2.991M320.8,296.418c-17.367,14.7-27.325,35.061-27.325,55.892v50.405h2.955V352.31c0-20.244,9.329-39.3,26.284-53.635L352.716,273.3,382.7,298.675c16.955,14.335,26.284,33.391,26.284,53.635v50.069h2.955V352.31c0-20.831-9.96-41.195-27.327-55.892l-31.891-26.981Zm211.818,17.635a14.683,14.683,0,0,0,2.3,7.924H507.927v6.849h39.085c.129.009.267.009.388.009s.257,0,.379-.009a14.781,14.781,0,1,0-15.163-14.773m6.893,0a7.9,7.9,0,1,1,7.891,7.891,7.876,7.876,0,0,1-7.891-7.891M352.431,332.384V343.16a2.818,2.818,0,0,0,0,5.281v10.9a5.148,5.148,0,0,0,0,10.105v68.013l-6.875,6.875,7.873,7.883,7.859-7.883-6.876-6.875V369.444a5.148,5.148,0,0,0,0-10.105v-10.9a2.813,2.813,0,0,0,0-5.281V332.384Zm-25.4,146.226,26.379,26.377-7.857,7.857,6.875,6.883v69.193a5.143,5.143,0,0,0,0,10.1v26.963h1.981V599.018a5.143,5.143,0,0,0,0-10.1V519.728l6.876-6.883-7.848-7.857,26.368-26.377L353.43,452.224Zm260.551,72.742V746.665H567.119V636.88H508.745V805.055h78.8a58.389,58.389,0,0,0,58.037-52.1v52.1h394.364a58.314,58.314,0,0,0,56.761-45.1v45.1H1129v-.1a58.337,58.337,0,0,0,56.487-58.288V522.692l-58.392,23.233V747.088h-28.781V734.862a58.366,58.366,0,0,0-58.364-58.285H788.8a130.173,130.173,0,0,0,21.457-70.736h-59.7a71.365,71.365,0,0,1-71.365,70.3V735.81a130.544,130.544,0,0,0,84.3-30.728v29.859h294.253a5.853,5.853,0,0,1,0,11.707H645.814c.043-.508.155-1,.155-1.515V521.779Zm618.02,253.7H1264V522.692h-58.39ZM869.451,600.595l1.413,6.709,169.046-35.431-1.412-6.7ZM331.542,724.578a80.531,80.531,0,0,0,3.135,22.087H255.982v58.391H415.026a58.2,58.2,0,0,0,18.1-2.9,80.437,80.437,0,1,0-101.584-77.575m59.251,0A21.218,21.218,0,1,1,412.011,745.8a21.2,21.2,0,0,1-21.219-21.217" transform="translate(0 918.667)" fill="#fff"/>
    </clipPath>
    <clipPath id="clip-path-2">
      <path id="path24" d="M1532.12,634.5,534.045,1269.4l-563.5-885.836,998.076-634.9Z" transform="translate(0 918.667)" fill="#fff"/>
    </clipPath>
  </defs>
  <g id="etr-alklam-white" transform="translate(-238.666 -1131.668)" clip-path="url(#clip-path)">
    <g id="g26" clip-path="url(#clip-path-2)">
      <g id="g25" clip-path="url(#clip-path-2)">
        <path id="path25" d="M1082.259-958.53-718.153,186.757,420.4,1976.588,2220.816,831.3Z" transform="translate(0 918.667)" fill="#fff"/>
      </g>
    </g>
  </g>
</svg>
