<svg id="fatora-white" xmlns="http://www.w3.org/2000/svg" width="241.641" height="72.958" viewBox="0 0 241.641 72.958">
  <g id="Layer_1" data-name="Layer 1">
    <path id="Path_690" data-name="Path 690" d="M339.415,335.649q0-6.874-.009-13.751c0-.348.095-.428.435-.428q3.135.024,6.27,0c.285,0,.382.061.381.368q-.013,13.428-.014,26.855a15.291,15.291,0,0,1-1.935,7.815,10.179,10.179,0,0,1-7.974,5.25,19.954,19.954,0,0,1-5.039-.113c-.681-.093-1.364-.167-2.038-.3-.2-.04-.246-.115-.222-.311q.389-3.285.757-6.571c.026-.237.1-.257.316-.214a23.033,23.033,0,0,0,3.144.57,9.813,9.813,0,0,0,2.7-.071,3.41,3.41,0,0,0,2.763-2.728,16.192,16.192,0,0,0,.467-4.159C339.422,343.793,339.415,339.721,339.415,335.649Z" transform="translate(-305.804 -298.565)" fill="#fff"/>
    <path id="Path_691" data-name="Path 691" d="M64.119,174.033a3.542,3.542,0,0,1-3.689-3.551,3.723,3.723,0,0,1,7.441.026A3.557,3.557,0,0,1,64.119,174.033Z" transform="translate(-56.124 -154.999)" fill="#fff"/>
    <path id="Path_692" data-name="Path 692" d="M199.671,174.014a3.555,3.555,0,0,1-3.691-3.545,3.593,3.593,0,0,1,3.7-3.6,3.576,3.576,0,1,1-.006,7.144Z" transform="translate(-182.016 -154.98)" fill="#fff"/>
    <path id="Path_693" data-name="Path 693" d="M924.63,174.005a3.557,3.557,0,0,1-3.705-3.563,3.722,3.722,0,1,1,3.705,3.563Z" transform="translate(-855.308 -154.971)" fill="#fff"/>
    <path id="Path_694" data-name="Path 694" d="M1060.113,174.033a3.536,3.536,0,0,1-3.684-3.55,3.7,3.7,0,1,1,3.684,3.55Z" transform="translate(-981.158 -154.999)" fill="#fff"/>
    <path id="Path_695" data-name="Path 695" d="M1751.318,174.023a3.574,3.574,0,1,1,3.724-3.51A3.554,3.554,0,0,1,1751.318,174.023Z" transform="translate(-1623.138 -154.99)" fill="#fff"/>
    <path id="Path_696" data-name="Path 696" d="M2250.138,313.086a7.958,7.958,0,0,1-.855-.005,1.54,1.54,0,0,1-1.367-1.694,1.562,1.562,0,0,1,1.536-1.442q.641-.009,1.282,0a1.576,1.576,0,0,1,1.56,1.531,1.525,1.525,0,0,1-1.479,1.625c-.224.013-.45,0-.676,0Z" transform="translate(-2087.748 -287.857)" fill="#fff"/>
    <path id="Path_697" data-name="Path 697" d="M2210.8,582.027a1.654,1.654,0,0,1-1.843-1.62,1.718,1.718,0,0,1,.092-.486,1.9,1.9,0,0,1,2.615-.949,1.6,1.6,0,0,1,.778,2.237A1.618,1.618,0,0,1,2210.8,582.027Z" transform="translate(-2051.564 -537.557)" fill="#fff"/>
    <path id="Path_698" data-name="Path 698" d="M2256.972,32.452a35.4,35.4,0,0,0-2.018-8.594A36.024,36.024,0,0,0,2244.1,8.484,35.812,35.812,0,0,0,2223.772.133c-.552-.047-1.106-.089-1.659-.133h-2.779a.782.782,0,0,1-.416.057c-.89.028-1.775.115-2.658.224a36.465,36.465,0,0,0-28.84,21.412.57.57,0,0,1-.628.4c-1.08-.023-2.161-.009-3.242-.007a1.813,1.813,0,0,0-.389.03,1.579,1.579,0,0,0-1.256,1.731,1.56,1.56,0,0,0,1.512,1.391c.713.027,1.425,0,2.137.011.458.006.485-.114.326.456-.225.81-.461,1.618-.649,2.437-.065.285-.172.356-.444.351-1.853-.011-3.7,0-5.558-.009a1.527,1.527,0,0,0-1.075.389,1.618,1.618,0,0,0,1.109,2.817c1.662,0,3.325.009,4.988-.006.291,0,.356.076.315.356a18.952,18.952,0,0,0-.24,2.405c-.006.378-.163.447-.511.446q-6.021-.019-12.042-.006a1.594,1.594,0,1,0,.086,3.187q6.021,0,12.041-.006c.281,0,.4.058.408.356a23.413,23.413,0,0,0,.254,2.512c.041.272-.023.338-.3.336-1.591-.014-3.183-.007-4.774-.006a1.605,1.605,0,0,0-1.727,1.591,1.64,1.64,0,0,0,1.717,1.614h5.344c.188,0,.333,0,.383.249a23.5,23.5,0,0,0,.7,2.606c.1.3.068.4-.285.4-4.073-.013-8.146-.009-12.219-.008-.13,0-.261,0-.392.008a1.525,1.525,0,0,0-1.341,1.055,1.608,1.608,0,0,0,1.568,2.1q6.769,0,13.538-.008a.6.6,0,0,1,.653.418,36.129,36.129,0,0,0,12.017,14.8,35.693,35.693,0,0,0,17.647,6.69,36.264,36.264,0,0,0,8.343-.11,35.531,35.531,0,0,0,13.048-4.311,36.438,36.438,0,0,0,18.491-35.895Zm-60.264-10.331a1.57,1.57,0,0,1,.352-.033h3.952a1.641,1.641,0,0,1,1.642,1.545,1.528,1.528,0,0,1-1.509,1.607q-2.044.063-4.091.014a1.584,1.584,0,0,1-.347-3.133Zm4.264,12.765a1.6,1.6,0,0,1,1.628,1.536,1.546,1.546,0,0,1-1.54,1.65c-1.089.036-2.18.038-3.27.01a1.636,1.636,0,0,1-1.568-1.657,1.586,1.586,0,0,1,1.657-1.54h1.528C2199.93,34.885,2200.453,34.881,2200.972,34.886Zm45.454-12.436q-2.322,11.115-4.631,22.236c-.405,1.949-.819,3.9-1.2,5.849-.058.3-.177.344-.442.343q-10.9-.01-21.8,0h-21.7a1.608,1.608,0,0,1-1.619-2.006,1.474,1.474,0,0,1,1.238-1.129,4.4,4.4,0,0,1,.6-.027h20.449a1.779,1.779,0,0,0,1.363-.489,1.486,1.486,0,0,0,.4-1.538,1.57,1.57,0,0,0-1.234-1.154,3.207,3.207,0,0,0-.672-.057q-7.2,0-14.393,0a1.576,1.576,0,0,1-1.533-1.057,1.6,1.6,0,0,1,.487-1.771,1.681,1.681,0,0,1,1.12-.378q4.542.006,9.084,0a1.931,1.931,0,0,0,1.094-.24,1.548,1.548,0,0,0,.681-1.664,1.516,1.516,0,0,0-1.415-1.244c-1.721-.03-3.443-.017-5.164-.027a1.6,1.6,0,0,1-1.639-1.3,1.543,1.543,0,0,1,1.552-1.908q4.061,0,8.123,0a1.939,1.939,0,0,0,1.305-.374,1.567,1.567,0,0,0,.52-1.664,1.652,1.652,0,0,0-1.411-1.14c-.177-.014-.356-.012-.534-.013h-12.4a1.632,1.632,0,0,1-1.146-2.8,1.5,1.5,0,0,1,1.1-.408q3.669.008,7.339,0h8.016a1.754,1.754,0,0,0,1.361-.5,1.469,1.469,0,0,0,.356-1.607,1.578,1.578,0,0,0-1.354-1.107,3,3,0,0,0-.391-.011h-10.759a2.66,2.66,0,0,1-.74-.078,1.578,1.578,0,0,1,.432-3.1q19.646,0,39.293-.008c.335.007.314.118.259.376Z" transform="translate(-2015.558)" fill="#fff"/>
    <path id="Path_699" data-name="Path 699" d="M25.024,333.988a15.422,15.422,0,0,0-.3-3.146,10.942,10.942,0,0,0-4.56-7.125,12.051,12.051,0,0,0-7.059-2.051,12.169,12.169,0,0,0-6.527,1.811,13.817,13.817,0,0,0-6.224,9.151c-.171.766-.224,1.545-.353,2.314v2.138c.071.49.132.982.214,1.469a10.973,10.973,0,0,0,4.675,7.476,14.221,14.221,0,0,0,8.117,2.445c3.87.042,7.741.013,11.614.027.319,0,.414-.071.413-.405Q25.012,341.04,25.024,333.988Zm-7.339,7.33c-1.508-.018-3.016,0-4.523-.025a7.226,7.226,0,0,1-2.7-.57,5.409,5.409,0,0,1-3.387-4.453A7.105,7.105,0,0,1,8.3,330.828a5.441,5.441,0,0,1,6.831-1.763,5.07,5.07,0,0,1,2.383,3.152,12.787,12.787,0,0,1,.49,3.689c.012.617,0,1.235,0,1.853,0,1.069-.006,2.138,0,3.206.006.254-.045.356-.327.353Z" transform="translate(0 -298.747)" fill="#fff"/>
    <path id="Path_700" data-name="Path 700" d="M681.778,334.888q0-6.519.008-13.039c0-.319-.088-.391-.4-.389q-3.116.021-6.234,0c-.356,0-.452.077-.451.445q.019,9.387.009,18.773c0,.452,0,.455-.469.456h-1.959q-5,0-10.01,0c-.324,0-.466-.052-.462-.442.023-2.339.009-4.678.012-7.017a14.407,14.407,0,0,0-.641-4.346,10.539,10.539,0,0,0-5.721-6.735,12.891,12.891,0,0,0-7.091-1.036,11.827,11.827,0,0,0-8.408,4.865,15.131,15.131,0,0,0-2.773,12.326,10.978,10.978,0,0,0,6.824,8.336,16.046,16.046,0,0,0,6.175,1.193c1.46.028,2.921.019,4.381.009.279,0,.35.075.3.346-.058.326-.058.662-.109.989a5.306,5.306,0,0,1-3.442,4.43,16.372,16.372,0,0,1-6.911.751c-1.374-.066-2.742-.227-4.108-.391-.21-.026-.341-.023-.36.266q-.2,3.144-.445,6.284c-.019.249.038.323.28.366a34.037,34.037,0,0,0,5.315.435,22.939,22.939,0,0,0,8.764-1.358,11.637,11.637,0,0,0,6.484-5.876A15.749,15.749,0,0,0,661.8,348.7c.024-.35.126-.421.452-.421,6.365.011,12.729,0,19.1.017.371,0,.44-.1.439-.451Q681.767,341.372,681.778,334.888Zm-27.328,6.233c-1.483-.019-2.968.025-4.449-.031a6.463,6.463,0,0,1-4.417-1.672,5.689,5.689,0,0,1-1.7-3.588,7.345,7.345,0,0,1,.892-4.66,5.587,5.587,0,0,1,6.365-2.629,4.629,4.629,0,0,1,2.955,2.873,11.064,11.064,0,0,1,.7,4.287v1.958c0,1.032-.008,2.066.006,3.1C654.8,341.023,654.742,341.125,654.449,341.121Z" transform="translate(-591.5 -298.55)" fill="#fff"/>
    <path id="Path_701" data-name="Path 701" d="M1395.193,189.691a13.678,13.678,0,0,0-.784-4.678,10.216,10.216,0,0,0-6.3-6.477,13.816,13.816,0,0,0-16.085,5.693,13.025,13.025,0,0,0-2,7.97,12.032,12.032,0,0,0,1.4,4.957c.17.321.172.323-.2.332H1359.24c-.455,0-.455,0-.455-.465q0-14.907.009-29.814c0-.352-.1-.424-.432-.421q-3.1.024-6.2,0c-.347,0-.452.067-.452.44q.017,18.5,0,37.01c0,.356.1.422.433.421q10.651-.015,21.3-.008,10.668,0,21.337.006c.3,0,.423-.044.421-.394Q1395.188,196.973,1395.193,189.691Zm-7.454,7.784c-1.627-.011-3.254.026-4.879-.015a6.05,6.05,0,0,1-4.264-1.991,6.6,6.6,0,0,1,3.177-10.64,4.927,4.927,0,0,1,5.824,2.483,4.817,4.817,0,0,1,.467,2c.015,1.294,0,2.589,0,3.882h.006c0,1.318-.008,2.636.006,3.954C1388.084,197.415,1388,197.476,1387.739,197.475Z" transform="translate(-1255.4 -154.905)" fill="#fff"/>
    <path id="Path_702" data-name="Path 702" d="M2897.573,391.6a6.568,6.568,0,0,0-2.252-4.5,7.294,7.294,0,0,0-6.451-1.672,11.4,11.4,0,0,0-9.276,8.316,7.3,7.3,0,0,0,.766,6.3,7.033,7.033,0,0,0,6.237,3.251,8.522,8.522,0,0,0,1.562-.127,11.143,11.143,0,0,0,6.032-3.119A10.245,10.245,0,0,0,2897.573,391.6Zm-4.747.2c-.019.157-.062.222-.234.226-.545.011-1.09.04-1.634.071-.176.009-.285-.013-.3-.234a.641.641,0,0,0-.556-.57,3.818,3.818,0,0,0-2.209.028.878.878,0,0,0-.576.542.711.711,0,0,0,.464,1.02,15.111,15.111,0,0,0,1.889.494,5.488,5.488,0,0,1,1.686.638,1.9,1.9,0,0,1,.926,1.939,3.05,3.05,0,0,1-1.846,2.551,6.729,6.729,0,0,1-1.6.57.345.345,0,0,0-.306.328c-.065.349-.156.694-.207,1.045-.03.2-.125.254-.308.247-.249-.01-.5,0-.748,0s-.5-.009-.747,0c-.214.011-.3-.034-.235-.279.092-.33.127-.675.214-1.006.062-.226-.016-.292-.223-.328a3.385,3.385,0,0,1-1.319-.5,2.428,2.428,0,0,1-1.077-2.125c0-.166.05-.227.219-.235.544-.029,1.089-.066,1.631-.116.205-.019.279.055.291.248a1.224,1.224,0,0,0,1.047,1.178,3.4,3.4,0,0,0,2.227-.147,1.331,1.331,0,0,0,.8-1.133.7.7,0,0,0-.484-.846,11.24,11.24,0,0,0-2.116-.6,5.667,5.667,0,0,1-1.211-.409,1.976,1.976,0,0,1-.921-2.871,3.745,3.745,0,0,1,2.774-1.845c.305-.053.455-.151.5-.467.043-.339.148-.671.209-1.008.034-.194.1-.285.321-.276.486.016.973.011,1.46,0,.2,0,.278.044.221.266-.1.39-.162.789-.256,1.18-.047.2-.037.285.205.321a3.171,3.171,0,0,1,1.14.374A1.688,1.688,0,0,1,2892.826,391.8Z" transform="translate(-2674.066 -357.822)" fill="#fff"/>
  </g>
</svg>
