<svg id="gea-white" xmlns="http://www.w3.org/2000/svg" width="717.99" height="394.82" viewBox="0 0 717.99 394.82">
  <path id="path1" d="M97.45,282.19c-3.63,2.87-5.47,7.22-5.47,12.92a16.975,16.975,0,0,0,3.4,10.32H78.54V282.26H73.76v23.17H26.77V279.65l-1.84-.44c-.49-.11-12.2-2.78-19.46,2.98C1.84,285.06,0,289.41,0,295.11c0,7.32,4.62,15.1,13.19,15.1H118.77V279.64l-1.84-.44c-.51-.1-12.22-2.77-19.48,2.99M21.99,305.43H13.18c-6.16,0-8.4-6.17-8.4-10.32,0-4.22,1.19-7.22,3.64-9.17,2.67-2.13,6.42-2.67,9.55-2.67a30.552,30.552,0,0,1,4.02.28Zm83.17,0c-6.16,0-8.4-6.17-8.4-10.32,0-4.22,1.19-7.22,3.64-9.17,2.67-2.13,6.42-2.67,9.55-2.67a30.683,30.683,0,0,1,4.02.28v21.88Z" fill="#fff"/>
  <path id="path2" d="M212.02,305.43H195.59V257.98h-4.78v47.45H174.39V282.26h-4.78v23.17H138.58V282.26H133.8v34.23c0,2.36-.63,4.01-1.94,5.05-2.54,2-7.28,1.44-8.88,1.06l-1.13,4.64a21.24,21.24,0,0,0,4.67.51,13.42,13.42,0,0,0,8.3-2.44c2.51-1.97,3.78-4.93,3.78-8.81v-6.27h78.22V258h-4.78Z" fill="#fff"/>
  <path id="path3" d="M348.62,278.5c-8.94,0-13.48,5.34-13.48,15.86,0,4.76.94,8.45,2.79,11.07H273V279.65l-1.84-.44c-.49-.11-12.2-2.78-19.46,2.98-3.63,2.87-5.47,7.22-5.47,12.92,0,7.32,4.62,15.1,13.19,15.1h89.21c8.93,0,13.45-5.34,13.45-15.86s-4.53-15.85-13.46-15.85m-80.4,26.93h-8.81c-6.16,0-8.4-6.17-8.4-10.32,0-4.22,1.19-7.22,3.64-9.17,2.67-2.13,6.42-2.67,9.55-2.67a30.683,30.683,0,0,1,4.02.28Zm80.4,0c-4.21,0-8.69-.86-8.69-11.07s4.49-11.07,8.69-11.07,8.67.86,8.67,11.07-4.47,11.07-8.67,11.07" fill="#fff"/>
  <path id="path4" d="M452.03,305.43H431c3.76-3.01,7.32-7.64,7.32-14.47,0-5.5-3.07-9.87-8.42-11.98-7.59-2.99-18.29-.93-23.36,4.51l-1.09,1.17,9.54,20.78H380.11V257.99h-4.78v52.23h81.49V257.99h-4.78v47.44Zm-40.85-19.74c4.16-3.21,11.75-4.32,16.96-2.28,3.58,1.41,5.4,3.95,5.4,7.54,0,9.8-10.3,13.8-12.24,14.47h-1.05Z" fill="#fff"/>
  <rect id="rect4" width="4.78" height="52.96" transform="translate(471.03 257.99)" fill="#fff"/>
  <rect id="rect5" width="4.78" height="52.96" transform="translate(711.21 257.99)" fill="#fff"/>
  <path id="path5" d="M692.78,305.43H676.66V295.11c0-5.7-1.84-10.05-5.47-12.92-7.27-5.76-18.97-3.09-19.46-2.98l-1.84.44v25.78H619.32V282.26h-4.78v23.17h-30.5V282.26h-4.78v23.17H532.39V279.65l-1.84-.44c-.49-.11-12.2-2.78-19.47,2.98-3.63,2.87-5.47,7.22-5.47,12.92,0,7.32,4.62,15.1,13.19,15.1H649.91v3.68c0,12.16,7.66,14.71,14.08,14.71,4.21,0,7.42-1.08,9.55-3.22,3.17-3.18,3.15-7.69,3.15-10.99v-4.18H697.6V257.99h-4.78Zm-165.19,0h-8.81c-6.16,0-8.4-6.17-8.4-10.32,0-4.22,1.19-7.22,3.64-9.17,2.67-2.13,6.42-2.67,9.55-2.67a30.684,30.684,0,0,1,4.02.28Zm127.07-21.87c3.14-.43,9.56-.8,13.57,2.39,2.45,1.95,3.64,4.95,3.64,9.17v10.32H654.65Zm17.21,30.85c.01,2.73.02,5.83-1.75,7.6-1.2,1.21-3.27,1.81-6.16,1.81-8.18,0-9.3-4.77-9.3-9.93v-3.68h17.22v4.2Z" fill="#fff"/>
  <path id="path6" d="M70.24,317.71a3.47,3.47,0,1,0,3.47,3.47,3.465,3.465,0,0,0-3.47-3.47" fill="#fff"/>
  <path id="path7" d="M82.07,317.71a3.47,3.47,0,1,0,3.47,3.47,3.465,3.465,0,0,0-3.47-3.47" fill="#fff"/>
  <path id="path8" d="M611,317.71a3.47,3.47,0,1,0,3.47,3.47,3.465,3.465,0,0,0-3.47-3.47" fill="#fff"/>
  <path id="path9" d="M622.83,317.71a3.47,3.47,0,1,0,3.47,3.47,3.465,3.465,0,0,0-3.47-3.47" fill="#fff"/>
  <path id="path10" d="M166.08,272.64a3.47,3.47,0,1,0-3.47-3.47,3.465,3.465,0,0,0,3.47,3.47" fill="#fff"/>
  <path id="path11" d="M177.92,272.64a3.47,3.47,0,1,0-3.47-3.47,3.465,3.465,0,0,0,3.47,3.47" fill="#fff"/>
  <path id="path12" d="M254.61,270.18a3.47,3.47,0,1,0-3.47-3.47,3.465,3.465,0,0,0,3.47,3.47" fill="#fff"/>
  <path id="path13" d="M105.93,270.18a3.47,3.47,0,1,0-3.47-3.47,3.465,3.465,0,0,0,3.47,3.47" fill="#fff"/>
  <path id="path14" d="M266.44,270.18a3.47,3.47,0,1,0-3.47-3.47,3.465,3.465,0,0,0,3.47,3.47" fill="#fff"/>
  <path id="path15" d="M513.79,270.18a3.47,3.47,0,1,0-3.47-3.47,3.465,3.465,0,0,0,3.47,3.47" fill="#fff"/>
  <path id="path16" d="M525.62,270.18a3.47,3.47,0,1,0-3.47-3.47,3.465,3.465,0,0,0,3.47,3.47" fill="#fff"/>
  <path id="path17" d="M585.62,273.3a6.488,6.488,0,0,0,.68-.02l-.09-1.42v-1.38h-1.12c-1.65-.06-4.27-.43-5.71-1.79a3.586,3.586,0,0,1-1.11-2.75,1.85,1.85,0,0,1,.64-1.51c1.51-1.32,5.23-1.16,6.42-1l.38-2.78c-.6-.08-5.9-.73-8.64,1.66a4.671,4.671,0,0,0-1.6,3.63,6.335,6.335,0,0,0,1.77,4.54h-2.91v2.81h10.64c.25,0,.47.01.65.01" fill="#fff"/>
  <path id="path18" d="M14.96,371.73h8.8v9.23a12.276,12.276,0,0,1-7.14,2.29c-7.03,0-11.57-5.55-11.57-14.14v-.25c0-8.1,4.72-13.98,11.22-13.98a11.466,11.466,0,0,1,8.2,3.15l.37.32,2.82-3.76-.34-.28a16.016,16.016,0,0,0-10.95-3.88c-9.35,0-16.15,7.74-16.15,18.41v.35c0,10.98,6.53,18.36,16.25,18.36a18.68,18.68,0,0,0,11.65-4.22l.17-.14V367.43H14.96Z" fill="#fff"/>
  <path id="path19" d="M45,359.45c-6.53,0-11.27,5.91-11.27,14.04v.25c0,8.05,5.08,13.88,12.08,13.88a12.227,12.227,0,0,0,9.33-4.06l.3-.3-2.67-2.99-.34.34a8.77,8.77,0,0,1-6.47,2.89c-4.08,0-7.09-3.23-7.61-8.1H55.87l.05-.4c.05-.48.05-1.19.05-1.56,0-8.5-4.31-13.99-10.97-13.99m0,4.08c4.26,0,6.09,4.28,6.4,8.15H38.34c.47-4.9,3.1-8.15,6.66-8.15" fill="#fff"/>
  <path id="path20" d="M73.23,359.45a8.631,8.631,0,0,0-7.29,3.69v-3.18H61.41v27.12h4.53v-16.4c0-4.14,2.54-7.04,6.19-7.04,3.6,0,5.58,2.43,5.58,6.84v16.6h4.53V369.47c0-6.18-3.45-10.02-9.01-10.02" fill="#fff"/>
  <path id="path21" d="M98.79,359.45c-6.53,0-11.27,5.91-11.27,14.04v.25c0,8.05,5.08,13.89,12.08,13.89a12.261,12.261,0,0,0,9.33-4.06l.3-.3-2.67-2.99-.34.34a8.759,8.759,0,0,1-6.47,2.88c-4.08,0-7.09-3.23-7.61-8.1h17.52l.05-.4c.05-.48.05-1.18.05-1.56-.01-8.5-4.31-13.99-10.97-13.99m-6.65,12.22c.46-4.9,3.1-8.15,6.65-8.15,4.26,0,6.09,4.28,6.41,8.15Z" fill="#fff"/>
  <path id="path22" d="M119.72,364.32v-4.37h-4.53v27.12h4.53V374.14c0-5.99,3.2-9.71,8.35-9.71h.65v-4.81l-.43-.02a9.408,9.408,0,0,0-8.57,4.72" fill="#fff"/>
  <path id="path23" d="M141.1,359.6a18.5,18.5,0,0,0-8.45,2.16l-.38.19,1.5,3.83.45-.24a13.833,13.833,0,0,1,6.48-1.71c4.02,0,6.24,2.14,6.24,6.03v.95a21.555,21.555,0,0,0-6.29-.9c-6.24,0-10.11,3.41-10.11,8.91v.2c0,5.65,4.46,8.6,8.85,8.6a9.428,9.428,0,0,0,7.55-3.44v2.88h4.48V369.75a10.194,10.194,0,0,0-2.65-7.41,10.427,10.427,0,0,0-7.67-2.74m5.89,14.96v2.95a5.919,5.919,0,0,1-1.78,4.26,6.882,6.882,0,0,1-4.91,1.93,4.81,4.81,0,0,1-5.24-4.88v-.15c0-3.15,2.26-5.03,6.03-5.03a18.336,18.336,0,0,1,5.9.92" fill="#fff"/>
  <rect id="rect23" width="4.53" height="37.23" transform="translate(158.36 349.84)" fill="#fff"/>
  <path id="polygon23" d="M347.91,689.66v-4.38H329.95V673.61h15.9v-4.32h-15.9V657.92h17.72v-4.38H325.28v36.12Z" transform="translate(-141 -302.59)" fill="#fff"/>
  <path id="path24" d="M224.58,359.45a8.619,8.619,0,0,0-7.29,3.69v-3.18h-4.53v27.12h4.53v-16.4c0-4.14,2.55-7.04,6.19-7.04,3.6,0,5.58,2.43,5.58,6.84v16.6h4.53V369.47c-.01-6.18-3.46-10.02-9.01-10.02" fill="#fff"/>
  <path id="path25" d="M245.86,352.31h-4.53v7.65h-3.17v4.13h3.17v16.45c0,4.48,2.48,6.94,6.99,6.94a9.177,9.177,0,0,0,4.12-.95l.26-.12v-4.09l-.63.27a7.377,7.377,0,0,1-2.89.67c-2.27,0-3.32-1.06-3.32-3.32V364.1h6.84v-4.13h-6.84Z" fill="#fff"/>
  <path id="path26" d="M267.35,359.45c-6.53,0-11.27,5.91-11.27,14.04v.25c0,8.05,5.08,13.89,12.08,13.89a12.261,12.261,0,0,0,9.33-4.06l.3-.3-2.67-2.99-.34.34a8.759,8.759,0,0,1-6.47,2.88c-4.08,0-7.09-3.23-7.61-8.1h17.52l.05-.4c.05-.48.05-1.19.05-1.56,0-8.5-4.31-13.99-10.97-13.99m-6.66,12.22c.46-4.9,3.1-8.15,6.65-8.15,4.26,0,6.09,4.28,6.4,8.15Z" fill="#fff"/>
  <path id="path27" d="M288.28,364.32v-4.37h-4.53v27.12h4.53V374.14c0-5.99,3.2-9.71,8.35-9.71h.65v-4.81l-.43-.02a9.4,9.4,0,0,0-8.57,4.72" fill="#fff"/>
  <path id="path28" d="M307.6,352.31h-4.53v7.65H299.9v4.13h3.17v16.45c0,4.48,2.48,6.94,6.99,6.94a9.178,9.178,0,0,0,4.12-.95l.26-.12v-4.09l-.63.27a7.377,7.377,0,0,1-2.89.67c-2.27,0-3.32-1.06-3.32-3.32V364.1h6.84v-4.13H307.6Z" fill="#fff"/>
  <path id="path29" d="M328.73,359.6a18.5,18.5,0,0,0-8.45,2.16l-.38.19,1.5,3.83.45-.24a13.833,13.833,0,0,1,6.48-1.71c4.02,0,6.24,2.14,6.24,6.03v.95a21.555,21.555,0,0,0-6.29-.9c-6.24,0-10.11,3.41-10.11,8.91v.2c0,5.65,4.46,8.6,8.85,8.6a9.428,9.428,0,0,0,7.55-3.44v2.88h4.48V369.75a10.194,10.194,0,0,0-2.65-7.41,10.443,10.443,0,0,0-7.67-2.74m5.88,14.96v2.95a5.919,5.919,0,0,1-1.78,4.26,7.256,7.256,0,0,1-5.01,1.93,4.8,4.8,0,0,1-5.13-4.88v-.15c0-3.15,2.26-5.03,6.03-5.03a18.231,18.231,0,0,1,5.89.92" fill="#fff"/>
  <rect id="rect29" width="4.53" height="27.12" transform="translate(346 359.95)" fill="#fff"/>
  <rect id="rect30" width="4.93" height="5.18" transform="translate(345.79 350.3)" fill="#fff"/>
  <path id="path30" d="M369.68,359.45a8.631,8.631,0,0,0-7.29,3.69v-3.18h-4.53v27.12h4.53v-16.4c0-4.14,2.54-7.04,6.19-7.04,3.6,0,5.58,2.43,5.58,6.84v16.6h4.53V369.47c.01-6.18-3.45-10.02-9.01-10.02" fill="#fff"/>
  <path id="path31" d="M412.1,359.45a9.282,9.282,0,0,0-7.99,4.32,7.91,7.91,0,0,0-7.31-4.32,8.162,8.162,0,0,0-6.89,3.62v-3.11h-4.53v27.12h4.53v-16.4c0-4.08,2.41-7.04,5.73-7.04,3.37,0,5.23,2.41,5.23,6.79v16.65h4.53V370.63c0-4.18,2.3-6.99,5.73-6.99,3.37,0,5.23,2.43,5.23,6.84v16.6h4.53V369.52c.02-6.22-3.35-10.07-8.79-10.07" fill="#fff"/>
  <path id="path32" d="M437.56,359.45c-6.53,0-11.27,5.91-11.27,14.04v.25c0,8.05,5.08,13.89,12.08,13.89a12.261,12.261,0,0,0,9.33-4.06l.3-.3-2.66-2.99-.34.34a8.759,8.759,0,0,1-6.47,2.88c-4.08,0-7.09-3.23-7.6-8.1h17.52l.05-.4c.05-.48.05-1.18.05-1.56-.02-8.5-4.32-13.99-10.99-13.99m-6.65,12.22c.46-4.9,3.1-8.15,6.65-8.15,4.25,0,6.09,4.28,6.41,8.15Z" fill="#fff"/>
  <path id="path33" d="M465.79,359.45a8.619,8.619,0,0,0-7.29,3.69v-3.18h-4.53v27.12h4.53v-16.4c0-4.14,2.54-7.04,6.19-7.04,3.6,0,5.58,2.43,5.58,6.84v16.6h4.53V369.47c0-6.18-3.46-10.02-9.01-10.02" fill="#fff"/>
  <path id="path34" d="M487.08,352.31h-4.53v7.65h-3.17v4.13h3.17v16.45c0,4.48,2.48,6.94,6.99,6.94a9.208,9.208,0,0,0,4.12-.95l.26-.12v-4.09l-.63.27a7.377,7.377,0,0,1-2.89.67c-2.27,0-3.32-1.06-3.32-3.32V364.1h6.84v-4.13h-6.84Z" fill="#fff"/>
  <path id="path35" d="M524.4,350.75l-13.54,35.71-.24.62h4.85l3.42-9.26H534.1l3.42,9.26h5l-13.78-36.33Zm8.11,22.74H520.49l6.03-16.11Z" fill="#fff"/>
  <path id="path36" d="M562.79,376.41c0,4.12-2.54,6.99-6.19,6.99-3.6,0-5.58-2.43-5.58-6.84v-16.6h-4.53v17.66c0,6.15,3.45,9.96,9.01,9.96a8.606,8.606,0,0,0,7.29-3.69v3.18h4.53V359.95h-4.53Z" fill="#fff"/>
  <path id="path37" d="M580.06,352.31h-4.53v7.65h-3.17v4.13h3.17v16.45c0,4.48,2.48,6.94,6.99,6.94a9.312,9.312,0,0,0,4.12-.95l.26-.12v-4.09l-.63.27a7.377,7.377,0,0,1-2.89.67c-2.27,0-3.32-1.06-3.32-3.32V364.1h6.84v-4.13h-6.84Z" fill="#fff"/>
  <path id="path38" d="M604.16,359.45a8.631,8.631,0,0,0-7.29,3.69V349.85h-4.53v37.23h4.53v-16.4c0-4.14,2.54-7.04,6.19-7.04,3.6,0,5.58,2.43,5.58,6.84v16.6h4.53V369.47c-.01-6.18-3.46-10.02-9.01-10.02" fill="#fff"/>
  <path id="path39" d="M630.57,359.45c-6.91,0-12.13,5.99-12.13,13.94v.35c0,7.92,5.19,13.89,12.07,13.89,6.91,0,12.13-6.02,12.13-13.99v-.3c.01-7.92-5.18-13.89-12.07-13.89m7.5,13.99v.25c0,5.56-3.22,9.76-7.49,9.76s-7.5-4.22-7.5-9.81v-.25c0-5.65,3.13-9.75,7.44-9.75s7.55,4.2,7.55,9.8" fill="#fff"/>
  <path id="path40" d="M652.82,364.32v-4.37h-4.53v27.12h4.53V374.14c0-5.99,3.2-9.71,8.35-9.71h.65v-4.81l-.43-.02a9.408,9.408,0,0,0-8.57,4.72" fill="#fff"/>
  <rect id="rect40" width="4.93" height="5.18" transform="translate(666.55 350.3)" fill="#fff"/>
  <rect id="rect41" width="4.53" height="27.12" transform="translate(666.75 359.95)" fill="#fff"/>
  <path id="path41" d="M684.31,352.31h-4.53v7.65h-3.17v4.13h3.17v16.45c0,4.48,2.48,6.94,6.99,6.94a9.312,9.312,0,0,0,4.12-.95l.26-.12v-4.09l-.63.27a7.377,7.377,0,0,1-2.89.67c-2.27,0-3.32-1.06-3.32-3.32V364.1h6.84v-4.13h-6.84Z" fill="#fff"/>
  <path id="path42" d="M713.16,359.95l-6.74,20.64-7.51-20.64h-4.9l10.24,26.66c-1.33,3.36-2.49,4.03-4.04,4.03a6.486,6.486,0,0,1-3.2-.9l-.46-.25-1.43,3.88.35.19a10.255,10.255,0,0,0,4.94,1.26c3.89,0,6.23-2.2,8.07-7.6l9.51-27.27Z" fill="#fff"/>
  <path id="path43" d="M487.34,52.53h38.43L587,197.4H544.26l-10.48-25.69H478.3L468.02,197.4H426.1Zm34.93,88.16-16.03-40.9L490,140.69Z" fill="#fff"/>
  <path id="path44" d="M131,125.89v-.41c0-41.92,32.88-74.8,77.47-74.8,25.28,0,43.15,7.81,58.36,20.96L243.4,99.79c-10.28-8.63-20.55-13.56-34.73-13.56-20.76,0-36.78,17.47-36.78,39.45v.41c0,23.22,16.23,39.87,39.05,39.87,9.66,0,17.06-2.05,23.01-5.96V142.53H205.59V113.35h66.17v64.73a97.283,97.283,0,0,1-62.47,22.19c-44.79.01-78.29-30.82-78.29-74.38" fill="#fff"/>
  <rect id="rect44" width="116.72" height="34.27" transform="translate(300.34 163.13)" fill="#fff"/>
  <path id="path45" d="M406.81,78.52c-4.44,11.64-21.72,34.96-44.96,34.96a42.867,42.867,0,0,1-26.5-9.08l93.2-51.74S409.97,0,354.27,0c-36.76,0-68.36,33.78-68.36,73.96,0,44.56,38.62,73.92,75.93,73.92,43.7,0,73.54-40.06,75.94-58.3ZM358.07,33.78c16.32,0,23.94,10.22,23.94,10.22l-61.2,34.12c-2.91-13.3,5.91-44.34,37.26-44.34" fill="#fff"/>
</svg>
