<svg id="nama-white" xmlns="http://www.w3.org/2000/svg" xmlns:xlink="http://www.w3.org/1999/xlink" width="83.236" height="101.196" viewBox="0 0 83.236 101.196">
  <defs>
    <clipPath id="clip-path">
      <rect id="Rectangle_11139" data-name="Rectangle 11139" width="20.565" height="20.5" fill="none"/>
    </clipPath>
    <clipPath id="clip-path-2">
      <path id="Path_66736" data-name="Path 66736" d="M15.469,38.809a2.942,2.942,0,0,1-.846-2.213,2.7,2.7,0,0,1,.846-2.148,2.749,2.749,0,0,1,2.083-.846,2.893,2.893,0,0,1,2.148.846,2.8,2.8,0,0,1,.846,2.148,2.942,2.942,0,0,1-.846,2.213,2.8,2.8,0,0,1-2.148.846,2.655,2.655,0,0,1-2.083-.846m-2.083-6.052a5.512,5.512,0,0,0-1.5,3.9,5.356,5.356,0,0,0,1.5,3.84,4.887,4.887,0,0,0,5.336,1.237A5.445,5.445,0,0,0,20.285,40.7V41.8h2.733V31.52H20.285v1.106a4.121,4.121,0,0,0-1.562-1.041A4.316,4.316,0,0,0,16.9,31.26a4.863,4.863,0,0,0-3.579,1.5" transform="translate(-11.89 -31.26)" fill="none"/>
    </clipPath>
    <clipPath id="clip-path-4">
      <path id="Path_66738" data-name="Path 66738" d="M20.479,38.809a2.942,2.942,0,0,1-.846-2.213,2.7,2.7,0,0,1,.846-2.148,2.749,2.749,0,0,1,2.083-.846,2.893,2.893,0,0,1,2.148.846,2.8,2.8,0,0,1,.846,2.148,2.942,2.942,0,0,1-.846,2.213,2.8,2.8,0,0,1-2.148.846,2.655,2.655,0,0,1-2.083-.846M18.4,32.757a5.512,5.512,0,0,0-1.5,3.9,5.356,5.356,0,0,0,1.5,3.84,4.925,4.925,0,0,0,3.644,1.562,5.58,5.58,0,0,0,1.757-.325A5.446,5.446,0,0,0,25.36,40.7V41.8h2.733V31.52H25.36v1.106A4.121,4.121,0,0,0,23.8,31.585a4.316,4.316,0,0,0-1.822-.325,4.863,4.863,0,0,0-3.579,1.5" transform="translate(-16.9 -31.26)" fill="none"/>
    </clipPath>
    <clipPath id="clip-path-5">
      <rect id="Rectangle_11143" data-name="Rectangle 11143" width="18.743" height="18.873" fill="none"/>
    </clipPath>
    <clipPath id="clip-path-6">
      <path id="Path_66740" data-name="Path 66740" d="M14.45,31.565a4.828,4.828,0,0,0-1.432.846,5.963,5.963,0,0,0-1.822,3.9,5.271,5.271,0,0,1,1.627-4.425V31.5H10.09V41.783h2.733V37.618a7.815,7.815,0,0,1,.13-2.082A2.648,2.648,0,0,1,13.8,34.1a2.144,2.144,0,0,1,1.432-.521,1.656,1.656,0,0,1,1.041.325,1.5,1.5,0,0,1,.586.911,9.826,9.826,0,0,1,.2,2.473v4.49h2.668V34.949a3.442,3.442,0,0,0-.976-2.668,3.78,3.78,0,0,0-2.733-1.041,5.544,5.544,0,0,0-1.5.26" transform="translate(-10.09 -31.24)" fill="none"/>
    </clipPath>
    <clipPath id="clip-path-7">
      <rect id="Rectangle_11145" data-name="Rectangle 11145" width="25.706" height="24.925" fill="none"/>
    </clipPath>
    <clipPath id="clip-path-8">
      <path id="Path_66742" data-name="Path 66742" d="M24.843,31.706a4.485,4.485,0,0,0-1.562,1.367A6.543,6.543,0,0,0,22.175,36.2a5.527,5.527,0,0,1,.846-3.514,3.726,3.726,0,0,0-1.041-.976,3.451,3.451,0,0,0-1.822-.456,4.158,4.158,0,0,0-1.822.39,4.3,4.3,0,0,0-1.562,1.106V31.575H14.04V41.858h2.733V37.3a6.6,6.6,0,0,1,.26-2.213,2.236,2.236,0,0,1,.846-1.041,2.143,2.143,0,0,1,1.236-.39,1.967,1.967,0,0,1,1.041.325,1.94,1.94,0,0,1,.651.911,7.389,7.389,0,0,1,.2,2.017v5.011h2.733V37.3A5.955,5.955,0,0,1,24,35.155a2.236,2.236,0,0,1,.846-1.041,2.143,2.143,0,0,1,1.236-.39,1.557,1.557,0,0,1,1.367.651,3.951,3.951,0,0,1,.456,2.343v5.206h2.733V35.871a6.55,6.55,0,0,0-.39-2.668,2.967,2.967,0,0,0-1.237-1.3,4.04,4.04,0,0,0-2.017-.521,4.445,4.445,0,0,0-2.083.456" transform="translate(-14.04 -31.25)" fill="none"/>
    </clipPath>
    <clipPath id="clip-path-9">
      <rect id="Rectangle_11151" data-name="Rectangle 11151" width="83.236" height="84.862" fill="none"/>
    </clipPath>
    <clipPath id="clip-path-10">
      <path id="Path_66777" data-name="Path 66777" d="M17.665,27.755c-2.668,3.384,3.254,7.679,3.254,7.679-1.5-1.627-.2-2.668.976-4.425,2.668-3.384-3.254-7.679-3.254-7.679,1.5,1.627.2,2.668-.976,4.425" transform="translate(-16.974 -23.33)" fill="none"/>
    </clipPath>
    <clipPath id="clip-path-11">
      <path id="Path_66778" data-name="Path 66778" d="M15.075,29.257c-3.775.26-3.9,4.165-3.9,4.23.39-1.236,1.692-1.3,3.579-1.5,3.84-.325,3.9-4.23,3.9-4.23-.39,1.236-1.692,1.3-3.579,1.5" transform="translate(-11.17 -27.76)" fill="none"/>
    </clipPath>
    <clipPath id="clip-path-12">
      <path id="Path_66779" data-name="Path 66779" d="M17.518,29.141a7.389,7.389,0,0,0-6.9,2.994c1.106-1.041,2.733-.781,5.141-.651a7.389,7.389,0,0,0,6.9-2.994c-1.106,1.041-2.733.846-5.141.651" transform="translate(-10.62 -28.49)" fill="none"/>
    </clipPath>
    <clipPath id="clip-path-13">
      <path id="Path_66780" data-name="Path 66780" d="M25.239,39.958A20.186,20.186,0,0,0,18.6,41.52a8.884,8.884,0,0,0-5.141,6.443c-.586,4.1,2.148,5.011,2.148,5.011h0c.26-7.614,9.5-5.857,9.5-5.857,9.957,1.887,13.8-1.367,13.8-1.367-4.23,1.432-8.786-.586-8.786-.586C48.8,49.85,44.047,24.73,44.047,24.73c-.2,11-12.755,14.773-18.808,15.228" transform="translate(-13.377 -24.73)" fill="none"/>
    </clipPath>
    <clipPath id="clip-path-14">
      <path id="Path_66781" data-name="Path 66781" d="M12.54,64.043h0m5.011-14.9h0m0,0h0m0,0h0m0,0h0m0,0h0m0,0a.2.2,0,0,1,.065-.13.2.2,0,0,1-.065.13m.065-.13h0m-.13.13a30.741,30.741,0,0,0-5.011,14.9,34.945,34.945,0,0,0,1.432,11.649h0a.391.391,0,0,0,.065.26l.586,1.757a24.591,24.591,0,0,0,1.692,3.514,3.633,3.633,0,0,0,.325.521h0a12.139,12.139,0,0,0,4.165,4.165,7.151,7.151,0,0,0,5.662.26l.781-.39A6.093,6.093,0,0,0,29.851,82.2a7.723,7.723,0,0,0,.065-4.1,6.718,6.718,0,0,0-1.822-3.189,6.256,6.256,0,0,1-3.775,5.532h0s-3.319,1.367-5.336-.2a3.023,3.023,0,0,1-1.106-1.5c0-.13-.13-.26-.13-.39-.39-.976-1.171-4.23,2.017-10.8a18.838,18.838,0,0,1,.976-2.017,3.816,3.816,0,0,1,.456-.651c.586-.976,1.171-2.017,1.952-3.124.976-1.692,2.213-3.709,3.319-5.727h0a.2.2,0,0,1,.065-.13h0a.8.8,0,0,0,.13-.325c.26-.521.456-.911.586-1.106,1.822-3.449,3.319-6.833,3.319-8.4a9.375,9.375,0,0,1-8.2,7.224s7.419-1.171,8.2-11.519c.39-4.946-.781-12.039-4.946-22.126.586,1.5,3.97,12.885-8.2,29.35" transform="translate(-12.445 -19.66)" fill="none"/>
    </clipPath>
    <clipPath id="clip-path-15">
      <rect id="Rectangle_11153" data-name="Rectangle 11153" width="49.85" height="62.214" fill="none"/>
    </clipPath>
  </defs>
  <path id="Path_66735" data-name="Path 66735" d="M20.35,32.617a4.121,4.121,0,0,0-1.562-1.041,4.316,4.316,0,0,0-1.822-.325,4.863,4.863,0,0,0-3.579,1.5,5.512,5.512,0,0,0-1.5,3.9,5.151,5.151,0,0,0,1.562,3.84,4.887,4.887,0,0,0,5.336,1.236,5.445,5.445,0,0,0,1.562-1.041v1.106h2.733V31.51H20.35Zm-.716,6.247a2.8,2.8,0,0,1-2.148.846,2.655,2.655,0,0,1-2.083-.846,2.942,2.942,0,0,1-.846-2.213A2.7,2.7,0,0,1,15.4,34.5a2.749,2.749,0,0,1,2.083-.846,2.893,2.893,0,0,1,2.148.846,2.8,2.8,0,0,1,.846,2.148,2.942,2.942,0,0,1-.846,2.213" transform="translate(13.946 52.245)" fill="#fff"/>
  <g id="Group_63528" data-name="Group 63528" transform="translate(21.151 78.614)" style="mix-blend-mode: multiply;isolation: isolate">
    <g id="Group_63527" data-name="Group 63527" clip-path="url(#clip-path)">
      <g id="Group_63526" data-name="Group 63526" transform="translate(4.686 4.946)" clip-path="url(#clip-path-2)">
        <rect id="Rectangle_11138" data-name="Rectangle 11138" width="14.968" height="15.098" transform="translate(-4.708 8.068) rotate(-59.99)" fill="#fff"/>
      </g>
    </g>
  </g>
  <path id="Path_66737" data-name="Path 66737" d="M25.36,31.51v1.106A4.121,4.121,0,0,0,23.8,31.575a4.316,4.316,0,0,0-1.822-.325,4.863,4.863,0,0,0-3.579,1.5,5.512,5.512,0,0,0-1.5,3.9,5.356,5.356,0,0,0,1.5,3.84,4.925,4.925,0,0,0,3.644,1.562,5.58,5.58,0,0,0,1.757-.325,5.446,5.446,0,0,0,1.562-1.041v1.106h2.733V31.51H25.36Zm-.716,7.354a2.8,2.8,0,0,1-2.148.846,2.655,2.655,0,0,1-2.083-.846,2.942,2.942,0,0,1-.846-2.213,2.7,2.7,0,0,1,.846-2.148,2.749,2.749,0,0,1,2.083-.846,2.893,2.893,0,0,1,2.148.846,2.8,2.8,0,0,1,.846,2.148,2.942,2.942,0,0,1-.846,2.213" transform="translate(41.541 52.245)" fill="#fff"/>
  <g id="Group_63531" data-name="Group 63531" transform="translate(53.755 78.614)" style="mix-blend-mode: multiply;isolation: isolate">
    <g id="Group_63530" data-name="Group 63530" clip-path="url(#clip-path)">
      <g id="Group_63529" data-name="Group 63529" transform="translate(4.686 4.946)" clip-path="url(#clip-path-4)">
        <rect id="Rectangle_11140" data-name="Rectangle 11140" width="14.968" height="15.098" transform="matrix(0.5, -0.866, 0.866, 0.5, -4.669, 8.065)" fill="#fff"/>
      </g>
    </g>
  </g>
  <path id="Path_66739" data-name="Path 66739" d="M15.957,31.305a5.544,5.544,0,0,0-1.5.26,6.823,6.823,0,0,0-1.432.846,5.963,5.963,0,0,0-1.822,3.9,5.271,5.271,0,0,1,1.627-4.425V31.5H10.1V41.783h2.733V37.618a7.815,7.815,0,0,1,.13-2.082A2.648,2.648,0,0,1,13.81,34.1a2.144,2.144,0,0,1,1.432-.521,1.656,1.656,0,0,1,1.041.325,1.5,1.5,0,0,1,.586.911,9.826,9.826,0,0,1,.2,2.473v4.49h2.668V34.949a3.442,3.442,0,0,0-.976-2.668,3.78,3.78,0,0,0-2.733-1.041" transform="translate(4.087 52.19)" fill="#fff"/>
  <g id="Group_63534" data-name="Group 63534" transform="translate(9.502 79.33)" style="mix-blend-mode: multiply;isolation: isolate">
    <g id="Group_63533" data-name="Group 63533" clip-path="url(#clip-path-5)">
      <g id="Group_63532" data-name="Group 63532" transform="translate(4.621 4.1)" clip-path="url(#clip-path-6)">
        <rect id="Rectangle_11142" data-name="Rectangle 11142" width="13.927" height="13.602" transform="matrix(0.5, -0.866, 0.866, 0.5, -4.554, 8.01)" fill="#fff"/>
      </g>
    </g>
  </g>
  <path id="Path_66741" data-name="Path 66741" d="M28.943,31.771a4.039,4.039,0,0,0-2.017-.521,4.445,4.445,0,0,0-2.083.456,3.977,3.977,0,0,0-1.562,1.367A6.543,6.543,0,0,0,22.175,36.2a5.527,5.527,0,0,1,.846-3.514,3.726,3.726,0,0,0-1.041-.976,3.451,3.451,0,0,0-1.822-.456,4.158,4.158,0,0,0-1.822.39,4.3,4.3,0,0,0-1.562,1.106V31.575H14.04V41.858h2.733V37.3a6.6,6.6,0,0,1,.26-2.213,2.236,2.236,0,0,1,.846-1.041,2.143,2.143,0,0,1,1.236-.39,1.8,1.8,0,0,1,1.041.325,1.94,1.94,0,0,1,.651.911,7.39,7.39,0,0,1,.2,2.017v5.011h2.733V37.3A5.955,5.955,0,0,1,24,35.155a2.236,2.236,0,0,1,.846-1.041,2.143,2.143,0,0,1,1.236-.39,1.557,1.557,0,0,1,1.367.651,3.951,3.951,0,0,1,.456,2.343v5.206h2.733V35.871a6.55,6.55,0,0,0-.39-2.668,2.967,2.967,0,0,0-1.237-1.3" transform="translate(25.788 52.245)" fill="#fff"/>
  <g id="Group_63537" data-name="Group 63537" transform="translate(35.208 76.271)" style="mix-blend-mode: multiply;isolation: isolate">
    <g id="Group_63536" data-name="Group 63536" clip-path="url(#clip-path-7)">
      <g id="Group_63535" data-name="Group 63535" transform="translate(4.621 7.224)" clip-path="url(#clip-path-8)">
        <rect id="Rectangle_11144" data-name="Rectangle 11144" width="17.441" height="19.654" transform="translate(-4.639 7.908) rotate(-60)" fill="#fff"/>
      </g>
    </g>
  </g>
  <path id="Path_66772" data-name="Path 66772" d="M20.919,35.434c-1.5-1.627-.2-2.668.976-4.425,2.668-3.384-3.254-7.679-3.254-7.679,1.5,1.627.2,2.668-.976,4.425-2.668,3.384,3.254,7.679,3.254,7.679" transform="translate(41.948 8.623)" fill="#fff"/>
  <path id="Path_66773" data-name="Path 66773" d="M11.17,33.947s.13-3.97,3.9-4.23c1.887-.26,3.189-.26,3.579-1.5,0,0-.13,3.97-3.9,4.23-1.887.26-3.189.26-3.579,1.5" transform="translate(9.981 35.556)" fill="#fff"/>
  <path id="Path_66774" data-name="Path 66774" d="M10.61,32.639a7.5,7.5,0,0,1,6.9-2.994c2.408.13,4.035.325,5.141-.716a7.5,7.5,0,0,1-6.9,2.994c-2.408-.13-4.035-.325-5.141.651" transform="translate(6.896 39.467)" fill="#fff"/>
  <path id="Path_66775" data-name="Path 66775" d="M44.057,24.73c-.2,11-12.755,14.773-18.808,15.228a20.186,20.186,0,0,0-6.638,1.562,8.884,8.884,0,0,0-5.141,6.443c-.586,4.1,2.148,5.011,2.148,5.011h0c.26-7.614,9.5-5.857,9.5-5.857,9.957,1.887,13.8-1.367,13.8-1.367-4.23,1.432-8.786-.586-8.786-.586C48.808,49.85,44.057,24.73,44.057,24.73" transform="translate(22.194 16.334)" fill="#fff" fill-rule="evenodd"/>
  <path id="Path_66776" data-name="Path 66776" d="M30.651,41.786c.39-4.946-.781-12.039-4.946-22.126.586,1.5,3.97,12.885-8.2,29.35h0a30.741,30.741,0,0,0-5.011,14.9h0a33.334,33.334,0,0,0,1.432,11.649h0a.391.391,0,0,0,.065.26l.586,1.757a24.59,24.59,0,0,0,1.692,3.514,3.632,3.632,0,0,0,.325.521h0a12.139,12.139,0,0,0,4.165,4.165,7.151,7.151,0,0,0,5.662.26l.781-.39A6.093,6.093,0,0,0,29.87,82.07a7.723,7.723,0,0,0,.065-4.1,6.718,6.718,0,0,0-1.822-3.189,6.256,6.256,0,0,1-3.775,5.532h0s-3.319,1.367-5.336-.2a3.023,3.023,0,0,1-1.106-1.5c0-.13-.13-.26-.13-.39-.39-.976-1.171-4.23,2.017-10.8a18.841,18.841,0,0,1,.976-2.017,3.816,3.816,0,0,1,.456-.651q.879-1.464,1.952-3.124c.976-1.692,2.213-3.709,3.319-5.727h0a.2.2,0,0,1,.065-.13h0a.8.8,0,0,0,.13-.325c.26-.456.456-.846.586-1.106,1.822-3.449,3.319-6.833,3.319-8.4a9.375,9.375,0,0,1-8.2,7.224s7.419-1.171,8.2-11.519" transform="translate(16.987 -11.59)" fill="#fff"/>
  <g id="Group_63544" data-name="Group 63544" transform="translate(0 0)" opacity="0.8" style="mix-blend-mode: multiply;isolation: isolate">
    <g id="Group_63543" data-name="Group 63543" clip-path="url(#clip-path-9)">
      <g id="Group_63538" data-name="Group 63538" transform="translate(58.922 31.953)" clip-path="url(#clip-path-10)">
        <rect id="Rectangle_11146" data-name="Rectangle 11146" width="15.293" height="14.383" transform="translate(-7.225 9.041) rotate(-60)" fill="#fff"/>
      </g>
      <g id="Group_63539" data-name="Group 63539" transform="translate(21.151 60.783)" clip-path="url(#clip-path-11)">
        <rect id="Rectangle_11147" data-name="Rectangle 11147" width="8.721" height="9.371" transform="matrix(0.5, -0.866, 0.866, 0.5, -2.512, 4.347)" fill="#fff"/>
      </g>
      <g id="Group_63540" data-name="Group 63540" transform="translate(17.571 65.533)" clip-path="url(#clip-path-12)">
        <rect id="Rectangle_11148" data-name="Rectangle 11148" width="9.241" height="12.3" transform="translate(-1.646 2.773) rotate(-59.99)" fill="#fff"/>
      </g>
      <g id="Group_63541" data-name="Group 63541" transform="translate(35.516 41.064)" clip-path="url(#clip-path-13)">
        <rect id="Rectangle_11149" data-name="Rectangle 11149" width="42.431" height="45.23" transform="translate(-12.69 21.125) rotate(-60)" fill="#fff"/>
      </g>
      <g id="Group_63542" data-name="Group 63542" transform="translate(29.451 8.07)" clip-path="url(#clip-path-14)">
        <rect id="Rectangle_11150" data-name="Rectangle 11150" width="68.072" height="50.046" transform="translate(-29.434 50.907) rotate(-60)" fill="#fff"/>
      </g>
    </g>
  </g>
</svg>
