<svg id="nama-white" xmlns="http://www.w3.org/2000/svg" xmlns:xlink="http://www.w3.org/1999/xlink" width="200.325" height="243.55" viewBox="0 0 200.325 243.55">
  <defs>
    <clipPath id="clip-path">
      <rect id="Rectangle_11139" data-name="Rectangle 11139" width="49.494" height="49.338" fill="none"/>
    </clipPath>
    <clipPath id="clip-path-2">
      <path id="Path_66736" data-name="Path 66736" d="M20.511,49.433a7.081,7.081,0,0,1-2.036-5.326,6.5,6.5,0,0,1,2.036-5.17A6.616,6.616,0,0,1,25.524,36.9a6.963,6.963,0,0,1,5.17,2.036,6.739,6.739,0,0,1,2.036,5.17,7.081,7.081,0,0,1-2.036,5.326,6.739,6.739,0,0,1-5.17,2.036,6.39,6.39,0,0,1-5.013-2.036M15.5,34.868a13.266,13.266,0,0,0-3.61,9.386A12.89,12.89,0,0,0,15.5,53.5,11.762,11.762,0,0,0,28.34,56.473,13.1,13.1,0,0,0,32.1,53.984v2.647h6.578V31.891H32.1v2.662a9.918,9.918,0,0,0-3.759-2.505,10.387,10.387,0,0,0-4.387-.782,11.7,11.7,0,0,0-8.614,3.61" transform="translate(-11.885 -31.257)" fill="none"/>
    </clipPath>
    <clipPath id="clip-path-4">
      <path id="Path_66738" data-name="Path 66738" d="M25.516,49.433a7.081,7.081,0,0,1-2.036-5.326,6.5,6.5,0,0,1,2.036-5.17A6.616,6.616,0,0,1,30.529,36.9a6.963,6.963,0,0,1,5.17,2.036,6.739,6.739,0,0,1,2.036,5.17A7.081,7.081,0,0,1,35.7,49.433a6.739,6.739,0,0,1-5.17,2.036,6.39,6.39,0,0,1-5.013-2.036m-5-14.565a13.266,13.266,0,0,0-3.61,9.386,12.89,12.89,0,0,0,3.61,9.242,11.853,11.853,0,0,0,8.77,3.759,13.429,13.429,0,0,0,4.229-.782,13.107,13.107,0,0,0,3.752-2.489v2.647H43.84V31.89H37.263v2.662a9.918,9.918,0,0,0-3.754-2.505,10.387,10.387,0,0,0-4.385-.782,11.7,11.7,0,0,0-8.614,3.61" transform="translate(-16.899 -31.257)" fill="none"/>
    </clipPath>
    <clipPath id="clip-path-5">
      <rect id="Rectangle_11143" data-name="Rectangle 11143" width="45.109" height="45.422" fill="none"/>
    </clipPath>
    <clipPath id="clip-path-6">
      <path id="Path_66740" data-name="Path 66740" d="M20.583,32.025a11.619,11.619,0,0,0-3.446,2.036,14.351,14.351,0,0,0-4.385,9.386A12.686,12.686,0,0,1,16.668,32.8v-.929H10.09V56.617h6.578V46.593a18.808,18.808,0,0,1,.313-5.011,6.373,6.373,0,0,1,2.038-3.456,5.16,5.16,0,0,1,3.446-1.254,3.986,3.986,0,0,1,2.505.782,3.61,3.61,0,0,1,1.41,2.193,23.648,23.648,0,0,1,.481,5.952V56.6h6.421V40.169a8.284,8.284,0,0,0-2.349-6.421,9.1,9.1,0,0,0-6.578-2.505,13.343,13.343,0,0,0-3.61.626" transform="translate(-10.09 -31.238)" fill="none"/>
    </clipPath>
    <clipPath id="clip-path-7">
      <rect id="Rectangle_11145" data-name="Rectangle 11145" width="61.867" height="59.987" fill="none"/>
    </clipPath>
    <clipPath id="clip-path-8">
      <path id="Path_66742" data-name="Path 66742" d="M40.04,32.344a10.794,10.794,0,0,0-3.759,3.29,15.747,15.747,0,0,0-2.662,7.526A13.3,13.3,0,0,1,35.655,34.7a8.967,8.967,0,0,0-2.505-2.349,8.306,8.306,0,0,0-4.385-1.1,10.007,10.007,0,0,0-4.385.939,10.349,10.349,0,0,0-3.759,2.662V32.029H14.04V56.777h6.578V45.807a15.884,15.884,0,0,1,.626-5.326,5.381,5.381,0,0,1,2.036-2.505,5.158,5.158,0,0,1,2.975-.939,4.734,4.734,0,0,1,2.505.782,4.669,4.669,0,0,1,1.567,2.193,17.783,17.783,0,0,1,.481,4.854v12.06h6.578V45.807a14.332,14.332,0,0,1,.626-5.162,5.381,5.381,0,0,1,2.036-2.505,5.158,5.158,0,0,1,2.975-.939,3.747,3.747,0,0,1,3.29,1.567,9.509,9.509,0,0,1,1.1,5.639V56.936h6.578V42.368a15.764,15.764,0,0,0-.939-6.421,7.141,7.141,0,0,0-2.977-3.129,9.723,9.723,0,0,0-4.854-1.254,10.7,10.7,0,0,0-5.013,1.1" transform="translate(-14.04 -31.252)" fill="none"/>
    </clipPath>
    <clipPath id="clip-path-9">
      <rect id="Rectangle_11151" data-name="Rectangle 11151" width="200.325" height="204.238" fill="none"/>
    </clipPath>
    <clipPath id="clip-path-10">
      <path id="Path_66777" data-name="Path 66777" d="M18.637,33.98c-6.421,8.144,7.831,18.481,7.831,18.481-3.61-3.916-.481-6.421,2.349-10.65,6.421-8.144-7.831-18.481-7.831-18.481,3.61,3.916.481,6.421-2.349,10.65" transform="translate(-16.974 -23.33)" fill="none"/>
    </clipPath>
    <clipPath id="clip-path-11">
      <path id="Path_66778" data-name="Path 66778" d="M20.561,31.367c-9.085.626-9.386,10.024-9.386,10.18.939-2.975,4.072-3.129,8.614-3.61,9.242-.782,9.386-10.18,9.386-10.18-.939,2.975-4.072,3.129-8.614,3.61" transform="translate(-11.175 -27.757)" fill="none"/>
    </clipPath>
    <clipPath id="clip-path-12">
      <path id="Path_66779" data-name="Path 66779" d="M27.224,30.057a17.783,17.783,0,0,0-16.606,7.206c2.662-2.505,6.578-1.88,12.373-1.567A17.783,17.783,0,0,0,39.6,28.49C36.935,31,33.02,30.526,27.224,30.057" transform="translate(-10.618 -28.49)" fill="none"/>
    </clipPath>
    <clipPath id="clip-path-13">
      <path id="Path_66780" data-name="Path 66780" d="M41.926,61.379a48.581,48.581,0,0,0-15.978,3.759A21.381,21.381,0,0,0,13.575,80.645c-1.41,9.868,5.17,12.06,5.17,12.06h0c.626-18.325,22.864-14.1,22.864-14.1,23.964,4.541,33.213-3.29,33.213-3.29-10.18,3.446-21.145-1.41-21.145-1.41C98.63,85.187,87.191,24.73,87.191,24.73,86.71,51.2,56.494,60.284,41.926,61.379" transform="translate(-13.377 -24.73)" fill="none"/>
    </clipPath>
    <clipPath id="clip-path-14">
      <path id="Path_66781" data-name="Path 66781" d="M12.684,126.488h0m12.06-35.86h0m0,0h0m0,0h0m0,0h0m0,0h0m0,0a.481.481,0,0,1,.156-.313.481.481,0,0,1-.156.313m.156-.313h0m-.313.313a73.985,73.985,0,0,0-12.06,35.86,84.1,84.1,0,0,0,3.446,28.036h0a.941.941,0,0,0,.156.626l1.41,4.229a59.186,59.186,0,0,0,4.072,8.457,8.745,8.745,0,0,0,.782,1.254h0a29.215,29.215,0,0,0,10.024,10.024,17.21,17.21,0,0,0,13.627.626l1.88-.939a14.664,14.664,0,0,0,6.421-8.614,18.587,18.587,0,0,0,.156-9.868,16.168,16.168,0,0,0-4.385-7.675,15.056,15.056,0,0,1-9.085,13.314h0s-7.988,3.29-12.842-.481a7.275,7.275,0,0,1-2.662-3.61c0-.313-.313-.626-.313-.939-.939-2.349-2.818-10.18,4.854-25.993a45.34,45.34,0,0,1,2.349-4.854,9.184,9.184,0,0,1,1.1-1.567c1.41-2.349,2.818-4.854,4.7-7.519,2.349-4.072,5.326-8.926,7.988-13.783h0a.481.481,0,0,1,.156-.313h0a1.925,1.925,0,0,0,.313-.782c.626-1.254,1.1-2.193,1.41-2.662,4.385-8.3,7.988-16.445,7.988-20.216a22.563,22.563,0,0,1-19.735,17.386S54.191,97.808,56.07,72.9c.939-11.9-1.88-28.974-11.9-53.251,1.41,3.61,9.555,31.01-19.735,70.637" transform="translate(-12.437 -19.652)" fill="none"/>
    </clipPath>
  </defs>
  <path id="Path_66735" data-name="Path 66735" d="M32.258,34.543A9.918,9.918,0,0,0,28.5,32.038a10.387,10.387,0,0,0-4.385-.782,11.7,11.7,0,0,0-8.614,3.61,13.266,13.266,0,0,0-3.61,9.386,12.4,12.4,0,0,0,3.759,9.242,11.762,11.762,0,0,0,12.842,2.975,13.1,13.1,0,0,0,3.759-2.505v2.662h6.578V31.879h-6.57ZM30.535,49.578a6.739,6.739,0,0,1-5.17,2.036,6.39,6.39,0,0,1-5.013-2.036,7.081,7.081,0,0,1-2.036-5.326,6.5,6.5,0,0,1,2.029-5.177,6.616,6.616,0,0,1,5.013-2.036,6.963,6.963,0,0,1,5.17,2.036,6.739,6.739,0,0,1,2.036,5.17,7.08,7.08,0,0,1-2.036,5.326" transform="translate(50.283 169.695)" fill="#fff"/>
  <g id="Group_63528" data-name="Group 63528" transform="translate(50.904 189.201)" style="mix-blend-mode: multiply;isolation: isolate">
    <g id="Group_63527" data-name="Group 63527" clip-path="url(#clip-path)">
      <g id="Group_63526" data-name="Group 63526" transform="translate(11.265 11.895)" clip-path="url(#clip-path-2)">
        <rect id="Rectangle_11138" data-name="Rectangle 11138" width="36.024" height="36.337" transform="translate(-11.318 19.426) rotate(-59.99)" fill="#fff"/>
      </g>
    </g>
  </g>
  <path id="Path_66737" data-name="Path 66737" d="M37.264,31.88v2.662a9.918,9.918,0,0,0-3.754-2.505,10.387,10.387,0,0,0-4.385-.782,11.7,11.7,0,0,0-8.614,3.61,13.266,13.266,0,0,0-3.61,9.386,12.89,12.89,0,0,0,3.61,9.242,11.853,11.853,0,0,0,8.77,3.759,13.43,13.43,0,0,0,4.229-.782,13.106,13.106,0,0,0,3.759-2.505v2.662h6.578V31.88Zm-1.723,17.7a6.739,6.739,0,0,1-5.17,2.036,6.39,6.39,0,0,1-5.013-2.036,7.081,7.081,0,0,1-2.036-5.326,6.5,6.5,0,0,1,2.036-5.17,6.616,6.616,0,0,1,5.013-2.036,6.963,6.963,0,0,1,5.17,2.036,6.739,6.739,0,0,1,2.036,5.17,7.08,7.08,0,0,1-2.036,5.326" transform="translate(123.747 169.694)" fill="#fff"/>
  <g id="Group_63531" data-name="Group 63531" transform="translate(129.373 189.201)" style="mix-blend-mode: multiply;isolation: isolate">
    <g id="Group_63530" data-name="Group 63530" clip-path="url(#clip-path)">
      <g id="Group_63529" data-name="Group 63529" transform="translate(11.275 11.895)" clip-path="url(#clip-path-4)">
        <rect id="Rectangle_11140" data-name="Rectangle 11140" width="36.024" height="36.337" transform="matrix(0.5, -0.866, 0.866, 0.5, -11.234, 19.418)" fill="#fff"/>
      </g>
    </g>
  </g>
  <path id="Path_66739" data-name="Path 66739" d="M24.2,31.4a13.343,13.343,0,0,0-3.61.626,16.421,16.421,0,0,0-3.446,2.036,14.351,14.351,0,0,0-4.385,9.386A12.686,12.686,0,0,1,16.67,32.8v-.929H10.1V56.617h6.578V46.593a18.808,18.808,0,0,1,.313-5.011,6.373,6.373,0,0,1,2.038-3.456,5.16,5.16,0,0,1,3.446-1.254,3.986,3.986,0,0,1,2.505.782,3.61,3.61,0,0,1,1.41,2.193,23.648,23.648,0,0,1,.481,5.952V56.6h6.421V40.169a8.284,8.284,0,0,0-2.349-6.421,9.1,9.1,0,0,0-6.578-2.505" transform="translate(24.044 169.549)" fill="#fff"/>
  <g id="Group_63534" data-name="Group 63534" transform="translate(22.869 190.924)" style="mix-blend-mode: multiply;isolation: isolate">
    <g id="Group_63533" data-name="Group 63533" clip-path="url(#clip-path-5)">
      <g id="Group_63532" data-name="Group 63532" transform="translate(11.121 9.862)" clip-path="url(#clip-path-6)">
        <rect id="Rectangle_11142" data-name="Rectangle 11142" width="33.518" height="32.736" transform="matrix(0.5, -0.866, 0.866, 0.5, -10.96, 19.283)" fill="#fff"/>
      </g>
    </g>
  </g>
  <path id="Path_66741" data-name="Path 66741" d="M49.907,32.506a9.721,9.721,0,0,0-4.854-1.254,10.7,10.7,0,0,0-5.013,1.1,9.571,9.571,0,0,0-3.759,3.29,15.747,15.747,0,0,0-2.662,7.526,13.3,13.3,0,0,1,2.036-8.457,8.967,8.967,0,0,0-2.505-2.349,8.306,8.306,0,0,0-4.385-1.1,10.007,10.007,0,0,0-4.385.939,10.349,10.349,0,0,0-3.759,2.662V32.034H14.04V56.783h6.578V45.813a15.884,15.884,0,0,1,.626-5.326,5.381,5.381,0,0,1,2.036-2.505,5.158,5.158,0,0,1,2.975-.939,4.332,4.332,0,0,1,2.505.782,4.669,4.669,0,0,1,1.567,2.193,17.786,17.786,0,0,1,.481,4.854v12.06h6.578V45.813a14.332,14.332,0,0,1,.626-5.162,5.381,5.381,0,0,1,2.036-2.505,5.158,5.158,0,0,1,2.975-.939,3.747,3.747,0,0,1,3.29,1.567,9.509,9.509,0,0,1,1.1,5.639V56.941h6.578V42.374a15.764,15.764,0,0,0-.939-6.421,7.141,7.141,0,0,0-2.977-3.129" transform="translate(81.814 169.696)" fill="#fff"/>
  <g id="Group_63537" data-name="Group 63537" transform="translate(84.735 183.562)" style="mix-blend-mode: multiply;isolation: isolate">
    <g id="Group_63536" data-name="Group 63536" clip-path="url(#clip-path-7)">
      <g id="Group_63535" data-name="Group 63535" transform="translate(11.121 17.392)" clip-path="url(#clip-path-8)">
        <rect id="Rectangle_11144" data-name="Rectangle 11144" width="41.975" height="47.301" transform="translate(-11.165 19.026) rotate(-60)" fill="#fff"/>
      </g>
    </g>
  </g>
  <path id="Path_66772" data-name="Path 66772" d="M26.468,52.461c-3.61-3.916-.481-6.421,2.349-10.65,6.421-8.144-7.831-18.481-7.831-18.481,3.61,3.916.481,6.421-2.349,10.65-6.421,8.144,7.831,18.481,7.831,18.481" transform="translate(124.835 53.572)" fill="#fff"/>
  <path id="Path_66773" data-name="Path 66773" d="M11.17,42.007s.313-9.555,9.386-10.18c4.541-.626,7.675-.626,8.614-3.61,0,0-.313,9.555-9.386,10.18-4.541.626-7.675.626-8.614,3.61" transform="translate(39.734 125.266)" fill="#fff"/>
  <path id="Path_66774" data-name="Path 66774" d="M10.61,37.858a18.05,18.05,0,0,1,16.606-7.206c5.8.313,9.711.782,12.373-1.723a18.05,18.05,0,0,1-16.606,7.206c-5.8-.313-9.711-.782-12.373,1.567" transform="translate(31.522 135.68)" fill="#fff"/>
  <path id="Path_66775" data-name="Path 66775" d="M87.2,24.73C86.719,51.2,56.5,60.284,41.934,61.379a48.582,48.582,0,0,0-15.976,3.759A21.381,21.381,0,0,0,13.586,80.645c-1.41,9.868,5.17,12.06,5.17,12.06h0c.626-18.325,22.864-14.1,22.864-14.1,23.964,4.541,33.213-3.29,33.213-3.29-10.18,3.446-21.145-1.41-21.145-1.41C98.634,85.187,87.2,24.73,87.2,24.73" transform="translate(72.247 74.099)" fill="#fff" fill-rule="evenodd"/>
  <path id="Path_66776" data-name="Path 66776" d="M56.263,72.911c.939-11.9-1.88-28.974-11.9-53.251,1.41,3.61,9.555,31.01-19.735,70.637h0a73.985,73.985,0,0,0-12.06,35.86h0a80.225,80.225,0,0,0,3.446,28.036h0a.941.941,0,0,0,.156.626l1.41,4.229a59.182,59.182,0,0,0,4.072,8.457,8.742,8.742,0,0,0,.782,1.254h0a29.215,29.215,0,0,0,10.024,10.024,17.21,17.21,0,0,0,13.627.626l1.88-.939a14.664,14.664,0,0,0,6.421-8.606A18.587,18.587,0,0,0,54.539,160a16.168,16.168,0,0,0-4.385-7.675,15.056,15.056,0,0,1-9.085,13.314h0s-7.988,3.29-12.842-.481a7.276,7.276,0,0,1-2.662-3.61c0-.313-.313-.626-.313-.939-.939-2.349-2.818-10.18,4.854-25.992a45.345,45.345,0,0,1,2.349-4.854,9.183,9.183,0,0,1,1.1-1.567q2.115-3.523,4.7-7.519c2.349-4.072,5.326-8.926,7.988-13.783h0a.481.481,0,0,1,.156-.313h0a1.925,1.925,0,0,0,.313-.782c.626-1.1,1.1-2.036,1.41-2.662,4.385-8.3,7.988-16.445,7.988-20.216A22.563,22.563,0,0,1,36.371,100.3s17.855-2.818,19.735-27.723" transform="translate(58.388 -0.238)" fill="#fff"/>
  <g id="Group_63544" data-name="Group 63544" opacity="0.8" style="mix-blend-mode: multiply;isolation: isolate">
    <g id="Group_63543" data-name="Group 63543" clip-path="url(#clip-path-9)">
      <g id="Group_63538" data-name="Group 63538" transform="translate(141.809 76.902)" clip-path="url(#clip-path-10)">
        <rect id="Rectangle_11146" data-name="Rectangle 11146" width="36.806" height="34.616" transform="translate(-17.389 21.759) rotate(-60)" fill="#fff"/>
      </g>
      <g id="Group_63539" data-name="Group 63539" transform="translate(50.916 146.28)" clip-path="url(#clip-path-11)">
        <rect id="Rectangle_11147" data-name="Rectangle 11147" width="20.989" height="22.553" transform="matrix(0.5, -0.866, 0.866, 0.5, -6.058, 10.469)" fill="#fff"/>
      </g>
      <g id="Group_63540" data-name="Group 63540" transform="translate(42.284 157.719)" clip-path="url(#clip-path-12)">
        <rect id="Rectangle_11148" data-name="Rectangle 11148" width="22.24" height="29.603" transform="translate(-3.957 6.674) rotate(-59.99)" fill="#fff"/>
      </g>
      <g id="Group_63541" data-name="Group 63541" transform="translate(85.476 98.829)" clip-path="url(#clip-path-13)">
        <rect id="Rectangle_11149" data-name="Rectangle 11149" width="102.119" height="108.856" transform="translate(-30.54 50.842) rotate(-60)" fill="#fff"/>
      </g>
      <g id="Group_63542" data-name="Group 63542" transform="translate(70.862 19.403)" clip-path="url(#clip-path-14)">
        <rect id="Rectangle_11150" data-name="Rectangle 11150" width="163.83" height="120.446" transform="translate(-70.821 122.538) rotate(-60)" fill="#fff"/>
      </g>
    </g>
  </g>
</svg>
