<svg xmlns="http://www.w3.org/2000/svg" width="237.594" height="482.192" viewBox="0 0 237.594 482.192">
  <g id="undp-white" transform="translate(-9232 -431)">
    <path id="Exclusion_2" data-name="Exclusion 2" d="M115.133,237.446H0V122.316H115.133V237.445ZM49.824,140.419A144.456,144.456,0,0,0,28.6,142.032v75.617a136.529,136.529,0,0,0,18.141.891,64.944,64.944,0,0,0,19.912-2.819,35.578,35.578,0,0,0,14.2-8.216,35.806,35.806,0,0,0,8.16-12.89,48.422,48.422,0,0,0,2.875-17,42.855,42.855,0,0,0-2.862-16.17A31.29,31.29,0,0,0,80.953,149.9a29.293,29.293,0,0,0-5.7-4.126,36.491,36.491,0,0,0-7.042-2.965A63.182,63.182,0,0,0,49.824,140.419Zm187.653,96.91H122.351V122.2H237.477V237.328Zm-59.684-96.8a103.093,103.093,0,0,0-19.043,1.6v75.855h9.926v-30.8a34.743,34.743,0,0,0,7.992.677,40.182,40.182,0,0,0,13.411-2.137,25.164,25.164,0,0,0,10.069-6.3,19.658,19.658,0,0,0,4.523-7.12A26.864,26.864,0,0,0,206.2,163c0-6.556-2.425-12.263-6.828-16.069a23.033,23.033,0,0,0-8.821-4.74A44.412,44.412,0,0,0,177.793,140.532ZM48.947,210.591H48.68a62.048,62.048,0,0,1-10.031-.473V149.328a56.379,56.379,0,0,1,11.625-1.012,42.257,42.257,0,0,1,13.851,2.091,25.362,25.362,0,0,1,9.787,6,24.27,24.27,0,0,1,5.678,9.285,36.81,36.81,0,0,1,1.825,12.265A42.152,42.152,0,0,1,79.3,191.774a27.14,27.14,0,0,1-6.23,10.249A26.781,26.781,0,0,1,62.9,208.4,41.375,41.375,0,0,1,48.947,210.591ZM176.9,180.344a34.325,34.325,0,0,1-8.222-.793V149.672a49.112,49.112,0,0,1,9.347-.8,27.889,27.889,0,0,1,7.455.922,16.153,16.153,0,0,1,5.725,2.8c3.3,2.606,4.968,6.455,4.968,11.441a17.484,17.484,0,0,1-1.313,6.921,13.645,13.645,0,0,1-3.8,5.119A16.984,16.984,0,0,1,185,179.254,28.066,28.066,0,0,1,176.9,180.344Zm60.579-65.209H122.351V0H237.477V115.133Zm-77.39-83.781h0c3.743,8.231,38.315,64.107,38.664,64.671h10.04V19.142h-9.336c0,.522.223,53.544,1.125,63.773l-.353.1c-3.5-7.89-37.848-63.316-38.194-63.875H151.075V96.025h9.355c0-.531-.122-54.948-.7-64.562l.351-.109ZM115.25,115.134H.125V0H115.25V115.133ZM29.32,18.863h0V64.148c0,11.319,2.657,19.869,7.9,25.411a22.44,22.44,0,0,0,8.752,5.677A32.108,32.108,0,0,0,56.929,97a33.962,33.962,0,0,0,11.565-1.869A24.142,24.142,0,0,0,77.71,89.25c5.508-5.678,8.3-14.24,8.3-25.448V18.863H75.977V64.484c0,8.16-1.722,14.4-5.119,18.553a15.244,15.244,0,0,1-5.9,4.431,19.625,19.625,0,0,1-7.689,1.437A17.549,17.549,0,0,1,50.139,87.5a15,15,0,0,1-5.67-4.384,21.251,21.251,0,0,1-3.745-7.593,40.824,40.824,0,0,1-1.352-11.035V18.863Z" transform="translate(9232 675.746)" fill="#fff"/>
    <path id="Exclusion_1" data-name="Exclusion 1" d="M237.469,237.524H0V0H237.469V237.523ZM112.3,179.46a10.452,10.452,0,0,1,3.134.5A70.289,70.289,0,0,0,95.313,194.3l3.812,3.133A60.24,60.24,0,0,1,115.391,182.9c.193-.1.392-.212.585-.318a10.417,10.417,0,0,1,3.485-1.409,50.761,50.761,0,0,1,10.413,6.978,105.417,105.417,0,0,1,9.346,9.064,30.633,30.633,0,0,0,3.632-3.289,73.45,73.45,0,0,0-20.03-13.887,11.573,11.573,0,0,1,3.27-.389c.216,0,.446,0,.683.01.174-.012.35-.018.523-.018,2.794,0,4.987,1.57,7.107,3.088.625.448,1.271.91,1.921,1.325a38.251,38.251,0,0,0,8.946,5.123,27.3,27.3,0,0,0,10.092,2.052,22.106,22.106,0,0,0,7.775-1.394,25.686,25.686,0,0,0,11.39-7.978,22.49,22.49,0,0,1-13.013,3.823,24.9,24.9,0,0,1-8.546-1.475l-7.367-2.941a36.521,36.521,0,0,0-16.815-4.123,31.9,31.9,0,0,0-8.021.993,2.152,2.152,0,0,1-1.49.6,5.494,5.494,0,0,1-1.8-.439,5.867,5.867,0,0,0-1.819-.452,27.774,27.774,0,0,0-5.882-.629c-7.658,0-14.617,3.088-21.346,6.074-.93.412-1.887.837-2.823,1.243a25.655,25.655,0,0,1-9.313,1.709,22.6,22.6,0,0,1-12.715-3.619,25.266,25.266,0,0,0,11.164,7.663,21.267,21.267,0,0,0,7.886,1.455A27.648,27.648,0,0,0,98.051,186.8a43.477,43.477,0,0,0,4.133-2.775c3.085-2.245,6.274-4.566,10.118-4.566h0ZM48.766,167.5h0a26.033,26.033,0,0,0,6.868,8.245,28.486,28.486,0,0,0,9.235,5.039,25.888,25.888,0,0,0,8.476,1.331c5.686,0,11.342-1.5,16.811-2.954,1.367-.363,2.657-.706,3.959-1.029a12.02,12.02,0,0,1,1.93-.279,9.408,9.408,0,0,0,2.243-.381c-4.2-.867-9.6-2.362-14.039-6.238-1.267-1.187-2.52-2.4-3.732-3.564-4.319-4.164-8.4-8.1-13.143-11.241a44.032,44.032,0,0,1,3.879,6.8,41.855,41.855,0,0,0,4.194,7.227,14.664,14.664,0,0,0,6.805,5.022,8.843,8.843,0,0,0,2.233.694,7.385,7.385,0,0,1,2.423.822,5.365,5.365,0,0,1-.81.06,11.032,11.032,0,0,1-2.463-.369c-.472-.108-.96-.22-1.45-.291a71.045,71.045,0,0,0-10.89-1.229,63.745,63.745,0,0,1-12.208-1.536,22.709,22.709,0,0,1-5.519-2.2A18.431,18.431,0,0,1,48.766,167.5ZM170.45,155.561h0c-4.894,3.336-8.967,7.382-13.279,11.666l0,0c-1.266,1.257-2.574,2.557-3.9,3.833a21.767,21.767,0,0,1-6.393,3.949,44.962,44.962,0,0,1-7.124,2.141v.051l1.965.257c2.664.432,5.419,1.1,8.084,1.746,4.783,1.16,9.729,2.36,14.657,2.36a24.765,24.765,0,0,0,8.873-1.54,30.619,30.619,0,0,0,9.17-5.287,23.453,23.453,0,0,0,6.558-8.294,18.007,18.007,0,0,1-4.639,4.029,21.905,21.905,0,0,1-5.394,2.3,61.616,61.616,0,0,1-12.034,1.734c-2.536.2-5.157.4-7.648.793a30.55,30.55,0,0,0-3.384.595,22.028,22.028,0,0,1-4.628.654l-.249,0a18.153,18.153,0,0,1,2.694-.959,13.784,13.784,0,0,0,3.669-1.49,14.807,14.807,0,0,0,5.594-4.913,39.826,39.826,0,0,0,3.387-6.371,35.571,35.571,0,0,1,4.027-7.259Zm-135.2-10.252h0a27.594,27.594,0,0,0,5.609,12.2,38.665,38.665,0,0,0,10.252,9.165c4.377,3.061,9.749,3.927,14.943,4.763a61.1,61.1,0,0,1,9.216,1.974,23.142,23.142,0,0,1-6.11-7.7,63.917,63.917,0,0,1-3.483-8.921c-.647-1.94-1.316-3.943-2.091-5.851A58.629,58.629,0,0,0,54.75,137.59c1.736,3.466,2.338,7.471,2.919,11.345.714,4.753,1.451,9.667,4.292,13.623a29.87,29.87,0,0,0,5.742,6.248l.054.049-.095.1a22.31,22.31,0,0,1-5.156-3.52A52.073,52.073,0,0,0,51.8,159.22a58.24,58.24,0,0,1-9.5-5.3A21.18,21.18,0,0,1,35.251,145.309ZM118.8,45.7a70.335,70.335,0,0,0-15.02,1.862,65.5,65.5,0,0,0-13.769,4.965A60.636,60.636,0,0,0,69.447,69.122,67.035,67.035,0,0,0,62.1,80.244a57.434,57.434,0,0,0-4.691,11.9,66.3,66.3,0,0,0,1.5,39.236,63.35,63.35,0,0,0,24.1,30.893,55.213,55.213,0,0,0,16.749,7.965,68.221,68.221,0,0,0,19.165,2.716,59.228,59.228,0,0,0,25.922-5.607,54.469,54.469,0,0,0,11.882-6.967,66.458,66.458,0,0,0,10.294-9.806,67.492,67.492,0,0,0,8-11.675,55.971,55.971,0,0,0,4.993-12.572,62.857,62.857,0,0,0-4.184-44.5,61.61,61.61,0,0,0-9.936-14.96,64.22,64.22,0,0,0-29.578-18.617A62.352,62.352,0,0,0,118.8,45.7Zm64.022,90.882a45.663,45.663,0,0,0-3.926,5.171c-.57.831-1.158,1.688-1.768,2.517-2.427,3.676-3.809,7.889-5.145,11.963a66.77,66.77,0,0,1-3.4,8.9,24.1,24.1,0,0,1-5.9,7.777,68.27,68.27,0,0,1,9.468-2.226c2.344-.435,4.767-.884,7.08-1.5a37.449,37.449,0,0,0,14.991-9.612,33.6,33.6,0,0,0,5.408-7.322,23.467,23.467,0,0,0,2.719-8.188,22.05,22.05,0,0,1-6.938,8.723,62.6,62.6,0,0,1-9.92,5.726c-4.513,2.245-9.18,4.567-13.089,8.458-.163.109-.33.233-.492.353a3.582,3.582,0,0,1-1.793.885,31.782,31.782,0,0,0,6.466-7.758c2.189-3.722,2.808-8.168,3.407-12.467C180.535,144.08,181.1,140.055,182.82,136.581Zm-153.2-15.319h0c-.457,5.658.074,10.279,1.577,13.736,1.53,4.3,4.361,8.229,8.655,12.007a97.756,97.756,0,0,0,12.395,8.783c1.9,1.206,3.7,2.345,5.419,3.515-.358-.907-.8-1.8-1.226-2.668a24.208,24.208,0,0,1-1.688-4.012,92.473,92.473,0,0,1-1.808-13.33c-.585-6.728-1.189-13.685-3.945-19.647.544,3.616-.194,7.015-.907,10.3a48.989,48.989,0,0,0-.995,5.65,22.4,22.4,0,0,0,2.055,12.371,6.87,6.87,0,0,0,.821,1.512,5.494,5.494,0,0,1,.855,1.68,19.621,19.621,0,0,1-3.08-3.916c-.282-.429-.573-.872-.869-1.3a48.944,48.944,0,0,0-7.5-8.8,57.436,57.436,0,0,1-6.446-7.229,17.056,17.056,0,0,1-3.31-8.653Zm158.962-2.75-1.43,3.8c-1.627,4.821-2.014,10.244-2.389,15.489a96.741,96.741,0,0,1-1.153,10.629,28.644,28.644,0,0,1-3.442,9.679v.359c3.047-2.359,6.277-4.425,9.4-6.423l.005,0h0c1.024-.655,2.084-1.333,3.122-2.011A38.166,38.166,0,0,0,204.853,137a28.1,28.1,0,0,0,2.936-8.122,26.33,26.33,0,0,0,.16-8.907c-.734,7.42-6.376,12.862-11.831,18.125a64.263,64.263,0,0,0-5.823,7.609c-1,1.458-2.04,2.966-3.146,4.414h-.374a24.155,24.155,0,0,0,2.693-5.417,22.373,22.373,0,0,0,1.181-6.067,41.27,41.27,0,0,0-1.106-9.323c-.683-3.443-1.389-7-.964-10.8ZM31.906,95.061h0a27.441,27.441,0,0,0-1.717,5.74l0,.012c-.083.375-.169.764-.257,1.143-.965,5.156-.406,11.215,1.662,18.011,1.188,4.1,4.09,7.565,6.9,10.916a47.15,47.15,0,0,1,5.409,7.369l.477.38c-.451-3.041-.831-6.979.219-10.465.429-1.53.883-3.073,1.323-4.564v0c1.081-3.665,2.2-7.454,3-11.322.117-.816.252-1.665.383-2.486.572-3.6,1.163-7.317.758-10.643a24.171,24.171,0,0,1-2.375,6.289,49.725,49.725,0,0,0-6.055,11.6,19.577,19.577,0,0,0-.078,13.087l-.022.024c-.065.072-.138.154-.225.154a.152.152,0,0,1-.069-.018,28.949,28.949,0,0,1-1.58-5.844c-.249-1.261-.505-2.563-.861-3.8a50.29,50.29,0,0,0-3.292-8.477,52.344,52.344,0,0,1-3.192-8.1,19.461,19.461,0,0,1-.407-8.993ZM187.148,98.1h0l-.069,3.257c.728,8.721,3.081,16.756,5.516,24.141,1.469,3.558,1.049,8.2.712,11.921l-.016.177c1.773-2.769,3.891-5.452,5.939-8.046,1.509-1.911,3.068-3.885,4.478-5.88a36.721,36.721,0,0,0,4.186-14.725,30.9,30.9,0,0,0-2.511-15.174c1.272,6.934-1.389,12.872-3.962,18.615l-.01.022c-.3.661-.6,1.345-.9,2.015a50.809,50.809,0,0,0-2.781,9.648l0,.008c-.333,1.525-.677,3.1-1.08,4.625l-.387.434-.152-.151c.1-.5.229-1.01.349-1.5a15.04,15.04,0,0,0,.624-4.952,17.061,17.061,0,0,0-1.433-7.684,48.442,48.442,0,0,0-3.722-6.734C189.979,104.99,187.962,101.757,187.148,98.1ZM41.2,72.013a.421.421,0,0,0-.249.116c-.025.019-.051.039-.076.055a37.4,37.4,0,0,0-5.36,8.859,24.761,24.761,0,0,0-1.921,10.286c-.347,5.109,1.35,9.451,2.992,13.65,1.318,3.371,2.68,6.856,2.975,10.715.866-5.8,4.315-10.625,7.651-15.289a66.488,66.488,0,0,0,5.255-8.156,35.286,35.286,0,0,0,2.913-10.023,13.34,13.34,0,0,1-2.66,3.941c-.41.372-.844.764-1.227,1.109C46.56,91.72,41.457,96.317,40.4,102.654c-.06.329-.108.668-.155.995a13.4,13.4,0,0,1-.376,1.946.253.253,0,0,1-.092.02c-.094,0-.13-.079-.163-.149a.249.249,0,0,0-.057-.09l.633-8.511a53.779,53.779,0,0,0-.668-8.25,50.955,50.955,0,0,1-.654-8.628,15.268,15.268,0,0,1,2.365-7.97A.258.258,0,0,0,41.2,72.013Zm140.166,9.214h0a41.806,41.806,0,0,0,2.431,8.2c1.489,3.6,3.968,6.856,6.365,10.007,2.96,3.892,6.021,7.916,7.252,12.619a10.158,10.158,0,0,1,.248,1.08,6.8,6.8,0,0,0,.354,1.357,50.623,50.623,0,0,1,3.183-11.711,29.574,29.574,0,0,0-2.754-28.387c-.287-.368-.552-.776-.807-1.171a7.056,7.056,0,0,0-2.224-2.47,13.053,13.053,0,0,1,2.141,5.118,31.889,31.889,0,0,1,.523,5.8,82.027,82.027,0,0,0-.29,22.562.248.248,0,0,1-.257.219,19.132,19.132,0,0,1-.487-2.358,11.922,11.922,0,0,0-1.025-3.716c-1.31-3.96-4.587-6.816-7.756-9.579C185.655,86.531,182.96,84.181,181.367,81.228ZM54.621,60.508a15.66,15.66,0,0,0-8.348,5.59,16.54,16.54,0,0,0-4.21,9.925,54.836,54.836,0,0,0,.254,11.349,23.086,23.086,0,0,1-.084,3.362,21.142,21.142,0,0,0-.08,3.181c1.309-2.681,3.535-5.333,7-8.348a44.852,44.852,0,0,0,9.434-8.536,22.543,22.543,0,0,0,3.193-5.31,16.1,16.1,0,0,0,1.263-6c-1.5,4.167-5.105,6.713-8.594,9.176a46.208,46.208,0,0,0-4.648,3.583,21.945,21.945,0,0,0-5.141,7.594l-.168-.133a30.1,30.1,0,0,1,1.23-3.859c.374-1.014.761-2.061,1.047-3.125a54.011,54.011,0,0,0,1.251-5.3A38.583,38.583,0,0,1,49.977,66.4,12.934,12.934,0,0,1,54.621,60.508Zm118.779,4.3h0c.91,5.291,2.5,8.952,5.149,11.87a54.872,54.872,0,0,0,6.675,5.79c3.766,2.927,7.66,5.953,9.906,10.374l.066-.056a38.3,38.3,0,0,1-.311-9.78,36.646,36.646,0,0,0-.384-10.063,19.288,19.288,0,0,0-4.55-8.523,15.748,15.748,0,0,0-8.215-5.055,14.462,14.462,0,0,1,5.344,6.965c.628,2.089,1.156,4.254,1.667,6.347a63.783,63.783,0,0,0,3.793,12.032l-.164.172a18.726,18.726,0,0,1-.9-1.7,10.148,10.148,0,0,0-2.2-3.313,29.507,29.507,0,0,0-7.258-6.2C178.475,71.258,175.132,68.983,173.4,64.806ZM71.707,51.9q-.66.257-1.33.514l-.008,0a55.876,55.876,0,0,0-8.847,4.011,19.288,19.288,0,0,0-7.053,6.956,20.4,20.4,0,0,0-2.929,7.1A29.024,29.024,0,0,1,49.805,75.6c1.263-1.179,2.6-2.276,3.891-3.337a45.214,45.214,0,0,0,6.687-6.311c.6-.837,1.2-1.7,1.789-2.537l.009-.014C64.978,59.4,67.87,55.266,71.707,51.9Zm92.786-.9h0l5.258,5.323A66.414,66.414,0,0,0,186.9,74.552l-.75-1.767a38.462,38.462,0,0,0-2.827-8.086,22.845,22.845,0,0,0-5.282-7.016c-2.962-2.66-6.559-4.006-10.038-5.307C166.846,51.943,165.648,51.495,164.493,51.005ZM120.313,170v0a70.944,70.944,0,0,0,0-9.937,4.611,4.611,0,0,0,1.5.225,14.044,14.044,0,0,0,1.695-.14,14.375,14.375,0,0,1,1.749-.144l4.837-.851a6.115,6.115,0,0,1,2.415,1.391,4.667,4.667,0,0,0,2.651,1.352,2.554,2.554,0,0,0,1.707-.763,4,4,0,0,1,1.394-.964,2.929,2.929,0,0,0,1.718-1.567,4.236,4.236,0,0,0,1.987-1.86A6.986,6.986,0,0,1,143,155.446c.652-1.849,2.158-2.7,3.752-3.6a12.229,12.229,0,0,0,2.706-1.873c.437-.394.923-.773,1.392-1.139a10.184,10.184,0,0,0,2.956-3.037l.153.751,6.668,6.363a65.733,65.733,0,0,1-18.372,11.952,60.977,60.977,0,0,1-21.343,4.754l-.6.382Zm-3.2-.062h0a16.189,16.189,0,0,0-3.75-.514,24.543,24.543,0,0,1-2.545-.24,61.071,61.071,0,0,1-17.933-5.347A70.3,70.3,0,0,1,77.093,153.38l6.516-6.551.1-.382A48.712,48.712,0,0,0,98.6,156.363a53.945,53.945,0,0,0,17.382,4.014l.984-.258-.328.48v8.583l.478.752Zm-.085-12.537,0,0-.885-.6a46.911,46.911,0,0,1-16.44-3.921,56.136,56.136,0,0,1-14.193-9.2,1.529,1.529,0,0,1,.177-.011,2.341,2.341,0,0,1,1.422.671,2.348,2.348,0,0,0,1.427.671,1.673,1.673,0,0,0,.491-.078,6.829,6.829,0,0,0,1.995-.64,5.843,5.843,0,0,1,2.334-.655,3.221,3.221,0,0,1,.512.041c.094,0,.19,0,.288,0a2.431,2.431,0,0,0,2.235-.866,1.492,1.492,0,0,0-.452-1.392,2.3,2.3,0,0,1-.461-.8,40.276,40.276,0,0,0,9.565,5.368,34.9,34.9,0,0,0,10.849,2.3l.75-.324v8.358l.39,1.072Zm3.281-.214v0a31.946,31.946,0,0,0,.071-5.205c-.035-.858-.071-1.746-.071-2.613l-.464-.706a1.308,1.308,0,0,1,.719.465,3.4,3.4,0,0,0,.254.242,2.514,2.514,0,0,0,.939.141c.2,0,.415-.011.621-.021h.009c.208-.011.422-.022.627-.022a1.524,1.524,0,0,1,1.547.723c-.077.166-.167.331-.255.491a2.4,2.4,0,0,0-.44,1.783c.521,1.344,1.243,2.731,2.648,2.824a2.187,2.187,0,0,0,1.162.733c.079.028.158.056.237.087-.928.15-1.9.23-2.831.308a20.345,20.345,0,0,0-4.77.774Zm-45.663-6.17h0c-.8-1.083-1.643-2.175-2.46-3.23a64.268,64.268,0,0,1-5.945-8.6A64.5,64.5,0,0,1,58.486,111.4l8.8.062.852-.319a5.007,5.007,0,0,0-.077,1.061c0,.227,0,.461-.017.712l-.059-.09a.154.154,0,0,0-.073.107c0,.056.05.1.106.156s.133.122.118.2a51.018,51.018,0,0,0,1.535,9.621l.441.691a4.8,4.8,0,0,1-.928-1.21,7.3,7.3,0,0,0-.5-.751,4.222,4.222,0,0,0-2.066.762.628.628,0,0,1,.038.526c-.091.159-.313.2-.548.233a1.327,1.327,0,0,0-.473.135,1.563,1.563,0,0,0-.625-.608c-.71.034-1.371.118-1.656.766.069.3-.123.494-.326.7a1.531,1.531,0,0,0-.3.367c-.026.189-.056.382-.088.586-.21,1.339-.447,2.856.455,3.887a3.786,3.786,0,0,0,1.3,2.656.509.509,0,0,0,.106.012.643.643,0,0,0,.392-.173,1.032,1.032,0,0,1,.2-.131,4.207,4.207,0,0,1,.772.846c.409.537.832,1.091,1.495,1.091a1.372,1.372,0,0,0,.3-.036.593.593,0,0,0,.3-.539,1.1,1.1,0,0,1,.072-.309,4.315,4.315,0,0,1,.542.725c.378.582.769,1.184,1.527,1.184.047,0,.1,0,.146-.007a2.339,2.339,0,0,1,.269.348c.181.267.369.542.711.558a1.213,1.213,0,0,1,.3-.042c.517,0,.667.466.825.959a1.779,1.779,0,0,0,.721,1.145,3.364,3.364,0,0,1,.623.547,1.607,1.607,0,0,0,1.1.667,1.239,1.239,0,0,0,.543-.14l.4-.473c.18.132.19.36.2.6a.985.985,0,0,0,.171.633,4.312,4.312,0,0,0,2.664,2.016c.129.151.259.3.39.46l.013.015a14.677,14.677,0,0,0,2.538,2.567l-.768.319-6.3,6.521Zm88.323-.284h0a63.16,63.16,0,0,0-7.054-6.937,13.353,13.353,0,0,0,2.861-2.99c.282-.362.573-.735.862-1.08a53.4,53.4,0,0,0,7.094-13.21,50.7,50.7,0,0,0,2.945-14.9l-.309-.855.527.383,9.032-.058.473-.229-.387.758a60.409,60.409,0,0,1-4.491,20.73,64.924,64.924,0,0,1-11.307,17.915l-.245.476Zm-17.907-1.519v0c-.094-.289.115-.51.317-.723.252-.267.512-.542.219-.958-1.094-1.013-.265-1.927.538-2.811a4.745,4.745,0,0,0,.989-1.368c-.127-.668-.71-1.91-3.188-2.723-.482-.269-.465-.8-.451-1.272,0-.124.007-.241,0-.349.09-.09.18-.178.269-.265a4.361,4.361,0,0,0,1.161-1.527l.212.6,3.891,4.023c0,.988.178,1.726,1.047,2.121a.66.66,0,0,0,.27.053,1.788,1.788,0,0,0,.436-.074l.008,0a1.715,1.715,0,0,1,.414-.072.586.586,0,0,1,.174.024h-.23a32.16,32.16,0,0,1-4.412,3.782l-.005,0c-.4.3-.816.618-1.216.929l-.44.611Zm-31.7-4.943c-5.261-1.3-11.294-3.171-16.151-7.208a4.551,4.551,0,0,1-.853-.714,2.489,2.489,0,0,0-1.484-.907,48.466,48.466,0,0,0,6.289-6.453,7.968,7.968,0,0,0,2.839,2.589c.377.248.766.5,1.118.766.57.264,1.132.573,1.727.9A10.694,10.694,0,0,0,111.814,135a5,5,0,0,0,1-.1,6.135,6.135,0,0,0-2.375,1.547,4.873,4.873,0,0,0-.241.812c-.164.7-.334,1.418-1.142,1.7.051,1.575,1.29,2.928,2.382,4.122.154.168.3.327.442.487l1.491.7Zm40.208-2.6h0a2.488,2.488,0,0,0-.232-1.677,3.175,3.175,0,0,1-.3-1.581,3.6,3.6,0,0,1-.642-.965c-.337-.647-.655-1.258-1.531-1.258h-.037a.682.682,0,0,0-.077,0c-.4,0-.576.389-.576.775a1.127,1.127,0,0,0-.012.239.512.512,0,0,1-.093.39l-2.871-2.535a8.722,8.722,0,0,0,2.629-2.8c.267-.376.517-.729.773-1.058a41.548,41.548,0,0,0,5.551-12.09,1.226,1.226,0,0,0,.788.3,1.2,1.2,0,0,0,.66-.2,1.131,1.131,0,0,0,.212-1.453l-1.028-1.133c.042-.677.137-1.361.228-2.023a15.322,15.322,0,0,0,.207-3.668l.7.214c.3,0,.605-.006.943-.006.64,0,1.293.008,1.925.015h.121c.656.008,1.335.017,2,.017,1.547,0,2.718-.047,3.8-.151l-.434.5C165.515,123.434,161.242,133.58,153.576,141.672Zm-62.75-6.619c0-.013-.008-.03-.013-.049-.036-.139-.11-.428-.331-.428a.374.374,0,0,0-.161.043c-.125-.585.266-.8.68-1.028.431-.237.876-.483.686-1.184l-.319-1.969c-1.33-1.185-1.374-2.978-1.417-4.712a16.393,16.393,0,0,0-.1-1.745,2.359,2.359,0,0,1-.72-2.036,2.784,2.784,0,0,0-.429-1.761,2.841,2.841,0,0,0-1.09-1.958c-.7-.726-1.366-1.411-.875-2.539-.3-.427-.794-1.142-.367-1.8a1.31,1.31,0,0,1,1.029-.34c.462-.021.939-.043,1.152-.586l.246-1.672a.863.863,0,0,1,.435-.1,2.85,2.85,0,0,1,.464.052H89.7a2.675,2.675,0,0,0,.439.051.613.613,0,0,0,.628-.446,2.566,2.566,0,0,0-.406-2.008c-.291-.6-.565-1.162-.369-1.62a1.471,1.471,0,0,1,.994-.7l.113-.013a7.371,7.371,0,0,1,.842-.065c.776,0,1.222.267,1.4.841.024.139.049.28.074.422a6.252,6.252,0,0,1,0,3.313.567.567,0,0,1,.349.281,1.021,1.021,0,0,1-.121.732,1.639,1.639,0,0,0-.158.565,4.092,4.092,0,0,0-.4.222,1.831,1.831,0,0,1-.916.355.927.927,0,0,1-.273-.042c-.228-.377-.65-1.078-1.232-1.078-.023,0-.046,0-.069,0a1.31,1.31,0,0,0-.029,1.236,2.307,2.307,0,0,1,.146.889,2.238,2.238,0,0,0-.109.568,1.306,1.306,0,0,1-.215.722,1.149,1.149,0,0,0-.657-.216c-.035,0-.072,0-.109,0-.474.248-.272.71-.124,1.048.023.052.044.1.062.147a5.512,5.512,0,0,1,.477.348,2.029,2.029,0,0,0,1.168.57l.316-.379a4.644,4.644,0,0,1,.217-1.545,5.9,5.9,0,0,0,.229-1.267l.914.469a31.567,31.567,0,0,0,4.875,10.859l1.2,1.207A83.32,83.32,0,0,0,90.828,135v.056Zm34.929-.724a2.691,2.691,0,0,1-.952-.254l-.044-.017a3.017,3.017,0,0,0-1.084-.271,1.517,1.517,0,0,0-.479.076c-.277-.147-.306-.415-.333-.675-.034-.315-.065-.612-.51-.7a2.163,2.163,0,0,1-.884.163,7.036,7.036,0,0,1-.776-.058h-.011a6.679,6.679,0,0,0-.743-.057,1.536,1.536,0,0,0-1.447.779,4.722,4.722,0,0,1-.579.038,3.068,3.068,0,0,1-1.273-.261c-.185-.015-.2-.16-.225-.313a.682.682,0,0,0-.052-.213h.026a1.8,1.8,0,0,0,1.059-.47l0,0a1.8,1.8,0,0,1,1.061-.471,1.215,1.215,0,0,1,.2.017,2.857,2.857,0,0,0,.53-.716,1.766,1.766,0,0,1,.915-.921.456.456,0,0,1,0-.383c.077-.113.248-.128.43-.144.225-.019.458-.04.551-.243a1.266,1.266,0,0,1,.768-.39.611.611,0,0,1,.3.081,2.059,2.059,0,0,0,1.225.717,2.124,2.124,0,0,1,1.354.854.322.322,0,0,0,.125.029.2.2,0,0,0,.162-.078.5.5,0,0,0,.079-.381v-.4c.031,0,.062,0,.093,0a1.719,1.719,0,0,1,.928.368l.03.02a1.576,1.576,0,0,0,.83.348,1.1,1.1,0,0,0,.727-.337.777.777,0,0,0,0-.931c-.149-.059-.3-.13-.328-.281a.5.5,0,0,1,.226-.055,1.165,1.165,0,0,1,.671.36l.026.022a1.28,1.28,0,0,0,.762.382.77.77,0,0,0,.385-.111c.163-.137.315-.282.462-.423a2.467,2.467,0,0,1,1.726-.93l.242.277c.15,1.826-1.3,2.949-2.884,3.892a5.078,5.078,0,0,1-.8.225c-.836.19-1.782.405-1.741,1.517A1.089,1.089,0,0,1,125.755,134.329Zm12.41-.172a2.734,2.734,0,0,1-1.547-.677,3.581,3.581,0,0,0-1.109-.61,10.267,10.267,0,0,0-1.694-.485,8.3,8.3,0,0,1-2.035-.646.555.555,0,0,1,.375-.609,29.836,29.836,0,0,1,7.91,1.816,2.265,2.265,0,0,0,1.746-.543,1.693,1.693,0,0,1,.483-1.295,1.772,1.772,0,0,0,.5-1.272,3.2,3.2,0,0,0,.353-1.32,2.447,2.447,0,0,1,.561-1.558,4.348,4.348,0,0,0-.766-3.189.984.984,0,0,0-.557-.171,2.326,2.326,0,0,0-.792.2,3.062,3.062,0,0,1-.624.185,2.027,2.027,0,0,0-.572.969c-.186.5-.361.977-.91.978a1.312,1.312,0,0,1-.335-.049,1.017,1.017,0,0,1-.862.391,1.929,1.929,0,0,1-.505-.072.518.518,0,0,0-.14-.145c-.08-.063-.148-.117-.11-.23a4.042,4.042,0,0,1,1.017-.3c.81-.165,1.648-.336,1.737-1.39a2.563,2.563,0,0,1,1.146-.468,2.311,2.311,0,0,0,1.3-.606c.144-.234.266-.461.384-.681a6.074,6.074,0,0,1,.97-1.437c.017-.076.037-.153.057-.228a2.178,2.178,0,0,0,.1-.751,3.212,3.212,0,0,1,.125.372,1.243,1.243,0,0,0,.633.925,1.039,1.039,0,0,0,.291.045c.476,0,.742-.393,1-.773l.085-.124a.512.512,0,0,1,.1-.384.207.207,0,0,1,.158-.083.265.265,0,0,1,.174.08,1.544,1.544,0,0,0,1.018.315,6.04,6.04,0,0,0,.845-.082l.02,0a5.952,5.952,0,0,1,.812-.078c.045,0,.09,0,.132,0a8.97,8.97,0,0,1,2.488-.429,27.769,27.769,0,0,1-4.617,9.772c-.3.368-.594.754-.876,1.127-.467.617-.95,1.254-1.494,1.842a5.146,5.146,0,0,1-.221-.8,3.069,3.069,0,0,0-.67-1.567l-.371.1a7.939,7.939,0,0,1-.571.907,3.236,3.236,0,0,0-.832,2.128,1.612,1.612,0,0,1-1.5.629c-.185,0-.379-.009-.566-.018H140.4c-.189-.009-.383-.018-.571-.018a2.389,2.389,0,0,0-1.157.232A1.718,1.718,0,0,1,138.164,134.157Zm-22.875-2.419h0a24.45,24.45,0,0,1-6-1.856,24.837,24.837,0,0,1-5.4-3.4c.645-.7,1.388-1.409,2.106-2.1a23.264,23.264,0,0,0,3.765-4.2c.15.853,1.009,1.316,1.768,1.724.156.084.3.163.444.245.2.09.407.184.624.284a9.148,9.148,0,0,0,3.641,1.1,3.507,3.507,0,0,0,1.384-.271,1.317,1.317,0,0,0-.228.211,1.422,1.422,0,0,1-.2.192c.257.261.166.529.078.788-.1.286-.188.556.145.816.073.238-.064.319-.21.4-.108.063-.219.129-.239.263a1.772,1.772,0,0,1,.163.733c.039.474.076.921.661,1.034a.514.514,0,0,1,.041.524.508.508,0,0,1-.416.3,3.529,3.529,0,0,0-.648-.067,1.14,1.14,0,0,0-1.158.618,2.849,2.849,0,0,0-.238,1.514,4.4,4.4,0,0,1-.078,1.142Zm12.856-5.161h0a.325.325,0,0,1-.208-.179c-.061-.16.051-.37.14-.538.026-.049.05-.095.068-.134.083-.067.164-.135.244-.2l.008-.006a2.718,2.718,0,0,1,1.794-.863,2.39,2.39,0,0,1,.373.031c-.043.689-.645.947-1.283,1.22a3.353,3.353,0,0,0-1.135.67Zm-54.857-2.371v0a14.129,14.129,0,0,0-.623-3.9,21.448,21.448,0,0,1-.572-2.707l-.69-5.827-.389-.54a30.521,30.521,0,0,0,4.263.238c.546,0,1.1-.006,1.638-.012h.1c.515-.005,1.048-.011,1.57-.011.452,0,.853,0,1.224.013l.695-.324c-.173.936-.452,3.259.715,4.648a3.75,3.75,0,0,1-.3-.392c-.32-.45-.758-1.065-1.355-1.065H79.53a2.317,2.317,0,0,0-1.671,1.148,2.287,2.287,0,0,1-1.689,1.145,5.75,5.75,0,0,0-1.738,3.808q-.033.183-.066.365c.3.321.163.636.013.971a1.01,1.01,0,0,0-.1.925c-.566.061-.669.5-.769.917a1.727,1.727,0,0,1-.221.6Zm28.173,0v0a10.1,10.1,0,0,0-1.189-1.976,10.061,10.061,0,0,1-1.224-2.05,21.672,21.672,0,0,1-1.162-2.625,22.276,22.276,0,0,0-1.1-2.516,1.815,1.815,0,0,0,1.344.477c.739.065,1.437.126,1.437,1.19a.405.405,0,0,0,.247.063c.039,0,.078,0,.117,0s.073,0,.107,0c.155-.17.228-.245.332-.245a.639.639,0,0,1,.269.1.916.916,0,0,0,.279.267c.139.1.27.2.266.313,0,.084-.079.172-.233.267a2.1,2.1,0,0,0,1.531,1.427.524.524,0,0,0,.5.466.46.46,0,0,0,.249-.075c.156-.213.03-.49-.092-.758-.1-.227-.2-.442-.13-.61a.429.429,0,0,1,.277-.217,2.013,2.013,0,0,1,.38,1.276,3.064,3.064,0,0,0,.155.9,1.58,1.58,0,0,1,.309,1.23c-.312.38-.676.75-1.029,1.107a9.069,9.069,0,0,0-1.634,2Zm32.462-1.189c-.446,0-.587-.332-.735-.683l-.007-.017c-.139-.327-.3-.7-.788-.7a1.207,1.207,0,0,0-.173.013,2.457,2.457,0,0,1-.516-1.5l.033-.039c.2-.235.373-.439.619-.439a.667.667,0,0,1,.325.1c-.015.03-.033.061-.052.092a.46.46,0,0,0-.1.4,3.85,3.85,0,0,0,.692.459c.479.27.932.524,1.049,1.162a.782.782,0,0,0,.029.514c.073.263.142.511-.248.627A1.025,1.025,0,0,1,133.923,123.017Zm-15.232-2.955h0a9.782,9.782,0,0,1-6.061-1.928,4.128,4.128,0,0,1,1.622-.315c1.049-.066,2.04-.128,2.316-1.369a1.051,1.051,0,0,0,.336-1.2,4.5,4.5,0,0,0,.922-1.6c.071-.175.142-.353.219-.524a.842.842,0,0,1-.23-.993c.022-.093.047-.2.067-.312a2.794,2.794,0,0,0-2.149-.81,11.5,11.5,0,0,0-1.344.108c-.4.048-.811.1-1.211.108-.544.309-.5.784-.466,1.244a1.312,1.312,0,0,1-.228,1.092,1.92,1.92,0,0,0-1.453,1.169,3.589,3.589,0,0,1-.742.951,1.643,1.643,0,0,1-.852-1.426h.165a.458.458,0,0,0,.309.547,1.357,1.357,0,0,0,.213.018c.612,0,.695-.533.775-1.047a2.091,2.091,0,0,1,.207-.748,2.537,2.537,0,0,1,.529-.8c.314-.376.639-.765.554-1.086-.048-.182-.222-.327-.532-.442a1.09,1.09,0,0,1,0-.348c.022-.234.043-.455-.23-.581a2.825,2.825,0,0,1-.353.117c-.364.1-.775.222-.865.664.052-.369.071-.755.089-1.129a5.607,5.607,0,0,1,.381-2.148c-.273-.674.116-1.085.491-1.483a2.488,2.488,0,0,0,.492-.646,1.17,1.17,0,0,0,.125.007c.556,0,.717-.454.872-.893a2.084,2.084,0,0,1,.3-.625l.357-.105c1.371-.4,2.79-.817,3.655-2.265a3.467,3.467,0,0,1-.261-1.126,2.336,2.336,0,0,0-.5-1.443l.017-.007a5.068,5.068,0,0,1,1.429-.3,1.061,1.061,0,0,1,.831.307l.527.282-.012,0h-.076a3.724,3.724,0,0,1-.6-.067,3.714,3.714,0,0,0-.6-.067,1.021,1.021,0,0,0-.7.236c-.345.247-.183.664-.052,1,.019.048.037.095.053.138a2.676,2.676,0,0,1,1.026.895c.361.441.7.857,1.243.857a1.486,1.486,0,0,0,.641-.166l.066.013c.606.115,1.36.259,1.575.967a2.014,2.014,0,0,1,.845.824c.3.427.577.83,1.094.83a1.224,1.224,0,0,0,.338-.052c0,.055-.011.113-.017.174v.011c-.062.6-.156,1.517.5,1.944a1.648,1.648,0,0,1-.4.552,1.217,1.217,0,0,0-.458.91.632.632,0,0,0-.138.75c.8.087,1.032.727,1.262,1.347a3.483,3.483,0,0,0,.4.844,2.126,2.126,0,0,0,.848,2.372,8.326,8.326,0,0,1-1.011,2.836l-.051.1a1.778,1.778,0,0,1-.8.154,7.1,7.1,0,0,1-.747-.054h-.006a6.936,6.936,0,0,0-.73-.054c-.584,0-1.211.15-1.43,1.26a2.228,2.228,0,0,0-.42,1.166c-.112.665-.218,1.293-1.041,1.331C119.3,120.051,118.992,120.062,118.69,120.062Zm-13.186-.418h0l-.1-.062a4.537,4.537,0,0,0,1.305-2.051l1.078.539a2.621,2.621,0,0,0-1.591.958,6.035,6.035,0,0,1-.694.616Zm-21.2-1.676h0a10.121,10.121,0,0,0-.164-3.9,17.015,17.015,0,0,1-.294-2.3l-.448-.758a2.42,2.42,0,0,0,1.5.47,7.96,7.96,0,0,0,1.337-.158l.185-.032c-1,.327-1.119,1.21-1.241,2.144a4.384,4.384,0,0,1-.349,1.434c-.039.284.154.466.34.642s.381.361.336.647a2.14,2.14,0,0,0-.932,1.233A4.7,4.7,0,0,1,84.308,117.968Zm68.52-.507v0c-.1-.2-.2-.405-.3-.623a4.857,4.857,0,0,0-1.928-2.508,1.606,1.606,0,0,1-.707-1.325,1.792,1.792,0,0,0-.652-1.331l-.968-.973a8.235,8.235,0,0,0,3.3.531c.66,0,1.323-.035,1.965-.068l.039,0,.445-.023a15.766,15.766,0,0,0-.521,2.939,18.894,18.894,0,0,1-.389,2.467,2.679,2.679,0,0,0-.079.325,1.649,1.649,0,0,1-.2.592Zm-49.087-5.246h0c-.071-.327.167-.422.442-.532a.843.843,0,0,0,.567-.451,2.246,2.246,0,0,1,.578-1.745c.1-.15.211-.306.305-.466a.631.631,0,0,1,.479-.174,1.471,1.471,0,0,1,.537.112,1.1,1.1,0,0,0,.711.4.638.638,0,0,0,.164-.022l.336-.539a2.057,2.057,0,0,1,.631,1.217c.175.616.341,1.2.865,1.2a1.541,1.541,0,0,0,.777-.29c.02-.089.039-.185.055-.285a1.291,1.291,0,0,1-.494,1.515h-.257c.114-.394-.227-.642-.441-.754a2.907,2.907,0,0,0-.866.211,2.607,2.607,0,0,1-.876.2,1.28,1.28,0,0,1-.32-.04,17.438,17.438,0,0,1-3.19.445Zm-23.02-4.178-.812-.321-8.676.165c.854-10.487,3.815-19.075,9.051-26.258l3.422-4.352.046-.593a64.1,64.1,0,0,0,6.684,6.672A37.21,37.21,0,0,0,83.323,94.37a41.51,41.51,0,0,0-2.972,12.752,1.587,1.587,0,0,1,.07.31.786.786,0,0,0,.3.6Zm2.822,0v0a9.033,9.033,0,0,0,.519-2.8,13.746,13.746,0,0,1,.242-1.912,34.749,34.749,0,0,1,3.062-9.269,42.121,42.121,0,0,1,5.452-8.27c.414.41.824.821,1.257,1.257A57.192,57.192,0,0,0,99.812,92.3c-.874.032-1.339.692-1.789,1.33-.466.66-.948,1.343-1.883,1.343h-.061a6.84,6.84,0,0,0-2.125,2.2,4.1,4.1,0,0,1-.9.392,2.711,2.711,0,0,0-1.468.913,1.128,1.128,0,0,0,.083.348c.089.255.181.518-.145.695a1.724,1.724,0,0,1-1.188.323c-.619.021-1.2.04-1.4.81a3.007,3.007,0,0,1-.707,1.391,2.611,2.611,0,0,0-.728,1.741c-.753.506-.637,1.466-.544,2.238l0,.039a1.182,1.182,0,0,1,.164.829c-.014.377-.029.767.375.98a17.013,17.013,0,0,0-2.081-.172,4.478,4.478,0,0,0-1.873.331Zm-25.115-.057h0a18.39,18.39,0,0,0,.261-2.966,18.636,18.636,0,0,1,.239-2.831A60.326,60.326,0,0,1,64.25,83.76,67.127,67.127,0,0,1,75.128,67.622l.214.859c.884.862,1.773,1.755,2.633,2.619,1.295,1.3,2.517,2.531,3.738,3.673a12.841,12.841,0,0,0-2.908,3.144c-.423.573-.859,1.165-1.33,1.7a51.361,51.361,0,0,0-9.5,27.113l.215,1.242c-1.57-.128-3.211-.193-4.878-.193s-3.313.065-4.886.195Zm111.011-.1h0v0l.241-.369a45.644,45.644,0,0,0-1.442-10.231,56.994,56.994,0,0,0-3.363-9.428c-.058-1.708-1.132-3.088-2.171-4.423a14.317,14.317,0,0,1-1.687-2.512,9.359,9.359,0,0,1-2.2-2.383,8.335,8.335,0,0,0-2.726-2.711,3.486,3.486,0,0,1-.4-.557c-.232-.375-.472-.762-.918-.865l1.089-.221c.54-.557,1.1-1.113,1.631-1.65a49.845,49.845,0,0,0,4.665-5.12A70.872,70.872,0,0,1,173.562,84.5a58.468,58.468,0,0,1,5.235,19.682,8.976,8.976,0,0,1,.073,1.11,3.981,3.981,0,0,0,.439,2.145l-9.121.167A1.311,1.311,0,0,1,169.439,107.876Zm-12.163-.161h0c-.016-.3-.025-.607-.034-.9a7.643,7.643,0,0,0-.939-4.251,6.355,6.355,0,0,0,.531-3.258c-.061-.15-.148-.224-.267-.224a.837.837,0,0,0-.362.134.981.981,0,0,1-.191.09,5.344,5.344,0,0,0-1.231,2.306,10.276,10.276,0,0,1-.449,1.179,5.249,5.249,0,0,0-.48,4.5l.387.374-3.547-.066c.421-.262.257-.653.083-1.067-.184-.439-.393-.936.05-1.374l1.621-.312a6,6,0,0,1,.769-1.229,3.537,3.537,0,0,0,.954-2.189c.964-1.165,1.236-2.179.833-3.1a3.374,3.374,0,0,1,.081-2.3c.27-1,.526-1.94-.363-2.863a.946.946,0,0,0-.151-.822.712.712,0,0,0-.579-.324h-.032a2.676,2.676,0,0,0-.389-.075c-.376-.053-.7-.1-.7-.615a3.156,3.156,0,0,1,.32-.374c.312-.331.666-.707.551-1.213a.6.6,0,0,0-.5-.232,2.251,2.251,0,0,0-.461.068,2.247,2.247,0,0,1-.458.068h-.045a1.427,1.427,0,0,1,.283-.851,1.28,1.28,0,0,0,.268-.906.924.924,0,0,0-.488-.52.908.908,0,0,0-.171-.017,1.59,1.59,0,0,0-.821.315l-.012.008a1.53,1.53,0,0,1-.784.308.858.858,0,0,1-.372-.088,1.2,1.2,0,0,1-.479-.75.7.7,0,0,1,.152-.539l-1.9-2.332a.333.333,0,0,0-.268-.089l-.1,0-.1,0c-.167,0-.28-.041-.287-.24a3.677,3.677,0,0,0-1.114-2.47,4.315,4.315,0,0,1-1.159-2.307,1.665,1.665,0,0,1-.434-1.107,1.473,1.473,0,0,0-.616-1.241l-.073-.053a2.264,2.264,0,0,0-1.267-.573,1.2,1.2,0,0,0-.441.087,22.191,22.191,0,0,0-2.777-3.25.582.582,0,0,0-.159-.023.7.7,0,0,0-.532.3,2.418,2.418,0,0,0,.554,1.036,1.983,1.983,0,0,1,.571,1.339.615.615,0,0,0-.1-.01.353.353,0,0,0-.284.135,4.218,4.218,0,0,0,1.3,2.118l.151.163c-4.461-3.456-10.027-5.692-17.016-6.833a9.4,9.4,0,0,1-1.242-.144,8.654,8.654,0,0,0-1.362-.147,3.114,3.114,0,0,0-1.037.162,50.158,50.158,0,0,0,.154-5.681c-.01-1.041-.021-2.118,0-3.156l-.305-.59a5.1,5.1,0,0,0,2.424.449,11.223,11.223,0,0,1,1.365.086,51.335,51.335,0,0,1,15.352,4.4,5.985,5.985,0,0,0,1.007,1.072,3.3,3.3,0,0,1,1.329,1.963c-.342.912.2,1.383.726,1.838.585.507,1.137.985.351,2.021a1.323,1.323,0,0,0,.371,1.012,2.513,2.513,0,0,1,.285.449,2.129,2.129,0,0,1,.1.635c.022.409.045.831.45,1.041a1.217,1.217,0,0,0,.251.027,1.838,1.838,0,0,0,1.082-.479l.014-.01a1.767,1.767,0,0,1,1.031-.468,1.133,1.133,0,0,1,.388.071c1.224.89,1.794,2.318,1.794,4.5a3.109,3.109,0,0,0,1.992,2.125,1.963,1.963,0,0,1,.563-.1c.583,0,.715.438.867.945a1.63,1.63,0,0,0,.842,1.207,3.392,3.392,0,0,1,1.674.939,3.075,3.075,0,0,0,1.941.965c.066,0,.133,0,.2-.01a11.644,11.644,0,0,1,2,2.163,15.106,15.106,0,0,0,1.472,1.708.586.586,0,0,0,.379.629,1.33,1.33,0,0,0,.323.04,2.2,2.2,0,0,0,.829-.211,2.367,2.367,0,0,1,.746-.208,45.16,45.16,0,0,1,4.121,16.387l.281.6c-.451,0-.924-.006-1.445-.006-2.781,0-5.344.074-7.835.225Zm-6.676-4.137h0a2.064,2.064,0,0,1-.382-.038,1.436,1.436,0,0,1,.245-1.357,1.454,1.454,0,0,0,.278-1.2,2.909,2.909,0,0,1,.312-.2c.273-.16.555-.325.625-.662-.032-.472-.352-.66-.69-.858a1.3,1.3,0,0,1-.77-.884,1.469,1.469,0,0,0-1.03-.532,3.215,3.215,0,0,1-.479-.124.752.752,0,0,0-.326-.075,1.807,1.807,0,0,0-1.038.53l-.113.1c-.276.234-.515.435-.713.435-.234,0-.383-.294-.469-.924a.914.914,0,0,0,.324-1.207,2.988,2.988,0,0,1-1.078-1.243A3.026,3.026,0,0,0,144.085,94h-.079a9.737,9.737,0,0,1-1.772-.214l-.024,0a9.6,9.6,0,0,0-1.713-.209,3.943,3.943,0,0,0-.9.1c-.19-.044-.382-.1-.586-.165a4.276,4.276,0,0,0-1.194-.248,1.267,1.267,0,0,0-1.091.568,4.85,4.85,0,0,1-.316,1.2,5.453,5.453,0,0,0-.289,1.011,2.011,2.011,0,0,1-.859-.91c1.924-2.155,4.071-4.34,6.146-6.454l.006-.006c.909-.925,1.848-1.882,2.742-2.81l.152-.391c.332.409.683.826,1.023,1.23a25.828,25.828,0,0,1,3.211,4.4,2.042,2.042,0,0,1-.459,1.4c-.266.44-.517.855-.393,1.225.087.257.348.469.8.647a3.19,3.19,0,0,1,1.374.841,3.168,3.168,0,0,0,1.349.831,13.886,13.886,0,0,1,1.528,3.951l0,.014c.073.268.149.544.226.815a4.517,4.517,0,0,0-.645,1.121C151.953,102.746,151.571,103.578,150.6,103.578ZM126.714,98.85a1.008,1.008,0,0,1-.417-.087l-.086-.09a3.617,3.617,0,0,0-2.017-1.332,1.988,1.988,0,0,0-.593.308,1.372,1.372,0,0,1-.744.315.859.859,0,0,1-.421-.119,6.348,6.348,0,0,1,1.73-1.2,4.818,4.818,0,0,0,2.289-1.969,6.08,6.08,0,0,0,.387-2.527,1.293,1.293,0,0,0-.845-.522.553.553,0,0,0-.366.144,3.651,3.651,0,0,1-1.352,1.161,3.951,3.951,0,0,0-1.41,1.206l-2.262-.751a16.513,16.513,0,0,1-.143-3,11.264,11.264,0,0,0-.31-3.56,11.743,11.743,0,0,0,2.292.5c.5.074,1.015.151,1.513.268a31.235,31.235,0,0,1,9.016,4.109,4.95,4.95,0,0,0-1.639,1.27c-.087.088-.171.173-.252.252-.021.336.2.416.425.5a.816.816,0,0,1,.419.261l.6-.223a4.5,4.5,0,0,1-2.37,2.2c-1.061.577-2.063,1.122-2.251,2.513-.1.035-.189.075-.288.117A2.4,2.4,0,0,1,126.714,98.85ZM110.438,96.8h0a.985.985,0,0,0-.866-.47,1.5,1.5,0,0,0-.805.252c-.322,0-.527-.276-.726-.543-.168-.226-.327-.439-.537-.439a.6.6,0,0,0-.4.224.805.805,0,0,0-.149.3c-.059.176-.115.341-.325.342a.7.7,0,0,1-.229-.047.654.654,0,0,0-.313-.258,1.026,1.026,0,0,1-.2-.121c-.014-.209.143-.312.3-.412.192-.126.374-.245.216-.561a2.344,2.344,0,0,0-1.4-.977,3.128,3.128,0,0,1-1.17-.643h-.684a19.086,19.086,0,0,1,6.24-4.413,25.9,25.9,0,0,1,7.26-1.95q-.009.3-.02.613v.039a18.164,18.164,0,0,0,.5,6.259.949.949,0,0,0-.789-.4,2.94,2.94,0,0,0-.795.157l-.011,0a3.064,3.064,0,0,1-.832.16,1.132,1.132,0,0,1-.444-.084.861.861,0,0,1,.014-.563c.062-.248.121-.482-.174-.64a2.253,2.253,0,0,0-1.191,1.784,3.277,3.277,0,0,1-.707,1.54c-.092.478-.5.531-.936.588a1.526,1.526,0,0,0-.813.26Zm25.141-6.931v0l-.226-.67a27.835,27.835,0,0,0-14.2-5.789l-.832.159.066-8.57-.32-.691.607.091a52.36,52.36,0,0,1,9.6,2.05,37.47,37.47,0,0,1,11.379,6.585l.762.312-1.594.922c-.651.736-1.388,1.457-2.1,2.154a25.883,25.883,0,0,0-3.133,3.447ZM101.836,89.8h0c-.837-.737-1.649-1.569-2.509-2.449a30.346,30.346,0,0,0-4.232-3.831,41.974,41.974,0,0,1,9.832-6.157,34.172,34.172,0,0,1,11.285-2.809l.532-.311a43.086,43.086,0,0,0,0,9.328,4.25,4.25,0,0,0-.939-.1,9.936,9.936,0,0,0-2.227.343,13.324,13.324,0,0,1-1.6.3,29.473,29.473,0,0,0-9.66,4.992c-.158.259-.327.488-.476.689Zm-9.175-8.661h0l-.223-.6c-.714-.657-1.417-1.387-2.1-2.092a24.566,24.566,0,0,0-4.293-3.818,29.441,29.441,0,0,0,3.362-2.47c.786-.636,1.6-1.294,2.427-1.867A48.9,48.9,0,0,1,103.525,64.5a50.457,50.457,0,0,1,13.046-2.487,48.576,48.576,0,0,0-.016,7.267v.012c.029.608.059,1.237.082,1.849a5.3,5.3,0,0,0-1.143-.116,14.022,14.022,0,0,0-2.333.268c-.494.085-1,.172-1.505.223a38.012,38.012,0,0,0-18.994,9.615ZM84.152,72.4h0l-.519-.558a48.407,48.407,0,0,0-6.486-6.171h-.27a20.267,20.267,0,0,0,3.089-2.429,25.975,25.975,0,0,1,2.52-2.071,65.666,65.666,0,0,1,16-8.544,59.951,59.951,0,0,1,18.036-3.511l-.262.878.1,7.6.277.754a50.24,50.24,0,0,0-17.325,3.863A53.087,53.087,0,0,0,84.3,71.957l-.152.437Zm69.808-.968v0a1.9,1.9,0,0,0-.675-.874,2.52,2.52,0,0,1-.622-.709c-.182-1.684-1.818-3.361-3.36-4.277a2.259,2.259,0,0,1-1.2-.832,1.822,1.822,0,0,0-1.3-.791,1.537,1.537,0,0,0-.538.106,2.158,2.158,0,0,0-1.453-.531,6.239,6.239,0,0,0-2.58.83l-.045.022v.152A47.225,47.225,0,0,0,122.21,58.45a.907.907,0,0,0-.393.115.968.968,0,0,1-.42.12.674.674,0,0,1-.1-.007c.316-.213.237-.774.172-1.225-.012-.087-.024-.17-.032-.244-.116-.193-.36-.518-.691-.518a.574.574,0,0,0-.3.088,1.25,1.25,0,0,0-.289.621,41.758,41.758,0,0,0-.1-8.6,15.661,15.661,0,0,0,3.652.515,23.561,23.561,0,0,1,2.512.247,62.675,62.675,0,0,1,17.963,5.177,58.249,58.249,0,0,1,15.619,10.7l-1.058.448c-.474.5-.973.988-1.455,1.456a14.769,14.769,0,0,0-3.332,4.084Zm-6.71-9.743a.571.571,0,0,0-.445.242,1.367,1.367,0,0,0,.227.922,2.875,2.875,0,0,1,1.2,1.029c.411.511.8.994,1.506.994a1.925,1.925,0,0,0,.48-.066c.289-.317.152-.65.007-1a1.411,1.411,0,0,1-.158-.885,1.926,1.926,0,0,0-1.43-1.152.62.62,0,0,1-.437.194,1.256,1.256,0,0,1-.484-.138l-.007,0A1.2,1.2,0,0,0,147.25,61.684Zm-25.166-6a.674.674,0,0,0-.644.331c-.152.124-.055.3.022.441.017.031.035.064.049.094a3.279,3.279,0,0,0,2.763,1.242,12.559,12.559,0,0,0,2.855-.465c.378-.092.735-.179,1.074-.246a2.96,2.96,0,0,0,1.148.233,4.757,4.757,0,0,0,2.965-1.3v-.223c-1.131-1.581-3.333-1.764-4.941-1.9l-4.551,1.958A2.043,2.043,0,0,0,122.084,55.685Z" transform="translate(9232.125 431)" fill="#fff"/>
  </g>
</svg>
