<svg xmlns="http://www.w3.org/2000/svg" width="400.602" height="94.794" viewBox="0 0 400.602 94.794">
  <g id="UNHCR-white" transform="translate(966.069 227.772)">
    <g id="yhyh.svg" transform="translate(-966.069 -227.772)">
      <g id="g86" transform="translate(0 0)">
        <path id="path2" d="M331.573,945.2c1.124,0,.985-.643.985-1.837v-5.8c0-1.2-.119-1.58.565-1.58,2.387,0,3.038-.217,3.038-2.348V912.1c0-5.867-4.146-4.9-5.318-7.041-1.655-2.9,3.1-2.9,1.377-9.184-.44-1.42-1.557-2.3-3.7-2.3s-3.269.884-3.709,2.3c-1.728,6.282,3.038,6.282,1.374,9.184-1.172,2.143-5.309,1.174-5.309,7.041v21.545c0,2.131.643,2.348,3.036,2.348.675,0,.563.381.563,1.58v5.8c0,1.194-.141,1.837.987,1.837Z" transform="translate(-273.557 -880.675)" fill="#fff" fill-rule="evenodd"/>
        <path id="path4" d="M232.7,849.314c-2.115,2.257-5.468,7.517-3.282,11.894,4.445,1.712,4.107-14.082,9.64-13.811,2.74,2.535-.816,9.984-1.912,13.266-1.372,4.037-2.459,12.512-5.06,16.612-2.181,3.421-.543,14.155-1.233,17.845-1.839,1.844-6.836.545-8.953.2,0-4.233-.549-7.581-1.231-14.351-.066-1.365-1.507-22.29-.344-24.818,2.393-5.268,15.45-15.315,17.235-17.23,1.571-1.712,7.1-7.388,9.227-7.388,1.5,1.028.618,3.424.274,4.374C244.947,841.177,235.777,846.376,232.7,849.314Z" transform="translate(-193.553 -831.535)" fill="#fff" fill-rule="evenodd"/>
        <path id="path6" d="M377.852,849.314c2.047,2.257,5.4,7.517,3.28,11.894-4.511,1.712-4.169-14.082-9.706-13.811-2.667,2.535.884,9.984,1.981,13.266,1.365,4.037,2.46,12.512,5.058,16.612,2.124,3.421.545,14.155,1.162,17.845,1.91,1.844,6.838.545,9.022.2,0-4.233.483-7.581,1.162-14.351.139-1.365,1.575-22.29.413-24.818-2.389-5.268-15.452-15.315-17.223-17.23-1.646-1.712-7.112-7.388-9.234-7.388-1.575,1.028-.613,3.424-.274,4.374C365.616,841.177,374.773,846.376,377.852,849.314Z" transform="translate(-306.841 -831.535)" fill="#fff" fill-rule="evenodd"/>
        <path id="path8" d="M168.5,861.3c-1.169,1.092-3.77,1.844-5.555,4.242-.682-1.3,1.1-4.447,3.219-6.3,1.58-1.306,4.661-3.424,5.55-3.629C172.407,857.194,169.94,859.589,168.5,861.3Z" transform="translate(-148.342 -850.611)" fill="#fff" fill-rule="evenodd"/>
        <path id="path10" d="M143.551,879.242c-1.988,1.855-4.107,2.608-6.854,5.963a20.228,20.228,0,0,1-.344-10c.964-3.15,2.532-6.644,5.211-7.743a29.75,29.75,0,0,0-1.65,7.606c-1.16,4.591-1.844,4.73-1.568,5.343.269,0,1.773-2.4,3.629-4.247,2.191-2.193,4.928-2.676,6.708-3.973C148.411,873.081,146.836,875.889,143.551,879.242Z" transform="translate(-127.02 -859.992)" fill="#fff" fill-rule="evenodd"/>
        <path id="path12" d="M114.268,929.3c-2.667-4.8-2.945-8.292-3.15-12.334.141-2.811,1.507-9.316,3.563-10.273-.615,5.888.962,6.439.34,11.3,0,.274-.684,5.343-.684,5.616.825-.134.068-4.659,9.457-11.162-2.056,3.558-1.1,4.657-4.8,9.384A17.17,17.17,0,0,0,114.268,929.3Z" transform="translate(-107.401 -891.073)" fill="#fff" fill-rule="evenodd"/>
        <path id="path14" d="M103.877,986.3c-1.992,2.879-1.648,4.319-2.124,5.687-4.732-2.74-10.073-13.631-8.09-19.042,1.233,4.107,2.95,5,4.18,8.422,2.127,5.142,1.785,6.717,3.155,7.88a19.131,19.131,0,0,1,1.5-8.153c1.306-1.981,2.33-4.591,3.291-5.482C106.818,979.38,106.068,982.466,103.877,986.3Z" transform="translate(-93.238 -943.548)" fill="#fff" fill-rule="evenodd"/>
        <path id="path16" d="M113.4,1042.877c0,4.18-.759,6.027-1.1,9.111-8.156-2.669-12.4-11.987-12.4-16.576,2.473,5.619,6.1,5.548,10.829,13.492.408-3.011-.825-.75-.964-6.437.139-5.961,1.372-6.166,1.58-9.861C112.851,1034.248,113.4,1040.826,113.4,1042.877Z" transform="translate(-98.515 -990.811)" fill="#fff" fill-rule="evenodd"/>
        <path id="path18" d="M133.472,1104.582c.622,3.084.9,6.713,1.372,9.384-4.657-1.709-5.826-.412-11.372-3.9-2.53-1.37-7.057-7.125-6.777-11.237,5.475,6.1,6.439,5.411,9.111,7.672,2.459,1.985,4.445,4.937,6.232,4.525.13-1.643-4.041-5.208-3.5-15.484A28.705,28.705,0,0,1,133.472,1104.582Z" transform="translate(-111.81 -1040.663)" fill="#fff" fill-rule="evenodd"/>
        <path id="path20" d="M172.781,1146.646c1.441,2.054,1.1,2.943,4.794,7.192a40.291,40.291,0,0,1-9.658,1.917c-2.323,0-10.545-2.188-13.287-7.812,4.721,2.537,4.8,1.921,11.1,3.294,4.518,1.026,7.739,2.462,8.972,2.33-.271-.618-3.768-2.056-6.163-5.074-2.4-3.219-1.851-6.847-3.978-9.521C166,1138.558,171.612,1145.137,172.781,1146.646Z" transform="translate(-141.869 -1075.052)" fill="#fff" fill-rule="evenodd"/>
        <path id="path22" d="M511.415,861.3c1.1,1.092,3.772,1.844,5.482,4.242.752-1.3-1.094-4.447-3.214-6.3-1.507-1.306-4.588-3.424-5.553-3.629C507.446,857.194,509.908,859.589,511.415,861.3Z" transform="translate(-421.797 -850.611)" fill="#fff" fill-rule="evenodd"/>
        <path id="path24" d="M522.028,879.242c1.917,1.855,4.041,2.608,6.781,5.963a20.12,20.12,0,0,0,.344-10c-.889-3.15-2.532-6.644-5.208-7.743a26.942,26.942,0,0,1,1.646,7.606c1.163,4.591,1.851,4.73,1.577,5.343-.274,0-1.782-2.4-3.629-4.247-2.129-2.193-4.869-2.676-6.715-3.973C517.1,873.081,518.741,875.889,522.028,879.242Z" transform="translate(-428.777 -859.992)" fill="#fff" fill-rule="evenodd"/>
        <path id="path26" d="M551.983,929.3c2.735-4.8,2.94-8.292,3.148-12.334-.139-2.811-1.507-9.316-3.492-10.273.547,5.888-1.028,6.439-.346,11.3,0,.274.62,5.343.62,5.616-.752-.134-.068-4.659-9.384-11.162,1.985,3.558,1.021,4.657,4.727,9.384C551.639,926.082,552.186,930.262,551.983,929.3Z" transform="translate(-449.138 -891.073)" fill="#fff" fill-rule="evenodd"/>
        <path id="path28" d="M561.023,986.3c1.917,2.879,1.573,4.319,2.056,5.687,4.723-2.74,10.134-13.631,8.08-19.042-1.165,4.107-2.945,5-4.107,8.422-2.2,5.142-1.853,6.717-3.152,7.88.271-2.671-.688-5.824-1.577-8.153-1.235-1.981-2.327-4.591-3.291-5.482C558.074,979.38,558.758,982.466,561.023,986.3Z" transform="translate(-461.877 -943.548)" fill="#fff" fill-rule="evenodd"/>
        <path id="path30" d="M549.426,1042.877c0,4.18.821,6.027,1.167,9.111,8.085-2.669,12.4-11.987,12.4-16.576-2.539,5.619-6.1,5.548-10.889,13.492-.417-3.011.816-.75.955-6.437-.139-5.961-1.372-6.166-1.58-9.861C549.977,1034.248,549.426,1040.826,549.426,1042.877Z" transform="translate(-454.602 -990.811)" fill="#fff" fill-rule="evenodd"/>
        <path id="path32" d="M511.864,1104.582c-.62,3.084-.821,6.713-1.3,9.384,4.588-1.709,5.749-.412,11.3-3.9,2.535-1.37,7.128-7.125,6.85-11.237-5.48,6.1-6.505,5.411-9.109,7.672-2.466,1.985-4.52,4.937-6.307,4.525-.132-1.643,4.048-5.208,3.565-15.484A27.341,27.341,0,0,0,511.864,1104.582Z" transform="translate(-423.817 -1040.663)" fill="#fff" fill-rule="evenodd"/>
        <path id="path34" d="M454.028,1146.646c-1.37,2.054-1.028,2.943-4.8,7.192a41.188,41.188,0,0,0,9.735,1.917c2.257,0,10.478-2.188,13.214-7.812-4.725,2.537-4.791,1.921-11.094,3.294-4.522,1.026-7.672,2.462-8.974,2.33.274-.618,3.839-2.056,6.166-5.074,2.4-3.219,1.851-6.847,4.044-9.521C460.812,1138.558,455.2,1145.137,454.028,1146.646Z" transform="translate(-375.233 -1075.052)" fill="#fff" fill-rule="evenodd"/>
        <path id="path36" d="M295.722,1228.786l-1.374-.684a30.082,30.082,0,0,1,23.64-9.8c14.932.821,13.9,4.315,21.921,3.768.889-.068-.688,1.094-.688,1.094a27.611,27.611,0,0,1-17.462-.276C312.161,1219.6,305.924,1217.617,295.722,1228.786Z" transform="translate(-252.544 -1137.874)" fill="#fff" fill-rule="evenodd"/>
        <path id="path38" d="M245.232,1228.786l1.374-.684a29.873,29.873,0,0,0-23.574-9.8c-15,.821-13.975,4.315-21.987,3.768-.887-.068.684,1.094.684,1.094a27.648,27.648,0,0,0,17.474-.276C228.859,1219.6,235.094,1217.617,245.232,1228.786Z" transform="translate(-178.422 -1137.874)" fill="#fff" fill-rule="evenodd"/>
        <path id="path40" d="M723.273,1184.167H718.06v-3.214h14.249v3.214H727.1v14.176h-3.823Z" transform="translate(-588.183 -1108.323)" fill="#fff" fill-rule="evenodd"/>
        <path id="path42" d="M792.332,1180.953h3.462v6.551h.071a4.423,4.423,0,0,1,3.677-2.095c3.679,0,4.6,2.07,4.6,5.19v7.743h-3.458v-7.114c0-2.067-.606-3.093-2.213-3.093-1.876,0-2.678,1.046-2.678,3.608v6.6h-3.462Z" transform="translate(-647.017 -1108.323)" fill="#fff" fill-rule="evenodd"/>
        <path id="path44" d="M859.756,1209.868c.1,2.19,1.169,3.191,3.093,3.191a2.842,2.842,0,0,0,2.726-1.632h3.045a5.666,5.666,0,0,1-5.892,4.24c-3.968,0-6.432-2.728-6.432-6.626a6.318,6.318,0,0,1,6.432-6.649c4.288,0,6.357,3.6,6.113,7.476Zm5.628-2.193c-.319-1.75-1.074-2.676-2.754-2.676a2.727,2.727,0,0,0-2.874,2.676Z" transform="translate(-697.685 -1125.305)" fill="#fff" fill-rule="evenodd"/>
        <path id="path46" d="M966.852,1191.767c0,4.7-2.779,6.991-7.429,6.991-4.675,0-7.406-2.268-7.406-6.991v-10.813h3.825v10.813c0,1.9.488,3.775,3.581,3.775,2.726,0,3.6-1.194,3.6-3.775v-10.813h3.825Z" transform="translate(-773.51 -1108.323)" fill="#fff" fill-rule="evenodd"/>
        <path id="path48" d="M1035.677,1180.953h3.8l7.255,11.666h.05v-11.666h3.581v17.39h-3.823L1039.3,1186.7h-.048v11.641h-3.579Z" transform="translate(-839.779 -1108.323)" fill="#fff" fill-rule="evenodd"/>
        <path id="path50" d="M1147.628,1183.921h4.187c1.7,0,2.63.734,2.63,2.414,0,1.757-.928,2.484-2.63,2.484h-4.187Zm-3.827,14.422h3.827v-6.795h3.823c1.924,0,2.628.8,2.9,2.63a19.309,19.309,0,0,0,.609,4.165h3.825c-.681-.976-.656-3.02-.732-4.117-.121-1.753-.656-3.579-2.535-4.066v-.05a4.276,4.276,0,0,0,2.754-4.356,4.778,4.778,0,0,0-5.09-4.8H1143.8Z" transform="translate(-925.428 -1108.323)" fill="#fff" fill-rule="evenodd"/>
        <path id="path52" d="M1225.064,1207.675a2.722,2.722,0,0,1,2.872-2.676c1.68,0,2.437.925,2.753,2.676Zm9.081,2.193c.246-3.873-1.826-7.476-6.111-7.476a6.315,6.315,0,0,0-6.43,6.649c0,3.9,2.459,6.626,6.43,6.626a5.667,5.667,0,0,0,5.895-4.24h-3.043a2.856,2.856,0,0,1-2.731,1.632c-1.922,0-3-1-3.091-3.191Z" transform="translate(-987.059 -1125.305)" fill="#fff" fill-rule="evenodd"/>
        <path id="path54" d="M1285.414,1188.065h-2.072v-2.311h2.072v-.978c0-2.213,1.388-3.823,4.212-3.823.609,0,1.242.073,1.828.1v2.578a11.447,11.447,0,0,0-1.27-.071c-.921,0-1.313.387-1.313,1.438v.755h2.386v2.311h-2.386v10.278h-3.458Z" transform="translate(-1035.964 -1108.323)" fill="#fff" fill-rule="evenodd"/>
        <path id="path56" d="M1338.393,1216.637H1335.1v-1.755h-.073a4.5,4.5,0,0,1-3.848,2.1c-3.677,0-4.6-2.074-4.6-5.19v-7.741h3.458v7.109c0,2.072.609,3.093,2.218,3.093,1.874,0,2.676-1.049,2.676-3.606v-6.6h3.46Z" transform="translate(-1070.215 -1126.616)" fill="#fff" fill-rule="evenodd"/>
        <path id="path58" d="M1397.863,1212.353c-2.118,0-2.8-1.974-2.8-3.777,0-1.871.85-3.576,2.8-3.576,2.245,0,2.95,1.826,2.95,3.87C1400.813,1210.673,1399.84,1212.353,1397.863,1212.353Zm6.236-9.617h-3.287v1.68h-.052a3.906,3.906,0,0,0-3.747-2.024c-3.531,0-5.4,2.972-5.4,6.234,0,3.46,1.6,6.334,5.382,6.334a4.249,4.249,0,0,0,3.77-1.951h.052v1.657c.023,1.8-.855,3.116-2.776,3.116a2.34,2.34,0,0,1-2.583-1.725h-3.435c.169,2.87,3.07,4.041,5.555,4.041,5.8,0,6.526-3.508,6.526-5.578Z" transform="translate(-1121.726 -1125.305)" fill="#fff" fill-rule="evenodd"/>
        <path id="path60" d="M1463.483,1207.675a2.723,2.723,0,0,1,2.874-2.676c1.68,0,2.432.925,2.749,2.676Zm9.086,2.193c.242-3.873-1.828-7.476-6.116-7.476a6.316,6.316,0,0,0-6.428,6.649c0,3.9,2.459,6.626,6.428,6.626a5.663,5.663,0,0,0,5.892-4.24H1469.3a2.844,2.844,0,0,1-2.726,1.632c-1.924,0-3-1-3.093-3.191Z" transform="translate(-1175.922 -1125.305)" fill="#fff" fill-rule="evenodd"/>
        <path id="path62" d="M1528.614,1207.675a2.722,2.722,0,0,1,2.872-2.676c1.68,0,2.434.925,2.749,2.676Zm9.079,2.193c.244-3.873-1.823-7.476-6.111-7.476a6.315,6.315,0,0,0-6.43,6.649c0,3.9,2.462,6.626,6.43,6.626a5.666,5.666,0,0,0,5.895-4.24h-3.043a2.853,2.853,0,0,1-2.729,1.632c-1.926,0-3-1-3.091-3.191Z" transform="translate(-1227.511 -1125.305)" fill="#fff" fill-rule="evenodd"/>
        <path id="path64" d="M1620.359,1185.239h.048l2.193,6.38h-4.5Zm-8.5,13.1h3.87l1.368-3.87h6.5l1.311,3.87h3.973l-6.5-17.39h-3.923Z" transform="translate(-1296.195 -1108.323)" fill="#fff" fill-rule="evenodd"/>
        <path id="path66" d="M1701.065,1212.353c-2.12,0-2.8-1.974-2.8-3.777,0-1.871.85-3.576,2.8-3.576,2.238,0,2.947,1.826,2.947,3.87C1704.012,1210.673,1703.039,1212.353,1701.065,1212.353Zm6.234-9.617h-3.287v1.68h-.05a3.915,3.915,0,0,0-3.747-2.024c-3.535,0-5.409,2.972-5.409,6.234,0,3.46,1.609,6.334,5.382,6.334a4.254,4.254,0,0,0,3.775-1.951h.05v1.657c.021,1.8-.853,3.116-2.776,3.116a2.336,2.336,0,0,1-2.58-1.725h-3.437c.171,2.87,3.07,4.041,5.555,4.041,5.794,0,6.526-3.508,6.526-5.578Z" transform="translate(-1361.9 -1125.305)" fill="#fff" fill-rule="evenodd"/>
        <path id="path68" d="M1766.689,1207.675a2.724,2.724,0,0,1,2.874-2.676c1.68,0,2.437.925,2.749,2.676Zm9.086,2.193c.244-3.873-1.828-7.476-6.113-7.476a6.312,6.312,0,0,0-6.428,6.649c0,3.9,2.457,6.626,6.428,6.626a5.659,5.659,0,0,0,5.89-4.24h-3.038a2.856,2.856,0,0,1-2.731,1.632c-1.922,0-2.995-1-3.093-3.191Z" transform="translate(-1416.104 -1125.305)" fill="#fff" fill-rule="evenodd"/>
        <path id="path70" d="M1830.827,1202.736h3.287v1.751h.073a4.493,4.493,0,0,1,3.848-2.095c3.677,0,4.6,2.07,4.6,5.19v7.743h-3.458v-7.114c0-2.067-.611-3.093-2.218-3.093-1.876,0-2.678,1.046-2.678,3.608v6.6h-3.458Z" transform="translate(-1469.648 -1125.305)" fill="#fff" fill-rule="evenodd"/>
        <path id="path72" d="M1904.8,1207.167a2.351,2.351,0,0,0-2.553-2.168c-2.218,0-2.95,2.241-2.95,4.089,0,1.805.707,3.971,2.874,3.971a2.663,2.663,0,0,0,2.754-2.557h3.335c-.435,3.335-2.753,5.165-6.063,5.165a6.114,6.114,0,0,1-6.357-6.458c0-3.918,2.339-6.818,6.428-6.818,2.975,0,5.7,1.559,5.917,4.775Z" transform="translate(-1521.15 -1125.305)" fill="#fff" fill-rule="evenodd"/>
        <path id="path74" d="M1963.511,1218.219c-.759,2.019-1.951,2.847-4.34,2.847a20.58,20.58,0,0,1-2.115-.119V1218.1a18.954,18.954,0,0,0,2.022.123,1.631,1.631,0,0,0,1.19-2.364l-4.429-11.807h3.7l2.849,8.621h.048l2.749-8.621h3.583Z" transform="translate(-1568.674 -1126.616)" fill="#fff" fill-rule="evenodd"/>
        <path id="path76" d="M765.467,924.969c0,14.274-7.716,21.125-23.437,21.125s-23.51-6.852-23.51-21.125V893.383h15.862v28.05c0,5.263,0,11.826,7.72,11.826,7.5,0,7.5-6.562,7.5-11.826v-28.05h15.865Z" transform="translate(-588.548 -880.527)" fill="#fff" fill-rule="evenodd"/>
        <path id="path78" d="M990.157,893.383h16.223l15,27.544h.144V893.383h15v51.483h-15.427L1005.3,916.745h-.144v28.121h-15Z" transform="translate(-803.722 -880.527)" fill="#fff" fill-rule="evenodd"/>
        <path id="path80" d="M1260.051,893.383h15.862v17.882h14.857V893.383h15.867v51.483H1290.77V924.46h-14.857v20.405h-15.862Z" transform="translate(-1017.514 -880.527)" fill="#fff" fill-rule="evenodd"/>
        <path id="path82" d="M1550.026,907.9c-.29-1.878-1.73-7.572-8.293-7.572-7.431,0-9.811,7.207-9.811,14.132s2.38,14.135,9.811,14.135c5.336,0,7.429-3.75,8.365-8.582h15.575c0,10.385-8.438,21.417-23.51,21.417-16.653,0-26.1-11.757-26.1-26.97,0-16.225,10.241-26.965,26.1-26.965,14.132.068,21.926,7.5,23.293,20.405Z" transform="translate(-1220.31 -875.862)" fill="#fff" fill-rule="evenodd"/>
        <path id="path84" d="M1802.508,905.635h7.433c6.054,0,7.857,1.876,7.857,5.126,0,4.611-4.039,5.12-6.993,5.12h-8.3Zm-15.862,39.231h15.862V926.913h8.443c6.273,0,6.7,5.12,7.139,10.027a36.55,36.55,0,0,0,1.295,7.925h15.867c-1.448-2.377-1.514-8.507-1.735-11.028-.577-6.423-3.244-11.181-7.572-12.838,5.266-1.951,7.72-7.572,7.72-12.908,0-9.74-7.793-14.709-16.8-14.709h-30.216Z" transform="translate(-1434.65 -880.527)" fill="#fff" fill-rule="evenodd"/>
      </g>
    </g>
  </g>
</svg>
