<svg id="UNICC_horizontal_blue" xmlns="http://www.w3.org/2000/svg" width="201.7" height="74.7" viewBox="0 0 201.7 74.7">
  <g id="Group_12499" data-name="Group 12499">
    <path id="Path_20552" data-name="Path 20552" d="M116,23V38c0,6.2-4.7,9.6-10.2,9.6S95.7,44.2,95.7,38V23h6.1V38c0,2.9,1.9,4.4,4,4.4a4.073,4.073,0,0,0,4.1-4.4V23Z" fill="#fff"/>
    <path id="Path_20553" data-name="Path 20553" d="M126.9,33.8V47.2h-6.1V23h4.7l9.6,13.2V23h6.1V47.1h-4.7Z" fill="#fff"/>
    <path id="Path_20554" data-name="Path 20554" d="M152.5,47.2h-6.1V23h6.1Z" fill="#fff"/>
    <path id="Path_20555" data-name="Path 20555" d="M169.5,22.6a13.2,13.2,0,0,1,8.9,3.4l-3,4.3a8.674,8.674,0,0,0-5.9-2.4,6.851,6.851,0,0,0-7.2,7.1,6.851,6.851,0,0,0,7.2,7.1,8.577,8.577,0,0,0,5.9-2.3l3,4.3a13.2,13.2,0,0,1-8.9,3.4c-8.2,0-13.3-5.7-13.3-12.5S161.3,22.6,169.5,22.6Z" fill="#fff"/>
    <path id="Path_20556" data-name="Path 20556" d="M192.8,22.6a13.2,13.2,0,0,1,8.9,3.4l-3,4.3a8.674,8.674,0,0,0-5.9-2.4,6.851,6.851,0,0,0-7.2,7.1,6.851,6.851,0,0,0,7.2,7.1,8.577,8.577,0,0,0,5.9-2.3l3,4.3a13.2,13.2,0,0,1-8.9,3.4c-8.2,0-13.3-5.7-13.3-12.5s5.1-12.4,13.3-12.4Z" fill="#fff"/>
  </g>
  <g id="Group_12507" data-name="Group 12507">
    <g id="Group_12500" data-name="Group 12500">
      <path id="Path_20557" data-name="Path 20557" d="M72.6,61.1c-2.6.7-5.5.9-8,1.8,4.3-3.7,4.1-9.5,7-13.9a45.012,45.012,0,0,1,2.8-3.7c-1.8,3.5-1,8.1-3,11.5a16.14,16.14,0,0,1-3.1,3.8c.4,0,.8-.4,1.1-.6,3.3-3.3,7.6-4.2,11.1-6.9a11.5,11.5,0,0,0,3.4-4.2c-.8,5.5-6.2,10.6-11.3,12.2Z" fill="#fff"/>
      <path id="Path_20558" data-name="Path 20558" d="M84.4,39.1c-1.6,2.3-3.6,4.4-5,6.7.2-1.8.4-4.1-.3-5.8a56.9,56.9,0,0,1-2.7-11.7l.1-1.6c.9,4.2,5.1,7.1,4.8,11.8a10.069,10.069,0,0,1-.5,3.1l.1.1.2-.2c.6-2.3.9-4.8,1.9-6.9,1.4-3.1,3.1-6.2,2.4-10,1.9,4.4,1.2,10.3-1,14.5Z" fill="#fff"/>
      <path id="Path_20559" data-name="Path 20559" d="M81.8,15.2A14.411,14.411,0,0,1,83.1,29a26.683,26.683,0,0,0-1.6,5.7c-.1-.3-.2-.8-.3-1.2-1.1-4.1-5-7.1-6.6-11a26.428,26.428,0,0,1-1.2-4c1.7,3.2,5.9,4.8,7.1,8.3.5.9.4,2,.7,2.9.1,0,.1,0,.1-.1a44.132,44.132,0,0,1,.1-10.9,8.747,8.747,0,0,0-1.3-5.3c1,.4,1.3,1.2,1.7,1.8Z" fill="#fff"/>
      <path id="Path_20560" data-name="Path 20560" d="M79.9,14.5c.7,3.2-.3,6.4.3,9.6h0c-1.8-3.5-5.5-5.1-8-7.8a10.915,10.915,0,0,1-2.5-5.7c1.5,3.5,5.4,4.3,7.7,7.3a8.74,8.74,0,0,1,1.5,2.4l.1-.1c-1.3-2.8-1.8-5.9-2.7-8.9a6.486,6.486,0,0,0-2.5-3.4c2.9.6,5.5,3.8,6.1,6.6Z" fill="#fff"/>
      <path id="Path_20561" data-name="Path 20561" d="M72,7.1a13.439,13.439,0,0,1,3.9,7.3l.4.9a32.312,32.312,0,0,1-8.4-8.9L65.3,3.8c2.3,1,4.7,1.6,6.7,3.3Z" fill="#fff"/>
      <path id="Path_20562" data-name="Path 20562" d="M20.5,4.3A44.263,44.263,0,0,0,15,11.1c-1.5,1.9-3.4,3.1-5.1,4.7.9-1.9.9-4.2,2.2-5.9,1.9-3.3,5.3-4.4,8.4-5.6Z" fill="#fff"/>
      <path id="Path_20563" data-name="Path 20563" d="M8.1,11.2a7.442,7.442,0,0,1,4.1-2.7c-3,2.1-2.8,5.8-3.8,8.9-.3,1.1-.8,2.2-1.1,3.4l.1.1a11.017,11.017,0,0,1,2.5-3.7c2.2-2,5.4-3.2,6.4-6.2,0,4.1-3.5,7.3-6.7,9.6a12.749,12.749,0,0,0-3.4,4c-.1-1,.2-2.1.1-3.2-.4-3.5-.7-7.6,1.8-10.2Z" fill="#fff"/>
      <path id="Path_20564" data-name="Path 20564" d="M2,23.4c-.1-3.6,1.4-6.6,3.5-9.3.1,0,.1-.1.2-.1-2.3,3.5-.4,8-.5,12l-.3,4.1a.349.349,0,0,0,.2.1c.1-.5.2-1,.3-1.4.6-3.3,3.4-5.7,6-8a8.016,8.016,0,0,0,1.3-1.9,17.128,17.128,0,0,1-1.4,4.9c-2,3.8-5.6,7-6.2,11.4C4.6,31,1.7,27.8,2,23.4Z" fill="#fff"/>
      <path id="Path_20565" data-name="Path 20565" d="M.2,28.5a31.777,31.777,0,0,1,.9-3.3C.2,30,3.5,33.4,4.5,37.6a40.509,40.509,0,0,0,1.2,4.7c.1,0,.1,0,.2-.1-1.6-4.4.7-8.5,3-12a8.377,8.377,0,0,0,1.1-3,28.28,28.28,0,0,1-.6,6.4c-.6,2.6-1.4,5.1-2.1,7.7a12.488,12.488,0,0,0-.1,5.1L7,46.1C5.3,43,2,40.6,1,37.2a19.352,19.352,0,0,1-.8-8.7Z" fill="#fff"/>
      <path id="Path_20566" data-name="Path 20566" d="M.1,37.9c.4,5.1,5.8,7.8,8.4,12a11.779,11.779,0,0,0,1.9,2.5c-.1-.5-.6-1-.8-1.5a11.083,11.083,0,0,1-1-6c.2-2.6,1.3-5,.9-7.7,2.2,4.8,1.6,10.8,2.8,16a30.9,30.9,0,0,0,1.4,3.2C9.1,53.2,2.9,50.2.9,44.5a13.125,13.125,0,0,1-.8-6.6Z" fill="#fff"/>
      <path id="Path_20567" data-name="Path 20567" d="M2.8,49.5c2.5,5.8,8.9,6.2,13.2,9.7a10.064,10.064,0,0,0,2.5,1.7h0a15.843,15.843,0,0,1-2.8-3c-2.5-3.5-1.6-8.4-3.5-12.1a30.527,30.527,0,0,1,4.3,6.5c1.5,3.8,2.1,8,5.6,10.9-3.8-1.3-8.3-.9-11.7-3.3-3.6-2.3-6.9-6.1-7.6-10.4Z" fill="#fff"/>
      <path id="Path_20568" data-name="Path 20568" d="M9.4,60.3c4.1,4.6,10.8,3.1,16.2,4.3a9.079,9.079,0,0,0,2.3.3,14.161,14.161,0,0,0-2.2-.7c-4.3-1.5-4.9-6.1-7.2-9.2,3,2,5.4,4.6,8.2,7.2a14.411,14.411,0,0,0,6.8,3,13.805,13.805,0,0,1-2,.3c-4.5,1.1-9.4,2.9-14.2,1.3a13.785,13.785,0,0,1-7.9-6.5Z" fill="#fff"/>
      <path id="Path_20569" data-name="Path 20569" d="M64.8,71.1c-4.6,1.7-9.4-.1-13-2.8-1.5-.9-2.7-2.2-4.6-2.1a5.845,5.845,0,0,0-1.9.2A36.662,36.662,0,0,1,55,73.1a13.721,13.721,0,0,1-1.8,1.6,33.978,33.978,0,0,0-9.6-7.8,8.358,8.358,0,0,0-2,.8,30.848,30.848,0,0,0-7.9,7l-1.8-1.5a31.222,31.222,0,0,1,9.8-6.9c-3.5-1.1-5.8,1.8-8.4,3.3A12.272,12.272,0,0,1,22,71.3a12.488,12.488,0,0,1-5.4-3.7c2.9,2,7.3,2.2,10.7.9,4.5-1.9,9.1-4.4,14.6-3.2.8,0,1.7.9,2.5.1a17.62,17.62,0,0,1,12,1.5L60,68.3a12.127,12.127,0,0,0,10.5-1.1,13.9,13.9,0,0,1-5.7,3.9Z" fill="#fff"/>
      <path id="Path_20570" data-name="Path 20570" d="M69.7,66.3c-5.2,1.9-10.4-.4-15.3-1.2l-1-.1h0a12.85,12.85,0,0,0,6.5-2.9c2.8-2.7,5.2-5.4,8.3-7.5-2.3,2.9-2.5,7.1-6.3,9a28.494,28.494,0,0,1-3.1,1.2c1.4,0,2.6-.5,4-.6,5.1-.8,10.9,0,14.4-4.3-1.2,2.9-4.5,5.4-7.5,6.4Z" fill="#fff"/>
      <path id="Path_20571" data-name="Path 20571" d="M79.1,51.8c-2,1.3-4.1,2.6-6.1,4.1v-.2c3-5,1.5-11.8,3.4-17.3l.7-1.8c-.4,3.4,1.1,6.3,1,9.8A11.039,11.039,0,0,1,76.2,52h.2c1.5-1.9,2.6-4,4.3-5.8,2.7-2.6,5.4-5.2,5.7-8.8,1,5.8-2.4,11.1-7.3,14.4Z" fill="#fff"/>
    </g>
    <g id="Group_12501" data-name="Group 12501">
      <path id="Path_20572" data-name="Path 20572" d="M41.1,62.5A30.787,30.787,0,0,1,12.7,34.1l1.5-.1A29.377,29.377,0,0,0,41.3,61l-.2,1.5Z" fill="#fff"/>
      <path id="Path_20573" data-name="Path 20573" d="M45.5,62.5,45.4,61A29.236,29.236,0,1,0,14.2,29.6l-1.5-.1a30.792,30.792,0,1,1,32.8,33Z" fill="#fff"/>
      <path id="Path_20574" data-name="Path 20574" d="M43.4,56.6a24.819,24.819,0,0,1-14-45.3l.8,1.2A23.892,23.892,0,0,0,20.1,31.9,23.323,23.323,0,0,0,43.4,55.2,22.883,22.883,0,0,0,58,50l.9,1.2a24.965,24.965,0,0,1-15.5,5.4Z" fill="#fff"/>
      <path id="Path_20575" data-name="Path 20575" d="M62.3,47.8l-1.1-1a22.947,22.947,0,0,0,5.5-15A23.367,23.367,0,0,0,43.4,8.6a22.3,22.3,0,0,0-9.2,1.9l-.6-1.4a25.252,25.252,0,0,1,9.8-2A24.86,24.86,0,0,1,68.2,31.9a25.548,25.548,0,0,1-5.9,15.9Z" fill="#fff"/>
      <path id="Path_20576" data-name="Path 20576" d="M43.4,50.6a18.75,18.75,0,1,1,0-37.5A18.1,18.1,0,0,1,54.8,17l-.9,1.2a17.267,17.267,0,1,0,6.8,13.7,16.987,16.987,0,0,0-3.6-10.6l1.2-.9a18.381,18.381,0,0,1,3.9,11.5A18.887,18.887,0,0,1,43.4,50.6Z" fill="#fff"/>
      <path id="Path_20577" data-name="Path 20577" d="M43.4,44.3A12.5,12.5,0,1,1,55.8,31.9,12.5,12.5,0,0,1,43.4,44.3Zm0-23.4a11,11,0,1,0,11,11A11.032,11.032,0,0,0,43.4,20.9Z" fill="#fff"/>
    </g>
    <path id="Path_20578" data-name="Path 20578" d="M43.4,39.2a7.3,7.3,0,1,1,7.3-7.3A7.341,7.341,0,0,1,43.4,39.2Zm0-12.9a5.484,5.484,0,0,0-5.5,5.5,5.5,5.5,0,1,0,5.5-5.5Z" fill="#fff"/>
    <g id="Group_12503" data-name="Group 12503">
      <circle id="Ellipse_16" data-name="Ellipse 16" cx="1.8" cy="1.8" r="1.8" transform="translate(41.6 0)" fill="#fff"/>
      <g id="Group_12502" data-name="Group 12502">
        <circle id="Ellipse_17" data-name="Ellipse 17" cx="1.8" cy="1.8" r="1.8" transform="translate(65.1 25)" fill="#fff"/>
        <circle id="Ellipse_18" data-name="Ellipse 18" cx="1.8" cy="1.8" r="1.8" transform="translate(69.8 40.1)" fill="#fff"/>
        <circle id="Ellipse_19" data-name="Ellipse 19" cx="1.8" cy="1.8" r="1.8" transform="translate(20 40.7)" fill="#fff"/>
        <circle id="Ellipse_20" data-name="Ellipse 20" cx="1.8" cy="1.8" r="1.8" transform="translate(33.3 38.4)" fill="#fff"/>
      </g>
    </g>
    <g id="Group_12504" data-name="Group 12504">
      <path id="Path_20579" data-name="Path 20579" d="M56,22.2a3.1,3.1,0,1,1,3.1-3.1A3.052,3.052,0,0,1,56,22.2Zm0-4.5a1.4,1.4,0,1,0,1.4,1.4A1.367,1.367,0,0,0,56,17.7Z" fill="#fff"/>
      <path id="Path_20580" data-name="Path 20580" d="M31.8,13.9a3.1,3.1,0,1,1,3.1-3.1A3.116,3.116,0,0,1,31.8,13.9Zm0-4.5a1.4,1.4,0,1,0,1.4,1.4A1.43,1.43,0,0,0,31.8,9.4Z" fill="#fff"/>
      <path id="Path_20581" data-name="Path 20581" d="M13.4,34.9a3.1,3.1,0,1,1,3.1-3.1A3.052,3.052,0,0,1,13.4,34.9Zm0-4.5a1.4,1.4,0,1,0,1.4,1.4A1.367,1.367,0,0,0,13.4,30.4Z" fill="#fff"/>
      <path id="Path_20582" data-name="Path 20582" d="M43.3,64.9a3.1,3.1,0,1,1,3.1-3.1A3.116,3.116,0,0,1,43.3,64.9Zm0-4.5a1.4,1.4,0,1,0,1.4,1.4A1.43,1.43,0,0,0,43.3,60.4Z" fill="#fff"/>
      <path id="Path_20583" data-name="Path 20583" d="M60.2,52.2a3.1,3.1,0,1,1,3.1-3.1A3.052,3.052,0,0,1,60.2,52.2Zm0-4.5a1.4,1.4,0,1,0,1.4,1.4A1.367,1.367,0,0,0,60.2,47.7Z" fill="#fff"/>
    </g>
    <g id="Group_12506" data-name="Group 12506">
      <g id="Group_12505" data-name="Group 12505">
        <rect id="Rectangle_11985" data-name="Rectangle 11985" width="1.5" height="21.4" transform="translate(42.6 38.3)" fill="#fff"/>
        <rect id="Rectangle_11986" data-name="Rectangle 11986" width="1.5" height="23.6" transform="translate(42.6 1.8)" fill="#fff"/>
        <rect id="Rectangle_11987" data-name="Rectangle 11987" width="21.3" height="1.5" transform="translate(15.6 31.1)" fill="#fff"/>
        <path id="Path_20584" data-name="Path 20584" d="M61.7,32.6H49.8V31.1H61.1l5.2-4.9,1,1.1Z" fill="#fff"/>
        <path id="Path_20585" data-name="Path 20585" d="M30.9,45.4l-9.2-2.1.3-1.5,8.4,2,7.9-8,1.1,1Z" fill="#fff"/>
        <rect id="Rectangle_11988" data-name="Rectangle 11988" width="9.2" height="1.5" transform="translate(47.412 26.757) rotate(-44.887)" fill="#fff"/>
        <path id="Path_20586" data-name="Path 20586" d="M38.3,27.8,30,19.5l.8-6.7,1.5.2-.8,6,7.8,7.8Z" fill="#fff"/>
        <rect id="Rectangle_11989" data-name="Rectangle 11989" width="1.5" height="15.3" transform="translate(47.407 36.989) rotate(-44.23)" fill="#fff"/>
      </g>
      <rect id="Rectangle_11990" data-name="Rectangle 11990" width="1.5" height="14.4" transform="translate(60.864 32.434) rotate(-45)" fill="#fff"/>
    </g>
    <path id="Path_20587" data-name="Path 20587" d="M43.3,35a3.1,3.1,0,1,1,3.1-3.1A3.116,3.116,0,0,1,43.3,35Z" fill="#fff"/>
  </g>
</svg>
