<svg xmlns="http://www.w3.org/2000/svg" xmlns:xlink="http://www.w3.org/1999/xlink" width="184.661" height="240.332" viewBox="0 0 184.661 240.332">
  <defs>
    <clipPath id="clip-path">
      <path id="Path_66594" data-name="Path 66594" d="M0-325.484H184.661V-85.152H0Z" transform="translate(138.3 372.195)"/>
    </clipPath>
  </defs>
  <g id="unrwa" transform="translate(-153.816 -54.178)">
    <g id="Group_63516" data-name="Group 63516" transform="translate(15.517 7.467)" clip-path="url(#clip-path)">
      <path id="Path_66553" data-name="Path 66553" d="M-.862-.626A13.516,13.516,0,0,1-1.4-4.6V-17.01c0-8.434-6.449-10.262-11.142-10.262a41.321,41.321,0,0,0-9.983,1.193v4.456c2.578-.552,5.637-1.645,9.529-1.469s4.6,2.634,4.6,5.409v.095c-4.52-.047-17.208-.205-17.111,9.682.058,5.834,4.933,8.187,9.276,8.187A16.886,16.886,0,0,0-8.25-1.87,3.053,3.053,0,0,0-7.778-.626ZM-18.129-8.288c0-5.311,5.956-5.7,9.735-5.65V-5.8a9.71,9.71,0,0,1-4.879,1.976c-1.006,0-4.856.176-4.856-4.463" transform="translate(303.547 239.058)" fill="#fff"/>
      <path id="Path_66554" data-name="Path 66554" d="M-.839,0H-7.617l.027,17.121c0,3.788-1.836,5.6-5.208,5.6-3.808,0-5.012-1.91-5.012-5.6V0h-7.016V17.532c0,6.7,4.967,9.669,11.3,9.669a19.357,19.357,0,0,0,9.295-2.282A20.02,20.02,0,0,0,5.075,27.2c6.317,0,11.289-2.964,11.289-9.669V0H9.345l.021,17.121c0,3.788-1.321,5.6-5.2,5.6-3.437-.048-5.007-1.91-5.007-5.6Z" transform="translate(257.682 211.772)" fill="#fff"/>
      <path id="Path_66555" data-name="Path 66555" d="M-.4,0A57.4,57.4,0,0,0-11.9,1.336l-.022,25.289h6.782V5.057a21.388,21.388,0,0,1,5-.511c3.885,0,5.2,1.825,5.2,5.605L5.047,26.625h7.025V9.739C12.073,3.022,6.931,0-.4,0" transform="translate(198.085 211.79)" fill="#fff"/>
      <path id="Path_66556" data-name="Path 66556" d="M-.436-.639A57.5,57.5,0,0,0,11.057-1.973l.022-25.861H4.3V-5.7A21.4,21.4,0,0,1-.71-5.192c-3.879,0-5.2-1.816-5.2-5.6l.029-17.038h-7.025v17.449c0,6.712,5.135,9.746,12.47,9.746" transform="translate(169.358 239.607)" fill="#fff"/>
      <path id="Path_66557" data-name="Path 66557" d="M-.436,0c-7.321,0-12.47,3.022-12.47,9.739V26.625h7.015L-5.9,10.482c0-5.7,3.483-6.134,6.741-5.813V.031C.348.011-.088,0-.436,0" transform="translate(228.454 211.79)" fill="#fff"/>
      <path id="Path_66558" data-name="Path 66558" d="M-1.416-.217c0,4.852-2.525,5.883-5.287,5.887H-28.146c.007-.075.013-.157.013-.234V-9.451h-7.016L-35.137,4.7c0,5.706-3.49,6.128-6.74,5.811v4.648c.494.016.925.021,1.268.021,5.258,0,9.391-1.563,11.306-4.921H-6.888C.44,10.258,5.58,7.223,5.58.512V-9.451H-1.434Z" transform="translate(232.836 261.94)" fill="#fff"/>
      <path id="Path_66559" data-name="Path 66559" d="M0-.184c0,9.011,11.451,7.976,15.6,7.6-.1,2.537-.966,4.689-4.588,4.853-3.891.176-6.951-.918-9.527-1.483v4.466a40.917,40.917,0,0,0,9.975,1.2c4.693,0,11.143-1.83,11.143-10.263V-7.5c-4.065-.314-8.1-.517-10.33-.517C5.614-8.016,0-6.959,0-.184M15.611-4.107V3.738c-3.478.277-9.017.413-9.017-3.922s5.538-4.2,9.017-3.923" transform="translate(242.931 260.437)" fill="#fff"/>
      <path id="Path_66560" data-name="Path 66560" d="M0-.184C0,8.828,11.453,7.78,15.6,7.42c-.105,2.537-.96,4.689-4.6,4.853-3.9.176-6.95-.918-9.521-1.483v4.466a40.871,40.871,0,0,0,9.975,1.2c4.694,0,11.144-1.83,11.144-10.263V-7.5c-4.067-.314-8.1-.517-10.331-.517C5.6-8.016,0-6.959,0-.184M15.6-4.107V3.738c-3.471.277-9.018.413-9.018-3.922s5.548-4.2,9.018-3.923" transform="translate(167.322 260.437)" fill="#fff"/>
      <path id="Path_66561" data-name="Path 66561" d="M0,0,.014,25.7H7.009V0Z" transform="translate(295.291 246.42)" fill="#fff"/>
      <path id="Path_66562" data-name="Path 66562" d="M0-.6H7V-26.34H-.012Z" transform="translate(156.464 272.76)" fill="#fff"/>
      <path id="Path_66563" data-name="Path 66563" d="M-.465-.366c0,3.782-1.321,5.6-5.2,5.6h-8.092V9.791H-5.94C1.391,9.791,6.531,6.757,6.531.039v-16H-.487Z" transform="translate(283.567 262.378)" fill="#fff"/>
      <path id="Path_66564" data-name="Path 66564" d="M-.084-.438C2.94-.457,4.3-1.667,4.3-4.959V-19.1h-6.77V-.438Z" transform="translate(273.427 265.525)" fill="#fff"/>
      <path id="Path_66565" data-name="Path 66565" d="M-.28-.079c0,1.849-1.793,3.342-4,3.342S-8.29,1.77-8.29-.079-6.5-3.431-4.283-3.431s4,1.507,4,3.352" transform="translate(239.118 246.381)" fill="#fff"/>
      <path id="Path_66566" data-name="Path 66566" d="M-.68,0C-2.2.023-4.018,1.247-5.884,2.188a29.06,29.06,0,0,0-8.3,5.643c-3.495,3.714-4.956,10.31-5.9,13.707-.162.57,1.449-.788,3.862-2.994a51.277,51.277,0,0,0,7.188-7.668C-5.449,5.908-4.21,4.155-.68,0" transform="translate(185.392 60.467)" fill="#fff"/>
      <path id="Path_66567" data-name="Path 66567" d="M-.408,0C-2.277.786-3.854,3.436-5.1,6.921c-.484,1.375-.786,3.451-1.228,4.722a53.7,53.7,0,0,0-1.3,5.5c-.6,2.465-1.315,4.638-1.9,6.465a23.77,23.77,0,0,1,3.869-5.984,27.588,27.588,0,0,1,4.449-3.8,16.421,16.421,0,0,0,2.935-2.1C3.1,10.159,5.261,8.458,6.464,6.947,7.4,5.764,7.569,4.6,7.553,5.009a18.361,18.361,0,0,1-.71,4.811,18.3,18.3,0,0,1-2.076,3.725A17.2,17.2,0,0,1,.526,18.5c-2.988,2.552-5.559,4.788-6.49,5.479a24.027,24.027,0,0,0-4.839,5.5c-.554.849-.751,1.665-.757,1.121-.007-2.408-.563-5.853-.519-12.183A25.4,25.4,0,0,1-10.21,8.33a15.557,15.557,0,0,1,3.038-4.2C-5.19,1.981-2.859.114-.408,0" transform="translate(169.768 68.489)" fill="#fff"/>
      <path id="Path_66568" data-name="Path 66568" d="M-.226,0a25.637,25.637,0,0,0-1.3,4.783A35.914,35.914,0,0,0-1.674,11c.087,2.823.878,5.583,1.013,8.413A104.628,104.628,0,0,1-.894,30.389a27.936,27.936,0,0,1,2.32-6.995,20.547,20.547,0,0,1,3.9-5.464c2.99-2.927,5.99-6.173,7.806-7.659A29.412,29.412,0,0,1,10.7,19.046a34.674,34.674,0,0,1-5.329,7.7,23.505,23.505,0,0,0-2.586,3.991A44.515,44.515,0,0,0,.152,35.579a27.977,27.977,0,0,0-1.226,4.092c-.921-2.528-1.084-4.9-1.786-7.144-.89-2.82-2.391-5.418-3.013-8.879a29.752,29.752,0,0,1-.791-6.389A29.941,29.941,0,0,1-5.438,9.277C-4.924,7.909-1.535.773-.226,0" transform="translate(156.626 79.806)" fill="#fff"/>
      <path id="Path_66569" data-name="Path 66569" d="M-.67-.092c0,1.384.308,2.645.233,3.9A60,60,0,0,1-3.421,18.82c-.993,3.34-2.726,6.623-2.726,11.478,0,4.253.4,7.058.044,6.276A49.145,49.145,0,0,0-10.546,30.3c-3.675-4.46-6.258-7.245-7.9-13.2A36.606,36.606,0,0,1-19.618,3.649a36.006,36.006,0,0,1,1.89-7.511,24.265,24.265,0,0,0,.157,5.747c.29,1.616,1.239,3.472,1.779,5.472.7,2.66,2.484,4.833,3.541,7.609s1.4,6.144,1.972,8.257A36.789,36.789,0,0,0-8.789,28.4c-.052-1.879-.582-3.5-.645-5.041a22.334,22.334,0,0,1,1.983-9.942C-6.5,11.1-5,9.516-3.857,7.338-2.49,4.737-.67,2.51-.67-.092" transform="translate(165.886 105.216)" fill="#fff"/>
      <path id="Path_66570" data-name="Path 66570" d="M-.007-.036C.831,2.037,1.474,5.117,3.831,8.221,6.674,11.966,11.4,15.839,14.224,19.33c1.389,1.73,2.228,3.609,3.141,4.939A28.543,28.543,0,0,0,19.633,26.9c.738.982-3.024-4.2-3.286-10.143C16.137,12.106,17.771,6.4,17.859,4.36c.169-3.861.46-7.051.867-5.57A58.669,58.669,0,0,1,20.7,5.939,77.681,77.681,0,0,1,22.04,17.072a41.04,41.04,0,0,0,1.518,11.681,37.839,37.839,0,0,0,2.472,5.731c.664,1.362-14.39-8.516-17.972-12.454C4.162,17.749.98,13.317-.044,7.3-.456,4.91.043,2.566-.007-.036" transform="translate(146.259 126.308)" fill="#fff"/>
      <path id="Path_66571" data-name="Path 66571" d="M-.641,0A33.206,33.206,0,0,1,2.75,4.5a39.337,39.337,0,0,1,3.984,6.324c1.645,3.541,2.762,7.642,4.461,11.965a30.813,30.813,0,0,0,3.244,6.636c1.705,2.236,3.42,3.953,3.246,4.007a11.532,11.532,0,0,0-3-.965C9.195,31.4,5.274,31.015,1.738,29.95c-4.4-1.324-8.17-3.818-13.533-8.939-4.882-4.66-7.4-13.573-7.15-13.38.675.513,2.246,4.053,7.155,8,1.751,1.419,4.222,2.2,6.549,3.391a84.36,84.36,0,0,1,8.508,4.747c1.583,1.056,3.118,2.441,4.869,3.607,1.744,1.188,3.036,1.718,3.187,1.905,1.047,1.248-2.966-2.116-5.416-6.174A22.909,22.909,0,0,1,3.2,17.736c-.99-3.42-1.094-7.282-1.831-10.8A65.62,65.62,0,0,0-.641,0" transform="translate(170.563 141.125)" fill="#fff"/>
      <path id="Path_66572" data-name="Path 66572" d="M-.614,0c2.257,1.748,5.42,4.335,9.04,7.674,1.7,1.576,3.156,3.431,4.971,5.089a45.7,45.7,0,0,0,5.13,3.787c2.886,1.94,5.334,2.263,7.933,2.906.413.1-.739.257-2.977.929a68.062,68.062,0,0,1-10.137,2.576,50.758,50.758,0,0,1-9.5.942,26.316,26.316,0,0,1-15.882-5.494,29.46,29.46,0,0,1-6.126-7.035,35.957,35.957,0,0,0,11,5.17c3.459.9,7.509.641,11.7,1.111,1.4.155,3.175.118,4.594.33,2.711.424,5.036,1.118,7.375,1.083.023,0-5.439-1.23-9.061-4.71C2.789,9.878.737,2.816-.614,0" transform="translate(182.668 158.787)" fill="#fff"/>
      <path id="Path_66573" data-name="Path 66573" d="M0-.129A38.624,38.624,0,0,0,4.222,3.662C16.348,12.2,26.439,7.179,33.46,2.357,36.4.334,37.908-1.224,40.253-2.254A10.6,10.6,0,0,1,44.1-3.325,19.012,19.012,0,0,1,52.757-1.39a64.159,64.159,0,0,1,8.3,5.753,84.148,84.148,0,0,1,8.991,8.852c.194.222,3.757-2.86,3.644-2.954-2.577-1.946-4.783-4.376-7.416-6.493A60.48,60.48,0,0,0,59.6-.606a30.737,30.737,0,0,0-7.1-3.137,31.689,31.689,0,0,0-7.014-1.592c-4.036-.382-8.253-.683-12.156.975L18.058,2.1c-2.72-.407-5.9,1.188-8.619.783A30.734,30.734,0,0,1,0-.129" transform="translate(178.21 183.766)" fill="#fff"/>
      <path id="Path_66574" data-name="Path 66574" d="M0,0C1.525.023,3.342,1.247,5.211,2.188A29.074,29.074,0,0,1,13.5,7.831c3.5,3.714,4.955,10.31,5.9,13.707.175.57-1.437-.788-3.848-2.994a51.357,51.357,0,0,1-7.2-7.668C4.761,5.908,3.53,4.155,0,0" transform="translate(274.42 60.467)" fill="#fff"/>
      <path id="Path_66575" data-name="Path 66575" d="M-.278,0C1.587.786,3.171,3.436,4.411,6.921c.494,1.375.783,3.451,1.232,4.722.627,1.813.879,3.763,1.3,5.5.591,2.465,1.308,4.638,1.888,6.465a23.793,23.793,0,0,0-3.873-5.984,27.221,27.221,0,0,0-4.437-3.8,16.44,16.44,0,0,1-2.949-2.1c-1.367-1.562-3.531-3.263-4.722-4.775C-8.089,5.764-8.253,4.6-8.228,5.009a17.01,17.01,0,0,0,.7,4.811,17.932,17.932,0,0,0,2.078,3.725A17.261,17.261,0,0,0-1.219,18.5c3,2.552,5.558,4.788,6.49,5.479a23.807,23.807,0,0,1,4.833,5.5c.563.849.779,1.665.779,1.121,0-2.408.554-5.853.5-12.183A24.948,24.948,0,0,0,9.516,8.33a15.465,15.465,0,0,0-3.036-4.2C4.5,1.981,2.168.114-.278,0" transform="translate(290.057 68.489)" fill="#fff"/>
      <path id="Path_66576" data-name="Path 66576" d="M-.468,0a26.638,26.638,0,0,1,1.3,4.783A34.947,34.947,0,0,1,.966,11c-.086,2.823-.86,5.583-1,8.413A107,107,0,0,0,.189,30.389a27.347,27.347,0,0,0-2.317-6.995,20.183,20.183,0,0,0-3.907-5.464C-9.018,15-12.02,11.758-13.828,10.272A29.156,29.156,0,0,0-11.4,19.046a35.391,35.391,0,0,0,5.316,7.7,22.486,22.486,0,0,1,2.586,3.991A43.232,43.232,0,0,1-.847,35.579,27.445,27.445,0,0,1,.375,39.671c.925-2.528,1.085-4.9,1.79-7.144.891-2.82,2.389-5.418,3.008-8.879a29.513,29.513,0,0,0,.8-6.389A29.739,29.739,0,0,0,4.737,9.277C4.223,7.909.839.773-.468,0" transform="translate(303.206 79.806)" fill="#fff"/>
      <path id="Path_66577" data-name="Path 66577" d="M-.008-.092c0,1.384-.3,2.645-.233,3.9A61.434,61.434,0,0,0,2.736,18.82c.99,3.34,2.721,6.623,2.721,11.478,0,4.253-.4,7.058-.028,6.276A49.555,49.555,0,0,1,9.868,30.3c3.674-4.46,6.257-7.245,7.908-13.2A36.339,36.339,0,0,0,18.945,3.649a35.282,35.282,0,0,0-1.9-7.511,22.433,22.433,0,0,1-.153,5.747c-.3,1.616-1.237,3.472-1.772,5.472-.7,2.66-2.485,4.833-3.544,7.609s-1.413,6.144-1.963,8.257a37.3,37.3,0,0,1-1.5,5.177c.052-1.879.571-3.5.645-5.041a22.372,22.372,0,0,0-1.987-9.942c-.943-2.32-2.444-3.9-3.6-6.08C1.818,4.737-.008,2.51-.008-.092" transform="translate(293.923 105.216)" fill="#fff"/>
      <path id="Path_66578" data-name="Path 66578" d="M-.912-.036c-.839,2.073-1.49,5.153-3.85,8.257-2.84,3.745-7.566,7.618-10.389,11.109-1.389,1.73-2.222,3.609-3.14,4.939A28.14,28.14,0,0,1-20.553,26.9c-.732.982,3.024-4.2,3.286-10.143.207-4.649-1.427-10.354-1.52-12.395-.162-3.861-.46-7.051-.865-5.57a60.5,60.5,0,0,0-1.973,7.15,78.8,78.8,0,0,0-1.35,11.133,41.1,41.1,0,0,1-1.5,11.681,39.678,39.678,0,0,1-2.476,5.731c-.67,1.362,14.389-8.516,17.964-12.454,3.9-4.281,7.079-8.713,8.107-14.729C-.465,4.91-.972,2.566-.912-.036" transform="translate(313.799 126.308)" fill="#fff"/>
      <path id="Path_66579" data-name="Path 66579" d="M-.641,0A33.156,33.156,0,0,0-4.02,4.5a39.052,39.052,0,0,0-3.99,6.324c-1.65,3.541-2.774,7.642-4.461,11.965a30.1,30.1,0,0,1-3.251,6.636c-1.7,2.236-3.407,3.953-3.233,4.007a11.263,11.263,0,0,1,2.977-.965c5.514-1.069,9.434-1.451,12.966-2.516,4.385-1.324,8.156-3.818,13.527-8.939,4.885-4.66,7.4-13.573,7.148-13.38-.669.513-2.247,4.053-7.154,8-1.752,1.419-4.216,2.2-6.538,3.391a83.757,83.757,0,0,0-8.515,4.747c-1.581,1.056-3.128,2.441-4.862,3.607-1.744,1.188-3.042,1.718-3.2,1.905-1.035,1.248,2.965-2.116,5.419-6.174a23.031,23.031,0,0,0,2.716-5.374c.986-3.42,1.09-7.282,1.815-10.8A66.061,66.061,0,0,1-.641,0" transform="translate(289.85 141.125)" fill="#fff"/>
      <path id="Path_66580" data-name="Path 66580" d="M-.95,0C-3.2,1.748-6.364,4.335-9.987,7.674c-1.694,1.576-3.148,3.431-4.975,5.089a45.949,45.949,0,0,1-5.116,3.787c-2.9,1.94-5.347,2.263-7.934,2.906-.415.1.731.257,2.971.929a68.461,68.461,0,0,0,10.134,2.576,50.9,50.9,0,0,0,9.513.942,26.346,26.346,0,0,0,15.878-5.494A29.092,29.092,0,0,0,16.6,11.374a35.656,35.656,0,0,1-11,5.17c-3.455.9-7.507.641-11.695,1.111-1.386.155-3.174.118-4.589.33-2.711.424-5.043,1.118-7.374,1.083A21.911,21.911,0,0,0-9,14.357C-4.352,9.878-2.286,2.816-.95,0" transform="translate(278.026 158.787)" fill="#fff"/>
      <path id="Path_66581" data-name="Path 66581" d="M-2.578-.129A37.668,37.668,0,0,1-6.8,3.662C-18.921,12.2-29,7.179-36.039,2.357c-2.945-2.023-4.455-3.581-6.793-4.612a10.6,10.6,0,0,0-3.845-1.071A19,19,0,0,0-55.331-1.39a64.038,64.038,0,0,0-8.3,5.753,86.564,86.564,0,0,0-8.986,8.852c-.192.222-3.751-2.86-3.641-2.954,2.583-1.946,4.775-4.376,7.41-6.493A61.368,61.368,0,0,1-62.178-.606a31.117,31.117,0,0,1,7.109-3.137,31.5,31.5,0,0,1,7-1.592c4.048-.382,8.26-.683,12.161.975L-20.637,2.1c2.728-.407,5.9,1.188,8.623.783A30.653,30.653,0,0,0-2.578-.129" transform="translate(283.5 183.766)" fill="#fff"/>
      <path id="Path_66582" data-name="Path 66582" d="M-2.062,0C-34.568,0-61.008,26.74-61.008,59.612s26.44,59.609,58.946,59.609S56.9,92.482,56.9,59.612,30.444,0-2.062,0m.3,1.453A56.971,56.971,0,0,1,38.353,18.269l-7.293,7.384A46.777,46.777,0,0,0-1.761,11.895ZM15.63,43.291l6.125-6.19a33.067,33.067,0,0,1,8.812,22.511c0,.086-.007.165-.007.246H21.893c0-.081.006-.16.006-.246A24.29,24.29,0,0,0,15.63,43.291M30.53,61.3a33.1,33.1,0,0,1-9.717,21.816l-6.126-6.2A24.292,24.292,0,0,0,21.836,61.3ZM19.778,84.1A32.3,32.3,0,0,1-1.761,92.6V83.83a23.734,23.734,0,0,0,15.4-5.939Zm1,1.025L29.071,93.5A45.317,45.317,0,0,1-1.761,105.89V94.038a33.763,33.763,0,0,0,22.544-8.912m1.041-1A34.521,34.521,0,0,0,31.95,61.3H43.668A46.4,46.4,0,0,1,30.1,92.511ZM31.991,59.859c0-.081,0-.16,0-.246A34.506,34.506,0,0,0,22.76,36.078L31.05,27.7A46.422,46.422,0,0,1,43.709,59.612c0,.086-.006.165-.006.246ZM-1.761,13.336A45.362,45.362,0,0,1,30.055,26.67l-8.289,8.377A33.691,33.691,0,0,0-1.761,25.189Zm0,13.289a32.319,32.319,0,0,1,22.52,9.442l-6.126,6.194A23.754,23.754,0,0,0-1.761,35.4ZM-59.577,59.612c0-31.69,25.189-57.527,56.392-58.142V11.913A46.81,46.81,0,0,0-35.591,26.068l-7.05-7.127-1.006,1.018,7.067,7.148a47.865,47.865,0,0,0-12.678,32.5c0,.086.006.165.006.246H-59.57c-.007-.081-.007-.16-.007-.246m23.474.246H-47.822c0-.081-.007-.16-.007-.246A46.4,46.4,0,0,1-35.567,28.131l8.286,8.377a34.531,34.531,0,0,0-8.829,23.1c0,.086.007.165.007.246m.035,1.44a34.546,34.546,0,0,0,9.713,22.41l-8.282,8.376A46.4,46.4,0,0,1-47.788,61.3Zm1.431,0h8.69a24.315,24.315,0,0,0,6.729,15.2l-6.125,6.194A33.031,33.031,0,0,1-34.638,61.3M-26,59.859h-8.671c0-.081-.006-.16-.006-.246a33.09,33.09,0,0,1,8.4-22.086l6.141,6.218a24.306,24.306,0,0,0-5.88,15.868c0,.086.007.165.012.246m.71-23.379A32.354,32.354,0,0,1-3.185,26.651V35.42a23.834,23.834,0,0,0-15.983,7.256ZM-26.3,35.461l-8.288-8.377A45.389,45.389,0,0,1-3.185,13.36V25.205A33.776,33.776,0,0,0-26.3,35.461M-59.536,61.3h10.316A47.86,47.86,0,0,0-35.643,93.1l-7.3,7.384A58.284,58.284,0,0,1-59.536,61.3m56.35,56.454a56.982,56.982,0,0,1-38.735-16.26l7.294-7.385a46.736,46.736,0,0,0,31.441,13.2Zm0-11.881A45.389,45.389,0,0,1-33.619,93.093l8.294-8.381a33.7,33.7,0,0,0,22.14,9.3Zm0-13.3A32.3,32.3,0,0,1-24.32,83.7l6.125-6.2a23.744,23.744,0,0,0,15.01,6.3Zm0-21.133V82.368a22.306,22.306,0,0,1-14-5.893l7.638-7.721a10.826,10.826,0,0,1-1.03-.994l-7.624,7.717A22.825,22.825,0,0,1-24.517,61.3h10.841a11.747,11.747,0,0,1-.123-1.44H-24.577c0-.081,0-.16,0-.246a22.8,22.8,0,0,1,5.461-14.846l7.658,7.747a13.489,13.489,0,0,1,.927-1.11l-7.625-7.7A22.359,22.359,0,0,1-3.185,36.86V47.785c.366-.036.744-.06,1.123-.06.1,0,.2.011.3.019v-10.9A22.339,22.339,0,0,1,13.63,43.28L6,50.989a10.621,10.621,0,0,1,.981,1.047l7.645-7.727a22.863,22.863,0,0,1,5.85,15.3c0,.086-.006.165-.006.246H9.681a12.781,12.781,0,0,1-.124,1.44H20.405a22.847,22.847,0,0,1-6.724,14.6L6.05,68.19a13.287,13.287,0,0,1-1.087.933l7.661,7.752A22.291,22.291,0,0,1-1.761,82.389V71.482c-.1.007-.2.02-.3.02-.379,0-.757-.023-1.123-.059m1.424,46.332V107.337A46.74,46.74,0,0,0,30.078,94.521l7.3,7.382A56.965,56.965,0,0,1-1.761,117.775m40.169-16.864-7.295-7.386A47.839,47.839,0,0,0,45.089,61.3H55.04v-1.44H45.123c0-.081.013-.16.013-.246A47.834,47.834,0,0,0,32.054,26.687L39.348,19.3A58.265,58.265,0,0,1,55.465,59.612a58.326,58.326,0,0,1-17.057,41.3" transform="translate(231.389 55.044)" fill="#fff"/>
      <path id="Path_66583" data-name="Path 66583" d="M-.163-.073c.919,0,3.269.229,4-.114,1.778-.874,2.524-1.507.127-2.433C1.844-3.434,1.094-3.2-1.14-2.855-2.4-2.682-2.972-1.523-4.17-1.523c-.8,0-.867,1.214-.234,1.679C-3.024,1.2-.109.621-.163-.073" transform="translate(236.556 65.274)" fill="#fff"/>
      <path id="Path_66584" data-name="Path 66584" d="M-.033,0C-1.108,0-1.219.559-.584,1.348c.813,1.024,2.7,2.32,2.728,2.013.051-.475-.27-1.435.108-2.144C2.414.938,1.788.62.88.373.584.293.437,0-.033,0" transform="translate(256.416 69.198)" fill="#fff"/>
      <path id="Path_66585" data-name="Path 66585" d="M-.154,0A12.169,12.169,0,0,0-3.161.49c-.443.132-1.1-.018-1.121.35l-.28,5.613C-4.6,7.362-3.185,7.53-2.988,7.88c.133.211-.137.534-.137.85,0,.523.408,1.348.436,2.078s-.325,1.357.059,1.752c.1.113,1.242-1.067,2.128-1.4.4-.161.755.4.949.4.546,0,1.534,1.769,1.6,2.208.105.741-.446,1.344-.377,1.85.157,1.29,1.046,1.892,2.738,2.109.8.109,1.007.956,1.467,1.589.761,1.043,1.674,2,3.252,1.794.773-.1,1.993,1.8,2.586,2.759.606.994.885,1.709,1.8,1.954.418.111.958-.4,1.727-.1,2,.785,2.693.994,2.432-1.3-.4-3.535-1.733-4.6-2.49-5.908a29.732,29.732,0,0,0-5.113-6.433c-1.9-1.977-3.495-5.348-4.454-7.691-.267-.639-.815-.777-1.162-1.186A5.443,5.443,0,0,0,2.1,1.28C1.857,1.208,1.817.8,1.23.565A6.3,6.3,0,0,0-.154,0" transform="translate(254.915 71.176)" fill="#fff"/>
      <path id="Path_66586" data-name="Path 66586" d="M-.057-.041C-.308-.42-1.778-2.107-1.681-1.751l1.194,4.2c.243.873-.095,2.491.105,2.839.119.207-.3.575-.147.845C.7,8.293.9,7.277,2.1,8.565a1.426,1.426,0,0,0,.948.405c.547,0,1.532,1.771,1.587,2.208.049.346,1.821,2.029,2.729,3.92.446.954-.716,2.158-.56,2.959S8.4,19.275,8.538,19.4A9.317,9.317,0,0,1,11.1,22.592a5.543,5.543,0,0,1-.037,2.724c-.454,2.425-3.284,4.123-1.9,4.137,1.414.012,3.553-1.886,4.321-4.488.37-1.265-.081-2.7-.123-4.175-.006-.335.452-1.159.418-1.494a5.424,5.424,0,0,0-.992-2.584c-.35-.378-.869-.16-1.148-.655-.255-.439.768-1.246.677-1.482-.276-.609-1.049-.018-1.236-.673-.075-.241.768-.764.692-1.216-.046-.2-.725-.243-.977-.5-.267-.289-1.447.891-1.78.7-.488-.289-.192-1.171-.686-1.625a15.371,15.371,0,0,1-3.5-4.868A23.3,23.3,0,0,0,3.28,3.156c-.179-.2-.186-.817-.344-.959-.673-.655-1.268-.315-1.743-.822A15.146,15.146,0,0,1-.057-.041" transform="translate(250.043 82.253)" fill="#fff"/>
      <path id="Path_66587" data-name="Path 66587" d="M-.5-.421c0-.4-.053-.951-.577-1.094-.539-.152-1.577.1-2.245-.027-2.226-.418-4.779-.84-5.5-1.612l-2.815-3.037c-1.17-1.259-3.054-2.525-3.152-4.467-.036-.649-.007-.548.612-1.47.277-.42.127-1.051.452-1.577.437-.693,1-.421,1.615-1.032,1.042-1.012,2.6-3.442,3.485-2.576l.685.667,1.38.121,1.186-.706,1.92-.033C-2.6-17.277-.849-15.446.24-15.636c1.022-.178,1.21-.948,2.045-1.6a5.83,5.83,0,0,1,3.182-1.1c.716.06,1.495.95,2.2,1.178,1.144.4,2.186.272,3.158.959,2,1.414,3.651,3.143,5.984,3.667.638.143.034,1.228.105,2.125a1.2,1.2,0,0,0,1.11,1.09,2.158,2.158,0,0,1,1.343.647A1.841,1.841,0,0,1,20.2-7.042c0,.936-1.261,1.04-1.778,2.769-.182.588.847.908.847,1.914a12.475,12.475,0,0,1-1.244,3.891c-.71,1.739-2.139,3.051-3.321,4.735a9.5,9.5,0,0,1-4.041,3.493c-1.077.428-2.031.71-2.929.156C6.236,9,4.874,6.7,3.32,5.76,2.268,5.122,1.594,4.381.786,3.813S-1.75,2.242-1.092.838Z" transform="translate(235.347 153.35)" fill="#fff"/>
      <path id="Path_66588" data-name="Path 66588" d="M-.1-.032A10.917,10.917,0,0,1,.616,1.889C1.128,3.264,1.773,4.337.494,4.558-.529,4.751-.651,6.48-1.356,6.412a1.556,1.556,0,0,1-1.121-.679c-.839-.753-.449-2.1-.025-4.034.112-.532.331-1.58.529-2.259.3-1,.709-1.367,1.872.529" transform="translate(260.734 140.802)" fill="#fff"/>
      <path id="Path_66589" data-name="Path 66589" d="M-.372-.205c-.1.247-2.1-.328-4.18-.467C-4.844-.7-5.071-2-5.373-1.932c-1.064.222-.815.722-1.722,1.2-1.059.548-2.267-.756-2.9.141a5.148,5.148,0,0,0-.977,3.54c.2,1.445.073,2.637,1.284,3.861.832.85.536-.061,1.653.826.389.287.407.829.832,1.138.487.367,1.07-.431,1.61-.063.46.315.843.787,1.308,1.1.791.529,1.606.836,2.448,1.378.564.356-.33.869.246,1.231.7.425,1.2,1,1.954,1.42.331.182.511-.566.855-.392.557.288.359,1.121.941,1.414.448.225.6.908,1.065,1.115.628.291,3.2,3.188,3.862,3.43,2.046.758,2.477-.431,3.972-.718.8-.157,1.262,1.179,2.3,1.312.914.107,2.409-1,3.026-1a18.914,18.914,0,0,0,3.844-.374c1.088-.7.169-.208,0-2.318-.2-2.678-3.728-2.505-5.193-6.148-.308-.764,1.826-1.4,1.5-2.193-.465-1.157-1.065-2.02-1.606-3.169-.459-.956.291-3.068-.2-3.994-.966-1.779-.367-5.217-2.036-5.757C12-5.172,11.429-8.74,10.685-8.939c-.621-.185-.268,3.308-.908,3.321-1.418.028-3.309-3.272-4.8-3.137A6.225,6.225,0,0,0,1.083-5.968C.332-4.69.088-1.408-.372-.205" transform="translate(187.834 127.799)" fill="#fff"/>
      <path id="Path_66590" data-name="Path 66590" d="M-.03-.516c0-1.112,1.815-1.14,2.56-.886.622.2.139-.787.215-1.394.1-.938.727-4.6,1.592-5.11A3.531,3.531,0,0,1,6.9-7.74c1.273.722.074,3.711.286,5.148.237,1.53-2.206.564-1.3,1.014.466.239-.529-1.332-1.4-.745-.272.191-.063.745-.11,1.256S4.03-.081,4.715.2c.234.107-1.978.258-1.674.344.808.217.273,1.626,1.588,1.73.482.033.627-1.081.809-1.609.277-.839-.275-1.1.3-1.1a2.162,2.162,0,0,1,.75.043c.373.054,1.016.059,1.43.14C9.461.031,11.068.031,12.336.4c.464.127.179.6.325.838a1.062,1.062,0,0,0,1.238.2c.542-.239.28.526.612,1.448.123.341.249,1.143,1.4.775.313-.1-.815-.981.291-1.26.221-.058.215,2.465,1.2,2.465,1.606,0,1.534-1.272,1.6-2.15.056-.824,1.272.477,1.934.138,1.263-.643,1.112-1.4,1-3.149-.029-.425.751.579.984.138s.307-1.257.7-1.975c.309-.554.973-1,.937-1.527-.044-.724-1.286-.747-1.67-1.164-.476-.519-.087-1.065-.129-1.644a3.116,3.116,0,0,1,.936-2.616c1.006-.854,2.212-2.346,3.095-2.46.7-.092,1.216.294,1.815-.706.592-.983-.186-1.557-.064-3.017.076-1.005.615,1.282,1.278,2.191.85,1.176,1.908,1.2,1.949,1.005.023-.1.615-.69.965-.48.658.374,1.268,2.162,2.344,2.933a4.47,4.47,0,0,1,.63,1.82c.08.347-1.17,1.226-1.087,1.534a1.043,1.043,0,0,0,.976.675c.243.029.714.717.946,1.613.274,1.149.293,2.53.472,2.2.153-.279.8,1.7-.186,2.264-.727.413-2.937.732-3.478,1.106C31.365,2.907,32.087,3.943,32.266,3.9a7.149,7.149,0,0,1-2.013.862A11.769,11.769,0,0,1,26.8,4.39c.831.23,2.423,2.236,2.442,4.385.024,1.558-.46,3.209.71,3.484a10.98,10.98,0,0,0,3.163-.322c2.623-.46,5.782-1.266,6.031-1.873s1.129-.652,1.512-.8c.712-.278,1.036-.393,1.134.3.086.56-.751.54-.931.668-.489.316-1.189-.024-4.238.941A32.017,32.017,0,0,1,32.115,12a24.594,24.594,0,0,0-4.047.774c-.425.143.034.6-.278.77-1.191.637-.5,2.04-.583,2.156-.134.184-.144,1.562,1.635.769,1.215-.54,4.116-3.27,5.087-3.475.664-.139.822.717,1.085.827.522.211.823.747,1.435.812.285.021.268-.934.558-.908.537.039,1.228.807,1.733.746.291-.025.26-.9.529-.945a4.24,4.24,0,0,0,2.314-.989c.553-.625,1.53.018,1.658.236.337.625-1.419,1.926-1.007,2.491.449.615,1.565-.062,2.786,0s2.513.872,3.594.815c1.455-.086,2.512.958,3.42.554.307-.14,1.029-3.71,1.244-4.031.958-1.39,1.011-4.1-.727-4.608-.752-.214-1.473,1.8-2.913,2.543-.663.336-1.705-.126-2.545-.234-.441-.057.88-.025,1.282-.157a13.161,13.161,0,0,1,1.389-.6,9.7,9.7,0,0,0,3.042-2.2c.809-.805,1.2-1.7,1.5-1.822.433-.162.9.35,1.3.242.246-.069.42-.8.67-.809,5.753-.3,8.7-.342,10.342-1.078,2.029-.913-.554-2.469-2.1-2.753-.438-.078-1.671,1.743-1.579,1.694.466-.256-.632-1.464-2.041-2.958a18.047,18.047,0,0,1-1.652-2.475c-.186-.277-.638-.212-.751-.547-.377-1.208,2.155-2.292,1.861-4.26-.21-1.4-1.034-.686-1.1-2.591-.073-1.69-.339-1.976.818-2.36,1.226-.409.89-1.422,1.309-1.982.26-.319-1.036-1.4-2.567-1.8-.585-.157-1.331.679-1.853.694s-.834-.808-.857-.958a3.287,3.287,0,0,0-.907-2.442c-.209-.193-.727-.922-1.414-1.042-1.157-.213-2.832.188-4.554-.313A34.975,34.975,0,0,1,44.172-22.5c-.279-.127-1.785,1.356-1.78,2.251.013.695,1.535.856,1.459.8-.428-.4-2.268.932-3.786,2.346-1.035.972-1.942,2.362-2.271,2.166-1.108-.678-1.61-1.569-1.871-1.58-.791-.046-1.722.447-1.6.292a23.016,23.016,0,0,1,2.6-1.911c.647-.561.694-1.1,1.054-1.231.783-.277.063-1.162-.251-1.61-.244-.351.192-.943-.378-.851-1,.161-2.8,2.145-3.1,2.041A15.289,15.289,0,0,0,27.312-20c-.82.254-.733-1.136-1.157-.983-2.262.793-.478,1.815-1.8,3.081a3.523,3.523,0,0,1-2.006.651c-.332,0-.676-.229-.826-.186-.774.2-.891-.826-1.408-.639-.884.314-.191.83-.8.674-.686-.168-.244-.932-.373-1.506-.063-.346-.627-.584-.958-.706a19.618,19.618,0,0,1-3.391-1.336c-.378-.177-1.262-.682-1.831-.408-.729.346-1.182,1.553-1.936,2.019-.711.432-1.211.265-1.821.8-.622.579-.879,1.387-1.338,1.821-1.152,1.112-1.954-.027-2.216,1.5A1.663,1.663,0,0,1,4.774-14.1c-.541.3-.809-.214-1.391.165-.454.293-.709,1.064-.877,1.2C1.419-11.853,1.383-9.673,1.256-8.1c-.147,1.583-.96,3-1,4.257A10.728,10.728,0,0,0-.791-1.857,6.075,6.075,0,0,0-.716.8c.22.83.366.942.465.716A7.937,7.937,0,0,0-.03-.516" transform="translate(198.689 119.522)" fill="#fff"/>
      <path id="Path_66591" data-name="Path 66591" d="M-.1-.046C.025-.489-.255-1.22.059-1.5a3.862,3.862,0,0,1,3.547-.165A1.943,1.943,0,0,1,4.67.143a8.616,8.616,0,0,1-1.1,2.412c-.437.861-.368,1.9-.93,2.309-.42.3-2.328-.09-2.728-.021-.356.064.487.762.563.93,1.378,3.1-4.008-.782-3.345-3.1.077-.265.587-.064.961-.339A4.546,4.546,0,0,0-.1-.046" transform="translate(223.918 117.401)" fill="#fff"/>
      <path id="Path_66592" data-name="Path 66592" d="M0-.078C2.367-3.286,1.208-3.208,2.355-3.4c.122-.017.242.211.436.916.083.275-.022.976.181,1.227.237.283.8,0,1.3.145.459.145.866.735,1.5.879.29.074-1.432.833-1.838,1.487-.362.586.751,1.1-1.273.858C.737,1.882.622-.279,0-.078" transform="translate(250.806 137.309)" fill="#fff"/>
      <path id="Path_66593" data-name="Path 66593" d="M-.072-.008C-.942.521-.8.565-.8,1.577c0,.48-.939.409-.939.933,0,.271-.54,1.052-.336.794A1.38,1.38,0,0,1-.32,2.871c.2.225.414-.1.663-.079.466.023,1.588.4,1.588-.325,0-.416,1.168-.143,1.191-.011.059.386.46.975.751.44.2-.368.4-.49.2-.9-.1-.206-.925-.222-1.082-.2-.849.153-.575-.847-.824-1.4C1.807-.4,1.243.324.761-.069c-.344-.284-.169-.38-.8-.169C-.107-.22-.072,0-.072-.008" transform="translate(217.323 113.887)" fill="#fff"/>
    </g>
  </g>
</svg>
