<svg xmlns="http://www.w3.org/2000/svg" width="132.049" height="48.943" viewBox="0 0 132.049 48.943">
  <g id="figma" transform="translate(-13611.627 -9084.954)">
    <path id="Path_66520" data-name="Path 66520" d="M773.046,322.316a11.024,11.024,0,0,1-4.88-1.051,9.072,9.072,0,0,1-3.383-2.82,7.387,7.387,0,0,1-1.22-4.2,6.7,6.7,0,0,1,2-5.033,11.011,11.011,0,0,1,5.712-2.654l6.488-1.327a4.709,4.709,0,0,0,2.662-1.217,3.611,3.611,0,0,0,.721-2.433l.666,6.47-9.317,1.991a5.911,5.911,0,0,0-2.939,1.382,3.732,3.732,0,0,0-1,2.765,3.563,3.563,0,0,0,1.386,2.931,6.221,6.221,0,0,0,3.882,1.106,7.671,7.671,0,0,0,3.66-.885,6.544,6.544,0,0,0,2.662-2.433,6.766,6.766,0,0,0,1-3.65v-9.678a3.68,3.68,0,0,0-1.442-3.1,5.781,5.781,0,0,0-3.826-1.161,6.745,6.745,0,0,0-4.769,1.549,6.606,6.606,0,0,0-1.941,4.369l-4.88-.664a10.147,10.147,0,0,1,1.775-5.033,9.773,9.773,0,0,1,3.993-3.318,13.956,13.956,0,0,1,5.934-1.161q4.88,0,7.487,2.488a8.475,8.475,0,0,1,2.607,6.415v19.522h-4.825v-3.595a6.619,6.619,0,0,1-2.939,3.152A10.228,10.228,0,0,1,773.046,322.316Z" transform="translate(12957.598 8802.456)" fill="#fff"/>
    <path id="Path_66521" data-name="Path 66521" d="M644.043,321.487v-27.6h4.825v3.1a5.4,5.4,0,0,1,2.44-2.765,8.18,8.18,0,0,1,4.381-1.161,9.711,9.711,0,0,1,4.492,1.05,5.005,5.005,0,0,1,2.662,3.152,5.759,5.759,0,0,1,2.662-3.042,8.66,8.66,0,0,1,4.436-1.161,8.265,8.265,0,0,1,6.433,2.433q2.218,2.433,2.218,7.079v18.914h-4.936v-18.25a6.113,6.113,0,0,0-1.22-4.148A4.165,4.165,0,0,0,669,297.651a4.651,4.651,0,0,0-3.882,1.77,8.1,8.1,0,0,0-1.331,5.033v17.033H658.85v-18.25a6.112,6.112,0,0,0-1.22-4.148,4.164,4.164,0,0,0-3.438-1.438,4.651,4.651,0,0,0-3.882,1.77,8.1,8.1,0,0,0-1.331,5.033v17.033Z" transform="translate(13037.797 8802.456)" fill="#fff"/>
    <path id="Path_66522" data-name="Path 66522" d="M560.1,331.441a13.737,13.737,0,0,1-8.374-2.378,10.615,10.615,0,0,1-4.1-6.636l4.825-1.051a6.945,6.945,0,0,0,2.606,4.2,7.99,7.99,0,0,0,5.047,1.549,6.6,6.6,0,0,0,7.376-7.356V315.4a6.714,6.714,0,0,1-3.106,3.318,9.851,9.851,0,0,1-4.991,1.272,12.286,12.286,0,0,1-6.433-1.659,11.729,11.729,0,0,1-4.326-4.756,16.785,16.785,0,0,1,0-14.1,11.474,11.474,0,0,1,4.27-4.7,12.086,12.086,0,0,1,6.488-1.714,10.158,10.158,0,0,1,5.047,1.272,6.667,6.667,0,0,1,3.161,3.042V293.89h4.825v25.882a12.7,12.7,0,0,1-1.442,6.25,9.491,9.491,0,0,1-4.215,4.037A14.559,14.559,0,0,1,560.1,331.441Zm-.111-15.817a7.033,7.033,0,0,0,5.657-2.489,11.178,11.178,0,0,0,0-13.217,7.736,7.736,0,0,0-11.369,0,9.928,9.928,0,0,0-2.107,6.636,9.675,9.675,0,0,0,2.163,6.581A7.136,7.136,0,0,0,559.987,315.625Z" transform="translate(13102.869 8802.456)" fill="#fff"/>
    <path id="Path_66523" data-name="Path 66523" d="M516.677,299.911V272.346h4.936v27.6Zm-.055-31.1v-7.853h5.046v7.853Z" transform="translate(13123.297 8824)" fill="#fff"/>
    <path id="Path_66524" data-name="Path 66524" d="M430.627,299.943V260.954h5.213v38.989Zm1.054-16.48v-4.7h21.24v4.7Zm0-17.753v-4.756h23.292v4.756Z" transform="translate(13181 8824)" fill="#fff"/>
  </g>
</svg>
