<svg id="framer" xmlns="http://www.w3.org/2000/svg" width="145.852" height="47.4" viewBox="0 0 145.852 47.4">
  <path id="Path_66525" data-name="Path 66525" d="M0,0H31.6V15.8H15.8ZM0,15.8H15.8L31.6,31.6H0ZM0,31.6H15.8V47.4Z" fill="#fff"/>
  <path id="Path_66526" data-name="Path 66526" d="M68.379,17.243H81.152V21.3H73.214v5.641h7.939v3.969H73.214v7.222H68.379Zm15.4,6.506h4.566v3.014a4.037,4.037,0,0,1,3.969-3.253,5.054,5.054,0,0,1,1.193.119v4.238a12.624,12.624,0,0,0-1.373-.09A3.376,3.376,0,0,0,89.3,29a5.666,5.666,0,0,0-.955,3.582v5.551H83.781V23.749Zm16.938,14.774a6.652,6.652,0,0,1-3.641-.985,6.376,6.376,0,0,1-2.328-2.686,9.158,9.158,0,0,1-.807-3.909,8.812,8.812,0,0,1,.837-3.88,6.475,6.475,0,0,1,2.388-2.716,6.687,6.687,0,0,1,3.612-.985,5.546,5.546,0,0,1,2.716.657,4.334,4.334,0,0,1,1.791,1.791v-2.06h4.536V38.134h-4.536V36.1a4.538,4.538,0,0,1-1.851,1.761A5.649,5.649,0,0,1,100.717,38.523Zm1.313-3.791a3.118,3.118,0,0,0,2.537-1.074,4.1,4.1,0,0,0,.9-2.716,4.054,4.054,0,0,0-.9-2.686,3.118,3.118,0,0,0-2.537-1.074,3.233,3.233,0,0,0-2.507,1.045,3.945,3.945,0,0,0-.925,2.716,4.058,4.058,0,0,0,.925,2.746A3.235,3.235,0,0,0,102.03,34.732Zm10.983-10.983h4.566v2.089a3.959,3.959,0,0,1,1.551-1.791,4.779,4.779,0,0,1,2.567-.687q3.4,0,4.506,2.657a4.54,4.54,0,0,1,1.821-1.91,5.223,5.223,0,0,1,2.775-.747q5.1,0,5.1,5.85v8.924h-4.6V30.046a3.487,3.487,0,0,0-.537-2.148,1.924,1.924,0,0,0-1.612-.687,2.135,2.135,0,0,0-1.791.806,4.426,4.426,0,0,0-.627,2.716v7.4h-4.6V30.016a3.342,3.342,0,0,0-.537-2.119,1.836,1.836,0,0,0-1.58-.687,2.169,2.169,0,0,0-1.822.806,4.426,4.426,0,0,0-.627,2.716v7.4h-4.565V23.749ZM153.058,30.2a17.887,17.887,0,0,1-.121,2H142.314a2.809,2.809,0,0,0,.955,2.149,3.666,3.666,0,0,0,2.417.746q2.12,0,2.686-1.284h4.477a4.914,4.914,0,0,1-2.328,3.432,8.673,8.673,0,0,1-4.835,1.284,8.142,8.142,0,0,1-5.82-2,7.361,7.361,0,0,1-2.089-5.581,8.1,8.1,0,0,1,.955-4.029,6.3,6.3,0,0,1,2.716-2.626,8.683,8.683,0,0,1,4.091-.925,8.494,8.494,0,0,1,3.908.866,6.272,6.272,0,0,1,2.656,2.417A6.635,6.635,0,0,1,153.058,30.2Zm-4.509-.836a2.969,2.969,0,0,0-.806-2.179,3.105,3.105,0,0,0-2.238-.746,3.279,3.279,0,0,0-2.328.806,2.847,2.847,0,0,0-.866,2.119Zm6.522-5.611h4.566v3.014a4,4,0,0,1,1.462-2.388,4.037,4.037,0,0,1,2.507-.865,5.058,5.058,0,0,1,1.193.119v4.238a12.625,12.625,0,0,0-1.373-.09A3.376,3.376,0,0,0,160.593,29a5.652,5.652,0,0,0-.955,3.582v5.551h-4.566Z" transform="translate(-18.949 -4.778)" fill="#fff"/>
</svg>
