<svg id="slack" xmlns="http://www.w3.org/2000/svg" width="193.4" height="48.935" viewBox="0 0 193.4 48.935">
  <path id="Path_66531" data-name="Path 66531" d="M159.5,40.292l2.416-5.61a16.1,16.1,0,0,0,9.506,2.961c2.532,0,4.13-.974,4.13-2.455-.039-4.13-15.156-.9-15.273-11.26-.039-5.26,4.636-9.312,11.26-9.312,3.935,0,7.87.974,10.675,3.195l-2.26,5.727a17.053,17.053,0,0,0-8.805-2.805c-2.065,0-3.429.974-3.429,2.221.039,4.052,15.273,1.831,15.428,11.727,0,5.377-4.558,9.156-11.1,9.156A21.328,21.328,0,0,1,159.5,40.292m92.687-7.636a6.974,6.974,0,1,1,0-6.857l6.662-3.7a14.61,14.61,0,1,0,0,14.26l-6.662-3.7ZM186.5,2.5h8.338V43.292H186.5Zm75.622,0V43.292h8.338V31.058l9.9,12.234h10.675L278.447,28.76,290.1,15.2H279.888l-9.428,11.26V2.5ZM219.616,32.733A7.689,7.689,0,0,1,213.11,36.2a6.974,6.974,0,0,1,0-13.948,7.692,7.692,0,0,1,6.506,3.584Zm0-17.532v3.312c-1.364-2.3-4.753-3.9-8.3-3.9-7.325,0-13.091,6.467-13.091,14.571s5.766,14.649,13.091,14.649c3.545,0,6.935-1.6,8.3-3.9v3.312h8.338V15.2Z" transform="translate(-97.631 -1.76)" fill="#fff"/>
  <path id="Path_66532" data-name="Path 66532" d="M11.086,71.943A5.143,5.143,0,1,1,5.943,66.8h5.143Zm2.571,0a5.143,5.143,0,1,1,10.286,0V84.8a5.143,5.143,0,1,1-10.286,0Z" transform="translate(-0.761 -41.008)" fill="#fff"/>
  <path id="Path_66533" data-name="Path 66533" d="M18.739,10.886a5.143,5.143,0,1,1,5.143-5.143v5.143Zm0,2.61a5.143,5.143,0,0,1,0,10.286H5.843a5.143,5.143,0,0,1,0-10.286Z" transform="translate(-0.7 -0.6)" fill="#fff"/>
  <path id="Path_66534" data-name="Path 66534" d="M79.757,18.639A5.143,5.143,0,1,1,84.9,23.782H79.757Zm-2.571,0a5.143,5.143,0,1,1-10.286,0V5.743a5.143,5.143,0,1,1,10.286,0v12.9Z" transform="translate(-41.108 -0.6)" fill="#fff"/>
  <path id="Path_66535" data-name="Path 66535" d="M72.043,79.657A5.143,5.143,0,1,1,66.9,84.8V79.657Zm0-2.571a5.143,5.143,0,0,1,0-10.286h12.9a5.143,5.143,0,0,1,0,10.286Z" transform="translate(-41.108 -41.008)" fill="#fff"/>
</svg>
